<svg viewBox="0 0 1324.8294677734375 400" xmlns="http://www.w3.org/2000/svg"><g><g><g><g><g><line x1="40" y1="357.0550754884623" x2="35" y2="357.0550754884623" style="visibility: inherit;" fill="rgb(0, 0, 0)" stroke="rgb(204, 204, 204)" stroke-width="1px"></line><line x1="40" y1="329.9318243565828" x2="35" y2="329.9318243565828" style="visibility: inherit;" fill="rgb(0, 0, 0)" stroke="rgb(204, 204, 204)" stroke-width="1px"></line><line x1="40" y1="302.8085732247034" x2="35" y2="302.8085732247034" style="visibility: inherit;" fill="rgb(0, 0, 0)" stroke="rgb(204, 204, 204)" stroke-width="1px"></line><line x1="40" y1="275.685322092824" x2="35" y2="275.685322092824" style="visibility: inherit;" fill="rgb(0, 0, 0)" stroke="rgb(204, 204, 204)" stroke-width="1px"></line><line x1="40" y1="248.56207096094454" x2="35" y2="248.56207096094454" style="visibility: inherit;" fill="rgb(0, 0, 0)" stroke="rgb(204, 204, 204)" stroke-width="1px"></line><line x1="40" y1="221.4388198290651" x2="35" y2="221.4388198290651" style="visibility: inherit;" fill="rgb(0, 0, 0)" stroke="rgb(204, 204, 204)" stroke-width="1px"></line><line x1="40" y1="194.31556869718565" x2="35" y2="194.31556869718565" style="visibility: inherit;" fill="rgb(0, 0, 0)" stroke="rgb(204, 204, 204)" stroke-width="1px"></line><line x1="40" y1="167.19231756530624" x2="35" y2="167.19231756530624" style="visibility: inherit;" fill="rgb(0, 0, 0)" stroke="rgb(204, 204, 204)" stroke-width="1px"></line><line x1="40" y1="140.06906643342683" x2="35" y2="140.06906643342683" style="visibility: inherit;" fill="rgb(0, 0, 0)" stroke="rgb(204, 204, 204)" stroke-width="1px"></line><line x1="40" y1="112.94581530154736" x2="35" y2="112.94581530154736" style="visibility: inherit;" fill="rgb(0, 0, 0)" stroke="rgb(204, 204, 204)" stroke-width="1px"></line><line x1="40" y1="85.82256416966794" x2="35" y2="85.82256416966794" style="visibility: inherit;" fill="rgb(0, 0, 0)" stroke="rgb(204, 204, 204)" stroke-width="1px"></line><line x1="40" y1="58.69931303778849" x2="35" y2="58.69931303778849" style="visibility: inherit;" fill="rgb(0, 0, 0)" stroke="rgb(204, 204, 204)" stroke-width="1px"></line><line x1="40" y1="31.57606190590908" x2="35" y2="31.57606190590908" style="visibility: inherit;" fill="rgb(0, 0, 0)" stroke="rgb(204, 204, 204)" stroke-width="1px"></line><line x1="40" y1="4.452810774029626" x2="35" y2="4.452810774029626" style="visibility: inherit;" fill="rgb(0, 0, 0)" stroke="rgb(204, 204, 204)" stroke-width="1px"></line></g><g transform="translate(30, 0)"><text x="0" y="357.0550754884623" dx="0em" dy="0.3em" style="text-anchor: end; visibility: inherit; font-family: Roboto, sans-serif; font-size: 12px; font-weight: 200;" fill="rgb(33, 33, 33)" stroke="none" stroke-width="1px">0</text><text x="0" y="329.9318243565828" dx="0em" dy="0.3em" style="text-anchor: end; visibility: inherit; font-family: Roboto, sans-serif; font-size: 12px; font-weight: 200;" fill="rgb(33, 33, 33)" stroke="none" stroke-width="1px">50</text><text x="0" y="302.8085732247034" dx="0em" dy="0.3em" style="text-anchor: end; visibility: inherit; font-family: Roboto, sans-serif; font-size: 12px; font-weight: 200;" fill="rgb(33, 33, 33)" stroke="none" stroke-width="1px">100</text><text x="0" y="275.685322092824" dx="0em" dy="0.3em" style="text-anchor: end; visibility: inherit; font-family: Roboto, sans-serif; font-size: 12px; font-weight: 200;" fill="rgb(33, 33, 33)" stroke="none" stroke-width="1px">150</text><text x="0" y="248.56207096094454" dx="0em" dy="0.3em" style="text-anchor: end; visibility: inherit; font-family: Roboto, sans-serif; font-size: 12px; font-weight: 200;" fill="rgb(33, 33, 33)" stroke="none" stroke-width="1px">200</text><text x="0" y="221.4388198290651" dx="0em" dy="0.3em" style="text-anchor: end; visibility: inherit; font-family: Roboto, sans-serif; font-size: 12px; font-weight: 200;" fill="rgb(33, 33, 33)" stroke="none" stroke-width="1px">250</text><text x="0" y="194.31556869718565" dx="0em" dy="0.3em" style="text-anchor: end; visibility: inherit; font-family: Roboto, sans-serif; font-size: 12px; font-weight: 200;" fill="rgb(33, 33, 33)" stroke="none" stroke-width="1px">300</text><text x="0" y="167.19231756530624" dx="0em" dy="0.3em" style="text-anchor: end; visibility: inherit; font-family: Roboto, sans-serif; font-size: 12px; font-weight: 200;" fill="rgb(33, 33, 33)" stroke="none" stroke-width="1px">350</text><text x="0" y="140.06906643342683" dx="0em" dy="0.3em" style="text-anchor: end; visibility: inherit; font-family: Roboto, sans-serif; font-size: 12px; font-weight: 200;" fill="rgb(33, 33, 33)" stroke="none" stroke-width="1px">400</text><text x="0" y="112.94581530154736" dx="0em" dy="0.3em" style="text-anchor: end; visibility: inherit; font-family: Roboto, sans-serif; font-size: 12px; font-weight: 200;" fill="rgb(33, 33, 33)" stroke="none" stroke-width="1px">450</text><text x="0" y="85.82256416966794" dx="0em" dy="0.3em" style="text-anchor: end; visibility: inherit; font-family: Roboto, sans-serif; font-size: 12px; font-weight: 200;" fill="rgb(33, 33, 33)" stroke="none" stroke-width="1px">500</text><text x="0" y="58.69931303778849" dx="0em" dy="0.3em" style="text-anchor: end; visibility: inherit; font-family: Roboto, sans-serif; font-size: 12px; font-weight: 200;" fill="rgb(33, 33, 33)" stroke="none" stroke-width="1px">550</text><text x="0" y="31.57606190590908" dx="0em" dy="0.3em" style="text-anchor: end; visibility: inherit; font-family: Roboto, sans-serif; font-size: 12px; font-weight: 200;" fill="rgb(33, 33, 33)" stroke="none" stroke-width="1px">600</text><text x="0" y="4.452810774029626" dx="0em" dy="0.3em" style="text-anchor: end; visibility: hidden; font-family: Roboto, sans-serif; font-size: 12px; font-weight: 200;" fill="rgb(33, 33, 33)" stroke="none" stroke-width="1px">650</text></g><line x1="40" y1="0" x2="40" y2="377" fill="rgb(0, 0, 0)" stroke="rgb(204, 204, 204)" stroke-width="1px"></line></g></g><g transform="translate(40, 0)" clip-path="url(#clip_0)"><clipPath id="clip_0"><rect width="1284" height="376"></rect></clipPath><g><g><g><line x1="3.549738167303076" y1="0" x2="3.549738167303076" y2="377" fill="rgb(0, 0, 0)" stroke="rgb(66, 66, 66)" stroke-width="1px" opacity="0.25"></line><line x1="88.87624317062321" y1="0" x2="88.87624317062321" y2="377" fill="rgb(0, 0, 0)" stroke="rgb(66, 66, 66)" stroke-width="1px" opacity="0.25"></line><line x1="174.20274817394335" y1="0" x2="174.20274817394335" y2="377" fill="rgb(0, 0, 0)" stroke="rgb(66, 66, 66)" stroke-width="1px" opacity="0.25"></line><line x1="259.5292531772635" y1="0" x2="259.5292531772635" y2="377" fill="rgb(0, 0, 0)" stroke="rgb(66, 66, 66)" stroke-width="1px" opacity="0.25"></line><line x1="344.8557581805837" y1="0" x2="344.8557581805837" y2="377" fill="rgb(0, 0, 0)" stroke="rgb(66, 66, 66)" stroke-width="1px" opacity="0.25"></line><line x1="430.18226318390373" y1="0" x2="430.18226318390373" y2="377" fill="rgb(0, 0, 0)" stroke="rgb(66, 66, 66)" stroke-width="1px" opacity="0.25"></line><line x1="515.508768187224" y1="0" x2="515.508768187224" y2="377" fill="rgb(0, 0, 0)" stroke="rgb(66, 66, 66)" stroke-width="1px" opacity="0.25"></line><line x1="600.8352731905441" y1="0" x2="600.8352731905441" y2="377" fill="rgb(0, 0, 0)" stroke="rgb(66, 66, 66)" stroke-width="1px" opacity="0.25"></line><line x1="686.1617781938642" y1="0" x2="686.1617781938642" y2="377" fill="rgb(0, 0, 0)" stroke="rgb(66, 66, 66)" stroke-width="1px" opacity="0.25"></line><line x1="771.4882831971844" y1="0" x2="771.4882831971844" y2="377" fill="rgb(0, 0, 0)" stroke="rgb(66, 66, 66)" stroke-width="1px" opacity="0.25"></line><line x1="856.8147882005045" y1="0" x2="856.8147882005045" y2="377" fill="rgb(0, 0, 0)" stroke="rgb(66, 66, 66)" stroke-width="1px" opacity="0.25"></line><line x1="942.1412932038245" y1="0" x2="942.1412932038245" y2="377" fill="rgb(0, 0, 0)" stroke="rgb(66, 66, 66)" stroke-width="1px" opacity="0.25"></line><line x1="1027.4677982071446" y1="0" x2="1027.4677982071446" y2="377" fill="rgb(0, 0, 0)" stroke="rgb(66, 66, 66)" stroke-width="1px" opacity="0.25"></line><line x1="1112.7943032104647" y1="0" x2="1112.7943032104647" y2="377" fill="rgb(0, 0, 0)" stroke="rgb(66, 66, 66)" stroke-width="1px" opacity="0.25"></line><line x1="1198.1208082137848" y1="0" x2="1198.1208082137848" y2="377" fill="rgb(0, 0, 0)" stroke="rgb(66, 66, 66)" stroke-width="1px" opacity="0.25"></line><line x1="1283.4473132171051" y1="0" x2="1283.4473132171051" y2="377" fill="rgb(0, 0, 0)" stroke="rgb(66, 66, 66)" stroke-width="1px" opacity="0.25"></line></g><g><line x1="0" y1="357.0550754884623" x2="1284.83" y2="357.0550754884623" fill="rgb(0, 0, 0)" stroke="rgb(66, 66, 66)" stroke-width="1px" opacity="0.25"></line><line x1="0" y1="329.9318243565828" x2="1284.83" y2="329.9318243565828" fill="rgb(0, 0, 0)" stroke="rgb(66, 66, 66)" stroke-width="1px" opacity="0.25"></line><line x1="0" y1="302.8085732247034" x2="1284.83" y2="302.8085732247034" fill="rgb(0, 0, 0)" stroke="rgb(66, 66, 66)" stroke-width="1px" opacity="0.25"></line><line x1="0" y1="275.685322092824" x2="1284.83" y2="275.685322092824" fill="rgb(0, 0, 0)" stroke="rgb(66, 66, 66)" stroke-width="1px" opacity="0.25"></line><line x1="0" y1="248.56207096094454" x2="1284.83" y2="248.56207096094454" fill="rgb(0, 0, 0)" stroke="rgb(66, 66, 66)" stroke-width="1px" opacity="0.25"></line><line x1="0" y1="221.4388198290651" x2="1284.83" y2="221.4388198290651" fill="rgb(0, 0, 0)" stroke="rgb(66, 66, 66)" stroke-width="1px" opacity="0.25"></line><line x1="0" y1="194.31556869718565" x2="1284.83" y2="194.31556869718565" fill="rgb(0, 0, 0)" stroke="rgb(66, 66, 66)" stroke-width="1px" opacity="0.25"></line><line x1="0" y1="167.19231756530624" x2="1284.83" y2="167.19231756530624" fill="rgb(0, 0, 0)" stroke="rgb(66, 66, 66)" stroke-width="1px" opacity="0.25"></line><line x1="0" y1="140.06906643342683" x2="1284.83" y2="140.06906643342683" fill="rgb(0, 0, 0)" stroke="rgb(66, 66, 66)" stroke-width="1px" opacity="0.25"></line><line x1="0" y1="112.94581530154736" x2="1284.83" y2="112.94581530154736" fill="rgb(0, 0, 0)" stroke="rgb(66, 66, 66)" stroke-width="1px" opacity="0.25"></line><line x1="0" y1="85.82256416966794" x2="1284.83" y2="85.82256416966794" fill="rgb(0, 0, 0)" stroke="rgb(66, 66, 66)" stroke-width="1px" opacity="0.25"></line><line x1="0" y1="58.69931303778849" x2="1284.83" y2="58.69931303778849" fill="rgb(0, 0, 0)" stroke="rgb(66, 66, 66)" stroke-width="1px" opacity="0.25"></line><line x1="0" y1="31.57606190590908" x2="1284.83" y2="31.57606190590908" fill="rgb(0, 0, 0)" stroke="rgb(66, 66, 66)" stroke-width="1px" opacity="0.25"></line><line x1="0" y1="4.452810774029626" x2="1284.83" y2="4.452810774029626" fill="rgb(0, 0, 0)" stroke="rgb(66, 66, 66)" stroke-width="1px" opacity="0.25"></line></g></g></g><g><g><line x1="0" y1="357.0550754884623" x2="1284.83" y2="357.0550754884623" fill="rgb(0, 0, 0)" stroke="rgb(153, 153, 153)" stroke-width="1.5px"></line></g></g><g><g><line x1="88.87624317062321" y1="0" x2="88.87624317062321" y2="377" fill="rgb(0, 0, 0)" stroke="rgb(153, 153, 153)" stroke-width="1.5px"></line></g></g><g><g><g><g><g><path stroke="rgb(255, 112, 67)" stroke-width="2px" d="M91.43603832072282,356.7786559828375L91.86267084573942,356.7821102930299L93.56920094580583,356.94572950205327L93.99583347082243,356.72706346065024L95.27573104587223,345.30123348284167L95.70236357088882,340.8990854574915L96.98226114593862,337.00009327520576L97.40889367095522,338.5216892051928L97.83552619597182,335.96643733245025L99.54205629603823,334.25679014463464L103.38174902118764,317.1768564304687L104.66164659623745,316.2818917823727L106.36817669630383,306.27114577371805L107.22144174633704,302.59997963029764L108.07470679637024,294.5699436349105L108.50133932138684,289.4828979258351L109.35460437142004,283.5350896175154L110.20786942145325,267.7496438553952L110.63450194646985,260.70239942953197L111.91439952151966,243.4846228500404L112.34103204653626,242.63266736114886L112.76766457155286,238.0538059909456L113.19429709656946,235.34231689105243L113.62092962158606,231.05552214566256L116.18072477168565,197.3642029209352L117.03398982171885,192.2424543827673L117.46062234673545,182.8909255504414L117.88725487175205,186.28047109655347L118.31388739676865,185.60745556218126L119.59378497181847,167.2007273624101L120.02041749683507,171.0836035260332L120.44705002185167,165.228663050988L120.87368254686827,161.56502102722055L123.00684517195127,126.88872914877946L125.14000779703427,138.5322256768491L126.41990537208406,114.91561161650644L126.84653789710066,110.16811560417987L129.40633304720026,90.38481287964726L132.8193932473331,69.84401589117336L134.0992908223829,56.8672354277648L134.5259233473995,56.067543185835746L137.51235102251567,60.923439496265054L138.79224859756548,63.784558421204316L139.6455136475987,57.894323285872744L142.2053087976983,34.29659815957638L142.6319413227149,31.339792960502486L143.0585738477315,31.969468241296042L144.3384714227813,32.53544096449959L144.7651039477979,29.942674029823873L147.75153162291411,26.74188538642519L148.60479667294732,37.74600556853812L149.45806172298052,56.671194448819676L149.88469424799712,53.67773710252531L150.31132677301372,54.13077353469999L153.29775444812992,31.092233696936734L155.43091707321292,39.643242551398195L156.28418212324613,43.71530604042115L156.71081464826273,43.30120630664863L157.13744717327933,51.28409032447446L158.41734474832913,49.75251396844607L159.69724232337893,54.3454220174734L160.55050737341213,53.613902107185616L160.97713989842873,55.46409057947632L162.2570374734785,55.992616528961406L164.81683262357814,49.92004772177528L165.24346514859474,58.24253523918572L166.09673019862794,56.27821853611914L167.37662777367774,64.42929849602254L168.22989282371094,61.34227387958816L168.65652534872754,66.23713999785713L169.50979039876077,66.11897241571637L170.36305544879397,73.45993066090442L170.78968797381054,77.83898485365637L173.77611564892675,75.90771136913177L177.18917584905955,70.19063859149031L177.61580837407615,70.5401087034251L178.04244089909275,69.89798427416285L179.74897099915916,71.2158723211029L182.30876614925876,78.48783049871429L184.01529624932516,83.3089287904185L184.44192877434176,84.56505118185747L185.29519382437496,81.76525093501422L186.14845887440816,83.30225723877899L187.00172392444136,89.81288045770866L188.2816214994912,98.64666046242873L188.70825402450777,85.52679756522328L189.1348865495244,92.70109945717361L190.41478412457417,83.64700925588187L194.68110937474017,91.33432532588753L195.5343744247734,91.09113650806081L198.094169574873,95.2963495996556L199.37406714992278,99.3101735882623L199.8006996749394,98.3665380671635L200.22733219995598,99.62603762121901L200.6539647249726,99.08716497254115L201.50722977500578,96.832014971205L203.21375987507218,111.34070288501613L204.0670249251054,110.35933915998083L204.9202899751386,107.50096831834722L205.7735550251718,100.3130418928998L207.90671765025482,93.92030482589281L208.75998270028802,92.52606641626946L210.46651280035442,100.25147489402322L213.45294047547063,95.0137274418654L213.8795730004872,95.52432463098927L216.01273562557023,90.47185759061615L216.4393681505868,93.11015000174001L216.86600067560343,93.20490921162705L217.71926572563663,96.27511423385366L218.1458982506532,102.08565495332289L218.57253077566983,101.179780745598L220.27906087573623,95.94259615387627L220.70569340075286,96.73329918354668L221.55895845078606,92.79466672731361L222.83885602583584,91.59992923284547L224.54538612590224,98.83536770098605L224.97201865091887,91.5471362348843L225.39865117593547,94.97037063356804L225.82528370095204,93.96099632447809L226.67854875098524,92.32931358441988L227.95844632603507,92.06505060967733L228.38507885105165,88.54901045791416L228.81171137606827,90.30750234327891L230.09160895111805,96.06718696687587L230.51824147613468,98.67400885773505L231.37150652616788,105.69474917894605L233.93130167626748,95.429863406039L234.78456672630068,93.48662085988826L236.06446430135048,88.56455533878137L236.49109682636706,90.74428204168194L237.34436187640026,96.14117000478382L237.77099440141689,94.02834092018396L239.90415702649986,95.18243658022294L240.3307895515165,96.84307352330224L242.0373196515829,92.0200217747904L242.8905847016161,92.91695643441273L244.1704822766659,100.67962958397912L245.8770123767323,97.87592242352072L247.5835424767987,99.06965008014761L248.4368075268319,98.82346485823467L250.1433376268983,107.55583065614694L250.56997015191487,110.37667195046856L250.9966026769315,113.26555313868185L251.8498677269647,115.00398070497201L252.2765002519813,116.40626470788764L253.9830303520477,110.62087060613652L254.4096628770643,110.31788614433495L256.1161929771307,110.73955138455719L256.5428255021473,112.1124507617654L256.9694580271639,111.84335380915999L261.2357832773299,104.47155412301812L263.3689459024129,101.99685544217088L266.3553735775291,103.08786106921205L266.7820061025457,102.67313225612868L268.9151687276287,105.74037398370646L269.3418012526453,98.97710920256756L270.1950663026785,102.48619637247315L271.0483313527117,102.93077334338784L272.75486145277813,114.17064927462742L276.59455417792753,115.91861235889363L277.02118670294414,117.54170319994222L277.44781922796074,119.29345731479265L277.87445175297734,114.80419835959876L279.15434932802714,117.14475415475167L281.71414447812674,137.66942684720357L284.70057215324294,131.1492515555791L285.12720467825955,129.5927934573319L285.55383720327615,127.71371700089502L285.98046972829275,126.04912348004441L286.83373477832595,120.15115729107603L287.26036730334255,118.90404066661443L288.54026487839235,119.91472279848233L288.96689740340895,120.77805137912657L291.10006002849195,131.0959122519006L291.52669255350855,132.5029640138042L293.23322265357496,126.94157181089678L296.21965032869116,131.15872085468033L297.49954790374096,129.17842884806012L297.92618042875756,126.35055179828734L298.77944547879076,127.71375011033243L299.63271052882396,126.48346963479727L300.91260810387377,131.37676305478894L305.60556587905637,127.6964669840008L306.8854634541062,131.10261691297745L307.3120959791228,128.86948468752354L307.7387285041394,129.33313269439032L308.5919935541726,126.74058097105781L309.4452586042058,127.6862030584016L309.8718911292224,128.39217903772226L310.7251561792556,128.77772188172273L312.8583188043386,127.98296294596877L313.28495132935524,125.56008053467889L315.84474647945484,128.60695995824537L316.698011529488,129.59004537402632L317.1246440545046,130.99674948683707L317.5512765795212,133.6075279554676L317.9779091045378,132.66112779634446L318.4045416295544,131.24424253152802L318.831174154571,131.5987783873876L319.6844392046042,128.36948251837302L320.1110717296208,131.84764547373132L320.5377042546374,131.36540651775496L322.6708668797204,138.45272991761126L323.09749940473705,138.15355304111264L323.52413192975365,137.35593013902215L324.3773969797868,137.99778969278512L326.0839270798532,154.74796996499796L326.9371921298864,156.9484562851589L327.7904571799196,159.6670225272999L329.496987279986,150.6890178131921L329.92361980500266,146.124087238782L330.3502523300192,143.8303150786991L332.0567824300856,140.38049380176963L333.763312530152,137.77699940937086L334.1899450551686,138.95273208676173L335.4698426302184,140.6907623398029L336.32310768025167,139.61887741286998L336.7497402052682,138.7482316465566L337.1763727302848,139.41652908609692L337.6030052553014,139.85198440700324L338.02963778031807,140.598949869846L338.4562703053346,141.20970310715583L339.30953535536787,139.63279993130377L339.73616788038447,137.72637507956054L341.8693305054674,137.5518055707802L342.295963030484,136.76707879456356L343.5758606055338,132.20233032205925L344.0024931305504,130.63951521182807L345.2823907056002,135.42066696728884L346.1356557556335,132.3769826044331L347.8421858556999,128.35597386790695L348.695450905733,127.40753747838274L349.5487159557663,130.72664269639048L350.4019810057994,130.91318126679695L351.68187858084923,125.42719580760638L353.38840868091563,124.83658966296471L353.81504120593223,124.6854450811568L354.6683062559655,124.19809071709957L355.9482038310153,121.81081750575149L357.6547339310817,126.07018108224153L359.78789655616464,123.17454556879521L362.7743242312809,132.0382896143775L363.20095675629744,133.94281067346927L364.0542218063307,136.3349178626802L364.4808543313473,134.0012322757913L364.90748685636385,131.16545862519465L365.3341193813805,128.951215333787L365.7607519063971,129.39676903310547L366.1873844314137,131.23934233479034L367.4672820064635,128.0644121620142L369.1738121065299,128.34062764366425L369.60044463154645,129.63858380927942L371.30697473161285,127.3172645972657L372.5868723066627,124.24189450280205L373.4401373566959,123.59958797163395L374.2934024067291,122.75971742739958L375.5732999817789,122.81353681792064L375.9999325067955,124.269888532138L376.42656503181206,124.16378933993572L376.8531975568287,120.5377761917925L377.2798300818453,121.19873989094498L378.13309513187846,120.388369855449L378.5597276568951,121.28373181679402L378.9863601819117,124.529582404517L379.83962523194486,123.81147181638305L380.2662577569615,125.117390801697L380.6928902819781,124.23527261531866L381.11952280699467,121.30858044957539L381.5461553320113,122.90682265784261L381.9727878570279,120.754576787998L382.82605290706107,121.69950357715608L383.2526854320777,123.81345838262807L386.2391131071939,125.02086023690818L387.5190106822437,131.1646474439779L387.9456432072603,132.09335060880173L388.37227573227693,133.1927991423842L389.2255407823101,133.71400790620015L390.50543835735994,136.58587084358118L391.35870340739314,136.9253419054161L392.21196845742634,136.85308055825382L393.91849855749274,143.74654820203446L395.62502865755914,152.42176711096525L396.90492623260894,155.03302566643828L397.3315587576255,153.6125976918182L397.7581912826421,154.34630282497548L398.18482380765874,151.28137875801687L398.61145633267535,146.712574379429L400.7446189577583,135.6375006729318L403.30441410785795,130.5953968864701L404.1576791578911,131.3596454756444L404.58431168290775,130.75741791846946L405.01094420792435,129.7942147198573L405.43757673294095,128.5608550666424L406.29084178297416,124.51850729770106L407.57073935802396,125.28619926836674L407.99737188304056,126.69247295849112L409.27726945809036,130.12636859602307L409.70390198310696,130.1043839295783L410.13053450812356,131.08751900951538L410.98379955815676,134.82433288997404L411.83706460818996,134.09973285210637L414.39685975828957,134.2538572832818L415.67675733333937,131.55916294551835L416.10338985835597,130.1782841938927L417.38328743340577,130.2656931086732L417.80991995842237,130.28165185750805L418.23655248343897,129.90658815045006L419.08981753347217,128.36544316700818L419.5164500584888,127.7560308619137L419.9430825835054,127.89403099706712L422.0762452085883,129.8282512215218L423.7827753086548,131.2231518198935L424.2094078336714,133.26981169381577L425.06267288370464,136.2290007723837L425.9159379337378,135.9790245198865L426.76920298377104,137.79991114006333L427.1958355087876,138.42397437121474L427.6224680338042,139.35819025736842L428.0491005588208,139.52625376169635L428.4757330838373,138.07463669702958L428.902365608854,137.63813842884463L429.7556306588872,139.95240533068855L430.6088957089204,141.0520525208955L431.4621607589536,137.57592579593836L432.7420583340034,134.89369716136235L433.5953233840366,135.5612827479982L434.0219559090532,134.96716700299032L434.4485884340698,133.8178722113768L436.1551185341362,131.76070009107468L437.0083835841694,133.34255312782057L437.435016109186,133.8192959171857L438.28828115921914,133.17607887648867L439.568178734269,131.21780464575068L431.035528233937,139.6751800111973L432.3154258089868,135.96278434083354L433.5953233840366,135.02014210285728L434.0219559090532,134.20987139567353L434.87522095908645,133.44123580604148L435.7284860091196,134.4110443374183L436.58175105915285,137.59415254123635L438.7149136842358,137.85242270780645L439.568178734269,138.67035824975218L439.99481125928554,139.5590155500203L440.4214437843022,140.4933969833611L440.8480763093188,141.04678812034626L442.1279738843686,140.94954570265298L444.68776903446826,145.67719260724812L445.5410340845014,147.81660857009368L445.967666609518,148.5943327002967L446.39429913453466,149.15840163084874L447.2475641845678,152.19923858208662L448.9540942846342,154.10364375814746L449.8073593346674,154.99398963972382L450.233991859684,155.8149878046306L451.9405219597504,157.0627169536844L452.367154484767,156.6591294662918L452.79378700978367,156.38410592438876L453.2204195348002,156.51386180962538L454.5003171098501,160.14308657319802L454.9269496348666,161.3966595379559L455.3535821598832,162.26790127414276L456.2068472099165,163.36466794329445L457.4867447849662,166.22959445353663L458.3400098349994,169.8323482218945L458.766642360016,170.59795429800292L459.6199074100492,170.4587787778212L460.0465399350658,170.42181209094528L461.3264375101156,171.63303808524705L462.6063350851655,174.46169320679905L463.032967610182,175.03306276830153L466.0193952852983,178.57186565828877L466.44602781031483,179.05145585927175L466.87266033533143,179.82307129827134L467.2992928603481,180.91025278529088L467.7259253853647,181.9058866778528L468.15255791038123,182.86063041520498L468.57919043539783,183.98161663782707L469.43245548543103,185.5833518917418L469.85908801044764,185.7464986446133L470.28572053546424,185.7722412322049L471.56561811051404,185.39987594429638L471.99225063553064,186.11785409468064L472.4188831605473,187.554389810604L472.84551568556384,188.70428057209102L473.69878073559704,187.24072755523554L476.25857588569664,178.94719424084613L476.68520841071324,179.11880045497765L477.96510598576305,176.31221277346395L480.95153366087925,177.6984386992324L482.2314312359291,176.22263519053266L485.2178589110453,175.80338693924188L485.6444914360619,175.47527241444095L486.07112396107846,175.67993840183317L486.9243890111117,177.61647628690702L487.3510215361283,178.40562317301882L487.77765406114486,178.19633841910692L489.05755163619466,178.8024728898971L489.48418416121126,179.33083329219514L490.3374492112445,180.1684855041226L491.19071426127766,180.84744418251114L491.61734678629426,182.2930684390054L493.3238768863607,183.47245970923086L493.7505094113773,182.62240801299077L495.4570395114437,183.8702364903568L495.88367203646027,183.86305174243736L496.31030456147687,183.76137266013023L496.7369370864935,183.87887805352264L498.01683466154327,184.23131146010624L498.44346718655993,185.18905160154458L498.8700997115765,186.25696339598753L500.14999728662633,185.74356845940193L500.5766298116429,185.93893069487999L503.9896900117757,194.76939975585836L505.26958758682554,193.9135042439142L505.6962201118421,194.79553965669896L506.54948516187534,196.82789625365714L507.4027502119085,198.32245625865355L507.8293827369251,198.20754995609835L509.1092803119749,199.43955212237915L509.5359128369915,199.96766420389656L510.3891778870247,200.54113621467505L510.8158104120413,200.57672885989814L511.24244293705794,200.33559282719128L511.66907546207455,199.8928368753345L512.9489730371243,200.91366704977068L516.3620332372572,201.8408968446294L517.2152982872904,199.67747653965662L518.0685633373236,200.19155021970928L518.9218283873568,201.44293796159766L519.3484609123733,201.2101951712759L519.77509343739,200.161702061878L520.6283584874232,199.71464188315701L521.4816235374564,198.1206707923166L521.9082560624729,198.6471108472444L522.3348885874896,198.9528930565077L523.6147861625393,197.21453170909234L524.4680512125725,199.52360042926188L527.4544788876888,196.08359610052648L527.8811114127053,196.44351223996634L529.1610089877552,196.65428691856195L530.0142740377883,195.61243225136604L532.574069187888,198.97434797195382L533.0007017129046,199.79208485727506L533.8539667629377,200.00929932144825L534.707231812971,200.1497495549705L536.4137619130374,200.51011267181548L538.1202920131038,200.46569636152077L538.9735570631369,200.96516877967255L539.8268221131701,202.91574506621114L541.10671968822,204.28389323915002L541.5333522132365,205.6747213767194L541.9599847382532,206.2545669542006L542.3866172632697,206.4447144532856L544.9464124133693,206.30070495524103L545.373044938386,205.946649186224L547.9328400884856,207.7910931711229L548.7861051385188,210.71614641971405L549.639370188552,210.61435145437594L550.0660027135685,210.4986505253228L550.4926352385852,210.0785910928153L554.3323279637347,211.64936902274525L555.1855930137677,210.57106086495344L556.4654905888176,211.92118094921884L558.172020688884,212.71435063197674L559.0252857389172,210.77887224890026L559.4519182639337,209.47397965614627L559.8785507889504,208.31804642233067L561.1584483640002,207.39495530714905L561.5850808890168,206.39985116558577L562.43834593905,207.14393610737324L562.8649784640666,208.3354288769745L563.2916109890832,208.07499004225363L564.571508564133,207.75117974431686L564.9981410891496,206.29866872483987L569.2644663393156,205.80719223582423L570.1177313893488,205.55114040156104L570.5443639143655,204.36017738295843L571.8242614894152,204.42056899680676L572.2508940144319,204.30157367873065L572.6775265394484,204.617172836188L573.9574241144983,206.58124121847393L574.3840566395148,207.6500966318832L574.8106891645314,209.36564557691833L581.2101770397804,206.66335262326774L582.4900746148302,209.29957569455308L583.3433396648635,210.63420056210734L583.76997218988,210.81519330174655L584.6232372399132,209.5517040604823L585.0498697649299,209.39589104799865L586.3297673399796,211.5047966642646L587.6096649150294,213.39299477070983L588.036297440046,212.39469556843582L588.4629299650627,212.43985684107244L588.8895624900792,212.48303154746398L589.7428275401124,213.30230802162512L590.5960925901456,214.6827397958456L591.4493576401788,215.516253328096L592.302622690212,216.31824667592554L592.7292552152286,217.1542268612634L593.5825202652619,217.97792344531973L594.435785315295,217.9875251821706L595.2890503653283,218.90923397834007L595.7156828903449,220.0313955859905L596.1423154153614,220.44821029363118L596.568947940378,220.36647137000836L596.9955804653947,219.74636471662825L603.3950683406437,222.4252492980252L605.1015984407101,223.2762611679503L606.8081285407765,224.21235601467745L607.234761065793,225.65416440850942L607.6613935908097,226.0851168459271L608.5146586408429,228.27299674779155L609.7945562158927,230.5606271072336L611.0744537909425,234.08637660151928L611.9277188409757,235.8513082724616L612.7809838910089,237.64251228199424L613.2076164160255,237.67110228120367L614.0608814660586,237.96090918691328L615.767411566125,244.09881946884158L616.1940440911417,245.50657480629036L616.6206766161583,245.99130524743234L617.4739416661915,245.6165064158736L617.9005741912081,247.09500834372287L619.1804717662579,251.89994922996763L619.6071042912745,252.8260533039542L620.033736816291,253.41914265640216L620.4603693413077,253.80610092885217L620.8870018663243,254.73521796164368L621.3136343913409,256.0765888770717L623.4467970164238,262.90373004034706L623.8734295414405,263.55168173059474L624.7266945914737,264.5449979625375L626.4332246915401,266.3932247006613L626.8598572165566,266.84392691749804L627.71312226659,269.51074310895655L629.4196523666564,273.4851585896779L630.2729174166894,274.7575294375292L631.9794475167558,277.98372957414523L632.4060800417725,278.66468309613816L632.8327125667892,278.8244609637525L633.2593450918057,278.74018916816726L634.1126101418389,280.5427166052964L635.3925077168888,282.72567147834513L635.8191402419053,283.6373315602586L636.6724052919385,285.03910236689427L637.0990378169552,286.0489484854674L637.5256703419717,286.86813390867565L640.0854654920713,289.4811720964098L640.9387305421045,291.2398626383991L641.365363067121,291.8026568556106L642.2186281171544,293.43233647470515L642.6452606421709,294.2941751306656L643.9251582172208,298.0475933939888L644.3517907422373,298.4900472222291L646.4849533673203,297.1184556677989L646.9115858923369,295.8230778996226L647.3382184173536,293.7034034388368L648.6181159924034,290.36365448659967L649.4713810424365,288.91520765056566L649.8980135674531,288.57019489664305L650.3246460924697,288.20561446520713L650.7512786174864,287.6506754620228L651.1779111425029,287.11095852269074L651.6045436675196,286.76664520563367L652.8844412425693,285.9461271275694L654.1643388176192,285.8174390216895L656.2975014427021,284.9605833360602L656.7241339677188,285.5761374417955L657.1507664927353,286.3068544482259L657.577399017752,287.0730813262859L659.2839291178183,286.9813267978445L660.9904592178848,287.6423649932311L661.8437242679179,288.04997113859025L662.2703567929345,288.1071925238059L663.9768868930009,288.50340074533426L665.6834169930673,290.951727759279L668.6698446681835,292.0184600300139L669.5231097182168,292.73057780997544L670.8030072932667,292.73225811392433L671.6562723432997,292.8082649661944L672.0829048683163,293.47953397774285L672.9361699183496,294.8471482610034L673.3628024433661,295.49928415640454L673.7894349683828,296.081985422863L674.642700018416,296.49293976008084L675.0693325434326,296.3794571633346L676.3492301184824,296.82243660389395L683.6019830437646,301.23965770062813L684.0286155687812,301.4452880003852L684.4552480937979,302.1663080803321L684.8818806188143,302.96447728813996L686.5884107188808,305.0167988758605L687.8683082939307,301.536678325015L688.2949408189471,300.116018584333L689.574838393997,299.5612451283357L690.0014709190136,299.0341718554173L690.4281034440303,298.38229255815605L692.1346335440966,296.86986173431393L692.5612660691132,296.917348944929L692.9878985941298,296.8897687835608L693.8411636441631,296.60765982205055L694.2677961691796,296.5169772116455L694.6944286941962,296.2619186605048L695.5476937442294,296.09945065110037L696.4009587942626,296.75571281013964L698.9607539443622,297.9562444561558L699.8140189943954,298.77218929317684L701.9471816194784,300.05789082826806L702.373814144495,299.9447972674115L706.2135068696444,300.8867110977646L706.6401393946611,301.1277436634795L711.3330971698435,302.0498290794996L713.03962726991,301.87758137001816L713.4662597949267,302.21420088155554L714.7461573699763,303.638750981134L715.172789894993,303.85837829555896L716.4526874700429,303.6839288084893L717.3059525200761,304.55481461822393L717.7325850450926,304.79432001113804L718.1592175701093,305.000194492996L721.1456452452254,306.1093606464603L721.5722777702421,306.27705994697664L721.9989102952586,306.5749331393769L722.4255428202753,306.949202219937L723.2788078703085,307.3191794896718L723.7054403953251,307.47824964306136L724.5587054453582,307.94408701147734L724.9853379703749,308.03003911101143L725.4119704953914,308.03212086688904L725.8386030204081,308.0198207108887L727.971765645491,309.63644693428165L728.8250306955242,309.6980263491973L730.9581933206072,307.6041151694015L731.3848258456238,307.4217359720705L732.6647234206737,309.2664448324687L735.6511510957898,312.40221895681975L736.5044161458231,313.8976687779467L740.770741395989,319.364508704951L741.6240064460222,320.5394840039609L742.0506389710389,321.0419859356364L742.9039040210721,321.8543259826587L743.3305365460888,322.4915171057459L744.1838015961218,323.83497598507097L744.6104341211385,324.3592846199651L747.170229271238,327.1046012181991L747.5968617962546,327.4544438113048L750.1566569463544,329.9932961658269L750.5832894713708,330.275636893399L754.4229821965203,332.66415584732994L754.8496147215369,332.9682536139646L756.1295122965868,333.95830649698195L756.9827773466199,334.71531446606116L758.6893074466864,335.4792567929394L761.2491025967859,336.8917426412591L762.1023676468192,337.28138070880004L762.5290001718357,337.42092664081287L763.3822652218688,337.70438895057754L764.6621627969187,338.60708879099L765.515427846952,339.0292465340939L765.9420603719685,339.1235877373335L767.6485904720349,339.56435919228505L768.0752229970515,339.7436467958973L768.9284880470848,340.11710055656096L769.3551205721013,340.1298249272282L769.781753097118,340.12697337693066L770.2083856221345,340.30676589946347L771.4882831971844,341.10958491388857L771.9149157222009,341.01488157617723L772.3415482472176,340.27551679856145L774.0480783472839,337.6624930962062L774.9013433973172,337.2852545129779L775.3279759223337,337.2457694395184L775.7546084473504,337.1319019455622L776.6078734973835,337.25023921356967L777.4611385474167,337.65929389681577L778.31440359745,337.57355286994516L779.5943011724999,337.1109022848806L780.0209336975163,337.1073181882802L780.8741987475495,337.15057359892546L781.3008312725661,337.08503760623853L781.7274637975828,337.08427815851775L783.0073613726324,337.3139831579565L783.8606264226657,337.49973124054463L784.2872589476823,337.52550072955415L785.5671565227321,337.7354559495737L785.9937890477488,337.82535634951984L787.2736866227986,338.10121383537773L788.5535841978484,338.41087398749846L788.9802167228651,338.49643084312345L789.4068492478816,338.54034223449753L789.8334817728982,338.5825008950284L791.113379347948,338.9891199652845L792.8199094480143,339.41354777419116L793.6731744980475,339.71041837143974L794.0998070230642,339.83199312162463L794.5264395480808,339.8908503199827L795.8063371231307,340.22614338468355L796.2329696481471,340.277304708182L797.0862346981803,340.4294053249953L798.7927647982468,340.79396506303283L799.2193973232635,340.83899596725956L799.6460298482799,340.90826815302506L800.9259274233298,341.16951092627323L802.632457523396,341.43857063076155L803.0590900484127,341.64391018827126L803.9123550984459,341.8598147603266L804.3389876234626,341.8815676607095L804.7656201484792,341.87939588854897L805.1922526734958,341.96179389691036L806.045517723529,342.14274421508287L807.3254152985788,342.53306413010057L807.7520478235954,342.58221715928573L808.178680348612,342.5749568804622L808.6053128736287,342.5649588650322L810.311842973695,343.0047266901621L810.7384754987116,343.1091476477553L812.8716381237946,343.3551197276649L813.7249031738278,343.5910296426095L814.1515356988444,343.7375989140344L814.578168223861,343.6222352873749L816.2846983239274,341.5884094591313L817.5645958989772,341.54682917908536L818.4178609490104,341.09701263969947L819.6977585240602,341.09148232898093L820.1243910490767,341.12175056279943L820.5510235740934,341.08555780902316L820.97765609911,340.99161598837236L821.4042886241266,340.95742014754023L822.2575536741598,341.0340343510529L823.110818724193,341.1471899921047L824.3907162992429,341.17250008767L824.8173488242595,341.20558158899905L825.6706138742926,341.29899779733086L826.0972463993091,341.34075707527285L826.5238789243258,341.3748204783553L827.8037764993757,341.45431002957355L828.6570415494089,341.54831703442926L829.0836740744254,341.57074764360925L829.510306599442,341.606139562868L829.9369391244586,341.7022407396404L832.9233667995748,341.95171414255674L833.3499993245914,342.0750499009443L834.6298968996413,342.2366881050735L836.7630595247242,342.5583597402871L838.4695896247907,342.6905419264844L839.3228546748238,342.83981168639855L841.0293847748903,343.0708979701795L841.4560172999069,343.16079733545564L842.30928234994,343.33418318184835L844.0158124500065,343.54845607944105L844.4424449750231,343.6453808534691L844.8690775000397,343.7339082464323L845.7223425500728,343.9039314155873L846.1489750750894,344.0137067900128L846.5756076001061,344.0943230967732L848.2821377001725,344.38749578373023L849.9886678002389,344.60689650544293L850.8419328502721,344.7613178868852L851.2685653752887,344.7986549855922L852.1218304253218,344.79131193317505L853.8283605253882,345.00363137396016L854.6816255754215,345.2106853795261L855.108258100438,345.22501038455846L856.3881556754878,345.2560463434571L857.6680532505377,344.57164633596307L859.3745833506041,343.29377104414124L860.2278484006373,343.68512459440836L861.9343785007036,343.4699194592184L863.6409086007701,343.2471146734713L864.0675411257868,343.2358171126227L864.4941736508033,343.23631582352385L866.2007037508697,343.3553132109398L866.6273362758863,343.35481036135906L867.9072338509361,343.30648920678897L868.3338663759527,343.29939654449237L868.7604989009692,343.31614371180575L869.6137639510025,343.4331969544434L870.040396476019,343.51692037497145L871.3202940510689,343.7017600173705L871.7469265760855,343.71703484938877L872.6001916261187,343.78957245341945L873.4534566761519,343.8303674189967L873.8800892011684,343.89617346053257L874.3067217261851,343.980108988394L877.2931494013012,344.01707774460976L878.1464144513344,344.217732316725L878.5730469763511,344.33385435643527L881.1328421264507,344.4340228206603L881.5594746514672,344.48293477175423L881.9861071764839,344.54687426875574L882.4127397015003,344.6087123511512L882.839372226517,344.6735758083907L883.6926372765502,344.64508720683335L884.9725348516,344.74662764337126L887.9589625267163,345.0751767295383L888.3855950517328,345.05657543372956L888.8122275767494,345.0928188863319L890.9453902018324,345.3622469333115L892.6519203018988,345.4349190444317L893.9318178769487,345.6759774768946L894.3584504019652,345.7435424572933L895.638347977015,345.74152692029054L896.0649805020316,345.76958199515167L899.904673227181,345.9009540348022L900.3313057521976,345.39025648269615L900.7579382772143,344.9843678894031L902.0378358522639,345.5248732472136L902.4644683772806,345.7422573972535L902.8911009022972,345.843932340881L903.3177334273138,345.8870304816985L905.0242635273803,346.3669600544151L905.4508960523968,346.4715879459921L905.8775285774134,346.57785061604164L907.1574261524632,346.9550933379497L908.0106912024966,347.2536535511764L908.8639562525296,347.42877660836353L909.7172213025628,347.65069261264995L910.1438538275795,347.78356181967365L910.570486352596,347.9420266911604L911.4237514026294,348.1713540360786L911.8503839276458,348.27313037735814L913.9835465527289,348.7358839120797L915.2634441277786,349.02630230771166L916.1167091778118,349.15595679529616L917.3966067528617,349.40587407160797L918.6765043279114,349.6990136491276L919.1031368529281,349.7476529646978L919.9564019029613,349.857508526042L920.8096669529945,349.95184817727676L923.3694621030941,350.3324825471802L923.7960946281107,350.36026705585743L924.6493596781439,350.49141819348023L925.502624728177,350.6177715666873L927.6357873532602,350.78802494989935L929.3423174533265,350.9572038284002L929.7689499783431,350.9813323309178L930.1955825033597,351.03304202947345L930.6222150283763,351.06977022493294L935.7418053285754,351.4674756138345L936.5950703786087,351.4899993433072L937.4483354286419,351.5898175717645L938.301600478675,351.64912640354237L938.7282330036917,351.64702654094117L942.9945582538577,349.5574552841218L943.4211907788743,350.07236032145454L943.847823303891,350.81934078701113L944.2744558289075,351.4092852602394L944.7010883539241,351.55541065826895L945.1277208789406,351.4122268268199L945.5543534039573,351.44532953888233L946.4076184539905,351.817923488843L946.8342509790072,351.8297135525732L947.2608835040238,351.8893286466471L948.1141485540569,352.05038019293204L950.24731117914,352.4528554101615L951.5272087541897,352.6096110069416L952.3804738042229,352.7302550715341L952.8071063292396,352.7844722926392L953.6603713792728,352.8629773554293L954.9402689543225,353.0078782216093L956.2201665293724,353.11970224247494L957.0734315794056,353.1868091227668L958.3533291544553,353.28872333381315L958.779961679472,353.30862314037057L959.6332267295052,353.3692765257085L960.0598592545218,353.415925653689L961.3397568295715,353.4672212256095L962.1930218796048,353.5262988086603L962.6196544046213,353.5603350516573L966.0327146047541,353.72577618507484L966.4593471297708,353.70516116293567L967.312612179804,353.73431738525846L969.4457748048869,353.8376074486299L971.5789374299699,353.9108150014333L972.0055699549865,353.9321762792518L972.4322024800032,353.92562707733026L973.2854675300364,353.9716455739949L973.712100055053,353.97216601296435L974.5653651050861,353.99367964592835L975.4186301551193,354.0074490332141L976.6985277301692,354.09848524206404L977.1251602551858,354.06204028749494L978.8316903552521,354.120275390564L980.9648529803351,354.1810919950817L981.8181180303684,354.20732682688737L984.3779131804679,354.2604237591373L984.8045457054845,354.2927256366822L985.2311782305012,353.51266884314623L985.6578107555177,350.43131576987435L986.0844432805344,349.2513176657412L987.3643408555841,351.2671479974138L988.2176059056173,352.27426000072523L989.4975034806672,352.87670664925565L989.9241360056839,352.8330112452272L991.2040335807336,352.88258848907924L992.0572986307668,353.02039307161795L992.9105636808,353.07953894288346L993.3371962058167,353.10992875041745L993.7638287308331,353.1442896211017L995.4703588308996,353.23969058500614L997.1768889309659,353.3038918534972L997.6035214559826,353.32729298306145L998.0301539809992,353.35463077300113L999.7366840810656,353.4316800552149L1000.1633166060822,353.4421832482329L1001.0165816561154,353.4788193580696L1001.443214181132,353.49549177048135L1002.2964792311652,353.52845738877943L1002.7231117561819,353.5455879012979L1003.1497442811984,353.55806627919185L1004.0030093312315,353.60382843638405L1004.4296418562482,353.6075103092918L1004.8562743812648,353.625016406991L1005.2829069062814,353.6482069812267L1006.5628044813312,353.6920319776625L1007.4160695313644,353.72535300507786L1007.842702056381,353.7377219666278L1010.4024972064806,353.83433633968014L1010.8291297314972,353.854801334681L1011.2557622565138,353.8494678699146L1012.9622923565803,353.9023819242563L1013.8155574066134,353.9282078027764L1014.6688224566466,353.9563112484563L1016.3753525567131,353.9972761585678L1019.3617802318292,354.07873856665464L1020.641677806879,354.10840074256794L1021.4949428569122,354.1248876903967L1022.3482079069455,354.15011552970344L1022.774840431962,354.1542565373878L1023.6281054819952,354.18074641532866L1024.4813705320284,354.20508211049753L1025.3346355820618,354.22174676288483L1025.7612681070782,354.23258518895676L1026.1879006320949,354.24138453928526L1027.4677982071446,354.27375599838217L1027.8944307321613,353.8495728889114L1028.321063257178,351.8198350415189L1028.7476957821946,352.359704077329L1030.027593357244,354.02134516756496L1031.307490932294,354.17452908378374L1033.0140210323605,354.45269388356166L1035.5738161824602,354.89751193256757L1036.0004487074768,354.97868256373727L1037.2803462825264,355.2803479507254L1037.706978807543,355.38747392348887L1038.5602438575763,355.6356903317871L1039.4135089076094,355.9232498050983L1039.840141432626,356.049969839458L1028.321063257178,355.9100346128881L1028.7476957821946,356.65237684719716L1029.6009608322277,357.01580679843306L1030.027593357244,357.034128866739L1030.4542258822607,357.0417429036538L1030.8808584072774,357.0487582299313L1031.7341234573107,357.0508640092985L1032.5873885073438,357.05276637018505L1033.0140210323605,357.0525865980548L1034.7205511324269,357.05353152399925L1035.1471836574435,357.05358400343766L1036.0004487074768,357.05381750211706L1037.2803462825264,357.0539113398078L1038.1336113325597,357.05407631806537L1039.4135089076094,357.0542699518297L1029.6009608322277,354.82358994018483L1032.1607559823274,354.6990418073194L1033.8672860823935,354.65087300789503L1035.1471836574435,354.6161774214919L1037.2803462825264,354.58813476266977L1038.1336113325597,354.5815459846238L1039.4135089076094,354.57179525530455L1041.9733040577091,354.53897862947485L1042.3999365827258,354.56309031860616L1043.2532016327589,354.5471147563851L1044.5330992078086,354.536945244416L1044.9597317328253,354.53503343307267L1045.8129967828586,354.5283429987071L1046.239629307875,354.53076386765076L1046.6662618328917,354.52519889548995L1050.5059545580411,354.4941500032173L1050.9325870830578,354.5276898633206L1051.3592196080742,354.5089556124272L1051.7858521330909,354.5191315910833L1052.639117183124,354.5153516832007L1053.4923822331573,354.51548049960564L1054.772279808207,354.5132122444751L1055.1989123332237,354.500069608493L1056.90544243329,354.4982992882611L1057.7587074833234,354.49345780904133L1058.1853400083398,354.5070875158879L1058.6119725333565,354.500466921742L1059.0386050583732,354.5089478524028L1062.4516652585057,354.5019700384672L1066.2913579836552,354.5026865473863L1067.1446230336885,354.49584013653043L1067.5712555587052,354.48398954461004L1068.4245206087382,354.49274388679703L1070.5576832338213,354.48008625233956L1071.8375808088713,354.49698474012865L1072.2642133338877,354.48674512927255L1072.6908458589044,354.48207592259433" style="fill: none;" fill="none"></path></g></g></g></g></g></g><g transform="translate(40, 377)" clip-path="url(#clip_1)"><clipPath id="clip_1"><rect width="1284" height="22"></rect></clipPath><g><g><line x1="3.549738167303076" y1="0" x2="3.549738167303076" y2="5" style="visibility: inherit;" fill="rgb(0, 0, 0)" stroke="rgb(204, 204, 204)" stroke-width="1px"></line><line x1="88.87624317062321" y1="0" x2="88.87624317062321" y2="5" style="visibility: inherit;" fill="rgb(0, 0, 0)" stroke="rgb(204, 204, 204)" stroke-width="1px"></line><line x1="174.20274817394335" y1="0" x2="174.20274817394335" y2="5" style="visibility: inherit;" fill="rgb(0, 0, 0)" stroke="rgb(204, 204, 204)" stroke-width="1px"></line><line x1="259.5292531772635" y1="0" x2="259.5292531772635" y2="5" style="visibility: inherit;" fill="rgb(0, 0, 0)" stroke="rgb(204, 204, 204)" stroke-width="1px"></line><line x1="344.8557581805837" y1="0" x2="344.8557581805837" y2="5" style="visibility: inherit;" fill="rgb(0, 0, 0)" stroke="rgb(204, 204, 204)" stroke-width="1px"></line><line x1="430.18226318390373" y1="0" x2="430.18226318390373" y2="5" style="visibility: inherit;" fill="rgb(0, 0, 0)" stroke="rgb(204, 204, 204)" stroke-width="1px"></line><line x1="515.508768187224" y1="0" x2="515.508768187224" y2="5" style="visibility: inherit;" fill="rgb(0, 0, 0)" stroke="rgb(204, 204, 204)" stroke-width="1px"></line><line x1="600.8352731905441" y1="0" x2="600.8352731905441" y2="5" style="visibility: inherit;" fill="rgb(0, 0, 0)" stroke="rgb(204, 204, 204)" stroke-width="1px"></line><line x1="686.1617781938642" y1="0" x2="686.1617781938642" y2="5" style="visibility: inherit;" fill="rgb(0, 0, 0)" stroke="rgb(204, 204, 204)" stroke-width="1px"></line><line x1="771.4882831971844" y1="0" x2="771.4882831971844" y2="5" style="visibility: inherit;" fill="rgb(0, 0, 0)" stroke="rgb(204, 204, 204)" stroke-width="1px"></line><line x1="856.8147882005045" y1="0" x2="856.8147882005045" y2="5" style="visibility: inherit;" fill="rgb(0, 0, 0)" stroke="rgb(204, 204, 204)" stroke-width="1px"></line><line x1="942.1412932038245" y1="0" x2="942.1412932038245" y2="5" style="visibility: inherit;" fill="rgb(0, 0, 0)" stroke="rgb(204, 204, 204)" stroke-width="1px"></line><line x1="1027.4677982071446" y1="0" x2="1027.4677982071446" y2="5" style="visibility: inherit;" fill="rgb(0, 0, 0)" stroke="rgb(204, 204, 204)" stroke-width="1px"></line><line x1="1112.7943032104647" y1="0" x2="1112.7943032104647" y2="5" style="visibility: inherit;" fill="rgb(0, 0, 0)" stroke="rgb(204, 204, 204)" stroke-width="1px"></line><line x1="1198.1208082137848" y1="0" x2="1198.1208082137848" y2="5" style="visibility: inherit;" fill="rgb(0, 0, 0)" stroke="rgb(204, 204, 204)" stroke-width="1px"></line><line x1="1283.4473132171051" y1="0" x2="1283.4473132171051" y2="5" style="visibility: inherit;" fill="rgb(0, 0, 0)" stroke="rgb(204, 204, 204)" stroke-width="1px"></line></g><g transform="translate(0, 8)"><text x="3.549738167303076" y="0" dx="0em" dy="0.95em" style="text-anchor: middle; visibility: hidden; font-family: Roboto, sans-serif; font-size: 12px; font-weight: 200;" fill="rgb(33, 33, 33)" stroke="none" stroke-width="1px">-200</text><text x="88.87624317062321" y="0" dx="0em" dy="0.95em" style="text-anchor: middle; visibility: inherit; font-family: Roboto, sans-serif; font-size: 12px; font-weight: 200;" fill="rgb(33, 33, 33)" stroke="none" stroke-width="1px">0</text><text x="174.20274817394335" y="0" dx="0em" dy="0.95em" style="text-anchor: middle; visibility: inherit; font-family: Roboto, sans-serif; font-size: 12px; font-weight: 200;" fill="rgb(33, 33, 33)" stroke="none" stroke-width="1px">200</text><text x="259.5292531772635" y="0" dx="0em" dy="0.95em" style="text-anchor: middle; visibility: inherit; font-family: Roboto, sans-serif; font-size: 12px; font-weight: 200;" fill="rgb(33, 33, 33)" stroke="none" stroke-width="1px">400</text><text x="344.8557581805837" y="0" dx="0em" dy="0.95em" style="text-anchor: middle; visibility: inherit; font-family: Roboto, sans-serif; font-size: 12px; font-weight: 200;" fill="rgb(33, 33, 33)" stroke="none" stroke-width="1px">600</text><text x="430.18226318390373" y="0" dx="0em" dy="0.95em" style="text-anchor: middle; visibility: inherit; font-family: Roboto, sans-serif; font-size: 12px; font-weight: 200;" fill="rgb(33, 33, 33)" stroke="none" stroke-width="1px">800</text><text x="515.508768187224" y="0" dx="0em" dy="0.95em" style="text-anchor: middle; visibility: inherit; font-family: Roboto, sans-serif; font-size: 12px; font-weight: 200;" fill="rgb(33, 33, 33)" stroke="none" stroke-width="1px">1k</text><text x="600.8352731905441" y="0" dx="0em" dy="0.95em" style="text-anchor: middle; visibility: inherit; font-family: Roboto, sans-serif; font-size: 12px; font-weight: 200;" fill="rgb(33, 33, 33)" stroke="none" stroke-width="1px">1.2k</text><text x="686.1617781938642" y="0" dx="0em" dy="0.95em" style="text-anchor: middle; visibility: inherit; font-family: Roboto, sans-serif; font-size: 12px; font-weight: 200;" fill="rgb(33, 33, 33)" stroke="none" stroke-width="1px">1.4k</text><text x="771.4882831971844" y="0" dx="0em" dy="0.95em" style="text-anchor: middle; visibility: inherit; font-family: Roboto, sans-serif; font-size: 12px; font-weight: 200;" fill="rgb(33, 33, 33)" stroke="none" stroke-width="1px">1.6k</text><text x="856.8147882005045" y="0" dx="0em" dy="0.95em" style="text-anchor: middle; visibility: inherit; font-family: Roboto, sans-serif; font-size: 12px; font-weight: 200;" fill="rgb(33, 33, 33)" stroke="none" stroke-width="1px">1.8k</text><text x="942.1412932038245" y="0" dx="0em" dy="0.95em" style="text-anchor: middle; visibility: inherit; font-family: Roboto, sans-serif; font-size: 12px; font-weight: 200;" fill="rgb(33, 33, 33)" stroke="none" stroke-width="1px">2k</text><text x="1027.4677982071446" y="0" dx="0em" dy="0.95em" style="text-anchor: middle; visibility: inherit; font-family: Roboto, sans-serif; font-size: 12px; font-weight: 200;" fill="rgb(33, 33, 33)" stroke="none" stroke-width="1px">2.2k</text><text x="1112.7943032104647" y="0" dx="0em" dy="0.95em" style="text-anchor: middle; visibility: inherit; font-family: Roboto, sans-serif; font-size: 12px; font-weight: 200;" fill="rgb(33, 33, 33)" stroke="none" stroke-width="1px">2.4k</text><text x="1198.1208082137848" y="0" dx="0em" dy="0.95em" style="text-anchor: middle; visibility: inherit; font-family: Roboto, sans-serif; font-size: 12px; font-weight: 200;" fill="rgb(33, 33, 33)" stroke="none" stroke-width="1px">2.6k</text><text x="1283.4473132171051" y="0" dx="0em" dy="0.95em" style="text-anchor: middle; visibility: hidden; font-family: Roboto, sans-serif; font-size: 12px; font-weight: 200;" fill="rgb(33, 33, 33)" stroke="none" stroke-width="1px">2.8k</text></g><line x1="0" y1="0" x2="1284.83" y2="0" fill="rgb(0, 0, 0)" stroke="rgb(204, 204, 204)" stroke-width="1px"></line></g></g></g></g></svg>