<svg viewBox="0 0 1498 400" xmlns="http://www.w3.org/2000/svg"><g><g><g><g><g><line x1="50" y1="353.38449606349985" x2="45" y2="353.38449606349985" style="visibility: inherit;" fill="rgb(0, 0, 0)" stroke="rgb(204, 204, 204)" stroke-width="1px"></line><line x1="50" y1="323.46392529900197" x2="45" y2="323.46392529900197" style="visibility: inherit;" fill="rgb(0, 0, 0)" stroke="rgb(204, 204, 204)" stroke-width="1px"></line><line x1="50" y1="293.54335453450403" x2="45" y2="293.54335453450403" style="visibility: inherit;" fill="rgb(0, 0, 0)" stroke="rgb(204, 204, 204)" stroke-width="1px"></line><line x1="50" y1="263.62278377000615" x2="45" y2="263.62278377000615" style="visibility: inherit;" fill="rgb(0, 0, 0)" stroke="rgb(204, 204, 204)" stroke-width="1px"></line><line x1="50" y1="233.70221300550827" x2="45" y2="233.70221300550827" style="visibility: inherit;" fill="rgb(0, 0, 0)" stroke="rgb(204, 204, 204)" stroke-width="1px"></line><line x1="50" y1="203.78164224101036" x2="45" y2="203.78164224101036" style="visibility: inherit;" fill="rgb(0, 0, 0)" stroke="rgb(204, 204, 204)" stroke-width="1px"></line><line x1="50" y1="173.86107147651248" x2="45" y2="173.86107147651248" style="visibility: inherit;" fill="rgb(0, 0, 0)" stroke="rgb(204, 204, 204)" stroke-width="1px"></line><line x1="50" y1="143.94050071201454" x2="45" y2="143.94050071201454" style="visibility: inherit;" fill="rgb(0, 0, 0)" stroke="rgb(204, 204, 204)" stroke-width="1px"></line><line x1="50" y1="114.01992994751666" x2="45" y2="114.01992994751666" style="visibility: inherit;" fill="rgb(0, 0, 0)" stroke="rgb(204, 204, 204)" stroke-width="1px"></line><line x1="50" y1="84.09935918301873" x2="45" y2="84.09935918301873" style="visibility: inherit;" fill="rgb(0, 0, 0)" stroke="rgb(204, 204, 204)" stroke-width="1px"></line><line x1="50" y1="54.17878841852085" x2="45" y2="54.17878841852085" style="visibility: inherit;" fill="rgb(0, 0, 0)" stroke="rgb(204, 204, 204)" stroke-width="1px"></line><line x1="50" y1="24.258217654022967" x2="45" y2="24.258217654022967" style="visibility: inherit;" fill="rgb(0, 0, 0)" stroke="rgb(204, 204, 204)" stroke-width="1px"></line></g><g transform="translate(40, 0)"><text x="0" y="353.38449606349985" dx="0em" dy="0.3em" style="text-anchor: end; visibility: inherit; font-family: Roboto, sans-serif; font-size: 12px; font-weight: 200;" fill="rgb(33, 33, 33)" stroke="none" stroke-width="1px">-150</text><text x="0" y="323.46392529900197" dx="0em" dy="0.3em" style="text-anchor: end; visibility: inherit; font-family: Roboto, sans-serif; font-size: 12px; font-weight: 200;" fill="rgb(33, 33, 33)" stroke="none" stroke-width="1px">-100</text><text x="0" y="293.54335453450403" dx="0em" dy="0.3em" style="text-anchor: end; visibility: inherit; font-family: Roboto, sans-serif; font-size: 12px; font-weight: 200;" fill="rgb(33, 33, 33)" stroke="none" stroke-width="1px">-50</text><text x="0" y="263.62278377000615" dx="0em" dy="0.3em" style="text-anchor: end; visibility: inherit; font-family: Roboto, sans-serif; font-size: 12px; font-weight: 200;" fill="rgb(33, 33, 33)" stroke="none" stroke-width="1px">0</text><text x="0" y="233.70221300550827" dx="0em" dy="0.3em" style="text-anchor: end; visibility: inherit; font-family: Roboto, sans-serif; font-size: 12px; font-weight: 200;" fill="rgb(33, 33, 33)" stroke="none" stroke-width="1px">50</text><text x="0" y="203.78164224101036" dx="0em" dy="0.3em" style="text-anchor: end; visibility: inherit; font-family: Roboto, sans-serif; font-size: 12px; font-weight: 200;" fill="rgb(33, 33, 33)" stroke="none" stroke-width="1px">100</text><text x="0" y="173.86107147651248" dx="0em" dy="0.3em" style="text-anchor: end; visibility: inherit; font-family: Roboto, sans-serif; font-size: 12px; font-weight: 200;" fill="rgb(33, 33, 33)" stroke="none" stroke-width="1px">150</text><text x="0" y="143.94050071201454" dx="0em" dy="0.3em" style="text-anchor: end; visibility: inherit; font-family: Roboto, sans-serif; font-size: 12px; font-weight: 200;" fill="rgb(33, 33, 33)" stroke="none" stroke-width="1px">200</text><text x="0" y="114.01992994751666" dx="0em" dy="0.3em" style="text-anchor: end; visibility: inherit; font-family: Roboto, sans-serif; font-size: 12px; font-weight: 200;" fill="rgb(33, 33, 33)" stroke="none" stroke-width="1px">250</text><text x="0" y="84.09935918301873" dx="0em" dy="0.3em" style="text-anchor: end; visibility: inherit; font-family: Roboto, sans-serif; font-size: 12px; font-weight: 200;" fill="rgb(33, 33, 33)" stroke="none" stroke-width="1px">300</text><text x="0" y="54.17878841852085" dx="0em" dy="0.3em" style="text-anchor: end; visibility: inherit; font-family: Roboto, sans-serif; font-size: 12px; font-weight: 200;" fill="rgb(33, 33, 33)" stroke="none" stroke-width="1px">350</text><text x="0" y="24.258217654022967" dx="0em" dy="0.3em" style="text-anchor: end; visibility: inherit; font-family: Roboto, sans-serif; font-size: 12px; font-weight: 200;" fill="rgb(33, 33, 33)" stroke="none" stroke-width="1px">400</text></g><line x1="50" y1="0" x2="50" y2="377" fill="rgb(0, 0, 0)" stroke="rgb(204, 204, 204)" stroke-width="1px"></line></g></g><g transform="translate(50, 0)" clip-path="url(#clip_0)"><clipPath id="clip_0"><rect width="1448" height="377"></rect></clipPath><g><g><g><line x1="37.92222293155799" y1="0" x2="37.92222293155799" y2="377" fill="rgb(0, 0, 0)" stroke="rgb(66, 66, 66)" stroke-width="1px" opacity="0.25"></line><line x1="192.6227459212287" y1="0" x2="192.6227459212287" y2="377" fill="rgb(0, 0, 0)" stroke="rgb(66, 66, 66)" stroke-width="1px" opacity="0.25"></line><line x1="347.3232689108994" y1="0" x2="347.3232689108994" y2="377" fill="rgb(0, 0, 0)" stroke="rgb(66, 66, 66)" stroke-width="1px" opacity="0.25"></line><line x1="502.02379190057013" y1="0" x2="502.02379190057013" y2="377" fill="rgb(0, 0, 0)" stroke="rgb(66, 66, 66)" stroke-width="1px" opacity="0.25"></line><line x1="656.724314890241" y1="0" x2="656.724314890241" y2="377" fill="rgb(0, 0, 0)" stroke="rgb(66, 66, 66)" stroke-width="1px" opacity="0.25"></line><line x1="811.4248378799117" y1="0" x2="811.4248378799117" y2="377" fill="rgb(0, 0, 0)" stroke="rgb(66, 66, 66)" stroke-width="1px" opacity="0.25"></line><line x1="966.1253608695824" y1="0" x2="966.1253608695824" y2="377" fill="rgb(0, 0, 0)" stroke="rgb(66, 66, 66)" stroke-width="1px" opacity="0.25"></line><line x1="1120.825883859253" y1="0" x2="1120.825883859253" y2="377" fill="rgb(0, 0, 0)" stroke="rgb(66, 66, 66)" stroke-width="1px" opacity="0.25"></line><line x1="1275.526406848924" y1="0" x2="1275.526406848924" y2="377" fill="rgb(0, 0, 0)" stroke="rgb(66, 66, 66)" stroke-width="1px" opacity="0.25"></line><line x1="1430.2269298385945" y1="0" x2="1430.2269298385945" y2="377" fill="rgb(0, 0, 0)" stroke="rgb(66, 66, 66)" stroke-width="1px" opacity="0.25"></line></g><g><line x1="0" y1="353.38449606349985" x2="1448" y2="353.38449606349985" fill="rgb(0, 0, 0)" stroke="rgb(66, 66, 66)" stroke-width="1px" opacity="0.25"></line><line x1="0" y1="323.46392529900197" x2="1448" y2="323.46392529900197" fill="rgb(0, 0, 0)" stroke="rgb(66, 66, 66)" stroke-width="1px" opacity="0.25"></line><line x1="0" y1="293.54335453450403" x2="1448" y2="293.54335453450403" fill="rgb(0, 0, 0)" stroke="rgb(66, 66, 66)" stroke-width="1px" opacity="0.25"></line><line x1="0" y1="263.62278377000615" x2="1448" y2="263.62278377000615" fill="rgb(0, 0, 0)" stroke="rgb(66, 66, 66)" stroke-width="1px" opacity="0.25"></line><line x1="0" y1="233.70221300550827" x2="1448" y2="233.70221300550827" fill="rgb(0, 0, 0)" stroke="rgb(66, 66, 66)" stroke-width="1px" opacity="0.25"></line><line x1="0" y1="203.78164224101036" x2="1448" y2="203.78164224101036" fill="rgb(0, 0, 0)" stroke="rgb(66, 66, 66)" stroke-width="1px" opacity="0.25"></line><line x1="0" y1="173.86107147651248" x2="1448" y2="173.86107147651248" fill="rgb(0, 0, 0)" stroke="rgb(66, 66, 66)" stroke-width="1px" opacity="0.25"></line><line x1="0" y1="143.94050071201454" x2="1448" y2="143.94050071201454" fill="rgb(0, 0, 0)" stroke="rgb(66, 66, 66)" stroke-width="1px" opacity="0.25"></line><line x1="0" y1="114.01992994751666" x2="1448" y2="114.01992994751666" fill="rgb(0, 0, 0)" stroke="rgb(66, 66, 66)" stroke-width="1px" opacity="0.25"></line><line x1="0" y1="84.09935918301873" x2="1448" y2="84.09935918301873" fill="rgb(0, 0, 0)" stroke="rgb(66, 66, 66)" stroke-width="1px" opacity="0.25"></line><line x1="0" y1="54.17878841852085" x2="1448" y2="54.17878841852085" fill="rgb(0, 0, 0)" stroke="rgb(66, 66, 66)" stroke-width="1px" opacity="0.25"></line><line x1="0" y1="24.258217654022967" x2="1448" y2="24.258217654022967" fill="rgb(0, 0, 0)" stroke="rgb(66, 66, 66)" stroke-width="1px" opacity="0.25"></line></g></g></g><g><g><line x1="0" y1="263.62278377000615" x2="1448" y2="263.62278377000615" fill="rgb(0, 0, 0)" stroke="rgb(153, 153, 153)" stroke-width="1.5px"></line></g></g><g><g><line x1="192.6227459212287" y1="0" x2="192.6227459212287" y2="377" fill="rgb(0, 0, 0)" stroke="rgb(153, 153, 153)" stroke-width="1.5px"></line></g></g><g><g><g><g><g><path stroke="rgb(255, 112, 67)" stroke-width="2px" d="M193.86035010514607,233.40428792531986L194.1697511511254,233.41127173926813L196.02615742700146,215.20275350451186L197.26376161091883,201.97894150368023L197.57316265689818,193.75651511041488L198.5013657948362,185.57648317410735L198.81076684081555,180.1809331869126L199.1201678867949,175.94632726276856L199.73896997875354,171.4425067981975L200.0483710247329,167.7273028311238L200.97657416267091,163.59554502001208L201.28597520865026,160.46156989515995L203.1423814845263,154.84537767632702L204.07058462246434,148.23511345590623L204.68938671442302,145.56898781437928L205.3081888063817,139.5540838014959L207.4739961282371,132.68652870376982L207.78339717421645,128.86337865554543L208.0927982201958,128.0550413908237L208.71160031215447,125.50199116009144L209.6398034500925,121.18445297632368L210.56800658803053,113.29983905416954L211.49620972596855,108.81078270016633L211.8056107719479,107.28842122230746L212.11501181792724,102.8854540273345L212.42441286390658,103.62246209503382L213.04321495586524,100.03701423991392L213.35261600184458,94.83188278367155L213.66201704782392,94.5505380474734L213.97141809380327,92.01818827985717L214.59022018576195,92.17533902888593L214.8996212317413,92.6639513543621L216.75602750761735,91.3265205884992L217.37482959957603,86.6232845219013L217.68423064555537,84.23095445208408L218.30303273751406,80.35908985524767L219.2312358754521,77.18580614970544L220.46884005936946,74.64355477635884L220.7782411053488,71.91868564403357L223.56285051916288,68.92581877036864L223.87225156514222,67.5896160867236L224.80045470308025,62.86930046646551L225.72865784101828,64.79812695729083L226.03805888699756,62.47387663219932L226.65686097895625,63.74511342301666L228.82266830081164,59.86663879726884L230.36967353070835,60.86490843308822L231.60727771462572,59.222990397192916L231.91667876060507,54.778580383715244L232.53548085256375,52.024612475539534L233.15428294452244,53.79752347774492L233.46368399050178,52.693862210168795L235.0106892203985,49.174550439511265L235.32009026637783,50.70967173075783L237.48589758823323,48.99717911138686L238.1046996801919,45.905171461840716L238.41410072617126,43.99228065450456L239.34230386410925,46.18144951233718L241.50811118596465,47.79467517738774L242.12691327792334,46.146547547426636L242.43631432390268,41.40766505937599L243.05511641586136,38.044458344685644L243.67391850782005,35.72536360980476L245.5303247836961,35.57978151173242L245.83972582967544,39.165408763863404L246.1491268756548,37.441793617719284L247.0773300135928,30.666600404941168L247.38673105957216,28.880276345921843L247.6961321055515,27.391617356843845L248.00553315153084,26.671013107306393L248.62433524348953,24.129871228968785L248.93373628946887,24.808351098268897L249.8619394274069,22.815993326172713L250.17134047338624,29.07562196899395L250.48074151936558,27.46350558492952L251.71834570328295,27.339256601572842L252.0277467492623,30.05720372338085L252.33714779524163,32.184079311766176L253.2653509331796,32.12215761678828L254.50295511709697,31.860950950756347L254.81235616307632,110.2183759362298L255.431158255035,166.89697531481178L255.74055930101434,201.9091382698882L256.0499603469937,223.48942529114203L256.359361392973,236.79226921833882L256.9781634849317,245.15274568459304L257.5969655768904,250.38502388041354L258.2157676688491,253.64287668729182L258.83456976080777,255.6934854534361L259.45337185276645,256.9769927577436L259.7627728987458,257.7761599646276L260.6909760366838,258.32185035205816L261.0003770826632,258.6678894960795L261.3097781286425,258.88997950723495L261.6191791746219,259.04714563633536L262.23798126658056,259.1683865424479L263.78498649647725,259.31345960086315L266.2601948643119,259.4878519301742L266.5695959102913,259.5978647075614L266.8789969562706,259.67626546929097L267.4977990482293,259.74307689674123L267.80720009420867,259.79395149867116L268.42600218616735,259.8469682782422L268.73540323214667,259.88963046523105L269.04480427812604,259.91898097463076L269.35420532410535,259.9415870970062L270.9012105540021,259.9968763979321L271.2106115999814,260.0358226179033L271.5200126459608,260.06958751538536L272.75761682987815,260.11611986156L273.06701787585746,260.15079863099436L273.37641892183683,260.1780284333842L273.9952210137955,260.2136620149339L276.47042938163025,260.2860033752571L276.77983042760957,260.33744726753383L277.7080335655476,260.39419072372885L278.3268356575063,260.4349494767664L278.945637749465,260.4695747596284L279.5644398414236,260.5001153414607L280.1832419333823,260.5306915972509L280.4926429793617,260.55241149590074L281.11144507132036,260.57627968916614L281.73024716327905,260.6032798441868L282.03964820925836,260.6254609924559L282.65845030121704,260.64786704428957L284.2054555311138,260.6957296498369L284.5148565770931,260.73269082439987L284.82425762307247,260.7646945757291L285.1336586690518,260.7884987533022L287.6088670368865,260.838527201745L288.2276691288452,260.8808331581875L288.5370701748246,260.91325493271995L289.4652733127626,260.9495808919384L290.70287749667995,260.9918752953945L291.32167958863863,261.023357517195L291.631080634618,261.054293422849L292.559283772556,261.0870533810112L293.1780858645147,261.11739334999936L294.72509109441137,261.16085388435306L295.34389318637005,261.1988771922043L295.6532942323494,261.2294461637162L297.2002994622461,261.27579864706394L297.5097005082255,261.30928661529106L298.12850260018416,261.33791988019044L299.05670573812216,261.36886030670274L299.67550783008085,261.3989547181672L299.9849088760602,261.42324238234613L301.2225130599776,261.46198728064815L301.84131515193627,261.4946588729857L302.1507161979156,261.5199213571257L302.46011724389496,261.5384780460588L303.6977214278123,261.5719922226705L304.9353256117297,261.6154966623038L305.244726657709,261.6424593553071L305.5541277036884,261.6663374570538L305.86352874966764,261.6795509026972L306.172929795647,261.69674565655913L306.4823308416263,261.7129968817238L308.64813816348175,261.76000343218954L309.57634130141975,261.8055342976116L309.8857423473991,261.83203148039627L312.36095071523386,261.88945961396684L313.5985548991512,261.94847846076084L313.90795594513054,261.9899916961507L314.2173569911099,262.02162418704876L314.5267580370892,262.0446985506559L314.8361590830686,262.06200211847L315.7643622210066,262.09107303088746L317.31136745090333,262.13824690843194L317.930169542862,262.1832253012019L319.16777372677933,262.2344482685486L319.4771747727587,262.2768583010506L320.71477895667607,262.33335497085704L321.0241800026554,262.3763663434564L321.33358104863476,262.40457251729043L322.26178418657275,262.44576682266853L323.1899873245108,262.49319690894123L323.4993883704901,262.53388161438096L324.4275915084282,262.5736859335005L324.7369925544075,262.6057084704413L325.97459673832486,262.6585990705763L326.28399778430423,262.6969295466276L327.5216019682216,262.75014421997565L327.8310030142009,262.78679020152424L328.1404040601803,262.8149002625923L328.759206152139,262.8495051295927L329.0686071981183,262.880069615094L329.37800824409766,262.90478550583543L329.99681033605634,262.930395109965L330.30621138203566,262.95343310925233L330.615612428015,262.96927771939596L330.92501347399434,262.99088801287763L332.1626176579117,263.02074795643773L332.472018703891,263.04679316761303L332.78141974987034,263.0661062357554L333.0908207958497,263.08343758235253L333.400221841829,263.0965510465878L334.0190239337877,263.10858601522443L334.6378260257464,263.1272068777956L335.2566281177051,263.1421757652126L335.56602916368445,263.1549263883158L336.8036333476018,263.1779786043687L337.11303439358113,263.19381749159896L337.7318364855398,263.208348285411L338.3506385774985,263.2275489171458L339.58824276141587,263.24893798885154L339.89764380739524,263.2628459547835L340.82584694533324,263.2797432741235L341.1352479913126,263.2938723126081L341.4446490372919,263.30296990408425L341.7540500832713,263.3131044969234L342.37285217523,263.3198936567578L342.6822532212093,263.3236269075204L343.61045635914735,263.33317650715196L343.91985740512666,263.34176038547815L344.22925845110603,263.3502573860791L344.8480605430647,263.3594725697298L345.7762636810027,263.3718017175509L347.0138678649201,263.389079262765L348.25147204883746,263.4042984705446L348.56087309481677,263.4157389482544L349.4890762327548,263.42881946418646L350.4172793706928,263.44124605257105L350.7266804166722,263.4498721974877L351.0360814626515,263.45868190025516L351.3454825086309,263.46425163285676L351.6548835546102,263.4716630706372L351.96428460058956,263.4769608314952L352.89248773852756,263.48568140118834L353.20188878450693,263.4908044024441L353.51128983048625,263.4954242120174L353.8206908764656,263.49676797557834L354.7488940144036,263.5009011186583L356.91470133625904,263.50608420418956L357.84290447419704,263.5107494842733L358.1523055201764,263.51365098410196L358.7711076121351,263.51908087505893L359.0805086581144,263.5208475941483L359.3899097040937,263.523574966597L359.6993107500731,263.52556791055804L360.0087117960524,263.52671271435366L360.6275138880111,263.5277809849222L361.2463159799698,263.53093501457363L361.86511807192846,263.53379414487426L362.17451911790783,263.53458993180084L363.10272225584583,263.5393393936752L363.7215243478045,263.5419220023355L364.6497274857426,263.5451620143218L364.9591285317219,263.54882486189456L366.81553480759794,263.5530668964974L367.1249358535773,263.55688297879L367.4343368995566,263.558490673714L368.671941083474,263.5630057985473L369.60014422141205,263.56629135019375L370.21894631337074,263.5691451777411L371.14714945130874,263.57357102661877L372.3847536352261,263.57759132228347L373.6223578191435,263.58116200848207L373.93175886512284,263.5836009005807L374.24115991110216,263.5851040637318L374.85996200306084,263.5878044310364L375.4787640950195,263.58926796591504L375.7881651409989,263.5915192328913L376.0975661869782,263.5923490150021L376.7163682789369,263.59431743365633L377.3351703708956,263.59547628413185L377.64457141687495,263.59579341447164L377.95397246285427,263.5975617136149L378.26337350883364,263.59977453999124L378.8821756007922,263.6008879668409L379.1915766467716,263.60172820802757L379.5009776927509,263.6027242225241L380.1197797847096,263.6041867750636L381.04798292264763,263.605075391341L381.6667850146063,263.6068269138452L382.5949881525443,263.60916828314913L382.9043891985237,263.61071622164457L383.5231912904824,263.6123298122587L384.14199338244106,263.6145657899047L384.76079547439974,263.61466496383787L385.3795975663584,263.6142750307453L385.68899861233774,263.61411317596L386.6172017502758,263.6145681553388L387.2360038422345,263.6154240201304L387.5454048882138,263.6167495844912L388.78300907213116,263.6184245370716L390.02061325604853,263.6197807765103L390.9488163939866,263.6205447900925L391.2582174399659,263.6211295340663L391.5676184859453,263.62155093142263L391.8770195319246,263.621851974298L392.18642057790396,263.6220326377952L393.73342580780064,263.6222338526699L394.3522278997593,263.6223684373349L394.6616289457387,263.62243247762217L394.971029991718,263.62242117461847L395.2804310376974,263.622402770143L395.5898320836767,263.6223471672031L396.51803522161475,263.6224725064521L397.13683731357344,263.6225558944023L399.3026446354288,263.6226417575773L400.23084777336686,263.6226919915196L401.77785300326354,263.62272661214837L402.0872540492429,263.62274455758484L402.39665509522223,263.6227535494671L403.3248582331603,263.6227612535477L403.94366032511897,263.62276348500865L404.2530613710983,263.6227658178696L404.56246241707765,263.62276729204376L405.4906655550156,263.6227722542867L407.0376707849123,263.62277650307146L407.65647287687096,263.6227791465909L408.27527496882965,263.622780653511L408.584676014809,263.62278145813565L409.2034781067677,263.62277793353917L410.1316812447057,263.62277969602184L410.4410822906851,263.6227808524071L411.05988438264376,263.62278179964557L412.2974885665611,263.622780907542L412.60688961254044,263.6227812796574L413.2256917044991,263.62278199105594L414.1538948424372,263.6227825807497L414.77269693439587,263.622782806165L415.70090007233387,263.62278294952745L416.01030111831324,263.6227830947716L416.6291032102719,263.6227827434581L417.2479053022306,263.6227826906222L417.5573063482099,263.62278255018197L418.1761084401686,263.6227827914838L418.485509486148,263.62278290668434L419.10431157810666,263.6227829496343L419.413712624086,263.62278261305545L419.72311367006535,263.6227824138471L421.27011889996203,263.6227825552331L422.5077230838794,263.6227829796484L422.81712412985877,263.62278318670695L423.1265251758381,263.6227832730962L426.5299366816109,263.6227833815414L426.8393377275902,263.62278319881136L427.4581398195489,263.62278273362455L429.0051450494456,263.6227804236821L429.31454609542493,263.6227815628199L429.6239471414043,263.6227824014935L430.5521502793423,263.6227828735981L430.86155132532167,263.6227829664002L431.78975446325967,263.62278295896914L432.7179576011976,263.62278207870696L433.027358647177,263.6227823835822L433.64616073913567,263.62278275960506L433.955561785115,263.6227829948971L434.26496283109435,263.62278316926233L434.57436387707367,263.6227831703761L434.88376492305304,263.6227832687888L436.7401711989291,263.6227832908202L437.6683743368671,263.62278343892893L438.2871764288258,263.6227835574311L438.90597852078446,263.6227836332665L440.1435827047018,263.6227836658418L441.69058793459857,263.62278367882675L441.9999889805779,263.62278363388674L442.30939002655725,263.6227835564515L442.61879107253657,263.62278341801493L443.5469942104746,263.62278257110876L446.02220257830936,263.6227829239305L446.3316036242887,263.62278312277203L446.95040571624736,263.6227830339613L447.56920780820604,263.6227830939709L448.4974109461441,263.6227832940405L448.8068119921234,263.62278322679913L449.1162130381028,263.62278331223547L450.35381722202015,263.62278293014435L450.66321826799947,263.6227832426445L451.28202035995815,263.62278330666896L451.5914214059375,263.62278326769643L451.90082245191684,263.62278329953057L452.5196245438755,263.6227829241675L452.8290255898549,263.62278301169175L453.7572287277929,263.62278325373813L454.3760308197516,263.6227830744498L455.9230360496483,263.622783273096L456.23243709562763,263.62278310353486L457.1606402335657,263.62278329143265L458.0888433715037,263.62278346855265L459.0170465094416,263.62278323523736L459.6358486014003,263.6227830303994L460.56405173933837,263.6227829185011L460.8734527853177,263.62276958874304L462.11105696923505,263.6227752611109L462.4204580152144,263.6227783689577L466.44267161294584,263.622780403229L466.7520726589252,263.6227817432476L467.06147370490453,263.62278223497566L467.6802757968632,263.6227827839042L468.2990778888219,263.6227831160622L468.9178799807806,263.6227832920007L469.84608311871864,263.6227834782244L470.4648852106773,263.6227834224034L470.77428625665664,263.6227833971893L471.7024893945947,263.6227833820492L472.011890440574,263.62278335334065L472.6306925325327,263.6227835192234L473.55889567047075,263.6227809651635L473.86829671645006,263.6227820325757L474.48709880840875,263.62278271161114L474.7964998543881,263.62278311718035L475.7247029923261,263.62278325246217L476.9623071762435,263.62278313421564L477.27170822222286,263.6227833011898L477.89051031418154,263.62278339884017L478.5093124061402,263.62278348504896L479.7469165900576,263.62278330497844L480.0563176360369,263.6227834091665L480.6751197279956,263.62278335599177L480.98452077397496,263.6227832838074L481.2939218199543,263.62278310597753L481.60332286593365,263.62278335379614L482.22212495789233,263.6227833083357L483.4597291418097,263.62278297750873L484.0785312337684,263.62278310824587L484.3879322797477,263.6227833703659L485.31613541768564,263.62278352762485L486.553739601603,263.6227836244355L487.48194273954107,263.62278347320625L488.41014587747907,263.6227834577973L488.71954692345844,263.62278337609183L489.9571511073758,263.6227832900102L490.5759531993345,263.6227833630645L490.8853542453138,263.6227830445307L491.5041563372725,263.6227832627782L492.1229584292312,263.62278322693L492.43235947521055,263.62278338526846L493.36056261314855,263.6227832308276L494.9075678430453,263.62278311787645L495.52636993500397,263.6227831899759L495.8357709809833,263.6227833515147L496.45457307294197,263.62278329953347L496.76397411892134,263.62278342672215L498.0015783028387,263.62278337185586L499.2391824867561,263.6227834086622L499.85798457871476,263.6227832352826L500.47678667067345,263.6227476576306L501.09558876263213,263.6227620932546L501.7143908545908,263.62277076140816L502.02379190057013,263.62277596323247L502.9519950385082,263.62277908485277L503.2613960844875,263.6227809578343L503.5707971304669,263.6227820820184L504.18959922242556,263.6227827569262L505.73660445232224,263.6227831564456L506.3554065442809,263.6227834020461L506.9742086362396,263.6227835494537L507.283609682219,263.6227836376151L507.5930107281983,263.6227836912062L509.14001595809503,263.6227837231335L510.3776201420124,263.6227835983979L510.9964222339711,263.6227834343021L511.3058232799504,263.6227835381687L513.1622295558265,263.622783612654L513.4716306018057,263.6227834020092L513.7810316477851,263.6227835475635L514.0904326937645,263.6227834840822L514.3998337397438,263.62278357106555L515.6374379236612,263.6227833459763L516.2562400156198,263.6227833493775L516.5656410615992,263.62278338309403L518.4220473374752,263.6227835362362L518.7314483834546,263.62278345920464L519.6596515213926,263.6227835019176L520.2784536133513,263.62278357943893L520.5878546593307,263.6227833571663L520.8972557053099,263.6227835074699L521.5160577972687,263.62278360539807L522.4442609352067,263.62278351610144L523.0630630271654,263.6227831267116L523.681865119124,263.6227833385204L523.9912661651034,263.62278313208304L524.3006672110828,263.62278317655347L524.610068257062,263.6227833855968L524.9194693030414,263.62278352437465L525.2288703490208,263.62278304300196L526.1570734869588,263.6227832162595L526.4664745329382,263.6227832724081L527.0852766248968,263.62278344184705L527.3946776708761,263.6227833714886L527.7040787168555,263.6227834465675L528.6322818547935,263.6227832757973L528.9416829007729,263.6227833991182L529.2510839467523,263.62278337952324L530.4886881306696,263.6227834837749L532.654495452525,263.62278359084064L533.2732975444836,263.6227836412113L533.8920996364424,263.6227654551613L534.2015006824217,263.6227721105232L534.510901728401,263.6227767719955L535.4391048663391,263.6227795708874L536.0579069582977,263.62278125060544L536.6767090502565,263.62278225833114L536.9861100962357,263.6227828632074L537.6049121881945,263.6227832265808L539.1519174180911,263.6227834434628L539.7707195100497,263.6227835740571L540.0801205560291,263.62278365264496L541.0083236939671,263.62278369995283L541.3177247399465,263.6227837288243L541.9365268319052,263.62278374490296L542.2459278778845,263.62278375412427L542.5553289238638,263.6227836865035L542.8647299698432,263.6227837144448L543.1741310158226,263.6227833706128L543.7929331077812,263.62278352998186L544.1023341537606,263.6227836257958L544.41173519974,263.6227834203345L545.339938337678,263.62278350409144L546.268141475616,263.62278360800656L547.196344613554,263.6227833960946L547.5057456595333,263.622783504292L548.1245477514921,263.62278360868464L548.7433498434507,263.62278362421944L549.0527508894301,263.62278355850236L549.3621519354094,263.6227835425679L549.6715529813887,263.6227835144008L551.8373603032442,263.6227836071566L552.4561623952028,263.62278354612477L553.0749644871615,263.6227832850911L553.6937665791202,263.6227831021147L554.0031676250995,263.62278332929384L555.8595739009755,263.6227831439802L556.1689749469549,263.62278313593447L556.7877770389136,263.6227833641079L557.0971780848929,263.6227835144226L557.4065791308723,263.62278345609485L558.6441833147896,263.6227834825633L559.2629854067484,263.62278321947923L559.881787498707,263.6227834252882L560.5005895906658,263.62278327626206L560.809990636645,263.6227831136102L561.1193916826244,263.6227833373742L562.0475948205624,263.62278325139545L562.3569958665418,263.6227834207703L562.6663969125211,263.6227833510245L563.2851990044798,263.6227833015428L563.5946000504591,263.62278340045964L564.5228031883971,263.62278331849177L565.7604073723145,263.62278341367073L566.0698084182937,263.62278354300696L566.3792094642731,263.6227836200808L566.9980115562319,263.6227834114781L568.2356157401492,263.62278355288566L568.5450167861285,263.62278363820826L568.8544178321079,263.6227836897489L569.7826209700459,263.6227837212334L571.3296261999426,263.6227837406576L571.9484282919013,263.62278375209826L573.1860324758187,263.6227837592432L574.1142356137567,263.62278375725003L574.4236366597361,263.6227837457017L575.9706418896327,263.6227837541665L576.5894439815914,263.62278345612805L576.8988450275708,263.6227835797998L577.2082460735501,263.6227836560733L577.5176471195294,263.6227837012924L577.8270481655088,263.62278372802194L578.1364492114882,263.62278365055164L578.4458502574674,263.6227835576452L579.3740533954056,263.6227834539399L579.6834544413848,263.62278357688683L579.9928554873642,263.62278351728787L580.3022565333436,263.62278360204374L580.9210586253022,263.6227836629515L581.5398607172609,263.62278364388345L581.8492617632403,263.62278365779275L582.7774649011783,263.62278337749524L583.0868659471577,263.622783518179L584.9432722230337,263.622783234439L586.180876406951,263.6227832723564L587.7278816368478,263.62278346221194L588.0372826828271,263.6227833827988L588.3466837288064,263.62278349652865L589.5842879127238,263.6227832259348L590.5124910506619,263.62278333131144L592.0594962805585,263.62278327134896L592.9876994184965,263.62278345840906L593.9159025564345,263.6227833795617L594.5347046483932,263.62278323892684L594.8441056943725,263.62278344269083L595.7723088323106,263.62278323945065L597.009913016228,263.6227831928572L598.2475172001454,263.6227833718973L599.794522430042,263.6227833056174L601.3415276599387,263.6227832951675L601.9603297518975,263.62278319770434L602.8885328898355,263.6227834072113L603.1979339358148,263.6227832695965L603.8167360277735,263.62278325516195L605.9825433496288,263.62278344503636L608.7671527634429,263.62278355694673L609.0765538094223,263.62278350924225L609.6953559013809,263.6227369747416L610.0047569473603,263.6227517403556L610.9329600852983,263.62276455255784L611.2423611312777,263.62277223971836L611.8611632232364,263.6227768523856L613.0987674071538,263.62277961806996L613.7175694991124,263.6227812790776L614.9551736830298,263.6227822758366L615.2645747290092,263.6227828737758L615.5739757749885,263.62278323285744L615.8833768209678,263.62278344848755L616.1927778669472,263.62278357768673L617.4303820508645,263.622783650526L617.7397830968439,263.62278369865913L618.3585851888025,263.6227837275309L618.6679862347818,263.62278374505684L619.9055904186991,263.6227837558452L621.4525956485959,263.62278376204944L621.7619966945753,263.6227837657879L622.9996008784926,263.6227835238229L623.9278040164306,263.6227836228331L625.165408200348,263.6227835075845L627.0218144762241,263.62278360506946L631.0440280739555,263.6227836286179L631.3534291199348,263.6227833972672L632.5910333038522,263.62278354413786L635.6850437636457,263.6227834739498L635.9944448096251,263.622783470338L637.2320489935424,263.622783449354L637.8508510855012,263.6227835531764L638.1602521314804,263.6227833812917L638.4696531774598,263.6227835038354L638.7790542234392,263.62278357116384L639.7072573613772,263.6227836191799L640.3260594533359,263.6227836493265L640.6354604993152,263.6227836832185L641.2542625912738,263.62278371412526L641.8730646832325,263.6227829936234L642.1824657292118,263.6227832941848L642.8012678211705,263.62278347863696L643.1106688671499,263.62278358626713L643.4200699131292,263.62278328545085L643.7294709591085,263.6227834773947L644.0388720050879,263.6227834583469L644.3482730510673,263.62278354543383L644.6576740970465,263.6227832244255L644.9670751430259,263.62278343492636L645.5858772349847,263.6227833721103L647.75168455684,263.6227834411541L648.679887694778,263.6227833725177L648.9892887407574,263.6227834772095L649.608090832716,263.6227835453568L651.4644971085921,263.62278339998835L651.7738981545715,263.62278344165577L653.0115023384889,263.6227832719087L653.6303044304475,263.6227833318834L653.9397054764269,263.62278335011854L654.8679086143649,263.622783283948L655.1773096603442,263.6227831922807L656.4149138442616,263.6227834140267L656.724314890241,263.6227832750978L657.0337159362202,263.6227834709828L657.652518028179,263.62278357574706L659.8183253500343,263.6227834557608L660.1277263960137,263.6227835789906L660.4371274419931,263.62278315949817L661.0559295339517,263.6227833872816L661.6747316259105,263.62278351109103L661.9841326718897,263.6227834231819L664.1499399937452,263.6227835490979L665.6969452236418,263.62278363798447L667.5533514995179,263.6227836902527L668.4815546374558,263.6227837205197L668.7909556834352,263.62278372668504L669.7191588213732,263.6227837443847L671.8849661432287,263.6227836921293L672.8131692811667,263.62278372253735L673.122570327146,263.6227837010132L673.4319713731253,263.6227836620296L674.6695755570427,263.6227837007054L676.2165807869394,263.6227837276276L677.1447839248774,263.6227836199588L677.4541849708568,263.6227835593844L678.0729870628155,263.62278352458804L678.6917891547741,263.62278356171777L679.0011902007535,263.62278362860457L679.3105912467329,263.62278352709865L679.6199922927121,263.6227834383508L680.5481954306503,263.62278352160826L681.1669975226089,263.6227832910684L681.7857996145676,263.62278345573174L682.0952006605469,263.6227833680773L682.4046017065263,263.622783458798L683.3328048444642,263.62278351006205L684.879810074361,263.6227832389368L686.4268153042577,263.62278334521903L686.7362163502371,263.62278347985324L687.0456173962164,263.6227833398686L688.2832215801337,263.6227834882522L688.5926226261131,263.62278346523317L688.9020236720925,263.62278331857874L691.0678309939478,263.6227834118787L691.3772320399272,263.6227833920167L691.9960341318858,263.62278349448354L692.3054351778652,263.6227833471274L692.924237269824,263.62278350358906L694.7806435457,263.62278320951697L695.3994456376586,263.62278343128315L696.0182477296173,263.6227835641747L696.3276487755966,263.6227834099269L697.5652529595139,263.6227833020581L698.8028571434313,263.6227834895651L699.1122581894107,263.622783601851L699.42165923539,263.6227836691978L700.349862373328,263.6227837095155L700.6592634193074,263.6227837339282L702.2062686492042,263.62278374850206L702.5156696951834,263.6227835681272L703.1344717871422,263.6227836496599L703.7532738791008,263.62278369782524L704.0626749250802,263.62278372695L704.3720759710595,263.6227837446735L704.6814770170389,263.62278375545054L705.3002791089975,263.6227835114295L705.9190812009563,263.6227836151001L707.1566853848736,263.62278364572865L707.7754874768323,263.6227835954219L708.394289568791,263.6227836630591L709.322492706729,263.62278334554384L709.6318937527084,263.62278344446776L710.8694979366257,263.6227835550394L711.7977010745637,263.62278357306946L712.4165031665224,263.62278331857783L712.7259042125017,263.6227834842052L713.3447063044605,263.6227833881262L714.2729094423985,263.62278352275035L714.5823104883779,263.6227833797393L714.8917115343571,263.6227835247137L715.2011125803365,263.62278346549505L716.7481178102332,263.62278333186015L717.0575188562126,263.6227834671628L717.3669199021919,263.62278346382897L717.9857219941506,263.62278345096627L718.6045240861092,263.6227833565588L718.9139251320886,263.622783486634L719.5327272240473,263.6227834274969L720.151529316006,263.6227833021804L721.079732453944,263.6227833880883L721.6985345459026,263.62278353409386L722.007935591882,263.6227833703353L722.3173366378613,263.62278352686377L722.6267376838406,263.62278331147814L724.4831439597167,263.62278319357824L724.7925450056961,263.6227834045244L725.7207481436341,263.6227833292795L726.0301491896134,263.62278349317927L726.3395502355927,263.6227833808234L726.6489512815721,263.622783525414L728.1959565114688,263.6227833530934L730.6711648793035,263.62278329902483L730.9805659252829,263.6227834633638L732.2181701092003,263.62278357139235L732.8369722011589,263.6227699242902L733.7651753390969,263.6227754633163L734.0745763850763,263.62277878692856L734.3839774310557,263.62278078064884L734.693378477035,263.6227819771656L735.3121805689937,263.62278269514496L735.621581614973,263.62278312589376L736.549784752911,263.62278338422L738.0967899828078,263.6227835390906L738.4061910287871,263.6227836319491L739.0249931207458,263.6227836876871L739.9531962586838,263.6227836122189L742.1190035805392,263.62278367611555L742.4284046265185,263.62278371439066L742.7378056724979,263.62278341216546L743.6660088104359,263.6227835558679L744.9036129943532,263.62278342937213L745.2130140403326,263.6227835256882L745.522415086312,263.6227836138865L746.45061822425,263.6227836180573L746.7600192702293,263.6227834032243L747.378821362188,263.6227835502912L747.9976234541467,263.622783488176L748.6164255461053,263.6227833641698L749.8540297300227,263.62278352307453L750.4728318219815,263.6227834899074L750.7822328679608,263.62278360212093L752.3292380978575,263.6227836687736L752.9480401898162,263.62278361308L754.1856443737336,263.62278337425045L755.4232485576509,263.6227835112635L755.7326496036303,263.62278331953075L756.9702537875477,263.62278349698784L757.8984569254857,263.62278360653625L758.207857971465,263.6227836724879L758.8266600634237,263.62278370894245L759.136061109403,263.62278373348096L759.7548632013617,263.62278346609327L760.064264247341,263.6227835708047L760.3736652933204,263.62278351972395L760.9924673852789,263.6227836033352L761.3018684312583,263.6227833484794L761.6112694772376,263.6227835145108L763.4676757531137,263.6227835160521L763.777076799093,263.6227835949493L764.0864778450723,263.6227836656279L764.3958788910517,263.6227833456562L764.705279937031,263.62278351277934L765.633483074969,263.6227835966555L766.2522851669278,263.62278363840056L768.4180924887831,263.6227836907332L769.6556966727005,263.6227836868664L769.9650977186799,263.62278367912285L770.2744987646591,263.6227834150231L770.5838998106385,263.6227835579247L771.8215039945559,263.6227836302392L772.1309050405353,263.6227835037354L772.7497071324939,263.6227833708796L773.0591081784733,263.622783507649L773.677910270432,263.6227835922726L774.60611340837,263.62278347095275L775.534316546308,263.62277975927594L775.8437175922874,263.62278135691804L776.462519684246,263.622782323181L777.0813217762047,263.6227829030597L777.7001238681634,263.6227832505637L779.2471290980601,263.62278345791754L780.4847332819775,263.62278358015345L781.4129364199155,263.6227836569409L782.6505406038328,263.62278370331563L783.2693426957916,263.6227837305964L783.578743741771,263.62278374678345L783.8881447877502,263.62278375788617L784.8163479256883,263.62278376345967L786.363353155585,263.62278374770005L788.2197594314611,263.62278348113176L788.5291604774404,263.62278356137614L788.8385615234197,263.62278364259134L789.7667646613578,263.6227836917437L790.6949677992958,263.62278370690734L791.6231709372338,263.62278372326006L791.9325719832132,263.62278347940503L792.8607751211512,263.6227834694167L793.1701761671305,263.62278356861435L793.4795772131099,263.6227833738617L793.7889782590892,263.62278352470224L794.7171813970273,263.6227835224695L795.3359834889859,263.6227836118115L796.2641866269239,263.62278354710736L796.5735876729033,263.6227836005988L797.192389764862,263.6227832604154L798.1205929028,263.62278344260903L799.3581970867174,263.62278324082683L799.6675981326968,263.62278345292174L799.976999178676,263.6227835803601L800.2864002246554,263.62278325014626L800.5958012706348,263.6227834575461L801.2146033625934,263.622783405036L801.5240044085728,263.62278353065096L801.8334054545521,263.6227834919424L802.1428065005315,263.62278340143155L803.9992127764075,263.6227833334624L804.6180148683662,263.62278350892626L805.2368169603249,263.6227834861017L805.5462180063042,263.62278357378904L805.8556190522836,263.62278365028084L806.1650200982629,263.6227834032744L806.4744211442422,263.6227835370298L807.093223236201,263.6227834037582L807.7120253281596,263.6227833199866L808.021426374139,263.622783497274L808.949629512077,263.62278341835366L809.2590305580563,263.6227835248579L810.1872336959943,263.6227836228568L812.3530410178497,263.6227836632779L816.6846556615603,263.62277891090696L816.9940567075397,263.6227791203515L818.2316608914571,263.62278098021335L818.5410619374364,263.6227820966141L818.8504629834158,263.6227827673614L819.4692650753744,263.6227831686007L819.7786661213538,263.6227834093442L820.3974682133124,263.6227835545159L821.3256713512505,263.6227836415583L821.6350723972298,263.62278369336065L822.2538744891885,263.62278372546973L822.5632755351679,263.6227837440702L822.8726765811472,263.6227837547468L824.1102807650645,263.62278372965613L824.4196818110439,263.62278362845416L825.0384839030027,263.6227836855586L825.3478849489819,263.62278353422624L826.27608808692,263.62278338140055L826.5854891328993,263.6227835117542L826.8948901788787,263.6227835824096L828.4418954087754,263.62278351368764L828.7512964547548,263.6227836001947L829.060697500734,263.6227833893035L829.3700985467134,263.6227835397105L832.4641090065069,263.62278341624835L832.7735100524861,263.6227835523106L833.3923121444449,263.622783631167L834.6299163283622,263.6227836655436L835.8675205122796,263.62278348987417L836.176921558259,263.62278358457655L837.7239267881556,263.6227835314314L838.3427288801144,263.62278340221275L838.6521299260937,263.6227835357279L839.2709320180523,263.62278348053997L839.5803330640317,263.62278358266377L839.8897341100111,263.6227834230376L841.1273382939285,263.6227834178831L841.4367393399077,263.62278346097753L841.7461403858871,263.6227835680245L842.0555414318665,263.62278341993675L842.6743435238251,263.62278329203065L843.6025466617632,263.622783425366L843.9119477077425,263.6227833740602L844.2213487537218,263.6227835178691L844.5307497997012,263.6227834007253L845.4589529376392,263.6227835329009L845.7683539836186,263.6227834630048L847.0059581675359,263.62278356029356L847.3153592135153,263.62278342732867L848.5529633974327,263.622783533991L848.8623644434119,263.62278344153253L849.4811665353707,263.62278335685795L849.79056758135,263.6227835146209L850.0999686273293,263.6227834247114L850.718770719288,263.6227833415057L851.0281717652674,263.62278350347503L853.1939790871228,263.62277330267193L853.5033801331022,263.62277747443153L853.8127811790814,263.62277999381L854.7409843170195,263.6227815042885L855.9785885009369,263.6227824122683L857.8349947768129,263.62278295578665L858.1443958227923,263.6227832819581L859.3820000067096,263.6227834783864L859.691401052689,263.6227835955179L860.9290052366064,263.6227835795284L861.2384062825856,263.6227836490091L861.547807328565,263.6227836982543L861.8572083745444,263.62278372749915L864.0230156963997,263.62278374565057L865.2606198803171,263.622783749166L865.8794219722758,263.62278372159216L866.1888230182551,263.62278363945484L868.3546303401104,263.6227835583734L868.9734324320691,263.62278356890937L869.5922345240277,263.62278346919396L870.2110366159865,263.62278330514135L871.7580418458832,263.622783249451L873.3050470757798,263.62278334123783L873.9238491677386,263.62278349636205L874.233250213718,263.6227833258553L874.5426512596972,263.62278348924843L875.4708543976353,263.6227836003424L876.3990575355733,263.6227836668175L877.017859627532,263.6227832860607L877.3272606735113,263.62278344959304L877.9460627654701,263.6227835549065L878.2554638114493,263.622783453175L878.5648648574287,263.62278355790204L880.1118700873254,263.62278361729244L880.4212711333048,263.62278349375015L880.730672179284,263.62278357154673L881.3494742712428,263.62278363388236L881.9682763632014,263.62278354493407L883.8246826390775,263.62278336412714L884.7528857770155,263.6227832690639L885.6810889149535,263.62278329629936L886.6092920528916,263.62278340326185L887.2280941448503,263.6227832521007L888.1562972827883,263.6227833219709L890.3221046046438,263.62278350033864L891.2503077425818,263.6227834070134L891.5597087885611,263.6227834768238L893.4161150644371,263.6227835940968L894.0349171563959,263.62278366167965L894.3443182023751,263.6227835500052L896.5101255242306,263.62278363987963L897.1289276161892,263.62278369313935L898.3665318001066,263.6227837244906L898.675932846086,263.62278374402683L899.604135984024,263.6227837552045L899.9135370300033,263.6227837614879L901.7699433058793,263.6227837653788L902.0793443518587,263.62278376807615L902.3887453978381,263.6227837704199L904.5545527196934,263.62278377037535L906.1015579495902,263.622783591464L906.4109589955696,263.6227836122201L906.7203600415488,263.62278367690635L907.3391621335076,263.6227836454096L907.9579642254662,263.62278369512734L909.1955684093836,263.622783693703L909.5049694553629,263.62278359497276L910.4331725933009,263.62278364678934L911.9801778231977,263.6227835456655L913.217782007115,263.622783635704" style="fill: none;" fill="none"></path></g></g></g></g><g opacity="0.2"><g><g><g><path stroke="rgb(255, 112, 67)" stroke-width="2px" d="M193.86035010514607,233.40428792531986L194.1697511511254,233.4154620276371L196.02615742700146,197.72257599914582L197.26376161091883,186.42773859070226L197.57316265689818,183.02131521136766L198.5013657948362,174.26055419469688L198.81076684081555,172.4652103764243L199.1201678867949,169.77223117314966L199.73896997875354,164.80024643504223L200.0483710247329,162.2106579247505L200.97657416267091,157.43538304259383L201.28597520865026,155.77766216211495L203.1423814845263,146.4394271901039L204.07058462246434,138.33266732102723L204.68938671442302,141.5729332826978L205.3081888063817,130.53596995849668L207.4739961282371,122.38810217633961L207.78339717421645,123.129624280592L208.0927982201958,126.8426586357875L208.71160031215447,121.6726491728968L209.6398034500925,114.70838248472698L210.56800658803053,101.47317761751795L211.49620972596855,102.07728679774843L211.8056107719479,105.00489703934231L212.11501181792724,96.28103452928146L212.42441286390658,104.72797105358005L213.04321495586524,94.65885163141228L213.35261600184458,87.02419359041086L213.66201704782392,94.12852120233451L213.97141809380327,88.21966502802411L214.59022018576195,92.41106510031597L214.8996212317413,93.39686974535891L216.75602750761735,89.32037459936726L217.37482959957603,79.56843075888756L217.68423064555537,80.64245945017275L218.30303273751406,74.55129305983333L219.2312358754521,72.42588064048805L220.46884005936946,70.83017773993852L220.7782411053488,67.83138196072258L223.56285051916288,64.43651846987302L223.87225156514222,65.58531206393523L224.80045470308025,55.78882704175719L225.72865784101828,67.69136669213651L226.03805888699756,58.987501145568764L226.65686097895625,65.65196860891228L228.82266830081164,54.048926859251836L230.36967353070835,62.362312886723835L231.60727771462572,56.760113343442136L231.91667876060507,48.111965363648345L232.53548085256375,47.893660613331704L233.15428294452244,56.456889981031395L233.46368399050178,51.03837030881252L235.0106892203985,43.89558278354043L235.32009026637783,53.01235366762364L237.48589758823323,46.42844018233319L238.1046996801919,41.26715998752443L238.41410072617126,41.12294444350147L239.34230386410925,49.46520279908542L241.50811118596465,50.21451367496316L242.12691327792334,43.67435610248508L242.43631432390268,34.29934132730036L243.05511641586136,32.99964827265034L243.67391850782005,32.24672150748346L245.5303247836961,35.36140836462389L245.83972582967544,44.543849642059826L246.1491268756548,34.85637089850318L247.0773300135928,20.503810585773863L247.38673105957216,26.200790257392814L247.6961321055515,25.15862887322681L248.00553315153084,25.590106733000233L248.62433524348953,20.318158411462417L248.93373628946887,25.82607090221902L249.8619394274069,19.827456668028518L250.17134047338624,38.4650649332257L250.48074151936558,25.0453310088329L251.71834570328295,27.15288312653776L252.0277467492623,34.13412440609282L252.33714779524163,35.37439269434408L253.2653509331796,32.0292750743213L254.50295511709697,31.46914095170858L254.81235616307632,227.75451341444003L255.431158255035,251.91487438268473L255.74055930101434,254.42738270250277L256.0499603469937,255.8598558230229L256.359361392973,256.7465351091339L256.9781634849317,257.69346038397435L257.5969655768904,258.2334411741443L258.2157676688491,258.52965589760925L258.83456976080777,258.7693986026525L259.45337185276645,258.9022537142047L259.7627728987458,258.9749107749537L260.6909760366838,259.140385933204L261.0003770826632,259.1869482121116L261.3097781286425,259.22311452396804L261.6191791746219,259.28289482998593L262.23798126658056,259.3502479016167L263.78498649647725,259.5310691884861L266.2601948643119,259.74944042414086L266.5695959102913,259.7628838736421L266.8789969562706,259.79386661188533L267.4977990482293,259.8432940379166L267.80720009420867,259.8702634015661L268.42600218616735,259.92649344759855L268.73540323214667,259.9536237457144L269.04480427812604,259.9630067387302L269.35420532410535,259.9754962805695L270.9012105540021,260.07981034932095L271.2106115999814,260.09424194786016L271.5200126459608,260.1202348616084L272.75761682987815,260.18591838082193L273.06701787585746,260.2028167851459L273.37641892183683,260.21887313696897L273.9952210137955,260.2671123872585L276.47042938163025,260.39451541574186L276.77983042760957,260.41461310594894L277.7080335655476,260.47930590802133L278.3268356575063,260.4960876063227L278.945637749465,260.5215126839215L279.5644398414236,260.545926214209L280.1832419333823,260.5765559809362L280.4926429793617,260.5849913438754L281.11144507132036,260.6120819790643L281.73024716327905,260.64378007671786L282.03964820925836,260.6587327148595L282.65845030121704,260.6814761220401L284.2054555311138,260.76752355815785L284.5148565770931,260.7881325862442L284.82425762307247,260.8127002027229L285.1336586690518,260.8242050196618L287.6088670368865,260.9135698744093L288.2276691288452,260.9442920928513L288.5370701748246,260.9618875945185L289.4652733127626,261.004069830766L290.70287749667995,261.0553169005787L291.32167958863863,261.07058084989575L291.631080634618,261.1006972813301L292.559283772556,261.13619331825436L293.1780858645147,261.16290330348176L294.72509109441137,261.22604468588355L295.34389318637005,261.25591215398106L295.6532942323494,261.27529962098413L297.2002994622461,261.3453273720855L297.5097005082255,261.35951856763177L298.12850260018416,261.38086977753954L299.05670573812216,261.4152709464712L299.67550783008085,261.44409633536384L299.9849088760602,261.4596738786146L301.2225130599776,261.5201046281012L301.84131515193627,261.5436662614921L302.1507161979156,261.55781508333575L302.46011724389496,261.5663130794584L303.6977214278123,261.6222634875881L304.9353256117297,261.68075332175385L305.244726657709,261.68290339481206L305.5541277036884,261.7021546096738L305.86352874966764,261.69937107116243L306.172929795647,261.72253778735194L306.4823308416263,261.73737371947095L308.64813816348175,261.8305132578881L309.57634130141975,261.8738305957448L309.8857423473991,261.87177725457326L312.36095071523386,261.9756018143226L313.5985548991512,262.037006730952L313.90795594513054,262.0522615492354L314.2173569911099,262.0690729233958L314.5267580370892,262.0793100960665L314.8361590830686,262.08795747019116L315.7643622210066,262.1346793995137L317.31136745090333,262.2090077247487L317.930169542862,262.2506928903568L319.16777372677933,262.3112827195687L319.4771747727587,262.3404733498036L320.71477895667607,262.4180999755668L321.0241800026554,262.44088340235544L321.33358104863476,262.44688177804136L322.26178418657275,262.50755828073585L323.1899873245108,262.5643420383501L323.4993883704901,262.5949086725406L324.4275915084282,262.6333924121797L324.7369925544075,262.65374227585266L325.97459673832486,262.73793497077884L326.28399778430423,262.75442526070447L327.5216019682216,262.82996622999775L327.8310030142009,262.84175917384715L328.1404040601803,262.8570653541944L328.759206152139,262.90141243009344L329.0686071981183,262.9259163433459L329.37800824409766,262.94185934194763L329.99681033605634,262.96880951615935L330.30621138203566,262.9879901081834L330.615612428015,262.99304463461135L330.92501347399434,263.02330345310025L332.1626176579117,263.0655378717778L332.472018703891,263.0858609843758L332.78141974987034,263.095075837969L333.0908207958497,263.1094346022483L333.400221841829,263.11622124294064L334.0190239337877,263.1266384681793L334.6378260257464,263.1551381716523L335.2566281177051,263.16462909633816L335.56602916368445,263.17405232297057L336.8036333476018,263.21255692844807L337.11303439358113,263.21757582244436L337.7318364855398,263.23014447612906L338.3506385774985,263.256349864748L339.58824276141587,263.28102159641014L339.89764380739524,263.2837079036814L340.82584694533324,263.30508925313353L341.1352479913126,263.3150658703349L341.4446490372919,263.31661629129866L341.7540500832713,263.32830638618213L342.37285217523,263.3300773965093L342.6822532212093,263.32922678366447L343.61045635914735,263.3475009065992L343.91985740512666,263.3546362029674L344.22925845110603,263.3630028869805L344.8480605430647,263.37329534520586L345.7762636810027,263.3902954392825L347.0138678649201,263.4149955805862L348.25147204883746,263.4271272822138L348.56087309481677,263.4328996648192L349.4890762327548,263.4484402380845L350.4172793706928,263.45988593514795L350.7266804166722,263.46281141486264L351.0360814626515,263.47189645440636L351.3454825086309,263.4726062317591L351.6548835546102,263.4827802273079L351.96428460058956,263.48490747278225L352.89248773852756,263.4987622557279L353.20188878450693,263.4984889043278L353.51128983048625,263.50235392637734L353.8206908764656,263.4987836209197L354.7488940144036,263.5071008332783L356.91470133625904,263.51385883248645L357.84290447419704,263.51774740439885L358.1523055201764,263.518003233845L358.7711076121351,263.52722571149445L359.0805086581144,263.52349767278236L359.3899097040937,263.5276660252699L359.6993107500731,263.5285573264997L360.0087117960524,263.52842992004713L360.6275138880111,263.52938339077497L361.2463159799698,263.53566605905064L361.86511807192846,263.53808284032544L362.17451911790783,263.53578361219064L363.10272225584583,263.5464635864868L363.7215243478045,263.545795915326L364.6497274857426,263.55002203230123L364.9591285317219,263.5543191332536L366.81553480759794,263.5594299484017L367.1249358535773,263.5626071022288L367.4343368995566,263.5609022161002L368.671941083474,263.5697784857971L369.60014422141205,263.57121967766363L370.21894631337074,263.57342591906206L371.14714945130874,263.5802097999352L372.3847536352261,263.58362176578055L373.6223578191435,263.5865180377799L373.93175886512284,263.5872592387286L374.24115991110216,263.5873588084586L374.85996200306084,263.5918549819932L375.4787640950195,263.59146326823304L375.7881651409989,263.5948961333557L376.0975661869782,263.5935936881683L376.7163682789369,263.59727006163774L377.3351703708956,263.5972145598451L377.64457141687495,263.5962691099812L377.95397246285427,263.6002141623298L378.26337350883364,263.6030937795558L378.8821756007922,263.6025581071154L379.1915766467716,263.60298856980756L379.5009776927509,263.6042182442689L380.1197797847096,263.6063806038729L381.04798292264763,263.6064083157572L381.6667850146063,263.60945419760134L382.5949881525443,263.6126803371051L382.9043891985237,263.6130381293877L383.5231912904824,263.61475019817993L384.14199338244106,263.61791975637374L384.76079547439974,263.6148137247377L385.3795975663584,263.61369013110647L385.68899861233774,263.61387039378184L386.6172017502758,263.6152506244072L387.2360038422345,263.6167078173177L387.5454048882138,263.61873793103246L388.78300907213116,263.6209369659421L390.02061325604853,263.6218151356684L390.9488163939866,263.62169081046585L391.2582174399659,263.622006650027L391.5676184859453,263.6221830274571L391.8770195319246,263.62230353861116L392.18642057790396,263.62230363304104L393.73342580780064,263.62253567498203L394.3522278997593,263.62257031433234L394.6616289457387,263.62252853805296L394.971029991718,263.62240422011297L395.2804310376974,263.6223751634298L395.5898320836767,263.62226376279324L396.51803522161475,263.6226605153256L397.13683731357344,263.62268097632756L399.3026446354288,263.6227705523399L400.23084777336686,263.62276734243295L401.77785300326354,263.6227785430915L402.0872540492429,263.6227714757396L402.39665509522223,263.6227670372905L403.3248582331603,263.6227728096687L403.94366032511897,263.62276683219994L404.2530613710983,263.62276931716104L404.56246241707765,263.62276950330505L405.4906655550156,263.6227796976511L407.0376707849123,263.6227828762486L407.65647287687096,263.62278311187004L408.27527496882965,263.62278291389106L408.584676014809,263.62278266507263L409.2034781067677,263.62277264664453L410.1316812447057,263.62278233974575L410.4410822906851,263.622782586985L411.05988438264376,263.6227832205033L412.2974885665611,263.6227795693867L412.60688961254044,263.6227818378304L413.2256917044991,263.62278305815386L414.1538948424372,263.62278346529024L414.77269693439587,263.62278314428806L415.70090007233387,263.62278316457105L416.01030111831324,263.62278331263786L416.6291032102719,263.62278221648796L417.2479053022306,263.62278261136845L417.5573063482099,263.6227823395214L418.1761084401686,263.62278315343667L418.485509486148,263.62278307948515L419.10431157810666,263.6227830140592L419.413712624086,263.6227821081872L419.72311367006535,263.62278211503457L421.27011889996203,263.622782767312L422.5077230838794,263.6227836162714L422.81712412985877,263.62278349729485L423.1265251758381,263.6227834026802L426.5299366816109,263.6227835442092L426.8393377275902,263.6227829247164L427.4581398195489,263.6227820358443L429.0051450494456,263.62277695876844L429.31454609542493,263.62278327152654L429.6239471414043,263.62278365950414L430.5521502793423,263.62278358175496L430.86155132532167,263.6227831056033L431.78975446325967,263.62278294782266L432.7179576011976,263.6227807583137L433.027358647177,263.62278284089496L433.64616073913567,263.62278332363934L433.955561785115,263.6227833478352L434.26496283109435,263.6227834308103L434.57436387707367,263.6227831720468L434.88376492305304,263.6227834164078L436.7401711989291,263.62278332386745L437.6683743368671,263.6227836610919L438.2871764288258,263.6227837351843L438.90597852078446,263.62278374701975L440.1435827047018,263.62278371470455L441.69058793459857,263.62278369830415L441.9999889805779,263.62278356647676L442.30939002655725,263.62278344029863L442.61879107253657,263.62278321036007L443.5469942104746,263.62278130074947L446.02220257830936,263.62278345316315L446.3316036242887,263.6227834210344L446.95040571624736,263.6227829007452L447.56920780820604,263.6227831839852L448.4974109461441,263.62278359414495L448.8068119921234,263.6227831259371L449.1162130381028,263.62278344039004L450.35381722202015,263.6227823570075L450.66321826799947,263.62278371139485L451.28202035995815,263.62278340270564L451.5914214059375,263.6227832092377L451.90082245191684,263.62278334728177L452.5196245438755,263.6227823611229L452.8290255898549,263.62278314297805L453.7572287277929,263.6227836168077L454.3760308197516,263.62278280551726L455.9230360496483,263.62278357106527L456.23243709562763,263.6227828491933L457.1606402335657,263.6227835732793L458.0888433715037,263.6227837342325L459.0170465094416,263.62278288526454L459.6358486014003,263.6227827231424L460.56405173933837,263.6227827506537L460.8734527853177,263.622749594106L462.11105696923505,263.6227837696626L462.4204580152144,263.622783030728L466.44267161294584,263.62278345463596L466.7520726589252,263.6227837532755L467.06147370490453,263.6227829725678L467.6802757968632,263.622783607297L468.2990778888219,263.6227836142991L468.9178799807806,263.6227835559085L469.84608311871864,263.6227837575599L470.4648852106773,263.62278333867204L470.77428625665664,263.62278335936816L471.7024893945947,263.62278335933905L472.011890440574,263.6227833102779L472.6306925325327,263.6227837680473L473.55889567047075,263.62277713407366L473.86829671645006,263.62278363369404L474.48709880840875,263.6227837301642L474.7964998543881,263.62278372553413L475.7247029923261,263.622783455385L476.9623071762435,263.6227829568459L477.27170822222286,263.6227835516511L477.89051031418154,263.6227835453157L478.5093124061402,263.6227836143622L479.7469165900576,263.62278303487267L480.0563176360369,263.6227835654486L480.6751197279956,263.6227832762296L480.98452077397496,263.6227831755308L481.2939218199543,263.62278283923285L481.60332286593365,263.6227837255241L482.22212495789233,263.62278324014505L483.4597291418097,263.62278248126825L484.0785312337684,263.6227833043515L484.3879322797477,263.62278376354584L485.31613541768564,263.6227837635133L486.553739601603,263.62278376965133L487.48194273954107,263.62278324636253L488.41014587747907,263.62278343468387L488.71954692345844,263.62278325353367L489.9571511073758,263.62278316088765L490.5759531993345,263.622783472646L490.8853542453138,263.62278256673L491.5041563372725,263.62278359014937L492.1229584292312,263.62278317315764L492.43235947521055,263.62278362277624L493.36056261314855,263.6227829991664L494.9075678430453,263.6227829484497L495.52636993500397,263.6227832981251L495.8357709809833,263.622783593823L496.45457307294197,263.6227832215615L496.76397411892134,263.62278361750515L498.0015783028387,263.62278328955637L499.2391824867561,263.6227834638718L499.85798457871476,263.62278297521317L500.47678667067345,263.62269429115264L501.09558876263213,263.62278374669063L501.7143908545908,263.62278376363855L502.02379190057013,263.62278376596896L502.9519950385082,263.6227837672831L503.2613960844875,263.62278376730654L503.5707971304669,263.62278376829465L504.18959922242556,263.62278376928793L505.73660445232224,263.62278375572487L506.3554065442809,263.62278377044674L506.9742086362396,263.6227837705651L507.283609682219,263.6227837698572L507.5930107281983,263.6227837715929L509.14001595809503,263.62278377102444L510.3776201420124,263.6227834112945L510.9964222339711,263.6227831881584L511.3058232799504,263.62278369396853L513.1622295558265,263.62278372438203L513.4716306018057,263.6227830860419L513.7810316477851,263.622783765895L514.0904326937645,263.62278338886034L514.3998337397438,263.6227837015405L515.6374379236612,263.6227830083425L516.2562400156198,263.6227833544794L516.5656410615992,263.62278343366876L518.4220473374752,263.6227837659496L518.7314483834546,263.62278334365726L519.6596515213926,263.622783565987L520.2784536133513,263.62278369572084L520.5878546593307,263.62278302375745L520.8972557053099,263.6227837329252L521.5160577972687,263.6227837522903L522.4442609352067,263.6227833821565L523.0630630271654,263.622782542627L523.681865119124,263.6227836562334L523.9912661651034,263.622782822427L524.3006672110828,263.6227832432591L524.610068257062,263.62278369916186L524.9194693030414,263.62278373254156L525.2288703490208,263.6227823209428L526.1570734869588,263.62278347614597L526.4664745329382,263.62278335663103L527.0852766248968,263.62278369600546L527.3946776708761,263.62278326595083L527.7040787168555,263.6227835591859L528.6322818547935,263.622783019642L528.9416829007729,263.6227835840996L529.2510839467523,263.6227833501309L530.4886881306696,263.6227836401524L532.654495452525,263.62278375143916L533.2732975444836,263.6227837167673L533.8920996364424,263.62273817608633L534.2015006824217,263.622782093566L534.510901728401,263.62278376420403L535.4391048663391,263.62278376922524L536.0579069582977,263.62278377018254L536.6767090502565,263.6227837699197L536.9861100962357,263.6227837705217L537.6049121881945,263.62278377164097L539.1519174180911,263.62278376878584L539.7707195100497,263.6227837699486L540.0801205560291,263.6227837705266L541.0083236939671,263.6227837709147L541.3177247399465,263.62278377213147L541.9365268319052,263.62278376902094L542.2459278778845,263.6227837679562L542.5553289238638,263.6227835850724L542.8647299698432,263.6227837563566L543.1741310158226,263.6227828548649L543.7929331077812,263.6227837690354L544.1023341537606,263.62278376951673L544.41173519974,263.62278311214254L545.339938337678,263.62278362972694L546.268141475616,263.62278376387917L547.196344613554,263.6227830782265L547.5057456595333,263.62278366658813L548.1245477514921,263.62278376527354L548.7433498434507,263.62278364752177L549.0527508894301,263.6227834599267L549.3621519354094,263.6227835186661L549.6715529813887,263.62278347215005L551.8373603032442,263.6227837462903L552.4561623952028,263.622783454577L553.0749644871615,263.6227828935406L553.6937665791202,263.62278282765004L554.0031676250995,263.6227836700626L555.8595739009755,263.6227828660098L556.1689749469549,263.6227831238659L556.7877770389136,263.62278370636795L557.0971780848929,263.6227837398948L557.4065791308723,263.6227833686031L558.6441833147896,263.6227835222661L559.2629854067484,263.6227828248531L559.881787498707,263.62278373400164L560.5005895906658,263.6227830527228L560.809990636645,263.6227828696324L561.1193916826244,263.62278367302014L562.0475948205624,263.6227831224274L562.3569958665418,263.6227836748325L562.6663969125211,263.6227832464058L563.2851990044798,263.6227832273203L563.5946000504591,263.62278354883483L564.5228031883971,263.62278319554L565.7604073723145,263.6227835564391L566.0698084182937,263.6227837370114L566.3792094642731,263.6227837356915L566.9980115562319,263.6227830985742L568.2356157401492,263.622783764997L568.5450167861285,263.6227837661922L568.8544178321079,263.6227837670598L569.7826209700459,263.6227837684603L571.3296261999426,263.62278376979384L571.9484282919013,263.6227837692593L573.1860324758187,263.62278376996045L574.1142356137567,263.6227837542603L574.4236366597361,263.62278372837926L575.9706418896327,263.6227837668637L576.5894439815914,263.62278300907036L576.8988450275708,263.6227837653073L577.2082460735501,263.6227837704836L577.5176471195294,263.622783769121L577.8270481655088,263.6227837681163L578.1364492114882,263.62278353434624L578.4458502574674,263.62278341828556L579.3740533954056,263.622783298382L579.6834544413848,263.6227837613072L579.9928554873642,263.62278342788954L580.3022565333436,263.6227837291774L580.9210586253022,263.62278375431316L581.5398607172609,263.6227836152814L581.8492617632403,263.6227836786567L582.7774649011783,263.62278295704914L583.0868659471577,263.62278372920457L584.9432722230337,263.622782808829L586.180876406951,263.6227833292325L587.7278816368478,263.6227837469953L588.0372826828271,263.62278326367897L588.3466837288064,263.6227836671235L589.5842879127238,263.622782820044L590.5124910506619,263.6227834893764L592.0594962805585,263.6227831814052L592.9876994184965,263.62278373899915L593.9159025564345,263.62278326129086L594.5347046483932,263.6227830279745L594.8441056943725,263.6227837483369L595.7723088323106,263.62278293459036L597.009913016228,263.62278312296706L598.2475172001454,263.6227836404574L599.794522430042,263.62278320619765L601.3415276599387,263.6227832794925L601.9603297518975,263.62278305150954L602.8885328898355,263.62278372147165L603.1979339358148,263.62278306317427L603.8167360277735,263.62278323351023L605.9825433496288,263.62278372984787L608.7671527634429,263.62278372481234L609.0765538094223,263.6227834376855L609.6953559013809,263.62266717299065L610.0047569473603,263.62277388877675L610.9329600852983,263.6227837708611L611.2423611312777,263.6227837704592L611.8611632232364,263.6227837713864L613.0987674071538,263.62278376659657L613.7175694991124,263.6227837705892L614.9551736830298,263.62278377097505L615.2645747290092,263.62278377068463L615.5739757749885,263.62278377147993L615.8833768209678,263.6227837719327L616.1927778669472,263.6227837714856L617.4303820508645,263.6227837597848L617.7397830968439,263.62278377085886L618.3585851888025,263.62278377083857L618.6679862347818,263.6227837713457L619.9055904186991,263.6227837720278L621.4525956485959,263.62278377135584L621.7619966945753,263.6227837713956L622.9996008784926,263.6227831608754L623.9278040164306,263.62278377134834L625.165408200348,263.6227833347115L627.0218144762241,263.62278375129705L631.0440280739555,263.62278366394054L631.3534291199348,263.6227830502411L632.5910333038522,263.6227837644439L635.6850437636457,263.6227833686677L635.9944448096251,263.6227834649204L637.2320489935424,263.62278341787805L637.8508510855012,263.62278370891005L638.1602521314804,263.62278312346456L638.4696531774598,263.6227836876509L638.7790542234392,263.6227836721565L639.7072573613772,263.6227836912041L640.3260594533359,263.62278369454623L640.6354604993152,263.62278373405655L641.2542625912738,263.6227837604854L641.8730646832325,263.62278191287066L642.1824657292118,263.6227837450268L642.8012678211705,263.62278375531514L643.1106688671499,263.62278374771233L643.4200699131292,263.62278283422637L643.7294709591085,263.62278376531054L644.0388720050879,263.62278342977515L644.3482730510673,263.6227836760642L644.6576740970465,263.6227827429131L644.9670751430259,263.6227837506776L645.5858772349847,263.6227832778862L647.75168455684,263.6227835447198L648.679887694778,263.62278326956306L648.9892887407574,263.62278363424724L649.608090832716,263.6227836475778L651.4644971085921,263.62278318193574L651.7738981545715,263.62278350415687L653.0115023384889,263.6227830172881L653.6303044304475,263.62278342184544L653.9397054764269,263.6227833774713L654.8679086143649,263.6227831846923L655.1773096603442,263.62278305477963L656.4149138442616,263.62278374664567L656.724314890241,263.6227830667043L657.0337159362202,263.62278376481044L657.652518028179,263.62278373289337L659.8183253500343,263.62278327578144L660.1277263960137,263.6227837638354L660.4371274419931,263.62278253025954L661.0559295339517,263.62278372895656L661.6747316259105,263.62278369680524L661.9841326718897,263.62278329131817L664.1499399937452,263.622783737972L665.6969452236418,263.62278377131423L667.5533514995179,263.622783768655L668.4815546374558,263.6227837659201L668.7909556834352,263.6227837359332L669.7191588213732,263.6227837709343L671.8849661432287,263.6227836137462L672.8131692811667,263.62278376814936L673.122570327146,263.6227836687269L673.4319713731253,263.6227836035541L674.6695755570427,263.62278375871915L676.2165807869394,263.62278376801106L677.1447839248774,263.6227834584555L677.4541849708568,263.6227834685228L678.0729870628155,263.6227834723935L678.6917891547741,263.6227836174123L679.0011902007535,263.62278372893473L679.3105912467329,263.6227833748397L679.6199922927121,263.62278330522895L680.5481954306503,263.62278364649455L681.1669975226089,263.6227829452587L681.7857996145676,263.62278370272674L682.0952006605469,263.62278323659564L682.4046017065263,263.6227835948789L683.3328048444642,263.62278358695823L684.879810074361,263.6227828322489L686.4268153042577,263.6227835046425L686.7362163502371,263.6227836818046L687.0456173962164,263.62278312989156L688.2832215801337,263.62278371082766L688.5926226261131,263.6227834307046L688.9020236720925,263.6227830985971L691.0678309939478,263.6227835518286L691.3772320399272,263.62278336222363L691.9960341318858,263.62278364818394L692.3054351778652,263.62278312609317L692.924237269824,263.6227837382815L694.7806435457,263.62278276840885L695.3994456376586,263.62278376393243L696.0182477296173,263.62278376351213L696.3276487755966,263.62278317855515L697.5652529595139,263.62278314025497L698.8028571434313,263.62278377082555L699.1122581894107,263.62278377027974L699.42165923539,263.6227837702181L700.349862373328,263.622783769992L700.6592634193074,263.6227837705472L702.2062686492042,263.62278377036296L702.5156696951834,263.6227832975649L703.1344717871422,263.62278377195895L703.7532738791008,263.6227837700732L704.0626749250802,263.62278377063717L704.3720759710595,263.6227837712587L704.6814770170389,263.62278377161607L705.3002791089975,263.62278314539793L705.9190812009563,263.622783770606L707.1566853848736,263.62278369167143L707.7754874768323,263.6227835199618L708.394289568791,263.62278376451496L709.322492706729,263.622782869271L709.6318937527084,263.62278359285375L710.8694979366257,263.6227837208967L711.7977010745637,263.62278360011464L712.4165031665224,263.62278293684045L712.7259042125017,263.62278373264616L713.3447063044605,263.6227832440078L714.2729094423985,263.62278372468654L714.5823104883779,263.6227831652227L714.8917115343571,263.62278374217533L715.2011125803365,263.6227833766671L716.7481178102332,263.6227831314078L717.0575188562126,263.62278367011675L717.3669199021919,263.62278345882817L717.9857219941506,263.62278343167213L718.6045240861092,263.6227832149475L718.9139251320886,263.6227836817469L719.5327272240473,263.62278333879135L720.151529316006,263.6227831142056L721.079732453944,263.6227835169501L721.6985345459026,263.62278375310217L722.007935591882,263.6227831246974L722.3173366378613,263.6227837616566L722.6267376838406,263.6227829883997L724.4831439597167,263.6227830167284L724.7925450056961,263.62278372094363L725.7207481436341,263.6227832164122L726.0301491896134,263.6227837390289L726.3395502355927,263.6227832122897L726.6489512815721,263.6227837422999L728.1959565114688,263.62278309461254L730.6711648793035,263.62278321792195L730.9805659252829,263.62278370987224L732.2181701092003,263.6227837334353L732.8369722011589,263.62274945363674L733.7651753390969,263.62278377185567L734.0745763850763,263.6227837723468L734.3839774310557,263.6227837712293L734.693378477035,263.62278377194076L735.3121805689937,263.62278377211396L735.621581614973,263.62278377201704L736.549784752911,263.62278377170924L738.0967899828078,263.62278377139666L738.4061910287871,263.6227837712368L739.0249931207458,263.62278377129417L739.9531962586838,263.6227834990165L742.1190035805392,263.6227837719604L742.4284046265185,263.6227837718034L742.7378056724979,263.6227829588276L743.6660088104359,263.6227837714216L744.9036129943532,263.6227832396285L745.2130140403326,263.6227836701623L745.522415086312,263.622783746184L746.45061822425,263.62278362431346L746.7600192702293,263.62278308097467L747.378821362188,263.6227837708917L747.9976234541467,263.6227833950031L748.6164255461053,263.6227831781604L749.8540297300227,263.62278376143166L750.4728318219815,263.62278344015664L750.7822328679608,263.62278377044123L752.3292380978575,263.6227837687526L752.9480401898162,263.6227835295396L754.1856443737336,263.6227830160063L755.4232485576509,263.622783716783L755.7326496036303,263.62278303193165L756.9702537875477,263.6227837631734L757.8984569254857,263.6227837708589L758.207857971465,263.6227837714153L758.8266600634237,263.6227837636244L759.136061109403,263.62278377028866L759.7548632013617,263.62278306501173L760.064264247341,263.62278372787176L760.3736652933204,263.6227834431029L760.9924673852789,263.62278372875215L761.3018684312583,263.62278296619576L761.6112694772376,263.6227837635577L763.4676757531137,263.6227835183641L763.777076799093,263.6227837132951L764.0864778450723,263.62278377164574L764.3958788910517,263.6227828656986L764.705279937031,263.6227837634641L765.633483074969,263.6227837224698L766.2522851669278,263.62278370101814L768.4180924887831,263.62278376923206L769.6556966727005,263.62278368106615L769.9650977186799,263.6227836675075L770.2744987646591,263.62278301887346L770.5838998106385,263.6227837722772L771.8215039945559,263.6227837387109L772.1309050405353,263.6227833139797L772.7497071324939,263.6227831715958L773.0591081784733,263.6227837128032L773.677910270432,263.62278371920803L774.60611340837,263.622783288973L775.534316546308,263.62277419176075L775.8437175922874,263.6227837533812L776.462519684246,263.6227837725755L777.0813217762047,263.62278377287777L777.7001238681634,263.6227837718198L779.2471290980601,263.62278376894824L780.4847332819775,263.6227837635073L781.4129364199155,263.6227837721221L782.6505406038328,263.62278377287777L783.2693426957916,263.6227837715175L783.578743741771,263.6227837710641L783.8881447877502,263.62278377454027L784.8163479256883,263.6227837718198L786.363353155585,263.6227837240608L788.2197594314611,263.62278308127935L788.5291604774404,263.6227836817427L788.8385615234197,263.6227837644141L789.7667646613578,263.6227837654721L790.6949677992958,263.62278372965284L791.6231709372338,263.62278374778913L791.9325719832132,263.62278311362246L792.8607751211512,263.6227834544341L793.1701761671305,263.6227837174108L793.4795772131099,263.62278308173273L793.7889782590892,263.62278375096304L794.7171813970273,263.6227835191204L795.3359834889859,263.6227837458244L796.2641866269239,263.6227834500512L796.5735876729033,263.6227836808359L797.192389764862,263.6227827501404L798.1205929028,263.62278371589946L799.3581970867174,263.62278293815353L799.6675981326968,263.6227837710641L799.976999178676,263.6227837715175L800.2864002246554,263.62278275482555L800.5958012706348,263.62278376864595L801.2146033625934,263.62278332627085L801.5240044085728,263.6227837190733L801.8334054545521,263.6227834338797L802.1428065005315,263.62278326566525L803.9992127764075,263.62278323150855L804.6180148683662,263.6227837721221L805.2368169603249,263.62278345186485L805.5462180063042,263.62278370532L805.8556190522836,263.62278376501865L806.1650200982629,263.6227830327647L806.4744211442422,263.62278373766304L807.093223236201,263.62278320385064L807.7120253281596,263.62278319432914L808.021426374139,263.622783763205L808.949629512077,263.62278329997315L809.2590305580563,263.6227836846143L810.1872336959943,263.62278376985506L812.3530410178497,263.6227837239097L816.6846556615603,263.6227717823505L816.9940567075397,263.6227794345183L818.2316608914571,263.62278377000615L818.5410619374364,263.62278377121527L818.8504629834158,263.6227837734823L819.4692650753744,263.6227837704596L819.7786661213538,263.6227837704596L820.3974682133124,263.62278377227324L821.3256713512505,263.6227837721221L821.6350723972298,263.6227837710641L822.2538744891885,263.62278377363344L822.5632755351679,263.62278377197094L822.8726765811472,263.6227837707618L824.1102807650645,263.62278369202L824.4196818110439,263.62278347665114L825.0384839030027,263.62278377121527L825.3478849489819,263.6227833072277L826.27608808692,263.62278315216207L826.5854891328993,263.6227837072847L826.8948901788787,263.6227836883927L828.4418954087754,263.6227834106047L828.7512964547548,263.62278372995513L829.060697500734,263.62278307296685L829.3700985467134,263.62278376532095L832.4641090065069,263.62278323105517L832.7735100524861,263.6227837564039L833.3923121444449,263.6227837494517L834.6299163283622,263.6227837171085L835.8675205122796,263.6227832263699L836.176921558259,263.62278372663013L837.7239267881556,263.6227834517137L838.3427288801144,263.6227832083847L838.6521299260937,263.62278373600054L839.2709320180523,263.62278339775816L839.5803330640317,263.62278373584945L839.8897341100111,263.6227831835984L841.1273382939285,263.6227834101514L841.4367393399077,263.6227835256192L841.7461403858871,263.6227837285949L842.0555414318665,263.6227831978052L842.6743435238251,263.6227831001713L843.6025466617632,263.62278362536904L843.9119477077425,263.6227832971016L844.2213487537218,263.6227837335824L844.5307497997012,263.6227832250097L845.4589529376392,263.6227837311642L845.7683539836186,263.6227833581605L847.0059581675359,263.62278370622676L847.3153592135153,263.62278322788126L848.5529633974327,263.6227836939848L848.8623644434119,263.6227833028447L849.4811665353707,263.62278322984605L849.79056758135,263.62278375126533L850.0999686273293,263.622783289847L850.718770719288,263.62278321669726L851.0281717652674,263.6227837464289L853.1939790871228,263.6227580014673L853.5033801331022,263.622783732071L853.8127811790814,263.62278377287777L854.7409843170195,263.62278377000615L855.9785885009369,263.622783774238L857.8349947768129,263.6227837710641L858.1443958227923,263.62278377121527L859.3820000067096,263.62278377302886L859.691401052689,263.62278377121527L860.9290052366064,263.6227835555442L861.2384062825856,263.62278375323007L861.547807328565,263.6227837721221L861.8572083745444,263.62278377136636L864.0230156963997,263.62278377287777L865.2606198803171,263.6227837544392L865.8794219722758,263.62278368023135L866.1888230182551,263.6227835162488L868.3546303401104,263.6227834367512L868.9734324320691,263.62278358471343L869.5922345240277,263.62278331962085L870.2110366159865,263.62278305906233L871.7580418458832,263.6227831659155L873.3050470757798,263.6227834789182L873.9238491677386,263.6227837290483L874.233250213718,263.6227830700953L874.5426512596972,263.62278373433804L875.4708543976353,263.62278376698345L876.3990575355733,263.62278376653006L877.017859627532,263.62278271492556L877.3272606735113,263.62278369489155L877.9460627654701,263.62278371287675L878.2554638114493,263.6227833005777L878.5648648574287,263.6227837149927L880.1118700873254,263.6227837063779L880.4212711333048,263.6227833084368L880.730672179284,263.62278368824155L881.3494742712428,263.6227837273858L881.9682763632014,263.6227834115116L883.8246826390775,263.6227830929168L884.7528857770155,263.62278312646896L885.6810889149535,263.6227833371526L886.6092920528916,263.6227835637055L887.2280941448503,263.622783025359L888.1562972827883,263.62278342677627L890.3221046046438,263.62278376789027L891.2503077425818,263.6227832670255L891.5597087885611,263.6227835815395L893.4161150644371,263.62278377000615L894.0349171563959,263.6227837630539L894.3443182023751,263.6227833824934L896.5101255242306,263.62278377469136L897.1289276161892,263.62278377302886L898.3665318001066,263.6227837715175L898.675932846086,263.62278377333115L899.604135984024,263.62278377197094L899.9135370300033,263.622783770913L901.7699433058793,263.62278377121527L902.0793443518587,263.6227837721221L902.3887453978381,263.62278377393574L904.5545527196934,263.62278377030844L906.1015579495902,263.62278332309694L906.4109589955696,263.6227836433542L906.7203600415488,263.62278377393574L907.3391621335076,263.6227835981645L907.9579642254662,263.62278376970386L909.1955684093836,263.62278369156655L909.5049694553629,263.62278344687735L910.4331725933009,263.62278372451425L911.9801778231977,263.6227833939798L913.217782007115,263.6227837707618" style="fill: none;" fill="none"></path></g></g></g></g></g></g><g transform="translate(50, 377)" clip-path="url(#clip_1)"><clipPath id="clip_1"><rect width="1448" height="23"></rect></clipPath><g><g><line x1="37.92222293155799" y1="0" x2="37.92222293155799" y2="5" style="visibility: inherit;" fill="rgb(0, 0, 0)" stroke="rgb(204, 204, 204)" stroke-width="1px"></line><line x1="192.6227459212287" y1="0" x2="192.6227459212287" y2="5" style="visibility: inherit;" fill="rgb(0, 0, 0)" stroke="rgb(204, 204, 204)" stroke-width="1px"></line><line x1="347.3232689108994" y1="0" x2="347.3232689108994" y2="5" style="visibility: inherit;" fill="rgb(0, 0, 0)" stroke="rgb(204, 204, 204)" stroke-width="1px"></line><line x1="502.02379190057013" y1="0" x2="502.02379190057013" y2="5" style="visibility: inherit;" fill="rgb(0, 0, 0)" stroke="rgb(204, 204, 204)" stroke-width="1px"></line><line x1="656.724314890241" y1="0" x2="656.724314890241" y2="5" style="visibility: inherit;" fill="rgb(0, 0, 0)" stroke="rgb(204, 204, 204)" stroke-width="1px"></line><line x1="811.4248378799117" y1="0" x2="811.4248378799117" y2="5" style="visibility: inherit;" fill="rgb(0, 0, 0)" stroke="rgb(204, 204, 204)" stroke-width="1px"></line><line x1="966.1253608695824" y1="0" x2="966.1253608695824" y2="5" style="visibility: inherit;" fill="rgb(0, 0, 0)" stroke="rgb(204, 204, 204)" stroke-width="1px"></line><line x1="1120.825883859253" y1="0" x2="1120.825883859253" y2="5" style="visibility: inherit;" fill="rgb(0, 0, 0)" stroke="rgb(204, 204, 204)" stroke-width="1px"></line><line x1="1275.526406848924" y1="0" x2="1275.526406848924" y2="5" style="visibility: inherit;" fill="rgb(0, 0, 0)" stroke="rgb(204, 204, 204)" stroke-width="1px"></line><line x1="1430.2269298385945" y1="0" x2="1430.2269298385945" y2="5" style="visibility: inherit;" fill="rgb(0, 0, 0)" stroke="rgb(204, 204, 204)" stroke-width="1px"></line></g><g transform="translate(0, 8)"><text x="37.92222293155799" y="0" dx="0em" dy="0.95em" style="text-anchor: middle; visibility: inherit; font-family: Roboto, sans-serif; font-size: 12px; font-weight: 200;" fill="rgb(33, 33, 33)" stroke="none" stroke-width="1px">-500</text><text x="192.6227459212287" y="0" dx="0em" dy="0.95em" style="text-anchor: middle; visibility: inherit; font-family: Roboto, sans-serif; font-size: 12px; font-weight: 200;" fill="rgb(33, 33, 33)" stroke="none" stroke-width="1px">0</text><text x="347.3232689108994" y="0" dx="0em" dy="0.95em" style="text-anchor: middle; visibility: inherit; font-family: Roboto, sans-serif; font-size: 12px; font-weight: 200;" fill="rgb(33, 33, 33)" stroke="none" stroke-width="1px">500</text><text x="502.02379190057013" y="0" dx="0em" dy="0.95em" style="text-anchor: middle; visibility: inherit; font-family: Roboto, sans-serif; font-size: 12px; font-weight: 200;" fill="rgb(33, 33, 33)" stroke="none" stroke-width="1px">1k</text><text x="656.724314890241" y="0" dx="0em" dy="0.95em" style="text-anchor: middle; visibility: inherit; font-family: Roboto, sans-serif; font-size: 12px; font-weight: 200;" fill="rgb(33, 33, 33)" stroke="none" stroke-width="1px">1.5k</text><text x="811.4248378799117" y="0" dx="0em" dy="0.95em" style="text-anchor: middle; visibility: inherit; font-family: Roboto, sans-serif; font-size: 12px; font-weight: 200;" fill="rgb(33, 33, 33)" stroke="none" stroke-width="1px">2k</text><text x="966.1253608695824" y="0" dx="0em" dy="0.95em" style="text-anchor: middle; visibility: inherit; font-family: Roboto, sans-serif; font-size: 12px; font-weight: 200;" fill="rgb(33, 33, 33)" stroke="none" stroke-width="1px">2.5k</text><text x="1120.825883859253" y="0" dx="0em" dy="0.95em" style="text-anchor: middle; visibility: inherit; font-family: Roboto, sans-serif; font-size: 12px; font-weight: 200;" fill="rgb(33, 33, 33)" stroke="none" stroke-width="1px">3k</text><text x="1275.526406848924" y="0" dx="0em" dy="0.95em" style="text-anchor: middle; visibility: inherit; font-family: Roboto, sans-serif; font-size: 12px; font-weight: 200;" fill="rgb(33, 33, 33)" stroke="none" stroke-width="1px">3.5k</text><text x="1430.2269298385945" y="0" dx="0em" dy="0.95em" style="text-anchor: middle; visibility: inherit; font-family: Roboto, sans-serif; font-size: 12px; font-weight: 200;" fill="rgb(33, 33, 33)" stroke="none" stroke-width="1px">4k</text></g><line x1="0" y1="0" x2="1448" y2="0" fill="rgb(0, 0, 0)" stroke="rgb(204, 204, 204)" stroke-width="1px"></line></g></g></g></g></svg>