<svg viewBox="0 0 1498 400" xmlns="http://www.w3.org/2000/svg"><g><g><g><g><g><line x1="50" y1="346.0563185606437" x2="45" y2="346.0563185606437" style="visibility: inherit;" fill="rgb(0, 0, 0)" stroke="rgb(204, 204, 204)" stroke-width="1px"></line><line x1="50" y1="311.1489860020628" x2="45" y2="311.1489860020628" style="visibility: inherit;" fill="rgb(0, 0, 0)" stroke="rgb(204, 204, 204)" stroke-width="1px"></line><line x1="50" y1="276.241653443482" x2="45" y2="276.241653443482" style="visibility: inherit;" fill="rgb(0, 0, 0)" stroke="rgb(204, 204, 204)" stroke-width="1px"></line><line x1="50" y1="241.33432088490116" x2="45" y2="241.33432088490116" style="visibility: inherit;" fill="rgb(0, 0, 0)" stroke="rgb(204, 204, 204)" stroke-width="1px"></line><line x1="50" y1="206.4269883263203" x2="45" y2="206.4269883263203" style="visibility: inherit;" fill="rgb(0, 0, 0)" stroke="rgb(204, 204, 204)" stroke-width="1px"></line><line x1="50" y1="171.51965576773944" x2="45" y2="171.51965576773944" style="visibility: inherit;" fill="rgb(0, 0, 0)" stroke="rgb(204, 204, 204)" stroke-width="1px"></line><line x1="50" y1="136.61232320915857" x2="45" y2="136.61232320915857" style="visibility: inherit;" fill="rgb(0, 0, 0)" stroke="rgb(204, 204, 204)" stroke-width="1px"></line><line x1="50" y1="101.7049906505777" x2="45" y2="101.7049906505777" style="visibility: inherit;" fill="rgb(0, 0, 0)" stroke="rgb(204, 204, 204)" stroke-width="1px"></line><line x1="50" y1="66.79765809199682" x2="45" y2="66.79765809199682" style="visibility: inherit;" fill="rgb(0, 0, 0)" stroke="rgb(204, 204, 204)" stroke-width="1px"></line><line x1="50" y1="31.89032553341602" x2="45" y2="31.89032553341602" style="visibility: inherit;" fill="rgb(0, 0, 0)" stroke="rgb(204, 204, 204)" stroke-width="1px"></line></g><g transform="translate(40, 0)"><text x="0" y="346.0563185606437" dx="0em" dy="0.3em" style="text-anchor: end; visibility: inherit; font-family: Roboto, sans-serif; font-size: 12px; font-weight: 200;" fill="rgb(33, 33, 33)" stroke="none" stroke-width="1px">0.12</text><text x="0" y="311.1489860020628" dx="0em" dy="0.3em" style="text-anchor: end; visibility: inherit; font-family: Roboto, sans-serif; font-size: 12px; font-weight: 200;" fill="rgb(33, 33, 33)" stroke="none" stroke-width="1px">0.14</text><text x="0" y="276.241653443482" dx="0em" dy="0.3em" style="text-anchor: end; visibility: inherit; font-family: Roboto, sans-serif; font-size: 12px; font-weight: 200;" fill="rgb(33, 33, 33)" stroke="none" stroke-width="1px">0.16</text><text x="0" y="241.33432088490116" dx="0em" dy="0.3em" style="text-anchor: end; visibility: inherit; font-family: Roboto, sans-serif; font-size: 12px; font-weight: 200;" fill="rgb(33, 33, 33)" stroke="none" stroke-width="1px">0.18</text><text x="0" y="206.4269883263203" dx="0em" dy="0.3em" style="text-anchor: end; visibility: inherit; font-family: Roboto, sans-serif; font-size: 12px; font-weight: 200;" fill="rgb(33, 33, 33)" stroke="none" stroke-width="1px">0.2</text><text x="0" y="171.51965576773944" dx="0em" dy="0.3em" style="text-anchor: end; visibility: inherit; font-family: Roboto, sans-serif; font-size: 12px; font-weight: 200;" fill="rgb(33, 33, 33)" stroke="none" stroke-width="1px">0.22</text><text x="0" y="136.61232320915857" dx="0em" dy="0.3em" style="text-anchor: end; visibility: inherit; font-family: Roboto, sans-serif; font-size: 12px; font-weight: 200;" fill="rgb(33, 33, 33)" stroke="none" stroke-width="1px">0.24</text><text x="0" y="101.7049906505777" dx="0em" dy="0.3em" style="text-anchor: end; visibility: inherit; font-family: Roboto, sans-serif; font-size: 12px; font-weight: 200;" fill="rgb(33, 33, 33)" stroke="none" stroke-width="1px">0.26</text><text x="0" y="66.79765809199682" dx="0em" dy="0.3em" style="text-anchor: end; visibility: inherit; font-family: Roboto, sans-serif; font-size: 12px; font-weight: 200;" fill="rgb(33, 33, 33)" stroke="none" stroke-width="1px">0.28</text><text x="0" y="31.89032553341602" dx="0em" dy="0.3em" style="text-anchor: end; visibility: inherit; font-family: Roboto, sans-serif; font-size: 12px; font-weight: 200;" fill="rgb(33, 33, 33)" stroke="none" stroke-width="1px">0.3</text></g><line x1="50" y1="0" x2="50" y2="377" fill="rgb(0, 0, 0)" stroke="rgb(204, 204, 204)" stroke-width="1px"></line></g></g><g transform="translate(50, 0)" clip-path="url(#clip_0)"><clipPath id="clip_0"><rect width="1448" height="377"></rect></clipPath><g><g><g><line x1="53.57203371451367" y1="0" x2="53.57203371451367" y2="377" fill="rgb(0, 0, 0)" stroke="rgb(66, 66, 66)" stroke-width="1px" opacity="0.25"></line><line x1="208.27255670418432" y1="0" x2="208.27255670418432" y2="377" fill="rgb(0, 0, 0)" stroke="rgb(66, 66, 66)" stroke-width="1px" opacity="0.25"></line><line x1="362.97307969385497" y1="0" x2="362.97307969385497" y2="377" fill="rgb(0, 0, 0)" stroke="rgb(66, 66, 66)" stroke-width="1px" opacity="0.25"></line><line x1="517.6736026835257" y1="0" x2="517.6736026835257" y2="377" fill="rgb(0, 0, 0)" stroke="rgb(66, 66, 66)" stroke-width="1px" opacity="0.25"></line><line x1="672.3741256731963" y1="0" x2="672.3741256731963" y2="377" fill="rgb(0, 0, 0)" stroke="rgb(66, 66, 66)" stroke-width="1px" opacity="0.25"></line><line x1="827.0746486628669" y1="0" x2="827.0746486628669" y2="377" fill="rgb(0, 0, 0)" stroke="rgb(66, 66, 66)" stroke-width="1px" opacity="0.25"></line><line x1="981.7751716525376" y1="0" x2="981.7751716525376" y2="377" fill="rgb(0, 0, 0)" stroke="rgb(66, 66, 66)" stroke-width="1px" opacity="0.25"></line><line x1="1136.4756946422083" y1="0" x2="1136.4756946422083" y2="377" fill="rgb(0, 0, 0)" stroke="rgb(66, 66, 66)" stroke-width="1px" opacity="0.25"></line><line x1="1291.176217631879" y1="0" x2="1291.176217631879" y2="377" fill="rgb(0, 0, 0)" stroke="rgb(66, 66, 66)" stroke-width="1px" opacity="0.25"></line><line x1="1445.8767406215495" y1="0" x2="1445.8767406215495" y2="377" fill="rgb(0, 0, 0)" stroke="rgb(66, 66, 66)" stroke-width="1px" opacity="0.25"></line></g><g><line x1="0" y1="346.0563185606437" x2="1448" y2="346.0563185606437" fill="rgb(0, 0, 0)" stroke="rgb(66, 66, 66)" stroke-width="1px" opacity="0.25"></line><line x1="0" y1="311.1489860020628" x2="1448" y2="311.1489860020628" fill="rgb(0, 0, 0)" stroke="rgb(66, 66, 66)" stroke-width="1px" opacity="0.25"></line><line x1="0" y1="276.241653443482" x2="1448" y2="276.241653443482" fill="rgb(0, 0, 0)" stroke="rgb(66, 66, 66)" stroke-width="1px" opacity="0.25"></line><line x1="0" y1="241.33432088490116" x2="1448" y2="241.33432088490116" fill="rgb(0, 0, 0)" stroke="rgb(66, 66, 66)" stroke-width="1px" opacity="0.25"></line><line x1="0" y1="206.4269883263203" x2="1448" y2="206.4269883263203" fill="rgb(0, 0, 0)" stroke="rgb(66, 66, 66)" stroke-width="1px" opacity="0.25"></line><line x1="0" y1="171.51965576773944" x2="1448" y2="171.51965576773944" fill="rgb(0, 0, 0)" stroke="rgb(66, 66, 66)" stroke-width="1px" opacity="0.25"></line><line x1="0" y1="136.61232320915857" x2="1448" y2="136.61232320915857" fill="rgb(0, 0, 0)" stroke="rgb(66, 66, 66)" stroke-width="1px" opacity="0.25"></line><line x1="0" y1="101.7049906505777" x2="1448" y2="101.7049906505777" fill="rgb(0, 0, 0)" stroke="rgb(66, 66, 66)" stroke-width="1px" opacity="0.25"></line><line x1="0" y1="66.79765809199682" x2="1448" y2="66.79765809199682" fill="rgb(0, 0, 0)" stroke="rgb(66, 66, 66)" stroke-width="1px" opacity="0.25"></line><line x1="0" y1="31.89032553341602" x2="1448" y2="31.89032553341602" fill="rgb(0, 0, 0)" stroke="rgb(66, 66, 66)" stroke-width="1px" opacity="0.25"></line></g></g></g><g><g><line x1="0" y1="555.5003139121288" x2="1448" y2="555.5003139121288" fill="rgb(0, 0, 0)" stroke="rgb(153, 153, 153)" stroke-width="1.5px"></line></g></g><g><g><line x1="362.97307969385497" y1="0" x2="362.97307969385497" y2="377" fill="rgb(0, 0, 0)" stroke="rgb(153, 153, 153)" stroke-width="1.5px"></line></g></g><g><g><g><g><g><path stroke="rgb(255, 112, 67)" stroke-width="2px" d="M364.21068387777234,159.58238080372453L364.52008492375165,176.4206684031619L366.3764911996277,203.07412707010474L367.6140953835451,218.91869848879423L367.92349642952445,227.91169181345157L368.85169956746245,234.7174979586503L369.1611006134418,238.91089508321295L369.47050165942113,241.70982812592175L370.0893037513798,244.06100218093016L370.3987047973592,245.9914965262338L371.3269079352972,248.4626945515104L371.63630898127656,250.16573798528162L373.4927152571526,252.68965566011988L374.4209183950906,254.40968472126954L375.0397204870493,256.06157756345414L375.658522579008,257.4691689193019L377.8243299008634,259.27268172341365L378.1337309468427,260.4259359693665L378.4431319928221,261.0338754542698L379.0619340847808,261.54329796891795L379.9901372227188,262.41426161771335L380.9183403606568,263.372956092947L381.8465434985948,264.28491880922684L382.1559445445742,264.87445384363224L382.4653455905535,265.24682605954285L382.7747466365329,265.5459320899882L383.39354872849157,266.0562485559228L383.7029497744709,266.544764622521L384.01235082045025,266.65234340847474L384.3217518664295,266.48494095015457L384.9405539583882,266.6441633001107L385.2499550043675,266.7391661335402L387.10636128024356,267.7802893907218L387.72516337220225,268.41870593523976L388.0345644181816,268.4438651026599L388.6533665101403,268.9606963375758L389.5815696480783,269.6085244252022L390.81917383199567,270.08499303838494L391.12857487797504,270.2469097238996L393.9131842917891,271.4734930901958L394.22258533776846,272.3155661092229L395.15078847570646,272.52167642843074L396.0789916136445,272.73356172018316L396.38839265962383,273.08658788853296L397.0071947515825,273.1796199000063L399.17300207343794,273.4152791524487L400.7200073033346,273.5161022403377L401.957611487252,274.0772290838922L402.26701253323137,274.21815865810373L402.88581462519005,274.69477123902584L403.50461671714874,275.01722279519856L403.81401776312805,275.5681371329152L405.3610229930248,276.57900272397427L405.6704240390041,277.0889492121265L407.8362313608594,277.60055707612065L408.4550334528181,278.1352893630568L408.76443449879747,278.20423615565056L409.69263763673547,276.95616972630853L411.8584449585909,277.9229416921732L412.4772470505496,278.73996886530665L412.7866480965289,279.2905549143331L413.4054501884876,279.681203466525L414.02425228044626,278.9640330856814L415.8806585563223,279.67833207033993L416.1900596023017,279.59977647295665L416.499460648281,280.058373671274L417.42766378621906,280.8166564025687L417.73706483219837,281.428079702772L418.04646587817774,281.9834708001245L418.35586692415706,282.11271959556314L418.97466901611574,282.363201196378L419.2840700620951,282.56437218745634L420.2122732000331,282.69400072408786L420.5216742460125,282.5504290493269L420.8310752919918,282.4355940304924L422.06867947590916,282.3705942176114L422.37808052188853,282.1933878738652L422.68748156786785,281.7851529227104L423.6156847058059,281.06545170912517L424.8532888897233,281.3553422854357L425.1626899357026,277.52490971884174L425.7814920276613,277.4391394394885L426.09089307364064,277.66030342064585L426.40029411961996,277.9469691069739L426.7096951655993,278.2607952869219L427.328497257558,278.2353469342704L427.9472993495167,277.8684707115026L428.5661014414754,277.36506595658767L429.18490353343407,277.0511114444637L429.80370562539275,276.70115630024026L430.11310667137207,276.66411553725777L431.0413098093101,276.7950157182432L431.3507108552894,276.89283294862605L431.66011190126875,277.09512900148644L431.96951294724806,276.9409363800259L432.58831503920675,276.44975994143226L434.1353202691035,275.40917615000336L436.6105286369382,274.5249852539978L436.91992968291754,274.0783204744301L437.2293307288969,273.47475612341447L437.8481328208556,273.0210589866921L438.1575338668349,272.2177679629764L438.7763359587936,271.3815437258404L439.08573700477297,270.65341483686257L439.3951380507523,270.6481036774646L439.70453909673165,270.87931138608127L441.25154432662833,270.35362550917927L441.5609453726077,269.8346234415051L441.870346418587,269.4010262631975L443.1079506025044,268.8841691001921L443.41735164848376,268.705041440531L443.7267526944631,268.4507965585848L444.34555478642176,267.5579270076941L446.8207631542565,266.5575049245924L447.13016420023587,265.6882354348999L448.05836733817387,263.9438092860213L448.67716943013255,263.44831490943915L449.29597152209124,262.76185553552517L449.9147736140499,262.1837992616904L450.5335757060086,261.79343852622065L450.842976751988,261.4847560095023L451.46177884394666,261.14150114908955L452.08058093590535,260.61263303564283L452.38998198188466,260.13133699559495L453.00878407384334,259.6217619442031L454.5557893037401,258.2575853708991L454.86519034971934,257.1050536166182L455.17459139569866,256.0983697477111L455.483992441678,255.4136410302628L457.95920080951277,254.33586532114586L458.57800290147145,253.41864398286774L458.88740394745076,252.63680886407388L459.8156070853888,251.74999867559592L461.0532112693062,250.52564230212207L461.6720133612649,249.58134166377403L461.9814144072442,248.70979159629704L462.90961754518224,247.64381473577888L463.5284196371409,246.588433690291L465.0754248670376,245.1074174288054L465.6942269589963,243.74377694593136L466.00362800497567,242.57148867804122L467.55063323487235,240.85196276251284L467.8600342808517,239.58223249680668L468.4788363728104,238.5657761205193L469.4070395107484,237.54818024549985L470.0258416027071,236.32993044184173L470.33524264868646,235.20467863296386L471.57284683260383,233.6176874369896L472.1916489245625,232.29324556778843L472.5010499705418,231.2812992990803L472.8104510165212,230.52354527885228L474.04805520043857,229.18448598335573L475.28565938435594,227.31317276181517L475.59506043033525,226.15354711261244L475.9044614763146,225.2464620102845L476.21386252229394,224.74530098583358L476.5232635682733,223.83039969195448L476.8326646142526,222.8832349841326L478.99847193610793,220.6785342686849L479.926675074046,218.5023813018695L480.2360761200253,217.21970139085903L482.71128448786004,214.42708799169677L483.9488886717774,211.48579433049775L484.2582897177568,209.3877413535763L484.5676907637361,207.73664666711457L484.87709180971547,206.5367191688052L485.1864928556948,205.6095934289362L486.11469599363284,204.01517267432868L487.6617012235295,201.3889633458395L488.2805033154882,198.7848402325114L489.5181074994056,195.93863281090722L489.82750854538494,193.65824363950983L491.0651127293023,190.31064609043798L491.3745137752816,187.8584328735028L491.683914821261,186.25557733901869L492.612117959199,183.6145697513477L493.54032109713705,180.67889175881461L493.84972214311637,178.326094492445L494.7779252810544,175.94187337456404L495.08732632703374,173.97173734160864L496.3249305109511,170.76873090843677L496.6343315569305,168.47683335844476L497.87193574084785,165.0971446452181L498.18133678682716,162.71038995307592L498.49073783280653,160.85497908527717L499.1095399247652,158.6227856322416L499.41894097074453,156.52928988191033L499.7283420167239,154.91226395711024L500.3471441086826,153.27147920825274L500.6565451546619,151.67215868159101L500.96594620064127,150.53574324681836L501.2753472466206,148.96249615502683L502.5129514305379,146.87881538241504L502.8223524765172,145.2812650179433L503.1317535224966,143.91345227064528L503.4411545684759,142.7567309951812L503.75055561445527,141.88338874733427L504.36935770641395,140.9321033413014L504.98815979837264,139.70674221243166L505.6069618903313,138.61902364909514L505.91636293631063,137.60012719705367L507.153967120228,135.90189463968923L507.4633681662074,134.69083928868957L508.08217025816606,133.4597551144241L508.70097235012474,132.1565751905347L509.9385765340421,130.51444778304375L510.2479775800214,129.44641391607118L511.1761807179595,128.08953122673782L511.4855817639388,127.03585762696821L511.79498280991817,126.33810293045849L512.1043838558975,125.47546252279534L512.7231859478562,124.97587580690742L513.0325869938355,124.6185004759157L513.9607901317736,123.98028029058426L514.2701911777528,123.19684594801389L514.5795922237322,122.47584985691627L515.198394315691,121.73287285598086L516.126597453629,120.74373814270984L517.3642016375463,119.18051301635447L518.6018058214637,117.85518373586014L518.9112068674431,116.77597892260434L519.8394100053811,115.75129857462319L520.7676131433191,114.73840167588547L521.0770141892984,113.9076814381646L521.3864152352778,113.13918233292615L521.6958162812571,112.63424380274063L522.0052173272364,112.06895369968822L522.3146183732158,111.60766692572007L523.2428215111538,110.7389322147212L523.5522225571332,110.23957971205567L523.8616236031125,109.72505899190807L524.1710246490918,109.6383923706771L525.0992277870299,109.35086404534222L527.2650351088852,108.88252177476907L528.1932382468232,108.53768240308194L528.5026392928025,108.3251818607368L529.1214413847613,107.80306751277315L529.4308424307405,107.69696814487845L529.7402434767199,107.34807370207959L530.0496445226993,107.16320535288901L530.3590455686787,106.97432279415403L530.9778476606373,106.91952163840541L531.596649752596,106.49970448088976L532.2154518445547,106.2391587274864L532.524852890534,106.10530217834224L533.453056028472,105.66663976680938L534.0718581204308,105.43057385449971L535.0000612583688,105.11703189994516L535.3094623043481,104.70446818132406L537.1658685802241,104.23683994010169L537.4752696262035,103.8003815097101L537.7846706721829,103.72008383072482L539.0222748561002,103.31187142356995L539.9504779940382,102.99122952034617L540.5692800859969,102.71468252450273L541.497483223935,102.20755031160574L542.7350874078523,101.7254387551007L543.9726915917697,101.3571075332236L544.282092637749,101.0532161360741L544.5914936837283,100.94104045016562L545.2102957756871,100.59757180328386L545.8290978676457,100.46849507036325L546.1384989136251,100.18758332742723L546.4478999596045,100.14508140180942L547.0667020515631,99.91784147375563L547.6855041435218,99.87535514930508L547.9949051895011,99.76430747249029L548.3043062354805,99.54520962896098L548.6137072814598,99.25314638629824L549.2325093734185,99.14677759680434L549.5419104193977,99.04877142175506L549.8513114653771,98.95426394878771L550.4701135573358,98.78081480189628L551.3983166952738,98.70926570378857L552.0171187872324,98.42918499378507L552.9453219251706,98.17780696953666L553.2547229711498,97.97525546553938L553.8735250631086,97.75060808650962L554.4923271550672,97.51411801708733L555.1111292470259,97.5391120422339L555.7299313389846,97.61852504562908L556.0393323849639,97.62630780141403L556.9675355229019,97.5683502162529L557.5863376148607,97.4524515444166L557.89573866084,97.2761755525499L559.1333428447574,97.06968621582935L560.3709470286748,96.92338413007386L561.2991501666128,96.83799561365132L561.6085512125921,96.76541514604486L561.9179522585714,96.72118025455896L562.2273533045508,96.68554692655051L562.5367543505301,96.66957659155418L564.0837595804269,96.64457685440149L564.7025616723855,96.63452893330405L565.0119627183649,96.63906982756417L565.3213637643443,96.6409829148489L565.6307648103235,96.64935058509539L565.9401658563029,96.65536989403864L566.8683689942409,96.62879140523343L567.4871710861996,96.61935671251251L569.652978408055,96.61015881031263L570.581181545993,96.60642941866789L572.1281867758897,96.60231920843957L572.4375878218691,96.60141356167048L572.7469888678484,96.60263871689264L573.6751920057864,96.60247913518835L574.2939940977451,96.60257064368984L574.6033951437245,96.60387393228517L574.9127961897037,96.60263768545987L575.8409993276418,96.6010844880933L577.3880045575385,96.60152579151716L578.0068066494972,96.6022691205776L578.6256087414558,96.6018828623511L578.9350097874352,96.60144304349934L579.553811879394,96.60105431383896L580.482015017332,96.60248558736838L580.7914160633113,96.60332354509453L581.41021815527,96.60378470694711L582.6478223391873,96.60401979127548L582.9572233851667,96.60397358434831L583.5760254771253,96.6038210218426L584.5042286150634,96.60539399566498L585.123030707022,96.60754455066959L586.05123384496,96.6064629550331L586.3606348909394,96.60724963866969L586.9794369828982,96.60890761317125L587.5982390748568,96.60884127190205L587.9076401208362,96.609654529195L588.5264422127948,96.61074586892634L588.8358432587742,96.61214970286176L589.4546453507329,96.61130668550562L589.7640463967122,96.61042636004359L590.0734474426915,96.60896187714567L591.6204526725883,96.6096436667749L592.8580568565056,96.61113467291416L593.167457902485,96.6122165341218L593.4768589484643,96.613032101979L596.880270454237,96.6151027284528L597.1896715002164,96.61605381485504L597.808473592175,96.6171654328773L599.3554788220717,96.6174578886423L599.6648798680511,96.61800787714964L599.9742809140304,96.6186707725192L600.9024840519685,96.61757044954774L601.2118850979477,96.61649412793341L602.1400882358859,96.61778332938094L603.0682913738239,96.61772459458662L603.3776924198032,96.61671145330621L603.9964945117619,96.61797614377942L604.3058955577412,96.61879737723805L604.6152966037206,96.61958140679522L604.9246976496999,96.62063440349355L605.2340986956792,96.6217239421271L607.0905049715553,96.62081718593929L608.0187081094933,96.61760991410546L608.637510201452,96.6188689289156L609.2563122934107,96.62062304459722L610.4939164773281,96.62223728657868L612.0409217072248,96.62160373961652L612.3503227532041,96.62236796297566L612.6597237991834,96.62311778647317L612.9691248451628,96.62335961665593L613.8973279831008,96.6228389102353L616.3725363509355,96.62246406720816L616.6819373969149,96.62275932118123L617.3007394888735,96.62258276490834L617.9195415808323,96.62407892329564L618.8477447187703,96.62433162018934L619.1571457647497,96.62217372886099L619.466546810729,96.62065012375669L620.7041509946463,96.6225240171648L621.0135520406257,96.62433496413153L621.6323541325843,96.62535911313688L621.9417551785637,96.62651456872089L622.251156224543,96.62697897176402L622.8699583165017,96.62550987669786L623.179359362481,96.62202762071172L624.107562500419,96.62283035554846L624.7263645923778,96.62389457541458L626.2733698222744,96.6249076223825L626.5827708682538,96.62597319117789L627.5109740061918,96.62802736708204L628.4391771441299,96.62830277861211L629.3673802820679,96.62915463645217L629.9861823740265,96.62939526806565L630.9143855119646,96.6296644853832L631.2237865579439,96.62922263041807L632.4613907418612,96.62924880692114L632.7707917878406,96.62938935117229L636.7930053855721,96.63053480369325L637.1024064315515,96.63030659397661L637.4118074775307,96.63041934484548L638.0306095694895,96.6317561852527L638.6494116614481,96.63170522744261L639.2682137534068,96.6318411038891L640.1964168913448,96.63256762789577L640.8152189833036,96.63235854416105L641.1246200292828,96.63264922175162L642.0528231672209,96.63122153615488L642.3622242132002,96.63148846994183L642.9810263051589,96.63246007948521L643.9092294430968,96.63108724440346L644.2186304890762,96.629556126041L644.8374325810349,96.63086373892173L645.1468336270142,96.63204362809009L646.0750367649523,96.63181527397036L647.3126409488697,96.63292664499278L647.6220419948489,96.62986912351485L648.2408440868077,96.62926218773086L648.8596461787663,96.63122834211654L650.0972503626837,96.6320959388744L650.406651408663,96.63224198188084L651.0254535006218,96.63380686148635L651.334854546601,96.63449611255068L651.6442555925804,96.63468079288204L651.9536566385598,96.63452111799036L652.5724587305184,96.63438370027225L653.8100629144358,96.63550802035255L654.4288650063945,96.63618261240077L654.7382660523739,96.63646252928015L655.6664691903119,96.63417532520234L656.9040733742293,96.63484202912966L657.8322765121673,96.6356165665344L658.7604796501053,96.63612290176039L659.0698806960846,96.63592734949829L660.307484880002,96.63674630576178L660.9262869719607,96.63546913623615L661.23568801794,96.6355975093584L661.8544901098987,96.63621549941264L662.4732922018574,96.63658629344522L662.7826932478367,96.6369128018226L663.7108963857747,96.63735838354789L665.2579016156715,96.63708476640215L665.8767037076302,96.63723269198833L666.1861047536095,96.63694693229176L666.8049068455681,96.63773257048611L667.1143078915475,96.63830798536057L668.3519120754648,96.63859081511056L669.5895162593822,96.63813632121337L670.2083183513408,96.63890394445377L670.8271204432996,96.63865710108446L671.4459225352582,96.63792641609884L672.064724627217,96.63680139418564L672.3741256731963,96.63756202205624L673.3023288111343,96.63822646269422L673.6117298571137,96.63906206130011L673.921130903093,96.63923051819837L674.5399329950517,96.63964368821101L676.0869382249484,96.63774853188666L676.705740316907,96.63804707911046L677.3245424088658,96.638996043933L677.633943454845,96.63981509952526L677.9433445008244,96.6387044407296L679.4903497307212,96.63957771842855L680.7279539146385,96.64028894257213L681.3467560065972,96.63709536492469L681.6561570525765,96.63707259996926L683.5125633284526,96.63751668161069L683.8219643744319,96.63869861182468L684.1313654204113,96.63955341469403L684.4407664663906,96.6390883960118L684.75016751237,96.6401618002546L685.9877716962874,96.64049374692675L686.606573788246,96.64000630400812L686.9159748342254,96.6405460939198L688.7723811101014,96.64051625921013L689.0817821560807,96.64099771178212L690.0099852940187,96.63972610395737L690.6287873859774,96.64075248893764L690.9381884319567,96.64074412817875L691.2475894779361,96.64113443316326L691.8663915698947,96.64184716316015L692.7945947078327,96.64210835002561L693.4133967997915,96.64253554523538L694.0321988917501,96.642417347313L694.3415999377295,96.64274174999942L694.6510009837089,96.64285316604492L694.9604020296882,96.64262872619017L695.2698030756675,96.64297260928355L695.5792041216469,96.64326216470582L696.5074072595849,96.64133445241046L696.8168083055642,96.6412597573949L697.435610397523,96.64213042161482L697.7450114435022,96.6423823370563L698.0544124894816,96.64186768179087L698.9826156274196,96.64203743563785L699.292016673399,96.63910155477646L699.6014177193783,96.63777696048261L700.8390219032957,96.63989509872646L703.0048292251511,96.64208146290181L703.6236313171098,96.64268586409361L704.2424334090684,96.64138399348296L704.5518344550478,96.64160157791208L704.8612355010272,96.64283486732286L705.7894386389652,96.64390774323451L706.4082407309238,96.64161776756984L707.0270428228825,96.64255329163544L707.3364438688619,96.64336428277375L707.9552459608205,96.64455829477015L709.5022511907173,96.6440679312568L710.1210532826759,96.64441871128744L710.4304543286553,96.64460837291429L711.3586574665933,96.64478458906515L711.6680585125727,96.64509838267143L712.2868606045314,96.64539069079301L712.5962616505107,96.64544123731649L712.90566269649,96.64499301822444L713.2150637424694,96.64561876160685L713.5244647884488,96.6462230779436L714.1432668804074,96.64656486135407L714.4526679263867,96.64658267387621L714.762068972366,96.64663497417261L715.690272110304,96.64633345208532L716.6184752482421,96.64629818357393L717.5466783861801,96.64600653937666L717.8560794321595,96.64599800399085L718.4748815241181,96.64686675120542L719.0936836160769,96.64235285277375L719.4030846620561,96.63985257763044L719.7124857080355,96.64147337128031L720.0218867540149,96.64321568395835L722.1876940758702,96.64405300764949L722.806496167829,96.64549168948489L723.4252982597876,96.64664618806809L724.0441003517464,96.64650663155513L724.3535013977257,96.64685983187043L726.2099076736016,96.64492869372764L726.519308719581,96.64512242629422L727.1381108115396,96.64421915264708L727.447511857519,96.64542492535091L727.7569129034983,96.64641887206365L728.9945170874157,96.64691120813336L729.6133191793743,96.64693612668478L730.2321212713331,96.64405898938718L730.8509233632917,96.6456825360516L731.1603244092711,96.64594924673692L731.4697254552505,96.64617169232272L732.3979285931885,96.64607628936695L732.7073296391678,96.64693452882264L733.0167306851472,96.64715818301411L733.6355327771058,96.64770850336033L733.9449338230852,96.64832998505014L734.8731369610232,96.64753771613603L736.1107411449406,96.64828993189023L736.4201421909199,96.64882448690898L736.7295432368993,96.64931167105293L737.3483453288579,96.64404867498952L738.5859495127753,96.64605086246134L738.8953505587547,96.64739781968541L739.204751604734,96.64845567071876L740.132954742672,96.64863264072419L741.6799599725688,96.64900930581787L742.2987620645274,96.64940175600664L743.5363662484448,96.6496164197283L744.4645693863828,96.64957876682875L744.7739704323621,96.65003472209527L746.3209756622589,96.65016265051406L746.9397777542175,96.65055150343896L747.2491788001969,96.64814240346425L747.5585798461763,96.64730032883502L747.8679808921556,96.64816830590128L748.1773819381349,96.64902199440614L748.4867829841143,96.64618437846595L748.7961840300936,96.64710341423995L749.7243871680316,96.64848709136717L750.033788214011,96.64946294238455L750.3431892599904,96.64988200186235L750.6525903059696,96.65042472703105L751.2713923979284,96.6482535951437L751.890194489887,96.64865704012021L752.1995955358664,96.64933604132905L753.1277986738044,96.65018037627739L753.4371997197837,96.64943859375207L755.2936059956598,96.64972174794191L756.5312101795772,96.65022454272098L758.0782154094738,96.65069267072101L758.3876164554532,96.65089032195463L758.6970175014326,96.65102971908644L759.93462168535,96.65092609984136L760.862824823288,96.64861683800453L762.4098300531847,96.64974885428275L763.3380331911227,96.64822258654299L764.2662363290607,96.64911698196588L764.8850384210194,96.65023619818369L765.1944394669988,96.65030434255871L766.1226426049368,96.64890958816524L767.3602467888542,96.6483224122281L768.5978509727715,96.65009235860612L770.1448562026683,96.65121674560767L771.6918614325649,96.65126718606143L772.3106635245236,96.6516511589904L773.2388666624615,96.65213121944662L773.5482677084408,96.6525232876783L774.1670698003995,96.65286256057512L776.3328771222549,96.65158887051163L779.117486536069,96.65203142718468L779.4268875820484,96.65200567170643L780.045689674007,96.64903571081625L780.3550907199864,96.6457764804806L781.2832938579244,96.64873125069026L781.5926949039037,96.65064975755692L782.2114969958624,96.65198811920112L783.4491011797797,96.65254145948882L784.0679032717385,96.65331039788445L785.3055074556559,96.6533348266988L785.6149085016352,96.65291254976438L785.9243095476145,96.65299208586893L786.2337105935939,96.65355996732097L786.5431116395732,96.65385908340903L787.7807158234906,96.65245726730234L788.09011686947,96.65278133556639L788.7089189614286,96.65341271074787L789.018320007408,96.65391637420622L790.2559241913253,96.65423937867267L791.8029294212221,96.65420431104532L792.1123304672013,96.65457859190879L793.3499346511187,96.65078752685342L794.2781377890568,96.6523620702611L795.5157419729742,96.65291147486577L797.3721482488502,96.65386530937569L801.3943618465817,96.65254422844862L801.703762892561,96.65256302916367L802.9413670764784,96.65326092051467L806.0353775362718,96.65266014213822L806.3447785822511,96.65342322025722L807.5823827661685,96.65450525887579L808.2011848581271,96.6553001267879L808.5105859041065,96.65575624114359L808.8199869500859,96.65592587779915L809.1293879960652,96.65606927257566L810.0575911340032,96.65542708573653L810.6763932259619,96.65391822848814L810.9857942719412,96.65407404010934L811.6045963639,96.65502058913647L812.2233984558586,96.65531803546234L812.532799501838,96.65468505398653L813.1516015937966,96.65540800385443L813.461002639776,96.65484306697965L813.7704036857554,96.65508668381881L814.0798047317347,96.6553784986633L814.389205777714,96.6548669766481L814.6986068236934,96.65526748075247L815.0080078696727,96.65575745991397L815.3174089156521,96.65613467297706L815.9362110076107,96.65617374329082L818.1020183294661,96.6562179918707L819.0302214674042,96.65609889627757L819.3396225133835,96.65507034490943L819.958424605342,96.65588885510694L821.8148308812181,96.65592222061088L822.1242319271975,96.65587982073849L823.3618361111148,96.65616647668872L823.9806382030735,96.6558183104695L824.2900392490528,96.65594231300312L825.2182423869908,96.65609994008963L825.5276434329702,96.65594483964263L826.7652476168876,96.65599742411543L827.0746486628669,96.65640348984743L827.3840497088462,96.65683438681076L828.0028518008049,96.6567600227236L830.1686591226603,96.65723556406063L830.4780601686397,96.65750008247134L830.787461214619,96.65603589497509L831.4062633065777,96.65542786556779L832.0250653985364,96.65593691636947L832.3344664445157,96.65622154045876L834.5002737663712,96.65360425844186L836.0472789962678,96.65505081600959L837.9036852721439,96.65600197611653L838.8318884100819,96.65503299920435L839.1412894560613,96.65540870706931L840.0694925939993,96.65598784044506L842.2352999158546,96.65639773964524L843.1635030537927,96.65720545173781L843.472904099772,96.65773169177642L843.7823051457514,96.65596679664245L845.0199093296687,96.653305767411L846.5669145595655,96.65537107478879L847.4951176975035,96.65688074230586L847.8045187434828,96.65680864241229L848.4233208354415,96.65774328287995L849.0421229274002,96.65830406716063L849.3515239733796,96.65876537607842L849.6609250193588,96.65741926288645L849.9703260653382,96.65488466447084L850.8985292032762,96.65646405776565L851.517331295235,96.65737008095937L852.1361333871936,96.65808014600827L852.445534433173,96.65848537864605L852.7549354791523,96.65804190730681L853.6831386170903,96.65846243542516L855.2301438469871,96.65834023724784L856.7771490768838,96.65785079051005L857.0865501228631,96.65809808864813L857.3959511688424,96.65832969309736L858.6335553527598,96.65828139824272L858.9429563987392,96.65860612998674L859.2523574447185,96.65873854985838L861.4181647665739,96.65898445291393L861.7275658125533,96.6591319947473L862.3463679045119,96.65930374541352L862.6557689504913,96.65938598942171L863.2745710424499,96.659664206134L865.130977318326,96.65918613802256L865.7497794102846,96.65833752458327L866.3685815022434,96.65876464414043L866.6779825482228,96.65910414144103L867.9155867321399,96.65853800333329L869.1531909160573,96.65771977346242L869.4625919620366,96.65820673594382L869.771993008016,96.65879020291459L870.700196145954,96.65878657444038L871.0095971919334,96.65901326766318L872.5566024218301,96.65351075148085L872.8660034678094,96.65216504257917L873.4848055597681,96.65456180154024L874.1036076517267,96.65643679113998L874.4130086977061,96.65764501046603L874.7224097436855,96.65851558680274L875.0318107896649,96.6591419645626L875.6506128816235,96.65916408256179L876.2694149735822,96.65890687027084L877.5070191574996,96.65904383237817L878.1258212494582,96.6595629438658L878.744623341417,96.6595415084931L879.672826479355,96.65984074314305L879.9822275253343,96.66031157341503L881.2198317092517,96.66021955652991L882.1480348471897,96.66033079753144L882.7668369391483,96.65985657595148L883.0762379851277,96.65778269332834L883.6950400770864,96.65886867961055L884.6232432150244,96.65862559654222L884.9326442610038,96.65906232566526L885.2420453069831,96.65967807179584L885.5514463529624,96.65961058525104L887.0984515828592,96.66000702754737L887.4078526288386,96.65939183087065L887.7172536748178,96.65816965081017L888.3360557667766,96.65893440296698L888.9548578587352,96.65953889900216L889.2642589047146,96.65983917744848L889.8830609966733,96.66041466595614L890.5018630886319,96.65318643252851L891.4300662265699,96.65581963364858L892.0488683185287,96.6576908438027L892.358269364508,96.65895921463613L892.6676704104873,96.65978265631092L892.9770714564667,96.66035994688208L894.8334777323428,96.6605606764837L895.142878778322,96.66097240372673L896.0710819162601,96.66047040997596L896.3804829622394,96.6605645351654L896.6898840082188,96.6607458486285L896.9992850541981,96.66093786227262L898.5462902840949,96.6608242001518L901.0214986519296,96.66123454988542L901.3308996979089,96.66150156611722L902.5685038818262,96.66047581153666L903.187305973785,96.65990197157141L904.115509111723,96.66022347212267L904.4249101577024,96.660437178845L904.7343112036817,96.66066943483627L905.043712249661,96.6608712076057L905.6625143416197,96.66043049869492L905.9719153875991,96.66081107148713L906.9001185255371,96.66108102794566L908.4471237554338,96.66140945295336L908.7565248014131,96.66075344590352L909.3753268933718,96.66121290372801L910.3035300313098,96.65976164792228L912.4693373531652,96.66074266328872L912.7787383991446,96.66128965972545L913.0881394451239,96.66155543841275L914.0163425830618,96.6617565184083L915.2539467669792,96.66158587692361L915.5633478129585,96.66175397512328L915.8727488589378,96.66168838291047L916.8009519968758,96.66200273623953L917.1103530428552,96.66227457380327L917.7291551348139,96.66229203160054L918.3479572267726,96.66174073370638L918.9667593187313,96.66145156775308L920.2043635026487,96.66159016405469L920.8231655946073,96.65901010371437L921.1325666405867,96.6557975561845L922.6795718704834,96.65590905404058L923.298373962442,96.6579941727367L924.5359781463594,96.65953653343638L925.7735823302768,96.66060759459715L926.0829833762562,96.65956491357628L927.3205875601735,96.66014607567496L928.2487906981115,96.65976654922919L928.5581917440909,96.66072479768133L929.1769938360495,96.66150781066835L929.4863948820289,96.66077084774939L930.1051969739876,96.66109850648621L930.4145980199669,96.66146155286084L930.7239990659463,96.66188744460132L931.342801157905,96.66166443263938L931.6522022038843,96.65801434528665L931.9616032498636,96.65216236795825L933.8180095257397,96.65634954644283L934.127410571719,96.65892427270843L934.4368116176984,96.66007378702786L934.7462126636777,96.6609507531437L935.0556137096571,96.66147693281317L935.9838168475951,96.66150135113283L936.6026189395537,96.66195293634759L938.7684262614092,96.66176614686194L940.0060304453266,96.66198697543571L940.3154314913058,96.66193221505577L940.6248325372852,96.66185774604473L940.9342335832646,96.66237483721049L942.171837767182,96.66235218964482L942.4812388131613,96.66258827780433L943.10004090512,96.66062848515118L943.4094419510993,96.66084663779463L944.028244043058,96.6611231741217L944.9564471809961,96.66180925570725L945.8846503189341,96.66082687642329L946.1940513649134,96.66059115750956L946.8128534568721,96.661635690481L947.4316555488308,96.66217918469758L948.0504576407894,96.66267173236007L949.5974628706862,96.66105307293293L950.8350670546035,96.66195445251813L951.7632701925415,96.66262011861868L953.0008743764589,96.66287387353799L953.6196764684177,96.6632758031885L953.9290775143969,96.66310083314731L954.2384785603763,96.66316230225519L955.1666816983143,96.66267902393068L956.713686928211,96.66278437837582L958.5700932040871,96.65864469994534L958.8794942500664,96.65901136853239L959.1888952960458,96.65891927381111L960.1170984339838,96.66079901139454L961.0453015719216,96.66211411146872L961.9735047098596,96.66271591398908L962.282905755839,96.66334747859173L963.211108893777,96.66410093240157L963.5205099397564,96.66301333171121L963.8299109857358,96.66308899500207L964.1393120317151,96.66355052080802L965.0675151696531,96.66384824268306L965.6863172616117,96.66419332694063L966.6145203995499,96.66429634553732L966.9239214455291,96.66044655507979L967.5427235374879,96.66161134819787L968.4709266754259,96.66272635190015L969.7085308593432,96.66283358154907L970.0179319053226,96.66352211108558L970.327332951302,96.6639352288075L970.6367339972812,96.66426632500689L970.9461350432606,96.66448578911815L971.5649371352193,96.6647006931512L971.8743381811986,96.66505850587828L972.183739227178,96.66410803558651L972.4931402731573,96.66360017258619L974.3495465490333,96.66416932323203L974.9683486409921,96.66444839444475L975.5871507329507,96.66324261532863L975.8965517789301,96.66368430578706L976.2059528249094,96.66417819036937L976.5153538708888,96.66447452111878L976.8247549168681,96.66469393235154L977.4435570088268,96.66482557909119L978.0623591007854,96.66486295435183L978.3717601467648,96.66505183064076L979.2999632847028,96.66339661313052L979.6093643306822,96.66333977024513L980.5375674686202,96.6637009859538L982.7033747904757,96.66239884879423L987.0349894341864,96.6630532075169L987.3443904801658,96.6639035633651L988.5819946640831,96.66441377687406L988.8913957100625,96.66432458353948L989.2007967560418,96.66447913145454L989.8195988480005,96.66465508576987L990.1289998939799,96.6650103350579L990.7478019859385,96.66516106545605L991.6760051238765,96.66514747173703L991.9854061698559,96.66513931550568L992.6042082618146,96.66511361537526L992.9136093077939,96.66511900168858L993.2230103537732,96.66466449286193L994.4606145376906,96.66509920487944L994.77001558367,96.66513116178264L995.3888176756286,96.66508791674987L995.698218721608,96.66493713138073L996.626421859546,96.66530440077382L996.9358229055254,96.6649421834457L997.2452239515047,96.66447517635L998.7922291814015,96.66500642136388L999.1016302273807,96.66492984693235L999.4110312733601,96.66519599814701L999.7204323193395,96.66529326970111L1002.8144427791328,96.6654972773745L1003.1238438251122,96.66539081167124L1003.742645917071,96.6640161295803L1004.9802501009883,96.6647101869105L1006.2178542849057,96.66219292009694L1006.5272553308849,96.66086981753294L1008.0742605607817,96.66288481885672L1008.6930626527402,96.66340720872917L1009.0024636987196,96.66272193585714L1009.6212657906783,96.66274770635697L1009.9306668366576,96.66344977957884L1010.2400678826369,96.66409989381918L1011.4776720665543,96.66465641349595L1011.7870731125337,96.66496951891041L1012.096474158513,96.66513657576758L1012.4058752044923,96.66527842266497L1013.024677296451,96.66573804585168L1013.952880434389,96.6654104344081L1014.2622814803684,96.6654427378493L1014.5716825263478,96.66567018382973L1014.881083572327,96.66580665141798L1015.8092867102652,96.6570874283359L1016.1186877562444,96.6594918401936L1017.3562919401618,96.66207883884476L1017.6656929861412,96.66375587638488L1018.9032971700585,96.66434597107748L1019.2126982160379,96.66484567263403L1019.8315003079965,96.66541597665847L1020.1409013539759,96.66563332072366L1020.4503023999553,96.66561808242177L1021.0691044919139,96.66604587366368L1021.3785055378933,96.66628174201725L1023.5443128597486,96.66615277993893L1023.853713905728,96.6660129835173L1024.1631149517073,96.66622039514615L1025.0913180896455,96.66586629511738L1026.3289222735627,96.66548738396754L1028.1853285494387,96.66619632489835L1028.4947295954182,96.66637201275807L1029.7323337793355,96.66645661908227L1030.041734825315,96.6665281892684L1031.2793390092322,96.666279841898L1031.5887400552115,96.665048901114L1031.898141101191,96.66576678405376L1032.2075421471702,96.66592703072715L1034.3733494690257,96.66633527460475L1035.610953652943,96.6627102320989L1036.2297557449017,96.66072246411956L1036.539156790881,96.6620681831037L1038.7049641127364,96.66414480438009L1039.3237662046952,96.6655156154953L1039.942568296654,96.66625487659825L1040.5613703886124,96.66609504790434L1042.1083756185092,96.66681059995942L1043.655380848406,96.6669070289272L1044.2741829403647,96.66713133744054L1044.583583986344,96.66722430976534L1044.8929850323234,96.66705122285286L1045.8211881702614,96.6668017259644L1046.7493913081994,96.66704734927126L1047.3681934001581,96.66715311047216L1047.6775944461374,96.66661318183715L1048.2963965380961,96.66701744836124L1048.6057975840754,96.66734323384196L1048.9151986300546,96.66747628595563L1050.4622038599514,96.66761853639855L1050.7716049059309,96.66776630583907L1051.0810059519101,96.66733480771406L1051.6998080438689,96.66757526223671L1052.3186101358276,96.66757389020941L1054.1750164117036,96.66761467977608L1055.1032195496416,96.66768076629921L1056.0314226875794,96.66726267759853L1056.9596258255174,96.66697021159501L1057.5784279174761,96.66727327899905L1058.5066310554141,96.66733028109198L1060.6724383772696,96.66744770791406L1061.6006415152076,96.66731010009163L1061.9100425611869,96.66739398653068L1063.766448837063,96.667548350352L1064.3852509290216,96.66724564720492L1064.694651975001,96.6579300194165L1066.8604592968563,96.66182835730034L1067.479261388815,96.66425058559696L1068.7168655727326,96.66578714814113L1069.0262666187118,96.66685473040869L1069.9544697566498,96.6638541612441L1070.2638708026293,96.66515397208963L1072.1202770785053,96.66641240560308L1072.4296781244846,96.66716746571123L1072.739079170464,96.66755808260129L1074.9048864923193,96.66787567830168L1076.451891722216,96.66777494623997L1076.7612927681953,96.66571709341197L1077.0706938141748,96.66577237799268L1077.6894959061335,96.6667418363618L1078.308297998092,96.66651206211198L1079.5459021820095,96.66706080848394L1079.8553032279888,96.66732763713232L1080.7835063659268,96.6661561252608L1082.3305115958235,96.66680563359012L1083.568115779741,96.6672993705455" style="fill: none;" fill="none"></path></g></g></g></g><g opacity="0.2"><g><g><g><path stroke="rgb(255, 112, 67)" stroke-width="2px" d="M364.21068387777234,159.58238080372453L364.52008492375165,186.52364096282435L366.3764911996277,228.66144739036977L367.6140953835451,237.55191447717297L367.92349642952445,239.65294389812428L368.85169956746245,244.13237794767252L369.1611006134418,244.9075200656914L369.47050165942113,245.7906993719483L370.0893037513798,247.52852722001904L370.3987047973592,248.85805564147665L371.3269079352972,252.14707800521631L371.63630898127656,252.71103524877824L373.4927152571526,256.46729114325905L374.4209183950906,256.98635859700414L375.0397204870493,258.5374750887047L375.658522579008,259.5795632105936L377.8243299008634,261.9771877434053L378.1337309468427,262.1555245271677L378.4431319928221,261.94569206816305L379.0619340847808,262.3073851776546L379.9901372227188,263.72065932518996L380.9183403606568,264.8109662595473L381.8465434985948,265.6528448785336L382.1559445445742,265.7587494116356L382.4653455905535,265.80538173674665L382.7747466365329,265.99458986010546L383.39354872849157,266.8217219490651L383.7029497744709,267.277537972431L384.01235082045025,266.8137114883098L384.3217518664295,266.2338373551952L384.9405539583882,266.88299677224495L385.2499550043675,266.8816703647822L387.10636128024356,269.3419741522049L387.72516337220225,269.37633070628834L388.0345644181816,268.4816038527088L388.6533665101403,269.7359431766227L389.5815696480783,270.58026654661876L390.81917383199567,270.7996959537361L391.12857487797504,270.4897847512696L393.9131842917891,273.3133681355412L394.22258533776846,273.57867563607505L395.15078847570646,272.83084190699464L396.0789916136445,273.05138965765894L396.38839265962383,273.61612714090484L397.0071947515825,273.3191679171919L399.17300207343794,273.7687680310757L400.7200073033346,273.6673368721617L401.957611487252,274.91891934919227L402.26701253323137,274.42955301941635L402.88581462519005,275.40969011039937L403.50461671714874,275.50090012945356L403.81401776312805,276.39450863948605L405.3610229930248,278.09530111055847L405.6704240390041,277.85386894435356L407.8362313608594,278.3679688721109L408.4550334528181,278.9373877934605L408.76443449879747,278.3076563445413L409.69263763673547,275.08407008229585L411.8584449585909,279.3730996409699L412.4772470505496,279.9655096250067L412.7866480965289,280.1164339878728L413.4054501884876,280.2671762948127L414.02425228044626,277.88827751441596L415.8806585563223,280.74978054732776L416.1900596023017,279.48194307688146L416.499460648281,280.74626946875L417.42766378621906,281.9540804995108L417.73706483219837,282.3452146530769L418.04646587817774,282.8165574461535L418.35586692415706,282.30659278872116L418.97466901611574,282.73892359760004L419.2840700620951,282.86612867407405L420.2122732000331,282.8884435290351L420.5216742460125,282.33507153718546L420.8310752919918,282.2633415022406L422.06867947590916,282.2730944982901L422.37808052188853,281.9275783582458L422.68748156786785,281.17280049597815L423.6156847058059,279.9858998887473L424.8532888897233,281.79017814990146L425.1626899357026,271.77926086895087L425.7814920276613,277.3104840204586L426.09089307364064,277.99204939238183L426.40029411961996,278.3769676364658L426.7096951655993,278.731534556844L427.328497257558,278.1971744052933L427.9472993495167,277.31815637735076L428.5661014414754,276.6099588242152L429.18490353343407,276.5801796762777L429.80370562539275,276.1762235839052L430.11310667137207,276.6085543927841L431.0413098093101,276.9913659897214L431.3507108552894,277.0395587942003L431.66011190126875,277.398573080777L431.96951294724806,276.7096474478351L432.58831503920675,275.7129952835417L434.1353202691035,273.8483004628601L436.6105286369382,273.19869890998945L436.91992968291754,273.4083233050784L437.2293307288969,272.5694095968911L437.8481328208556,272.3405132816084L438.1575338668349,271.0128314274029L438.7763359587936,270.12720737013615L439.08573700477297,269.5612215033959L439.3951380507523,270.64013693836756L439.70453909673165,271.2261229490064L441.25154432662833,269.56509669382626L441.5609453726077,269.05612033999364L441.870346418587,268.7506304957362L443.1079506025044,268.10888335568404L443.41735164848376,268.43634995103946L443.7267526944631,268.0694292356653L444.34555478642176,266.2186226813581L446.8207631542565,265.0568717999401L447.13016420023587,264.38433120036126L448.05836733817387,261.32717006270326L448.67716943013255,262.70507334456596L449.29597152209124,261.7321664746543L449.9147736140499,261.31671485093824L450.5335757060086,261.20789742301616L450.842976751988,261.02173223442475L451.46177884394666,260.6266188584704L452.08058093590535,259.8193308654727L452.38998198188466,259.4093929355233L453.00878407384334,258.8573993671153L454.5557893037401,256.21132051094315L454.86519034971934,255.37625598519668L455.17459139569866,254.5883439443505L455.483992441678,254.38654795409053L457.95920080951277,252.7192017574703L458.57800290147145,252.0428119754506L458.88740394745076,251.464056185883L459.8156070853888,250.41978339287897L461.0532112693062,248.68910774191113L461.6720133612649,248.16489070625195L461.9814144072442,247.40246649508157L462.90961754518224,246.04484944500163L463.5284196371409,245.00536212205918L465.0754248670376,242.88589303657713L465.6942269589963,241.69831622162022L466.00362800497567,240.813056276206L467.55063323487235,238.27267388922021L467.8600342808517,237.67763709824743L468.4788363728104,237.04109155608833L469.4070395107484,236.02178643297083L470.0258416027071,234.5025557363545L470.33524264868646,233.51680091964707L471.57284683260383,231.23720064302813L472.1916489245625,230.30658276398677L472.5010499705418,229.76337989601802L472.8104510165212,229.3869142485102L474.04805520043857,227.17589704011084L475.28565938435594,224.50620292950438L475.59506043033525,224.41410863880836L475.9044614763146,223.8858343567926L476.21386252229394,223.99355944915717L476.5232635682733,222.4580477511357L476.8326646142526,221.4624879223999L478.99847193610793,217.37148319551338L479.926675074046,215.23815185164642L480.2360761200253,215.2956815243433L482.71128448786004,210.23816789295353L483.9488886717774,207.0738538386992L484.2582897177568,206.24066188819418L484.5676907637361,205.2600046374219L484.87709180971547,204.73682792134127L485.1864928556948,204.21890481913263L486.11469599363284,201.62354154241748L487.6617012235295,197.44964935310566L488.2805033154882,194.87865556251938L489.5181074994056,191.66932167850092L489.82750854538494,190.23765988241374L491.0651127293023,185.28924976683018L491.3745137752816,184.18011304810014L491.683914821261,183.85129403729246L492.612117959199,179.65305836984126L493.54032109713705,176.27537477001496L493.84972214311637,174.79689859289056L494.7779252810544,172.3655416977426L495.08732632703374,171.0165332921756L496.3249305109511,165.96422125867886L496.6343315569305,165.03898703345675L497.87193574084785,160.02761157537813L498.18133678682716,159.13025791486263L498.49073783280653,158.07186278357904L499.1095399247652,155.27449545268826L499.41894097074453,153.38904625641345L499.7283420167239,152.48672506991014L500.3471441086826,150.81030208496657L500.6565451546619,149.27317789159832L500.96594620064127,148.83112009465944L501.2753472466206,146.6026255173395L502.5129514305379,143.7532942234974L502.8223524765172,142.88493947123555L503.1317535224966,141.8617331496983L503.4411545684759,141.02164908198503L503.75055561445527,140.57337537556398L504.36935770641395,139.50517523225201L504.98815979837264,137.86870051912695L505.6069618903313,136.98744580409038L505.91636293631063,136.07178251899145L507.153967120228,133.35454580364276L507.4633681662074,132.8742562621901L508.08217025816606,131.6131288530258L508.70097235012474,130.2018053047004L509.9385765340421,128.05125667180747L510.2479775800214,127.84436311561232L511.1761807179595,126.05420719273779L511.4855817639388,125.45534722731361L511.79498280991817,125.29147088569383L512.1043838558975,124.18150191130087L512.7231859478562,124.22649573307557L513.0325869938355,124.08243747942817L513.9607901317736,123.02295001258705L514.2701911777528,122.02169443415836L514.5795922237322,121.3943557202699L515.198394315691,120.61840735457766L516.126597453629,119.26003607280322L517.3642016375463,116.83567532682137L518.6018058214637,115.86718981511878L518.9112068674431,115.1571717027206L519.8394100053811,114.2142780526517L520.7676131433191,113.21905632777892L521.0770141892984,112.66160108158327L521.3864152352778,111.98643367506843L521.6958162812571,111.87683600746233L522.0052173272364,111.22101854510953L522.3146183732158,110.91573676476783L523.2428215111538,109.43583014822279L523.5522225571332,109.49055095805747L523.8616236031125,108.95327791168674L524.1710246490918,109.50839243883055L525.0992277870299,108.91957155733992L527.2650351088852,108.1800083689094L528.1932382468232,108.02042334555134L528.5026392928025,108.00643104721911L529.1214413847613,107.01989599082768L529.4308424307405,107.53781909303632L529.7402434767199,106.82473203788132L530.0496445226993,106.8859028291033L530.3590455686787,106.69099895605159L530.9778476606373,106.83731990478243L531.596649752596,105.8699787446163L532.2154518445547,105.8483400973813L532.524852890534,105.90451735462597L533.453056028472,105.00864614951001L534.0718581204308,105.07647498603507L535.0000612583688,104.64671896811323L535.3094623043481,104.08562260339245L537.1658685802241,103.53539757826809L537.4752696262035,103.14569386412253L537.7846706721829,103.59963731224698L539.0222748561002,102.69955281283767L539.9504779940382,102.51026666551043L540.5692800859969,102.29986203073747L541.497483223935,101.44685199226005L542.7350874078523,101.00227142034308L543.9726915917697,100.80461070040805L544.282092637749,100.59737904034986L544.5914936837283,100.77277692130274L545.2102957756871,100.08236883296131L545.8290978676457,100.27487997098224L546.1384989136251,99.76621571302316L546.4478999596045,100.0813285133827L547.0667020515631,99.57698158167486L547.6855041435218,99.81162566262925L547.9949051895011,99.59773595726801L548.3043062354805,99.21656286366704L548.6137072814598,98.81505152230432L549.2325093734185,98.98722441256349L549.5419104193977,98.90176215918108L549.8513114653771,98.81250273933675L550.4701135573358,98.52064108155899L551.3983166952738,98.60194205662701L552.0171187872324,98.00906392877985L552.9453219251706,97.80073993316414L553.2547229711498,97.67142820954349L553.8735250631086,97.41363701796509L554.4923271550672,97.15938291295394L555.1111292470259,97.57660307995363L555.7299313389846,97.73764455072171L556.0393323849639,97.63798193509132L556.9675355229019,97.48141383851124L557.5863376148607,97.2786035366621L557.89573866084,97.01176156474985L559.1333428447574,96.75995221074845L560.3709470286748,96.70393100144054L561.2991501666128,96.7099128390175L561.6085512125921,96.65654444463506L561.9179522585714,96.65482791733038L562.2273533045508,96.63209693453784L562.5367543505301,96.6456210890597L564.0837595804269,96.6070772486724L564.7025616723855,96.61945705165779L565.0119627183649,96.64588116895435L565.3213637643443,96.64385254577608L565.6307648103235,96.66190209046488L565.9401658563029,96.66439885745352L566.8683689942409,96.58892367202573L567.4871710861996,96.60520467343088L569.652978408055,96.59636195701275L570.581181545993,96.60083533120076L572.1281867758897,96.59615389309702L572.4375878218691,96.60005509151681L572.7469888678484,96.60447644972585L573.6751920057864,96.60223976263187L574.2939940977451,96.60270790644223L574.6033951437245,96.60582886517807L574.9127961897037,96.60078331522183L575.8409993276418,96.59875469204353L577.3880045575385,96.60218774665294L578.0068066494972,96.60338411416832L578.6256087414558,96.60130347501114L578.9350097874352,96.60078331522183L579.553811879394,96.60047121934825L580.482015017332,96.60463249766265L580.7914160633113,96.60458048168371L581.41021815527,96.60447644972585L582.6478223391873,96.60437241776799L582.9572233851667,96.60390427395762L583.5760254771253,96.60359217808404L584.5042286150634,96.60775345639848L585.123030707022,96.61077038317642L586.05123384496,96.60484056157837L586.3606348909394,96.60842966412457L586.9794369828982,96.61139457492358L587.5982390748568,96.60874175999815L587.9076401208362,96.61087441513428L588.5264422127948,96.61238287852328L588.8358432587742,96.61425545376476L589.4546453507329,96.61004215947139L589.7640463967122,96.60910587185066L590.0734474426915,96.60676515279881L591.6204526725883,96.61066635121855L592.8580568565056,96.61337118212295L593.167457902485,96.61383932593333L593.4768589484643,96.61425545376476L596.880270454237,96.61820866816348L597.1896715002164,96.61748044445841L597.808473592175,96.61883285991063L599.3554788220717,96.6178965722899L599.6648798680511,96.61883285991063L599.9742809140304,96.61966511557351L600.9024840519685,96.61591996509051L601.2118850979477,96.61487964551192L602.1400882358859,96.61971713155243L603.0682913738239,96.61763649239525L603.3776924198032,96.6151917413855L603.9964945117619,96.61987317948923L604.3058955577412,96.62002922742602L604.6152966037206,96.62075745113104L604.9246976496999,96.62221389854108L605.2340986956792,96.62335825007753L607.0905049715553,96.61945705165779L608.0187081094933,96.61279900635472L608.637510201452,96.62075745113104L609.2563122934107,96.62325421811967L610.4939164773281,96.62465864955082L612.0409217072248,96.62065341917318L612.3503227532041,96.62351429801437L612.6597237991834,96.62424252171938L612.9691248451628,96.62372236193008L613.8973279831008,96.62205785060429L616.3725363509355,96.6219018026675L616.6819373969149,96.62320220214075L617.3007394888735,96.62231793049894L617.9195415808323,96.62632316087658L618.8477447187703,96.62471066552975L619.1571457647497,96.61893689186849L619.466546810729,96.61836471610026L620.7041509946463,96.62533485727691L621.0135520406257,96.62705138458159L621.6323541325843,96.62689533664481L621.9417551785637,96.62824775209698L622.251156224543,96.62767557632876L622.8699583165017,96.6233062340986L623.179359362481,96.61680423673232L624.107562500419,96.62403445780366L624.7263645923778,96.6254909052137L626.2733698222744,96.62642719283444L626.5827708682538,96.6275715443709L627.5109740061918,96.63110863093817L628.4391771441299,96.62871589590735L629.3673802820679,96.63043242321208L629.9861823740265,96.629756215486L630.9143855119646,96.63006831135958L631.2237865579439,96.62855984797056L632.4613907418612,96.62928807167559L632.7707917878406,96.6296001675492L636.7930053855721,96.63225298247463L637.1024064315515,96.62996427940172L637.4118074775307,96.63058847114887L638.0306095694895,96.6337614458636L638.6494116614481,96.63162879072748L639.2682137534068,96.6320449185589L640.1964168913448,96.63365741390574L640.8152189833036,96.6320449185589L641.1246200292828,96.63308523813751L642.0528231672209,96.62908000775987L642.3622242132002,96.63188887062212L642.9810263051589,96.63391749380038L643.9092294430968,96.62902799178093L644.2186304890762,96.62725944849731L644.8374325810349,96.63282515824285L645.1468336270142,96.63381346184252L646.0750367649523,96.63147274279068L647.3126409488697,96.63459370152647L647.6220419948489,96.62528284129799L648.2408440868077,96.62835178405484L648.8596461787663,96.63417757369504L650.0972503626837,96.6333973340111L650.406651408663,96.63246104639035L651.0254535006218,96.63615418089441L651.334854546601,96.63552998914726L651.6442555925804,96.63495781337899L651.9536566385598,96.6342816056529L652.5724587305184,96.63417757369504L653.8100629144358,96.63719450047302L654.4288650063945,96.63719450047302L654.7382660523739,96.63688240459943L655.6664691903119,96.63074451908567L656.9040733742293,96.63584208502084L657.8322765121673,96.63677837264157L658.7604796501053,96.63688240459943L659.0698806960846,96.63563402110512L660.307484880002,96.63797474015696L660.9262869719607,96.63355338194788L661.23568801794,96.6357900690419L661.8544901098987,96.63714248449408L662.4732922018574,96.63714248449408L662.7826932478367,96.63740256438874L663.7108963857747,96.63802675613589L665.2579016156715,96.63667434068371L665.8767037076302,96.63745458036766L666.1861047536095,96.63651829274693L666.8049068455681,96.6389110277777L667.1143078915475,96.63917110767235L668.3519120754648,96.63901505973556L669.5895162593822,96.63745458036766L670.2083183513408,96.64005537931416L670.8271204432996,96.63828683603055L671.4459225352582,96.6368303886205L672.064724627217,96.63511386131577L672.3741256731963,96.63870296386197L673.3023288111343,96.63922312365128L673.6117298571137,96.64031545920881L673.921130903093,96.63948320354592L674.5399329950517,96.64026344322987L676.0869382249484,96.63490579740005L676.705740316907,96.63849489994625L677.3245424088658,96.64041949116667L677.633943454845,96.64104368291382L677.9433445008244,96.63703845253622L679.4903497307212,96.64088763497703L680.7279539146385,96.64135577878744L681.3467560065972,96.63230499845356L681.6561570525765,96.63703845253622L683.5125633284526,96.63818280407268L683.8219643744319,96.64047150714559L684.1313654204113,96.64083561899811L684.4407664663906,96.6383908679884L684.75016751237,96.64177190661889L685.9877716962874,96.6409916669349L686.606573788246,96.63927513963021L686.9159748342254,96.64135577878744L688.7723811101014,96.64047150714559L689.0817821560807,96.64171989063995L690.0099852940187,96.63781869222016L690.6287873859774,96.64229206640819L690.9381884319567,96.64073158704025L691.2475894779361,96.64171989063995L691.8663915698947,96.64291625815534L692.7945947078327,96.64250013032391L693.4133967997915,96.64317633805L694.0321988917501,96.64224005042925L694.3415999377295,96.64322835402892L694.6510009837089,96.6430202901132L694.9604020296882,96.64229206640819L695.2698030756675,96.64348843392357L695.5792041216469,96.64369649783929L696.5074072595849,96.63844288396733L696.8168083055642,96.64114771487168L697.435610397523,96.64343641794464L697.7450114435022,96.64276021021855L698.0544124894816,96.64109569889276L698.9826156274196,96.64229206640819L699.292016673399,96.63469773348433L699.6014177193783,96.6357900690419L700.8390219032957,96.64307230609214L703.0048292251511,96.64536100916504L703.6236313171098,96.64359246588143L704.2424334090684,96.639431187567L704.5518344550478,96.64192795455567L704.8612355010272,96.64468480143896L705.7894386389652,96.64551705710184L706.4082407309238,96.63818280407268L707.0270428228825,96.64395657773395L707.3364438688619,96.6445807694811L707.9552459608205,96.64634931276471L709.5022511907173,96.64333238598678L710.1210532826759,96.64494488133361L710.4304543286553,96.64489286535468L711.3586574665933,96.64504891329146L711.6680585125727,96.64556907308076L712.2868606045314,96.64582915297542L712.5962616505107,96.64551705710184L712.90566269649,96.64432068958645L713.2150637424694,96.64655737668043L713.5244647884488,96.6471295524487L714.1432668804074,96.64707753646978L714.4526679263867,96.64660939265937L714.762068972366,96.64671342461722L715.690272110304,96.64588116895435L716.6184752482421,96.64624528080685L717.5466783861801,96.64556907308076L717.8560794321595,96.64598520091221L718.4748815241181,96.64816987202731L719.0936836160769,96.63558200512618L719.4030846620561,96.63610216491548L719.7124857080355,96.64390456175501L720.0218867540149,96.64582915297542L722.1876940758702,96.64530899318612L722.806496167829,96.647649712238L723.4252982597876,96.64837793594302L724.0441003517464,96.64629729678579L724.3535013977257,96.64738963234336L726.2099076736016,96.64203198651353L726.519308719581,96.64541302514398L727.1381108115396,96.64286424217642L727.447511857519,96.64723358440656L727.7569129034983,96.64790979213265L728.9945170874157,96.647649712238L729.6133191793743,96.64697350451188L730.2321212713331,96.63974328344058L730.8509233632917,96.64811785604837L731.1603244092711,96.64634931276471L731.4697254552505,96.64650536070151L732.3979285931885,96.64593318493327L732.7073296391678,96.64822188800623L733.0167306851472,96.64749366430121L733.6355327771058,96.64853398387982L733.9449338230852,96.64926220758483L734.8731369610232,96.64634931276471L736.1107411449406,96.64941825552162L736.4201421909199,96.64962631943735L736.7295432368993,96.65004244726877L737.3483453288579,96.63615418089441L738.5859495127753,96.64905414366912L738.8953505587547,96.64941825552162L739.204751604734,96.65004244726877L740.132954742672,96.64889809573232L741.6799599725688,96.64957430345841L742.2987620645274,96.64999043128985L743.5363662484448,96.64993841531091L744.4645693863828,96.64952228747948L744.7739704323621,96.65071865499488L746.3209756622589,96.65035454314236L746.9397777542175,96.6511347828263L747.2491788001969,96.64452875350217L747.5585798461763,96.64603721689113L747.8679808921556,96.64947027150055L748.1773819381349,96.65030252716343L748.4867829841143,96.64192795455567L748.7961840300936,96.64848196790088L749.7243871680316,96.65056260705808L750.033788214011,96.65092671891058L750.3431892599904,96.65051059107915L750.6525903059696,96.65123881478416L751.2713923979284,96.64499689731254L751.890194489887,96.64926220758483L752.1995955358664,96.65035454314236L753.1277986738044,96.65144687869989L753.4371997197837,96.6483259199641L755.2936059956598,96.65014647922663L756.5312101795772,96.65097873488952L758.0782154094738,96.65139486272096L758.3876164554532,96.65118679880524L758.6970175014326,96.65123881478416L759.93462168535,96.6507706709738L760.862824823288,96.64515294524932L762.4098300531847,96.65144687869989L763.3380331911227,96.64593318493327L764.2662363290607,96.65045857510022L764.8850384210194,96.65191502251025L765.1944394669988,96.6504065591213L766.1226426049368,96.64681745657508L767.3602467888542,96.64744164832229L768.5978509727715,96.65274727817314L770.1448562026683,96.65290332610992L771.6918614325649,96.65134284674203L772.3106635245236,96.65222711838383L773.2388666624615,96.652851310131L773.5482677084408,96.65311139002569L774.1670698003995,96.65337146992033L776.3328771222549,96.64967833541627L779.117486536069,96.6526952621942L779.4268875820484,96.65196703848919L780.045689674007,96.6445807694811L780.3550907199864,96.64088763497703L781.2832938579244,96.65316340600461L781.5926949039037,96.65352751785713L782.2114969958624,96.6539956616675L783.4491011797797,96.65337146992033L784.0679032717385,96.65446380547786L785.3055074556559,96.65337146992033L785.6149085016352,96.65227913436277L785.9243095476145,96.65311139002569L786.2337105935939,96.65441178949894L786.5431116395732,96.65430775754108L787.7807158234906,96.65035454314236L788.09011686947,96.65326743796247L788.7089189614286,96.65435977352L789.018320007408,96.65467186939358L790.2559241913253,96.65472388537252L791.8029294212221,96.65415170960428L792.1123304672013,96.65514001320395L793.3499346511187,96.6451009292704L794.2781377890568,96.65472388537252L795.5157419729742,96.65373558177285L797.3721482488502,96.65529606114075L801.3943618465817,96.65056260705808L801.703762892561,96.65259123023634L802.9413670764784,96.65430775754108L806.0353775362718,96.65175897457347L806.3447785822511,96.65456783743572L807.5823827661685,96.65612831680362L808.2011848581271,96.65649242865612L808.5105859041065,96.6564404126772L808.8199869500859,96.65618033278255L809.1293879960652,96.65628436474042L810.0575911340032,96.65446380547786L810.6763932259619,96.65165494261561L810.9857942719412,96.65430775754108L811.6045963639,96.6564404126772L812.2233984558586,96.65576420495111L812.532799501838,96.65373558177285L813.1516015937966,96.65649242865612L813.461002639776,96.6539956616675L813.7704036857554,96.65545210907753L814.0798047317347,96.65581622093003L814.389205777714,96.65409969362535L814.6986068236934,96.65586823690897L815.0080078696727,96.65649242865612L815.3174089156521,96.65670049257184L815.9362110076107,96.65623234876148L818.1020183294661,96.65628436474042L819.0302214674042,96.6559202528879L819.3396225133835,96.65352751785713L819.958424605342,96.65711662040329L821.8148308812181,96.65597226886683L822.1242319271975,96.65581622093003L823.3618361111148,96.65659646061398L823.9806382030735,96.65529606114075L824.2900392490528,96.65612831680362L825.2182423869908,96.65633638071934L825.5276434329702,96.65571218897217L826.7652476168876,96.6560763008247L827.0746486628669,96.65701258844543L827.3840497088462,96.65748073225579L828.0028518008049,96.65664847659292L830.1686591226603,96.65794887606617L830.4780601686397,96.65789686008723L830.787461214619,96.65383961373071L831.4062633065777,96.6545158214568L832.0250653985364,96.65670049257184L832.3344664445157,96.65664847659292L834.5002737663712,96.64967833541627L836.0472789962678,96.65722065236115L837.9036852721439,96.65742871627687L838.8318884100819,96.65357953383605L839.1412894560613,96.65597226886683L840.0694925939993,96.65685654050864L842.2352999158546,96.65701258844543L843.1635030537927,96.65841701987654L843.472904099772,96.6585210518344L843.7823051457514,96.6533194539414L845.0199093296687,96.64931422356376L846.5669145595655,96.65846903585546L847.4951176975035,96.65914524358159L847.8045187434828,96.65670049257184L848.4233208354415,96.65914524358159L849.0421229274002,96.65914524358159L849.3515239733796,96.65945733945517L849.6609250193588,96.6554000930986L849.9703260653382,96.65108276684738L850.8985292032762,96.65883314770798L851.517331295235,96.65872911575012L852.1361333871936,96.65914524358159L852.445534433173,96.65909322760267L852.7549354791523,96.65737670029793L853.6831386170903,96.65909322760267L855.2301438469871,96.6581569399819L856.7771490768838,96.65711662040329L857.0865501228631,96.65846903585546L857.3959511688424,96.65867709977118L858.6335553527598,96.65820895596082L858.9429563987392,96.65909322760267L859.2523574447185,96.65893717966587L861.4181647665739,96.65935330749731L861.7275658125533,96.65935330749731L862.3463679045119,96.65956137141303L862.6557689504913,96.65950935543411L863.2745710424499,96.66008153120234L865.130977318326,96.65846903585546L865.7497794102846,96.65706460442436L866.3685815022434,96.65940532347625L866.6779825482228,96.65961338739197L867.9155867321399,96.65768879617151L869.1531909160573,96.65649242865612L869.4625919620366,96.65893717966587L869.771993008016,96.6596654033709L870.700196145954,96.65878113172904L871.0095971919334,96.65935330749731L872.5566024218301,96.64525697720718L872.8660034678094,96.65014647922663L873.4848055597681,96.6581569399819L874.1036076517267,96.65924927553945L874.4130086977061,96.65945733945517L874.7224097436855,96.65982145130768L875.0318107896649,96.66008153120234L875.6506128816235,96.65919725956053L876.2694149735822,96.6585210518344L877.5070191574996,96.65924927553945L878.1258212494582,96.66034161109698L878.744623341417,96.65950935543411L879.672826479355,96.66028959511806L879.9822275253343,96.66101781882307L881.2198317092517,96.66008153120234L882.1480348471897,96.66049765903378L882.7668369391483,96.65914524358159L883.0762379851277,96.65467186939358L883.6950400770864,96.66049765903378L884.6232432150244,96.65826097193974L884.9326442610038,96.65971741934983L885.2420453069831,96.66060169099163L885.5514463529624,96.65950935543411L887.0984515828592,96.66060169099163L887.4078526288386,96.65846903585546L887.7172536748178,96.65633638071934L888.3360557667766,96.66008153120234L888.9548578587352,96.66044564305484L889.2642589047146,96.66028959511806L889.8830609966733,96.66127789871773L890.5018630886319,96.64234408238711L891.4300662265699,96.65976943532876L892.0488683185287,96.66049765903378L892.358269364508,96.66086177088629L892.6676704104873,96.66101781882307L892.9770714564667,96.66122588273879L894.8334777323428,96.66086177088629L895.142878778322,96.6615899945913L896.0710819162601,96.65971741934983L896.3804829622394,96.66070572294949L896.6898840082188,96.66101781882307L896.9992850541981,96.66122588273879L898.5462902840949,96.66065370697056L901.0214986519296,96.66185007448595L901.3308996979089,96.66190209046488L902.5685038818262,96.65893717966587L903.187305973785,96.65904121162373L904.115509111723,96.66070572294949L904.4249101577024,96.66075773892842L904.7343112036817,96.66101781882307L905.043712249661,96.66117386675987L905.6625143416197,96.65976943532876L905.9719153875991,96.66138193067559L906.9001185255371,96.66148596263344L908.4471237554338,96.66190209046488L908.7565248014131,96.65976943532876L909.3753268933718,96.66190209046488L910.3035300313098,96.65758476421365L912.4693373531652,96.66221418633846L912.7787383991446,96.6621101543806L913.0881394451239,96.66195410644382L914.0163425830618,96.66205813840168L915.2539467669792,96.66132991469665L915.5633478129585,96.66200612242274L915.8727488589378,96.6615899945913L916.8009519968758,96.6624742662331L917.1103530428552,96.66268233014883L917.7291551348139,96.66231821829632L918.3479572267726,96.66091378686521L918.9667593187313,96.66101781882307L920.2043635026487,96.66179805850702L920.8231655946073,96.65514001320395L921.1325666405867,96.65097873488952L922.6795718704834,96.6560763008247L923.298373962442,96.66112185078093L924.5359781463594,96.66185007448595L925.7735823302768,96.66221418633846L926.0829833762562,96.6580008920451L927.3205875601735,96.66101781882307L928.2487906981115,96.65919725956053L928.5581917440909,96.66216217035954L929.1769938360495,96.66268233014883L929.4863948820289,96.6596654033709L930.1051969739876,96.6615899945913L930.4145980199669,96.66200612242274L930.7239990659463,96.66252628221204L931.342801157905,96.66132991469665L931.6522022038843,96.65253921425742L931.9616032498636,96.6433844019657L933.8180095257397,96.6626303141699L934.127410571719,96.66278636210669L934.4368116176984,96.66179805850702L934.7462126636777,96.66226620231738L935.0556137096571,96.66226620231738L935.9838168475951,96.66153797861237L936.6026189395537,96.6626303141699L938.7684262614092,96.66148596263344L940.0060304453266,96.66231821829632L940.3154314913058,96.66185007448595L940.6248325372852,96.6617460425281L940.9342335832646,96.66315047395919L942.171837767182,96.66231821829632L942.4812388131613,96.66294241004348L943.10004090512,96.65768879617151L943.4094419510993,96.66117386675987L944.028244043058,96.66153797861237L944.9564471809961,96.66283837808562L945.8846503189341,96.65935330749731L946.1940513649134,96.66023757913912L946.8128534568721,96.66320248993813L947.4316555488308,96.66299442602241L948.0504576407894,96.66341055385385L949.5974628706862,96.65862508379226L950.8350670546035,96.66330652189599L951.7632701925415,96.66361861776957L953.0008743764589,96.66325450591705L953.6196764684177,96.66387869766422L953.9290775143969,96.66283837808562L954.2384785603763,96.66325450591705L955.1666816983143,96.66195410644382L956.713686928211,96.66294241004348L958.5700932040871,96.65243518229956L958.8794942500664,96.65956137141303L959.1888952960458,96.65878113172904L960.1170984339838,96.66361861776957L961.0453015719216,96.66408676157994L961.9735047098596,96.66361861776957L962.282905755839,96.66429482549566L963.211108893777,96.66523111311643L963.5205099397564,96.66138193067559L963.8299109857358,96.66320248993813L964.1393120317151,96.66424280951672L965.0675151696531,96.66429482549566L965.6863172616117,96.6647109533271L966.6145203995499,96.66445087343244L966.9239214455291,96.65467186939358L967.5427235374879,96.66335853787491L968.4709266754259,96.66439885745352L969.7085308593432,96.66299442602241L970.0179319053226,96.6645549053903L970.327332951302,96.6645549053903L970.6367339972812,96.66476296930603L970.9461350432606,96.66481498528495L971.5649371352193,96.66502304920071L971.8743381811986,96.66559522496894L972.183739227178,96.66268233014883L972.4931402731573,96.66283837808562L974.3495465490333,96.66502304920071L974.9683486409921,96.66486700126393L975.5871507329507,96.66143394665451L975.8965517789301,96.66434684147458L976.2059528249094,96.66491901724285L976.5153538708888,96.66491901724285L976.8247549168681,96.66502304920071L977.4435570088268,96.66502304920071L978.0623591007854,96.66491901724285L978.3717601467648,96.6653351450743L979.2999632847028,96.66091378686521L979.6093643306822,96.66325450591705L980.5375674686202,96.66424280951672L982.7033747904757,96.66044564305484L987.0349894341864,96.664034745601L987.3443904801658,96.66517909713751L988.5819946640831,96.66517909713751L988.8913957100625,96.6641907935378L989.2007967560418,96.6647109533271L989.8195988480005,96.66491901724285L990.1289998939799,96.66554320899002L990.7478019859385,96.66538716105323L991.6760051238765,96.66512708115857L991.9854061698559,96.66512708115857L992.6042082618146,96.66507506517965L992.9136093077939,96.66512708115857L993.2230103537732,96.66398272962208L994.4606145376906,96.66575127290574L994.77001558367,96.66517909713751L995.3888176756286,96.66502304920071L995.698218721608,96.6647109533271L996.626421859546,96.6658553048636L996.9358229055254,96.66439885745352L997.2452239515047,96.66377466570636L998.7922291814015,96.66580328888466L999.1016302273807,96.66481498528495L999.4110312733601,96.66559522496894L999.7204323193395,96.66543917703216L1002.8144427791328,96.66580328888466L1003.1238438251122,96.66523111311643L1003.742645917071,96.66195410644382L1004.9802501009883,96.66575127290574L1006.2178542849057,96.65841701987654L1006.5272553308849,96.6588851636869L1008.0742605607817,96.66590732084252L1008.6930626527402,96.6641907935378L1009.0024636987196,96.66169402654916L1009.6212657906783,96.66278636210669L1009.9306668366576,96.66450288941138L1010.2400678826369,96.66507506517965L1011.4776720665543,96.66549119301108L1011.7870731125337,96.66543917703216L1012.096474158513,96.66538716105323L1012.4058752044923,96.66549119301108L1013.024677296451,96.66642748063182L1013.952880434389,96.66491901724285L1014.2622814803684,96.66549119301108L1014.5716825263478,96.66601135280038L1014.881083572327,96.66601135280038L1015.8092867102652,96.64400859371287L1016.1186877562444,96.66309845798027L1017.3562919401618,96.66595933682146L1017.6656929861412,96.66627143269504L1018.9032971700585,96.66523111311643L1019.2126982160379,96.66559522496894L1019.8315003079965,96.66627143269504L1020.1409013539759,96.66595933682146L1020.4503023999553,96.66559522496894L1021.0691044919139,96.66668756052647L1021.3785055378933,96.66663554454755L1023.5443128597486,96.66595933682146L1023.853713905728,96.66580328888466L1024.1631149517073,96.66653151258969L1025.0913180896455,96.6653351450743L1026.3289222735627,96.66491901724285L1028.1853285494387,96.6672597362947L1028.4947295954182,96.66663554454755L1029.7323337793355,96.66658352856861L1030.041734825315,96.66663554454755L1031.2793390092322,96.66590732084252L1031.5887400552115,96.66320248993813L1031.898141101191,96.66684360846327L1032.2075421471702,96.66616740073718L1034.3733494690257,96.66694764042113L1035.610953652943,96.65727266834008L1036.2297557449017,96.65774081215045L1036.539156790881,96.66408676157994L1038.7049641127364,96.6672597362947L1039.3237662046952,96.66757183216828L1039.942568296654,96.66736376825256L1040.5613703886124,96.6658553048636L1042.1083756185092,96.66788392804186L1043.655380848406,96.66705167237899L1044.2741829403647,96.66746780021042L1044.583583986344,96.66736376825256L1044.8929850323234,96.66679159248433L1045.8211881702614,96.66642748063182L1046.7493913081994,96.6674157842315L1047.3681934001581,96.66731175227363L1047.6775944461374,96.66580328888466L1048.2963965380961,96.66762384814722L1048.6057975840754,96.66783191206294L1048.9151986300546,96.66767586412614L1050.4622038599514,96.66783191206294L1050.7716049059309,96.66798795999972L1051.0810059519101,96.66668756052647L1051.6998080438689,96.6679359440208L1052.3186101358276,96.66757183216828L1054.1750164117036,96.66767586412614L1055.1032195496416,96.667779896084L1056.0314226875794,96.66663554454755L1056.9596258255174,96.66653151258969L1057.5784279174761,96.66772788010508L1058.5066310554141,96.6674157842315L1060.6724383772696,96.66762384814722L1061.6006415152076,96.66710368835791L1061.9100425611869,96.66751981618935L1063.766448837063,96.667779896084L1064.3852509290216,96.66679159248433L1064.694651975001,96.64395657773395L1066.8604592968563,96.66767586412614L1067.479261388815,96.66788392804186L1068.7168655727326,96.66809199195758L1069.0262666187118,96.66845610381009L1069.9544697566498,96.65935330749731L1070.2638708026293,96.66710368835791L1072.1202770785053,96.6683000558733L1072.4296781244846,96.6683000558733L1072.739079170464,96.6681440079365L1074.9048864923193,96.66835207185223L1076.451891722216,96.66762384814722L1076.7612927681953,96.6626303141699L1077.0706938141748,96.6658553048636L1077.6894959061335,96.66819602391544L1078.308297998092,96.66616740073718L1079.5459021820095,96.66788392804186L1079.8553032279888,96.66772788010508L1080.7835063659268,96.66439885745352L1082.3305115958235,96.667779896084L1083.568115779741,96.66803997597864" style="fill: none;" fill="none"></path></g></g></g></g></g><g><g opacity="0.877999"><span fill="rgb(0, 0, 0)" stroke="none" stroke-width="1px">Alt + Scroll to Zoom</span></g></g></g><g transform="translate(50, 377)" clip-path="url(#clip_1)"><clipPath id="clip_1"><rect width="1448" height="23"></rect></clipPath><g><g><line x1="53.57203371451367" y1="0" x2="53.57203371451367" y2="5" style="visibility: inherit;" fill="rgb(0, 0, 0)" stroke="rgb(204, 204, 204)" stroke-width="1px"></line><line x1="208.27255670418432" y1="0" x2="208.27255670418432" y2="5" style="visibility: inherit;" fill="rgb(0, 0, 0)" stroke="rgb(204, 204, 204)" stroke-width="1px"></line><line x1="362.97307969385497" y1="0" x2="362.97307969385497" y2="5" style="visibility: inherit;" fill="rgb(0, 0, 0)" stroke="rgb(204, 204, 204)" stroke-width="1px"></line><line x1="517.6736026835257" y1="0" x2="517.6736026835257" y2="5" style="visibility: inherit;" fill="rgb(0, 0, 0)" stroke="rgb(204, 204, 204)" stroke-width="1px"></line><line x1="672.3741256731963" y1="0" x2="672.3741256731963" y2="5" style="visibility: inherit;" fill="rgb(0, 0, 0)" stroke="rgb(204, 204, 204)" stroke-width="1px"></line><line x1="827.0746486628669" y1="0" x2="827.0746486628669" y2="5" style="visibility: inherit;" fill="rgb(0, 0, 0)" stroke="rgb(204, 204, 204)" stroke-width="1px"></line><line x1="981.7751716525376" y1="0" x2="981.7751716525376" y2="5" style="visibility: inherit;" fill="rgb(0, 0, 0)" stroke="rgb(204, 204, 204)" stroke-width="1px"></line><line x1="1136.4756946422083" y1="0" x2="1136.4756946422083" y2="5" style="visibility: inherit;" fill="rgb(0, 0, 0)" stroke="rgb(204, 204, 204)" stroke-width="1px"></line><line x1="1291.176217631879" y1="0" x2="1291.176217631879" y2="5" style="visibility: inherit;" fill="rgb(0, 0, 0)" stroke="rgb(204, 204, 204)" stroke-width="1px"></line><line x1="1445.8767406215495" y1="0" x2="1445.8767406215495" y2="5" style="visibility: inherit;" fill="rgb(0, 0, 0)" stroke="rgb(204, 204, 204)" stroke-width="1px"></line></g><g transform="translate(0, 8)"><text x="53.57203371451367" y="0" dx="0em" dy="0.95em" style="text-anchor: middle; visibility: inherit; font-family: Roboto, sans-serif; font-size: 12px; font-weight: 200;" fill="rgb(33, 33, 33)" stroke="none" stroke-width="1px">-1k</text><text x="208.27255670418432" y="0" dx="0em" dy="0.95em" style="text-anchor: middle; visibility: inherit; font-family: Roboto, sans-serif; font-size: 12px; font-weight: 200;" fill="rgb(33, 33, 33)" stroke="none" stroke-width="1px">-500</text><text x="362.97307969385497" y="0" dx="0em" dy="0.95em" style="text-anchor: middle; visibility: inherit; font-family: Roboto, sans-serif; font-size: 12px; font-weight: 200;" fill="rgb(33, 33, 33)" stroke="none" stroke-width="1px">0</text><text x="517.6736026835257" y="0" dx="0em" dy="0.95em" style="text-anchor: middle; visibility: inherit; font-family: Roboto, sans-serif; font-size: 12px; font-weight: 200;" fill="rgb(33, 33, 33)" stroke="none" stroke-width="1px">500</text><text x="672.3741256731963" y="0" dx="0em" dy="0.95em" style="text-anchor: middle; visibility: inherit; font-family: Roboto, sans-serif; font-size: 12px; font-weight: 200;" fill="rgb(33, 33, 33)" stroke="none" stroke-width="1px">1k</text><text x="827.0746486628669" y="0" dx="0em" dy="0.95em" style="text-anchor: middle; visibility: inherit; font-family: Roboto, sans-serif; font-size: 12px; font-weight: 200;" fill="rgb(33, 33, 33)" stroke="none" stroke-width="1px">1.5k</text><text x="981.7751716525376" y="0" dx="0em" dy="0.95em" style="text-anchor: middle; visibility: inherit; font-family: Roboto, sans-serif; font-size: 12px; font-weight: 200;" fill="rgb(33, 33, 33)" stroke="none" stroke-width="1px">2k</text><text x="1136.4756946422083" y="0" dx="0em" dy="0.95em" style="text-anchor: middle; visibility: inherit; font-family: Roboto, sans-serif; font-size: 12px; font-weight: 200;" fill="rgb(33, 33, 33)" stroke="none" stroke-width="1px">2.5k</text><text x="1291.176217631879" y="0" dx="0em" dy="0.95em" style="text-anchor: middle; visibility: inherit; font-family: Roboto, sans-serif; font-size: 12px; font-weight: 200;" fill="rgb(33, 33, 33)" stroke="none" stroke-width="1px">3k</text><text x="1445.8767406215495" y="0" dx="0em" dy="0.95em" style="text-anchor: middle; visibility: hidden; font-family: Roboto, sans-serif; font-size: 12px; font-weight: 200;" fill="rgb(33, 33, 33)" stroke="none" stroke-width="1px">3.5k</text></g><line x1="0" y1="0" x2="1448" y2="0" fill="rgb(0, 0, 0)" stroke="rgb(204, 204, 204)" stroke-width="1px"></line></g></g></g></g></svg>