<svg viewBox="0 0 1324.8294677734375 400" xmlns="http://www.w3.org/2000/svg"><g><g><g><g><g><line x1="60" y1="377" x2="55" y2="377" style="visibility: inherit;" fill="rgb(0, 0, 0)" stroke="rgb(204, 204, 204)" stroke-width="1px"></line><line x1="60" y1="339.29999999999995" x2="55" y2="339.29999999999995" style="visibility: inherit;" fill="rgb(0, 0, 0)" stroke="rgb(204, 204, 204)" stroke-width="1px"></line><line x1="60" y1="301.5999999999999" x2="55" y2="301.5999999999999" style="visibility: inherit;" fill="rgb(0, 0, 0)" stroke="rgb(204, 204, 204)" stroke-width="1px"></line><line x1="60" y1="263.8999999999999" x2="55" y2="263.8999999999999" style="visibility: inherit;" fill="rgb(0, 0, 0)" stroke="rgb(204, 204, 204)" stroke-width="1px"></line><line x1="60" y1="226.1999999999999" x2="55" y2="226.1999999999999" style="visibility: inherit;" fill="rgb(0, 0, 0)" stroke="rgb(204, 204, 204)" stroke-width="1px"></line><line x1="60" y1="188.50000000000009" x2="55" y2="188.50000000000009" style="visibility: inherit;" fill="rgb(0, 0, 0)" stroke="rgb(204, 204, 204)" stroke-width="1px"></line><line x1="60" y1="150.8000000000001" x2="55" y2="150.8000000000001" style="visibility: inherit;" fill="rgb(0, 0, 0)" stroke="rgb(204, 204, 204)" stroke-width="1px"></line><line x1="60" y1="113.10000000000007" x2="55" y2="113.10000000000007" style="visibility: inherit;" fill="rgb(0, 0, 0)" stroke="rgb(204, 204, 204)" stroke-width="1px"></line><line x1="60" y1="75.40000000000002" x2="55" y2="75.40000000000002" style="visibility: inherit;" fill="rgb(0, 0, 0)" stroke="rgb(204, 204, 204)" stroke-width="1px"></line><line x1="60" y1="37.70000000000003" x2="55" y2="37.70000000000003" style="visibility: inherit;" fill="rgb(0, 0, 0)" stroke="rgb(204, 204, 204)" stroke-width="1px"></line><line x1="60" y1="0" x2="55" y2="0" style="visibility: inherit;" fill="rgb(0, 0, 0)" stroke="rgb(204, 204, 204)" stroke-width="1px"></line></g><g transform="translate(50, 0)"><text x="0" y="377" dx="0em" dy="0.3em" style="text-anchor: end; visibility: hidden; font-family: Roboto, sans-serif; font-size: 12px; font-weight: 200;" fill="rgb(33, 33, 33)" stroke="none" stroke-width="1px">0.15</text><text x="0" y="339.29999999999995" dx="0em" dy="0.3em" style="text-anchor: end; visibility: inherit; font-family: Roboto, sans-serif; font-size: 12px; font-weight: 200;" fill="rgb(33, 33, 33)" stroke="none" stroke-width="1px">0.155</text><text x="0" y="301.5999999999999" dx="0em" dy="0.3em" style="text-anchor: end; visibility: inherit; font-family: Roboto, sans-serif; font-size: 12px; font-weight: 200;" fill="rgb(33, 33, 33)" stroke="none" stroke-width="1px">0.16</text><text x="0" y="263.8999999999999" dx="0em" dy="0.3em" style="text-anchor: end; visibility: inherit; font-family: Roboto, sans-serif; font-size: 12px; font-weight: 200;" fill="rgb(33, 33, 33)" stroke="none" stroke-width="1px">0.165</text><text x="0" y="226.1999999999999" dx="0em" dy="0.3em" style="text-anchor: end; visibility: inherit; font-family: Roboto, sans-serif; font-size: 12px; font-weight: 200;" fill="rgb(33, 33, 33)" stroke="none" stroke-width="1px">0.17</text><text x="0" y="188.50000000000009" dx="0em" dy="0.3em" style="text-anchor: end; visibility: inherit; font-family: Roboto, sans-serif; font-size: 12px; font-weight: 200;" fill="rgb(33, 33, 33)" stroke="none" stroke-width="1px">0.175</text><text x="0" y="150.8000000000001" dx="0em" dy="0.3em" style="text-anchor: end; visibility: inherit; font-family: Roboto, sans-serif; font-size: 12px; font-weight: 200;" fill="rgb(33, 33, 33)" stroke="none" stroke-width="1px">0.18</text><text x="0" y="113.10000000000007" dx="0em" dy="0.3em" style="text-anchor: end; visibility: inherit; font-family: Roboto, sans-serif; font-size: 12px; font-weight: 200;" fill="rgb(33, 33, 33)" stroke="none" stroke-width="1px">0.185</text><text x="0" y="75.40000000000002" dx="0em" dy="0.3em" style="text-anchor: end; visibility: inherit; font-family: Roboto, sans-serif; font-size: 12px; font-weight: 200;" fill="rgb(33, 33, 33)" stroke="none" stroke-width="1px">0.19</text><text x="0" y="37.70000000000003" dx="0em" dy="0.3em" style="text-anchor: end; visibility: inherit; font-family: Roboto, sans-serif; font-size: 12px; font-weight: 200;" fill="rgb(33, 33, 33)" stroke="none" stroke-width="1px">0.195</text><text x="0" y="0" dx="0em" dy="0.3em" style="text-anchor: end; visibility: hidden; font-family: Roboto, sans-serif; font-size: 12px; font-weight: 200;" fill="rgb(33, 33, 33)" stroke="none" stroke-width="1px">0.2</text></g><line x1="60" y1="0" x2="60" y2="377" fill="rgb(0, 0, 0)" stroke="rgb(204, 204, 204)" stroke-width="1px"></line></g></g><g transform="translate(60, 0)" clip-path="url(#clip_0)"><clipPath id="clip_0"><rect width="1264" height="376"></rect></clipPath><g><g><g><line x1="0" y1="0" x2="0" y2="377" fill="rgb(0, 0, 0)" stroke="rgb(66, 66, 66)" stroke-width="1px" opacity="0.25"></line><line x1="97.29461538461538" y1="0" x2="97.29461538461538" y2="377" fill="rgb(0, 0, 0)" stroke="rgb(66, 66, 66)" stroke-width="1px" opacity="0.25"></line><line x1="194.58923076923077" y1="0" x2="194.58923076923077" y2="377" fill="rgb(0, 0, 0)" stroke="rgb(66, 66, 66)" stroke-width="1px" opacity="0.25"></line><line x1="291.88384615384615" y1="0" x2="291.88384615384615" y2="377" fill="rgb(0, 0, 0)" stroke="rgb(66, 66, 66)" stroke-width="1px" opacity="0.25"></line><line x1="389.17846153846153" y1="0" x2="389.17846153846153" y2="377" fill="rgb(0, 0, 0)" stroke="rgb(66, 66, 66)" stroke-width="1px" opacity="0.25"></line><line x1="486.4730769230769" y1="0" x2="486.4730769230769" y2="377" fill="rgb(0, 0, 0)" stroke="rgb(66, 66, 66)" stroke-width="1px" opacity="0.25"></line><line x1="583.7676923076923" y1="0" x2="583.7676923076923" y2="377" fill="rgb(0, 0, 0)" stroke="rgb(66, 66, 66)" stroke-width="1px" opacity="0.25"></line><line x1="681.0623076923076" y1="0" x2="681.0623076923076" y2="377" fill="rgb(0, 0, 0)" stroke="rgb(66, 66, 66)" stroke-width="1px" opacity="0.25"></line><line x1="778.3569230769231" y1="0" x2="778.3569230769231" y2="377" fill="rgb(0, 0, 0)" stroke="rgb(66, 66, 66)" stroke-width="1px" opacity="0.25"></line><line x1="875.6515384615384" y1="0" x2="875.6515384615384" y2="377" fill="rgb(0, 0, 0)" stroke="rgb(66, 66, 66)" stroke-width="1px" opacity="0.25"></line><line x1="972.9461538461538" y1="0" x2="972.9461538461538" y2="377" fill="rgb(0, 0, 0)" stroke="rgb(66, 66, 66)" stroke-width="1px" opacity="0.25"></line><line x1="1070.240769230769" y1="0" x2="1070.240769230769" y2="377" fill="rgb(0, 0, 0)" stroke="rgb(66, 66, 66)" stroke-width="1px" opacity="0.25"></line><line x1="1167.5353846153846" y1="0" x2="1167.5353846153846" y2="377" fill="rgb(0, 0, 0)" stroke="rgb(66, 66, 66)" stroke-width="1px" opacity="0.25"></line><line x1="1264.83" y1="0" x2="1264.83" y2="377" fill="rgb(0, 0, 0)" stroke="rgb(66, 66, 66)" stroke-width="1px" opacity="0.25"></line></g><g><line x1="0" y1="377" x2="1264.83" y2="377" fill="rgb(0, 0, 0)" stroke="rgb(66, 66, 66)" stroke-width="1px" opacity="0.25"></line><line x1="0" y1="339.29999999999995" x2="1264.83" y2="339.29999999999995" fill="rgb(0, 0, 0)" stroke="rgb(66, 66, 66)" stroke-width="1px" opacity="0.25"></line><line x1="0" y1="301.5999999999999" x2="1264.83" y2="301.5999999999999" fill="rgb(0, 0, 0)" stroke="rgb(66, 66, 66)" stroke-width="1px" opacity="0.25"></line><line x1="0" y1="263.8999999999999" x2="1264.83" y2="263.8999999999999" fill="rgb(0, 0, 0)" stroke="rgb(66, 66, 66)" stroke-width="1px" opacity="0.25"></line><line x1="0" y1="226.1999999999999" x2="1264.83" y2="226.1999999999999" fill="rgb(0, 0, 0)" stroke="rgb(66, 66, 66)" stroke-width="1px" opacity="0.25"></line><line x1="0" y1="188.50000000000009" x2="1264.83" y2="188.50000000000009" fill="rgb(0, 0, 0)" stroke="rgb(66, 66, 66)" stroke-width="1px" opacity="0.25"></line><line x1="0" y1="150.8000000000001" x2="1264.83" y2="150.8000000000001" fill="rgb(0, 0, 0)" stroke="rgb(66, 66, 66)" stroke-width="1px" opacity="0.25"></line><line x1="0" y1="113.10000000000007" x2="1264.83" y2="113.10000000000007" fill="rgb(0, 0, 0)" stroke="rgb(66, 66, 66)" stroke-width="1px" opacity="0.25"></line><line x1="0" y1="75.40000000000002" x2="1264.83" y2="75.40000000000002" fill="rgb(0, 0, 0)" stroke="rgb(66, 66, 66)" stroke-width="1px" opacity="0.25"></line><line x1="0" y1="37.70000000000003" x2="1264.83" y2="37.70000000000003" fill="rgb(0, 0, 0)" stroke="rgb(66, 66, 66)" stroke-width="1px" opacity="0.25"></line><line x1="0" y1="0" x2="1264.83" y2="0" fill="rgb(0, 0, 0)" stroke="rgb(66, 66, 66)" stroke-width="1px" opacity="0.25"></line></g></g></g><g><g><line x1="0" y1="1507.9999999999998" x2="1264.83" y2="1507.9999999999998" fill="rgb(0, 0, 0)" stroke="rgb(153, 153, 153)" stroke-width="1.5px"></line></g></g><g><g><line x1="97.29461538461538" y1="0" x2="97.29461538461538" y2="377" fill="rgb(0, 0, 0)" stroke="rgb(153, 153, 153)" stroke-width="1.5px"></line></g></g><g><g><g><g><g><path stroke="rgb(255, 112, 67)" stroke-width="2px" d="M129.88831153846152,-0.289560675620949L130.3747846153846,5.0025730133057476L130.8612576923077,5.436037659645164L132.32067692307692,11.89261603355416L132.80714999999998,15.017426490783775L133.29362307692307,21.291540741920556L133.78009615384613,27.430379867553796L136.21246153846153,38.35777866840371L138.64482692307692,47.59187895059594L140.10424615384616,59.02498650550851L140.59071923076922,58.88162183761605L143.50955769230768,66.7047711014748L147.4013423076923,84.75332665443425L148.86076153846153,86.44864755868916L149.34723461538462,90.27870881557469L152.75254615384614,92.05986875295643L154.21196538461538,101.96259218454365L155.18491153846153,107.61909234523777L158.10375,116.38478565216069L158.59022307692305,119.25286549329762L159.07669615384614,120.61460512876515L160.53611538461536,123.27606457471852L161.02258846153848,120.22181290388112L164.4279,134.56805455684665L165.40084615384615,118.07729768753056L166.3737923076923,130.51631736755374L166.86026538461536,134.13009572029117L167.34673846153848,137.49444651603702L170.75205,144.55245989561084L173.18441538461536,152.02281522750857L174.15736153846154,153.56140124797824L174.6438346153846,154.25103473663333L175.1303076923077,155.99017399549487L176.5897269230769,147.62704777717593L178.04914615384612,161.99946808815005L179.02209230769228,165.15820968151095L179.5085653846154,165.55313664674762L180.9679846153846,161.96531224250796L183.88682307692306,165.21506118774417L184.37329615384613,171.17076206207278L185.34624230769228,169.74767673015597L186.80566153846155,177.4539770483971L187.77860769230767,178.8839160203934L188.26508076923076,176.76119762659076L189.23802692307692,176.59547436237338L190.21097307692307,176.48109722137454L190.69744615384613,178.56730031967166L194.10275769230768,187.948023557663L197.9945423076923,191.05878967046738L198.48101538461538,190.947895526886L198.96748846153847,191.04497003555298L200.91338076923077,190.307248711586L203.8322192307692,191.66898834705353L205.77811153846153,199.66044503450394L206.2645846153846,201.57193648815155L207.23753076923074,201.16700994968414L208.2104769230769,201.08431684970856L209.18342307692305,192.68130469322205L210.64284230769232,201.50935488939285L211.12931538461538,200.83309161663055L211.61578846153844,202.7885137796402L213.07520769230769,208.43467730283737L217.93993846153845,210.1803331375122L218.9128846153846,210.99344450235367L221.83172307692308,209.4412635564804L223.2911423076923,210.93625593185425L223.7776153846154,209.19284719228745L224.26408846153845,208.40670096874237L224.75056153846154,207.79728877544403L225.72350769230766,203.12872397899628L227.66939999999997,206.96732419729233L228.64234615384615,216.5327586531639L229.6152923076923,222.5503669977188L230.58823846153845,224.89566016197205L233.02060384615382,228.49550652503967L233.99354999999997,222.48565065860748L235.9394423076923,225.81505912542343L239.34475384615382,233.0095835328102L239.83122692307688,231.73503118753433L242.2635923076923,232.93554174900055L242.75006538461537,229.06615632772446L243.23653846153846,235.42509841918945L244.2094846153846,231.1117993593216L244.69595769230767,231.17808866500854L245.18243076923073,232.09074634313583L247.12832307692307,237.63635236024857L247.61479615384616,240.4843207001686L248.5877423076923,240.88475304841995L250.04716153846152,238.79147160053253L251.99305384615386,240.75442153215408L252.4795269230769,241.32844197750092L252.966,240.31927156448364L253.45247307692307,240.1560201048851L254.42541923076922,240.58521527051926L255.88483846153844,236.51078242063522L256.37131153846155,234.06976300477982L256.8577846153846,233.47843992710114L258.31720384615386,232.27096337080002L258.8036769230769,229.13401859998703L259.77662307692304,235.25881338119507L262.69546153846153,247.93478924036026L263.66840769230765,250.67298698425293L265.1278269230769,243.68025171756744L265.61429999999996,247.95400190353394L266.58724615384614,246.78495067358017L267.07371923076926,248.5304941534996L269.5060846153846,248.23522585630417L269.9925576923077,252.1904503107071L271.93845,253.81319004297256L272.9113961538461,251.27453434467316L274.37081538461536,250.344012260437L276.31670769230766,253.22029399871826L278.26259999999996,254.13531112670898L279.23554615384614,249.35731279850006L281.18143846153845,248.9631723165512L281.6679115384615,251.04634183645248L282.15438461538463,250.92668402194977L283.12733076923075,250.52119570970535L283.6138038461538,251.51744532585144L285.5596961538462,257.60471361875534L286.04616923076924,255.1406614780426L287.99206153846154,258.21333932876587L288.4785346153846,254.65821015834808L288.96500769230767,258.7746636867523L293.82973846153845,258.9392634034157L296.2621038461538,261.2835453748703L299.66741538461537,259.08420103788376L300.15388846153843,262.28305327892303L302.5862538461538,262.3933856487274L303.0727269230769,261.7630754709244L304.0456730769231,263.0007754564285L305.0186192307692,261.5190409421921L306.9645115384615,257.3234896659851L311.34276923076925,259.34834706783295L311.8292423076923,259.9376477599144L312.3157153846154,257.75043773651123L312.80218846153844,252.6590819954872L314.2616076923077,243.8447390794754L317.1804461538461,252.19427037239075L320.58575769230765,271.3224427700043L321.0722307692307,273.6027948856354L321.5587038461538,274.62702083587646L322.04517692307695,275.30946362018585L323.0181230769231,273.8336839079857L323.50459615384614,272.45677638053894L324.9640153846154,267.9630355834961L325.45048846153844,266.5390514135361L327.8828538461538,268.7926630973816L328.3693269230769,267.28283989429474L330.31521923076923,271.11728298664093L333.7205307692307,273.03742575645447L335.17995,275.542262673378L335.6664230769231,269.4894872903824L336.6393692307692,273.62953531742096L337.6123153846154,275.70068287849426L339.0717346153846,278.3249529004097L344.4229384615384,277.231179356575L345.8823576923077,276.6108687520027L346.3688307692307,279.5178233385086L346.8553038461538,277.1941022872925L347.82825,276.0362865328789L348.80119615384615,279.1075037717819L349.2876692307692,278.77560782432556L350.2606153846154,278.87144643068314L352.69298076923076,282.21253979206085L353.1794538461538,280.8633838891983L356.09829230769225,279.54905796051025L357.0712384615384,279.5737760066986L357.5577115384615,277.79115545749664L358.04418461538455,278.81796556711197L358.5306576923077,277.67385709285736L359.0171307692308,279.0587418079376L359.50360384615385,278.83077400922775L360.47655,274.8883579969406L360.9630230769231,268.12808471918106L361.44949615384616,264.31195545196533L363.8818615384615,274.6975796222687L364.3683346153846,276.44604432582855L364.85480769230765,276.6636754870415L365.8277538461538,273.6870609521866L367.77364615384613,240.76374697685242L368.74659230769225,247.76209998130798L369.71953846153843,268.2290916442871L371.6654307692308,280.4512666463852L372.15190384615386,283.63584983348846L372.6383769230769,285.388134598732L374.5842692307692,288.85686296224594L376.5301615384615,284.12391889095306L377.0166346153846,283.3262001276016L378.47605384615383,281.40257436037064L379.44899999999996,283.0884574651718L379.935473076923,284.9688266515732L380.42194615384614,284.9717478752136L380.9084192307692,283.58461606502533L381.39489230769226,283.9522408246994L381.8813653846153,285.51678079366684L382.85431153846156,285.1181461215019L383.3407846153846,285.50206232070923L385.77315,291.02665799856186L386.25962307692305,291.59685838222504L387.7190423076923,291.21552634239197L388.20551538461535,290.8416097164154L389.6649346153846,291.496975004673L390.6378807692307,292.55243557691574L392.583773076923,289.335831284523L393.5567192307692,291.86976808309555L394.5296653846153,290.9537397623062L395.50261153846157,292.3333438038826L396.96203076923075,295.4310767650604L398.90792307692305,296.08048725128174L399.3943961538461,295.68511086702347L400.3673423076923,295.55848705768585L401.82676153846154,293.672949552536L403.7726538461538,293.48014879226685L406.20501923076927,294.0575398802757L409.61033076923076,285.4225151538849L410.0968038461538,285.2974643111229L411.06975,286.7625703215599L411.55622307692306,290.729030251503L412.0426961538461,292.24761712551117L412.5291692307692,292.6732169389725L413.0156423076923,292.62220788002014L413.50211538461537,294.3079786300659L414.9615346153846,294.45089387893677L416.90742692307686,294.5592038631439L417.3939,295.54421800374985L419.33979230769233,297.4936853647232L420.7992115384615,300.3186209797859L421.7721576923077,301.12869876623154L422.7451038461538,300.657145857811L424.20452307692307,301.30397218465805L424.69099615384613,298.03478586673737L425.1774692307692,299.3120347261429L425.6639423076923,299.8563935160637L426.15041538461537,299.03193432092667L427.1233615384615,298.9172201156616L427.60983461538456,300.6362478733063L428.0963076923077,300.3173850774765L429.0692538461538,300.93320149183273L429.55572692307686,300.9946595430374L430.0422,300.82871156930923L430.52867307692304,303.42242109775543L431.0151461538461,300.0949226617813L431.50161923076917,300.83623933792114L432.4745653846154,302.5286390185356L432.96103846153846,301.5234010219574L436.36634999999995,299.21226370334625L437.8257692307692,299.8423491716385L438.31224230769226,300.3309800028801L438.7987153846154,299.5559569001198L439.7716615384615,294.9639056921005L441.23108076923074,288.64215302467346L442.20402692307687,285.5157696008682L443.1769730769231,281.0452862381935L445.1228653846154,255.10841566324234L447.06875769230766,218.58334529399872L448.5281769230769,277.58318680524826L449.01464999999996,282.28332328796387L449.5011230769231,279.88982993364334L449.98759615384614,282.02962625026703L450.4740692307692,285.19825506210327L452.90643461538457,304.77573412656784L455.825273076923,290.09051817655563L456.79821923076923,289.29628241062164L457.2846923076923,290.59296864271164L457.77116538461536,294.3973006606102L458.2576384615385,300.0999786257744L459.2305846153846,305.9868060350418L460.69000384615384,297.1923499107361L461.1764769230769,292.75456178188324L462.63589615384615,287.131880402565L463.1223692307692,284.52187943458557L463.60884230769227,287.69893485307693L464.58178846153845,298.03298819065094L465.5547346153846,301.732268512249L468.473573076923,305.30559915304184L469.9329923076923,306.26735585927963L470.41946538461536,306.48622292280197L471.8788846153846,309.01566553115845L472.36535769230767,310.15202152729034L472.85183076923073,311.0571514368057L473.8247769230769,310.05438524484634L474.31125,309.26644134521484L474.79772307692303,309.08510076999664L477.2300884615384,307.05080556869507L479.1759807692307,296.1810447573662L479.66245384615377,294.2029269337654L480.6354,291.8998791575432L481.6083461538461,290.13366240262985L482.5812923076923,299.6115725040436L483.06776538461537,298.71588039398193L483.55423846153843,296.8375335931778L484.0407115384615,298.33387422561646L484.5271846153846,299.14159256219864L485.0136576923077,298.2409568428993L485.9866038461538,301.3492511510849L486.95955,304.5581029653549L487.9324961538461,309.1162230372429L489.39191538461534,311.9063286781311L490.36486153846147,312.8002231121063L490.8513346153846,313.61142444610596L491.33780769230765,313.6711971759796L493.2837,311.0207484960556L494.25664615384613,310.2819036245346L494.7431192307692,311.17692160606384L495.7160653846154,312.87325370311737L497.1754846153846,312.6874189376831L487.44602307692304,306.308590054512L488.9054423076923,313.17076909542084L490.36486153846147,314.0679218173027L490.8513346153846,313.27683198451996L491.8242807692307,310.6495283842087L492.79722692307695,309.067573428154L493.7701730769231,308.0799751281738L496.20253846153844,311.8443088531494L497.1754846153846,312.6934860944748L497.6619576923077,312.066321849823L498.14843076923074,312.5285493135452L498.6349038461538,312.7719097137451L500.09432307692305,309.1455476284027L503.0131615384615,302.78110015392303L503.9861076923077,295.206030189991L504.4725807692307,290.8288012742996L504.9590538461538,288.97539722919464L505.932,299.3778746128082L507.87789230769226,309.03622645139694L508.85083846153844,311.46219033002853L509.3373115384615,312.41776752471924L511.2832038461538,315.53415137529373L511.7696769230769,316.1513160467148L512.25615,315.6071819663048L512.7426230769231,314.76137536764145L514.2020423076923,315.34606951475143L514.6885153846154,314.4025142788887L515.1749884615384,312.73314732313156L516.1479346153845,313.8804017305374L517.6073538461538,307.8777365684509L518.5803,307.7353830933571L519.066773076923,308.4260277748108L520.0397192307692,312.1845190525055L520.5261923076922,312.68270003795624L521.9856115384615,313.1906558871269L523.4450307692308,311.6885851621628L523.9315038461539,310.1496620774269L527.3368153846153,303.0772672891617L527.8232884615385,305.3813262581825L528.3097615384615,307.63482558727264L528.7962346153846,307.48045015335083L529.2827076923077,307.01361614465714L529.7691807692307,307.1287797689438L530.2556538461538,309.0053288936615L531.2285999999999,311.900710940361L531.7150730769231,312.76134836673737L532.2015461538462,313.9760156273842L533.6609653846153,317.3011546134949L534.1474384615385,317.2746388912201L534.6339115384615,317.9087691307068L535.1203846153845,318.4312187433243L536.0933307692308,320.86358684301376L539.0121692307692,315.802229821682L539.4986423076923,314.47498309612274L540.9580615384615,311.86644273996353L544.363373076923,314.1924108862877L545.8227923076922,318.96681386232376L549.2281038461539,319.1089426279068L549.714576923077,317.9929228425026L550.20105,316.61073464155197L551.1739961538461,315.0421499013901L551.6604692307692,313.91141164302826L552.1469423076923,313.68793803453445L553.6063615384616,307.41213846206665L554.0928346153846,309.2268924713135L555.0657807692307,308.56838124990463L556.0387269230769,310.43448138237L556.5251999999999,311.6817315220833L558.4710923076923,319.77352100610733L558.9575653846154,321.8845545053482L560.9034576923077,324.5634289383888L561.3899307692308,324.89442604780197L561.8764038461538,325.1394717693329L562.3628769230769,324.5670242905617L563.8222961538461,322.1894853115082L564.3087692307693,320.9716721177101L564.7952423076923,319.4231988787651L566.2546615384615,314.97878181934357L566.7411346153846,314.6901424527168L570.6329192307692,314.09117925167084L572.0923384615385,318.13055741786957L572.5788115384614,318.00955134630203L573.5517576923077,320.3585522174835L574.5247038461538,320.0360940694809L575.0111769230768,321.2479524612427L576.4705961538461,323.0294494628906L576.9570692307692,325.59630620479584L577.9300153846153,327.26230251789093L578.4164884615384,327.85508620738983L578.9029615384615,328.75662076473236L579.3894346153846,328.61011016368866L580.8488538461538,327.6627348661423L584.7406384615384,320.2674325108528L585.7135846153845,315.72324442863464L586.6865307692308,313.8383810520172L587.6594769230769,313.7613056898117L588.14595,314.3309442996979L588.632423076923,315.3912361264229L589.6053692307692,317.2877843976021L590.5783153846154,317.1228476166725L591.0647884615385,317.4503617286682L591.5512615384615,316.23827862739563L593.0106807692307,310.3356091976166L593.9836269230768,312.9849343299866L597.3889384615385,323.4759472608566L597.8754115384615,324.35714560747147L599.3348307692307,324.1922088265419L600.3077769230769,323.878626704216L603.2266153846153,322.70384538173676L603.7130884615384,323.51830500364304L604.6860346153845,325.30339735746384L605.6589807692308,328.23315995931625L607.6048730769231,331.0233779549598L609.5507653846154,328.4671949148178L610.5237115384615,325.874159514904L611.4966576923076,319.29421561956406L612.9560769230769,317.84382808208466L613.44255,317.6501284837723L613.929023076923,320.15002179145813L614.4154961538461,323.8002030849457L617.3343346153846,328.3552895784378L617.8208076923077,326.9970329403877L620.7396461538461,315.7848148345947L621.7125923076923,321.1667199730873L622.6855384615385,323.6886348128319L623.1720115384616,323.3189876675606L623.6584846153846,324.21591567993164L628.0367423076923,318.9747910499573L629.0096884615384,324.1171558499336L630.4691076923076,328.199790596962L632.415,332.9465543031692L633.3879461538461,334.1471772193908L633.8744192307693,333.7710134983062L634.3608923076922,333.2249693870544L635.8203115384615,327.22893315553665L636.3067846153846,326.26661467552185L637.2797307692307,323.0365278124809L637.7662038461539,322.0379187464714L638.2526769230768,324.30804657936096L639.7120961538461,327.32791769504547L640.1985692307692,330.12734878063196L645.0633,330.88686692714685L646.0362461538462,329.97263628244394L646.5227192307692,330.2958809137344L647.9821384615385,331.2382002472877L648.4686115384615,331.2511210441589L648.9550846153846,328.4242753982544L650.4145038461538,322.0440982580185L650.9009769230769,322.7429448366165L651.38745,321.7988278269768L658.6845461538461,333.18092632293695L660.1439653846154,330.0036461949348L661.1169115384615,330.00196087360376L661.6033846153846,329.69860303401947L662.5763307692307,330.62249618768686L663.0628038461539,330.9864132404327L664.522223076923,331.7615486979484L665.9816423076923,334.0008913278579L666.4681153846153,334.07223659753794L666.9545884615384,334.87489897012705L667.4410615384614,335.9187870025634L668.4140076923076,335.2134238481521L669.3869538461539,334.7038950324058L670.3599,334.45750105381006L671.3328461538462,332.94408249855036L671.8193192307692,331.8928914070129L672.7922653846153,330.9098996520042L673.7652115384615,331.8666003942489L674.7381576923076,331.4041482210159L675.2246307692308,332.95734035968775L675.7111038461537,334.1540308594703L676.1975769230769,334.30379974842066L676.68405,334.91029071807856L683.9811461538461,335.6522815227508L685.9270384615384,333.9363996982574L687.8729307692307,322.4400364160538L688.3594038461538,321.0535787343979L688.8458769230768,320.49315321445465L689.818823076923,323.5711117386818L691.2782423076923,331.3836996555328L692.7376615384615,334.10066235065455L693.7106076923076,335.093091905117L694.6835538461537,331.2049432396888L695.1700269230769,327.5868954062462L696.142973076923,327.98777717351913L698.0888653846154,326.52413177490234L698.5753384615384,328.0054168701172L699.0618115384615,327.5183590054512L700.0347576923076,333.52888900041575L700.5212307692308,333.7429248094558L701.98065,338.1748704910278L702.467123076923,338.17273575067514L702.9535961538461,337.704104065895L703.4400692307692,337.9898222088813L703.9265423076922,337.2897397279739L704.4130153846154,334.3348096609115L706.8453807692308,331.0789935588836L707.3318538461538,333.19530773162836L708.3048,332.8202675580978L710.2506923076922,333.3996810317039L710.7371653846154,334.9816359877586L711.7101115384615,334.0123515129089L713.6560038461538,336.08731913566584L714.6289499999999,335.45251476764673L716.5748423076923,335.2060084342956L717.0613153846155,335.3540920019149L717.5477884615384,335.0616325736045L718.0342615384616,334.5510925650596L719.0072076923077,333.0362133979797L720.4666269230769,334.10077470540995L720.9531,335.02792614698404L721.9260461538462,332.5708400011062L722.4125192307691,330.70575106143946L722.8989923076923,328.6755006313324L725.8178307692308,313.000439286232L726.7907769230769,314.49093747138977L727.2772499999999,314.6053146123886L728.2501961538462,316.98633658885956L728.7366692307692,312.2058664560318L730.1960884615385,291.8095459342003L730.6825615384615,274.77858740091324L733.114926923077,322.7209233045578L733.6013999999999,319.16062581539154L734.0878730769231,320.68820106983185L735.5472923076923,338.2540805935859L736.5202384615384,337.4704061746597L737.0067115384616,335.4345380067825L737.4931846153845,333.1647472381591L737.9796576923077,332.84554737806315L738.4661307692306,335.4799293279647L738.9526038461538,338.12442320585245L740.412023076923,338.8191126585006L741.8714423076923,342.65085923671717L744.3038076923077,332.80543673038477L744.7902807692307,329.58501237630844L745.2767538461538,327.37645494937897L745.7632269230769,326.1650459766388L747.7091192307691,338.0104954838752L749.6550115384615,339.40605390071863L750.6279576923076,342.56771671772L751.1144307692307,341.73674094676966L753.060323076923,337.19682234525675L755.0062153846153,331.57706218957895L758.411526923077,336.4977510571479L759.3844730769231,339.88232570886606L760.8438923076923,335.6891338825225L761.8168384615384,338.1986896991729L762.3033115384615,336.0285575985908L763.2762576923077,334.690524816513L763.7627307692306,335.2480291128158L764.2492038461538,338.2518334984779L765.2221499999999,338.85776269435877L765.7086230769231,337.16996955871576L767.1680423076923,333.54304569959635L775.4380846153846,334.91085249185556L775.9245576923076,334.3910993933677L776.4110307692307,333.33339172601694L776.8975038461538,332.7182494401931L778.843396153846,338.01824796199793L780.3028153846153,337.9194881319999L780.7892884615385,337.92229700088495L782.2487076923077,336.66055309772486L782.7351807692307,337.2356970906257L783.2216538461538,337.23198938369745L785.167546153846,343.3928500413894L785.6540192307692,341.4694489836692L786.1404923076922,342.4855853915214L787.1134384615384,342.6952393651008L787.5999115384615,342.9259036779403L788.0863846153845,343.82676410675043L789.0593307692307,341.5706806182861L790.0322769230768,339.14089667797083L792.9511153846154,334.90366178750986L793.9240615384615,330.3531818389892L796.3564269230768,339.418188214302L796.8429,338.0730770826339L801.2211576923075,340.33477830886835L801.7076307692307,340.20804214477533L807.0588346153846,342.13222968578333L809.0047269230769,330.9463025927543L809.4911999999999,327.8030659556389L810.9506192307692,333.64877152442926L811.4370923076922,335.1578082442283L812.8965115384615,344.088775396347L813.8694576923076,346.85326415300364L814.3559307692307,347.3811067938804L814.8424038461538,347.62098419666285L818.2477153846154,348.42982608079905L818.7341884615385,349.5198919177055L819.2206615384615,349.0680010914802L819.7071346153846,349.2290054559707L820.6800807692307,346.2707047462463L821.1665538461539,345.7262336015701L822.1395,344.8337997794151L822.625973076923,345.87903606891626L823.1124461538461,346.2226169109344L823.5989192307692,344.91435813903803L826.0312846153846,342.83658164739603L827.0042307692307,344.57291203737253L829.4365961538462,341.1136214733123L829.9230692307692,338.8582121133804L831.3824884615384,338.80652892589563L834.7878,339.7087376117706L835.7607461538461,343.28431534767145L840.6254769230769,350.5063666701316L841.598423076923,347.70367729663843L842.0848961538461,347.3326818943023L843.0578423076922,345.2279402613639L843.5443153846154,344.2413531541824L844.5172615384615,344.42696321010584L845.0037346153846,343.5667752027511L847.922573076923,340.6804938912391L848.4090461538461,341.33990395069117L851.3278846153846,342.346153140068L851.8143576923076,342.39738690853113L856.1926153846154,338.9446129202842L856.6790884615384,341.28372657299036L858.1385076923076,341.40124964714045L859.1114538461537,344.8025651574134L861.0573461538461,345.93948292732233L863.9761846153845,343.9924873709678L864.9491307692308,344.15607589483255L865.4356038461538,343.2252167463302L866.40855,342.5146852731704L867.8679692307692,336.46370756626123L868.8409153846154,340.5251072645187L869.3273884615384,341.89527350664133L871.2732807692307,339.62919044494623L871.7597538461538,340.0397347211837L872.7326999999999,337.6691617369651L873.219173076923,335.2064578533172L873.7056461538461,335.0314091444015L874.1921192307691,335.1493816375732L875.6515384615384,336.3585435152053L876.1380115384616,342.2061591148376L876.6244846153845,345.219850718975L878.5703769230769,344.3065189123153L879.543323076923,345.9658862948417L880.0297961538462,343.0080350041389L880.5162692307691,340.2487145662307L881.4892153846154,337.09120887517923L882.4621615384615,336.47292065620417L883.4351076923076,339.20550066232676L884.8945269230769,345.4368077516555L885.3809999999999,346.2430654764175L886.3539461538462,348.4764533042907L886.8404192307692,349.1999055743217L887.3268923076923,350.8383749723434L888.7863115384615,349.70527726411814L889.7592576923076,347.131454527378L890.2457307692308,348.72206079959864L891.7051499999999,351.2427397370338L892.1916230769231,352.1307917237281L893.6510423076923,350.8885975480079L895.1104615384615,352.7621130943298L895.5969346153845,351.9820340275764L896.0834076923077,349.89549386501307L896.5698807692306,350.4545711278915L898.0292999999999,345.21501946449274L899.9751923076923,346.45058470964426L900.9481384615384,347.00101065635675L901.4346115384616,344.536396741867L901.9210846153845,345.44489729404444L903.3805038461538,347.7096320986747L903.8669769230769,346.32474738359446L904.839923076923,344.81829482316965L906.7858153846153,341.29743385314936L907.2722884615384,340.57061094045633L907.7587615384615,342.9942153692245L909.2181807692307,339.17842316627497L911.164073076923,342.08470362424845L911.650546153846,341.4467533230781L912.6234923076923,347.07179415225977L913.1099653846153,347.8123243451118L913.5964384615385,350.0568352937698L914.0829115384615,351.3262193202972L915.0558576923077,349.99897259473795L916.515276923077,348.86295366287226L917.0017499999999,347.8207509517669L917.4882230769231,348.1977011561393L917.974696153846,351.05937677621836L919.9205884615384,350.80871331691736L920.4070615384614,352.68402653932566L922.839426923077,351.69485527276987L923.8123730769231,347.74693387746805L924.2988461538461,348.79239487648005L924.7853192307692,349.95616543292994L926.7312115384614,347.4976186752319L928.1906307692307,350.50108599662775L929.1635769230769,351.4730669856071L930.6229961538461,354.3544046878814L931.1094692307692,354.97033345699305L931.5959423076923,353.97925215959543L932.0824153846153,354.5261951088905L932.5688884615384,355.691538631916L933.5418346153846,355.3078471422195L934.5147807692307,352.14730787277216L935.9741999999999,355.3585191369056L936.4606730769231,355.74513185024256L937.4336192307692,354.6537177562713L937.9200923076924,353.87611049413675L938.4065653846153,355.84220635890955L939.8659846153846,355.19302058219904L940.8389307692307,351.6058703064918L941.3254038461538,352.2006763815879L941.8118769230769,352.5467290282249L942.2983499999999,352.53571826219553L945.7036615384615,353.141535103321L946.1901346153845,353.2931016683578L947.6495538461538,354.36384248733515L950.0819192307692,354.8767419457435L952.0278115384615,356.20376396179194L953.0007576923077,354.0663270950317L954.94665,355.6934486627578L955.433123076923,354.03733956813807L956.4060692307692,354.6376510262489L958.3519615384614,350.8600594401359L958.8384346153846,350.1012154221534L959.3249076923075,350.68894314765924L960.2978538461539,347.35728758573526L960.7843269230768,344.50347679853434L961.2708,338.0866720080375L963.2166923076923,344.635156571865L965.1625846153846,342.85916495323175L966.1355307692307,346.27677190303797L966.6220038461538,347.6804198622703L967.5949499999999,345.5132089853286L969.5408423076922,341.761458992958L970.5137884615385,343.6555354595184L971.0002615384615,345.41748273372644L972.4596807692307,352.12708401679987L973.9191,353.8464488387107L975.8649923076922,353.36590754985804L976.8379384615384,352.93379116058344L978.7838307692307,351.27464848756784L980.7297230769229,360.45257139205927L981.2161961538461,360.0696663856506L981.7026692307692,358.1243561506271L983.6485615384614,361.87296020984644L984.1350346153846,360.8304204344749L985.5944538461539,357.41202700138086L986.0809269230768,356.7817168235778L986.5674,356.4668987989425L987.5403461538461,351.60856682062143L988.0268192307692,352.1344994306564L989.4862384615384,347.60660278797144L989.9727115384615,348.0570330023765L990.9456576923076,353.5505064129829L991.9186038461537,353.4668021202087L992.4050769230769,348.4528588056564L992.8915499999999,348.5183616280555L996.2968615384615,351.9690008759498L997.2698076923076,346.7315839529037L997.7562807692308,347.12684798240656L1000.6751192307693,357.5965135097503L1001.1615923076922,357.3220308423042L1001.6480653846154,356.5792535543441L1002.1345384615383,356.9473277330398L1002.6210115384615,357.3112447857856L1003.5939576923076,355.2188621759414L1005.0533769230768,356.8568821549415L1008.4586884615384,354.9894337654113L1008.9451615384614,356.1659004092216L1009.4316346153846,356.7167757749557L1011.864,358.7935410737991L1013.8098923076923,355.73063808679575L1015.2693115384615,352.9377235770225L1015.7557846153845,354.0741919279098L1017.2152038461537,355.12381005287165L1017.7016769230769,356.8828361034393L1022.0799346153844,359.6262021660804L1022.5664076923076,360.0346117019653L1023.0528807692308,356.70756268501276L1024.5123,355.0778569579124L1024.998773076923,355.4707615375518L1025.4852461538462,356.794075846672L1025.9717192307692,355.68895447254175L1027.9176115384614,354.0316094756126L1028.4040846153846,355.5652518868446L1028.8905576923075,357.3434906005859L1030.3499769230768,357.74583297967905L1031.322923076923,357.7071829438209L1032.295869230769,356.7325054407119L1033.2688153846154,355.8578236699104L1033.7552884615384,353.7394871115684L1034.2417615384616,353.5101710557937L1035.2147076923077,350.8828674554824L1035.7011807692309,351.1304973363876L1038.133546153846,354.0621699690818L1039.5929653846154,350.9572463035583L1040.5659115384615,349.18395119905466L1042.0253307692308,347.532898068428L1043.4847499999998,343.8454149961471L1043.971223076923,344.13416671752924L1044.9441692307691,345.2246819734573L1045.9171153846153,347.95580136775965L1048.8359538461539,348.81351757049555L1049.3224269230768,349.58842831850046L1050.295373076923,345.6723033189773L1051.268319230769,345.3219811916351L1053.7006846153845,345.2833311557769L1055.646576923077,347.5181795954704L1056.13305,348.30556172132486L1056.619523076923,349.5853947401046L1057.1059961538463,348.19983589649195L1062.943673076923,334.99601739645L1063.9166192307691,339.06516957283014L1064.8895653846153,336.34865629673L1065.8625115384616,341.13699126243586L1066.3489846153846,342.4512048363685L1071.2137153846152,361.7804922461509L1071.7001884615383,363.28076529502863L1072.1866615384615,363.06672948598856L1072.6731346153845,360.1350568532943L1073.1596076923076,358.49108207225794L1073.6460807692306,358.93229919672007L1074.1325538461538,357.3220308423042L1075.1055,351.9546194672584L1075.591973076923,350.1067208051681L1076.078446153846,345.41141557693476L1077.0513923076924,341.53540122508997L1079.4837576923076,332.9476778507232L1080.9431769230769,335.7232897281646L1081.916123076923,334.29593491554255L1082.402596153846,334.55547440052027L1083.3755423076923,334.33761852979654L1084.8349615384614,330.51654565334314L1086.2943807692307,328.9044796228409L1087.267326923077,326.5922187566757L1088.726746153846,321.2225602865219L1089.2132192307693,321.1531250476837L1090.1861653846154,318.97422927618027L1090.6726384615383,315.3583161830902L1092.1320576923076,313.418960750103L1093.1050038461537,310.2052776813507L1093.5914769230767,307.3742749094963L1097.4832615384614,299.01564288139343L1097.9697346153846,300.8625303506851L1098.9426807692307,297.86748963594437L1101.3750461538461,293.5948629975319L1103.8074115384613,288.95494866371155L1104.2938846153845,287.5017522573471L1104.7803576923077,288.5072149634361L1105.7533038461538,284.70153468847275L1106.2397769230768,284.022911965847L1107.212723076923,282.45050716400146L1108.1856692307692,281.2257279753685L1109.6450884615385,273.47459810972214L1110.1315615384615,277.36667919158936L1112.0774538461537,270.2647351026535L1114.5098192307692,265.00990319252014L1115.4827653846153,261.8895869255066L1118.4016038461539,255.86737203598022L1118.8880769230768,251.4512683749199L1119.37455,298.4062306880951L1119.8610230769232,325.1417188644409L1120.3474961538461,329.02593511343L1121.8069153846154,349.5714627504348L1122.7798615384615,347.7980552911758L1124.2392807692306,342.2779538035392L1124.7257538461538,341.675282895565L1126.1851730769229,334.53446406126017L1127.1581192307692,319.48757815361023L1128.1310653846153,321.58658969402313L1128.6175384615385,316.42209100723267L1129.1040115384615,314.6940748691559L1131.049903846154,315.0985519886017L1132.9957961538462,325.45833456516266L1133.4822692307691,326.8895094394684L1133.9687423076923,326.7513130903244L1135.9146346153846,325.15160608291626L1136.4011076923075,326.92096877098083L1137.3740538461539,326.74659419059753L1137.8605269230768,326.62963289022446L1138.833473076923,324.8265637755394L1139.319946153846,323.5170691013336L1139.8064192307693,323.27966350317L1140.7793653846154,320.70179599523544L1141.2658384615384,320.4678733944893L1141.7523115384615,319.34140461683273L1142.2387846153847,317.19374346733093L1143.6982038461538,311.5626354813576L1144.67115,309.5149700641632L1145.1576230769228,308.50804674625397L1148.0764615384614,298.7490250468254L1148.5629346153846,297.1179710626602L1149.0494076923076,297.01696413755417L1150.9953,293.8118200302124L1151.9682461538462,291.104744553566L1152.9411923076923,289.9752421975136L1154.8870846153845,288.1298153400421L1158.292396153846,279.9849944114685L1159.7518153846154,276.6246883869171L1160.7247615384615,275.75652319192886L1161.6977076923076,272.92349803447723L1162.1841807692308,273.2990999817848L1163.157126923077,270.59517043828964L1164.130073076923,267.1677886247635L1165.1030192307692,265.8571704030037L1165.5894923076921,263.7726526260376L1166.0759653846153,262.4199013710022L1167.5353846153846,259.47957742214203L1168.0218576923075,292.067400097847L1168.5083307692307,342.9315214157104L1168.9948038461537,342.8327615857124L1170.454223076923,284.21290385723114L1171.9136423076923,265.9009887576103L1173.8595346153845,225.66225665807724L1176.778373076923,137.69308972358706L1177.264846153846,119.9910362362862L1178.7242653846154,43.21757125854501L1179.2107384615383,13.820174217224205L1180.1836846153844,-54.751843035221015L1181.1566307692308,-478.64981901645643L1169.96775,86.97750139236454L1172.8865884615384,155.9077056050301L1174.8324807692306,175.43822038173678L1176.2919,186.32966566085818L1178.7242653846154,196.0804854631424L1179.6972115384615,199.5956163406372L1181.1566307692308,203.49443870782852L1184.0754692307692,211.10928225517273L1184.5619423076923,208.33479392528534L1185.5348884615385,211.94048273563385L1186.9943076923075,214.8797954916954L1187.4807807692307,215.94087380170822L1188.4537269230768,216.75668168067932L1188.9401999999998,216.88296842575073L1189.426673076923,217.94943976402283L1193.8049307692309,223.83727836608887L1194.2914038461538,219.5439784526825L1194.777876923077,222.27869319915771L1195.26435,221.210087120533L1196.237296153846,222.22723472118378L1197.2102423076922,223.56245863437653L1198.6696615384615,224.21321737766266L1199.1561346153844,226.06021720170975L1201.102026923077,226.1135857105255L1202.074973076923,227.96519207954407L1202.5614461538462,226.82906079292297L1203.0479192307691,227.76643651723862L1203.5343923076923,226.70850414037704L1207.4261769230768,228.73560863733292L1211.8044346153845,229.3760307431221L1212.7773807692306,230.18161433935165L1213.2638538461538,230.76608377695084L1214.2368,230.42654770612717L1216.6691653846153,234.43412947654724L1218.1285846153846,231.7260428071022L1218.6150576923076,232.83318656682968L1219.1015307692307,233.43922811746597" style="fill: none;" fill="none"></path></g></g></g></g></g></g><g transform="translate(60, 377)" clip-path="url(#clip_1)"><clipPath id="clip_1"><rect width="1264" height="22"></rect></clipPath><g><g><line x1="0" y1="0" x2="0" y2="5" style="visibility: inherit;" fill="rgb(0, 0, 0)" stroke="rgb(204, 204, 204)" stroke-width="1px"></line><line x1="97.29461538461538" y1="0" x2="97.29461538461538" y2="5" style="visibility: inherit;" fill="rgb(0, 0, 0)" stroke="rgb(204, 204, 204)" stroke-width="1px"></line><line x1="194.58923076923077" y1="0" x2="194.58923076923077" y2="5" style="visibility: inherit;" fill="rgb(0, 0, 0)" stroke="rgb(204, 204, 204)" stroke-width="1px"></line><line x1="291.88384615384615" y1="0" x2="291.88384615384615" y2="5" style="visibility: inherit;" fill="rgb(0, 0, 0)" stroke="rgb(204, 204, 204)" stroke-width="1px"></line><line x1="389.17846153846153" y1="0" x2="389.17846153846153" y2="5" style="visibility: inherit;" fill="rgb(0, 0, 0)" stroke="rgb(204, 204, 204)" stroke-width="1px"></line><line x1="486.4730769230769" y1="0" x2="486.4730769230769" y2="5" style="visibility: inherit;" fill="rgb(0, 0, 0)" stroke="rgb(204, 204, 204)" stroke-width="1px"></line><line x1="583.7676923076923" y1="0" x2="583.7676923076923" y2="5" style="visibility: inherit;" fill="rgb(0, 0, 0)" stroke="rgb(204, 204, 204)" stroke-width="1px"></line><line x1="681.0623076923076" y1="0" x2="681.0623076923076" y2="5" style="visibility: inherit;" fill="rgb(0, 0, 0)" stroke="rgb(204, 204, 204)" stroke-width="1px"></line><line x1="778.3569230769231" y1="0" x2="778.3569230769231" y2="5" style="visibility: inherit;" fill="rgb(0, 0, 0)" stroke="rgb(204, 204, 204)" stroke-width="1px"></line><line x1="875.6515384615384" y1="0" x2="875.6515384615384" y2="5" style="visibility: inherit;" fill="rgb(0, 0, 0)" stroke="rgb(204, 204, 204)" stroke-width="1px"></line><line x1="972.9461538461538" y1="0" x2="972.9461538461538" y2="5" style="visibility: inherit;" fill="rgb(0, 0, 0)" stroke="rgb(204, 204, 204)" stroke-width="1px"></line><line x1="1070.240769230769" y1="0" x2="1070.240769230769" y2="5" style="visibility: inherit;" fill="rgb(0, 0, 0)" stroke="rgb(204, 204, 204)" stroke-width="1px"></line><line x1="1167.5353846153846" y1="0" x2="1167.5353846153846" y2="5" style="visibility: inherit;" fill="rgb(0, 0, 0)" stroke="rgb(204, 204, 204)" stroke-width="1px"></line><line x1="1264.83" y1="0" x2="1264.83" y2="5" style="visibility: inherit;" fill="rgb(0, 0, 0)" stroke="rgb(204, 204, 204)" stroke-width="1px"></line></g><g transform="translate(0, 8)"><text x="0" y="0" dx="0em" dy="0.95em" style="text-anchor: middle; visibility: hidden; font-family: Roboto, sans-serif; font-size: 12px; font-weight: 200;" fill="rgb(33, 33, 33)" stroke="none" stroke-width="1px">-200</text><text x="97.29461538461538" y="0" dx="0em" dy="0.95em" style="text-anchor: middle; visibility: inherit; font-family: Roboto, sans-serif; font-size: 12px; font-weight: 200;" fill="rgb(33, 33, 33)" stroke="none" stroke-width="1px">0</text><text x="194.58923076923077" y="0" dx="0em" dy="0.95em" style="text-anchor: middle; visibility: inherit; font-family: Roboto, sans-serif; font-size: 12px; font-weight: 200;" fill="rgb(33, 33, 33)" stroke="none" stroke-width="1px">200</text><text x="291.88384615384615" y="0" dx="0em" dy="0.95em" style="text-anchor: middle; visibility: inherit; font-family: Roboto, sans-serif; font-size: 12px; font-weight: 200;" fill="rgb(33, 33, 33)" stroke="none" stroke-width="1px">400</text><text x="389.17846153846153" y="0" dx="0em" dy="0.95em" style="text-anchor: middle; visibility: inherit; font-family: Roboto, sans-serif; font-size: 12px; font-weight: 200;" fill="rgb(33, 33, 33)" stroke="none" stroke-width="1px">600</text><text x="486.4730769230769" y="0" dx="0em" dy="0.95em" style="text-anchor: middle; visibility: inherit; font-family: Roboto, sans-serif; font-size: 12px; font-weight: 200;" fill="rgb(33, 33, 33)" stroke="none" stroke-width="1px">800</text><text x="583.7676923076923" y="0" dx="0em" dy="0.95em" style="text-anchor: middle; visibility: inherit; font-family: Roboto, sans-serif; font-size: 12px; font-weight: 200;" fill="rgb(33, 33, 33)" stroke="none" stroke-width="1px">1k</text><text x="681.0623076923076" y="0" dx="0em" dy="0.95em" style="text-anchor: middle; visibility: inherit; font-family: Roboto, sans-serif; font-size: 12px; font-weight: 200;" fill="rgb(33, 33, 33)" stroke="none" stroke-width="1px">1.2k</text><text x="778.3569230769231" y="0" dx="0em" dy="0.95em" style="text-anchor: middle; visibility: inherit; font-family: Roboto, sans-serif; font-size: 12px; font-weight: 200;" fill="rgb(33, 33, 33)" stroke="none" stroke-width="1px">1.4k</text><text x="875.6515384615384" y="0" dx="0em" dy="0.95em" style="text-anchor: middle; visibility: inherit; font-family: Roboto, sans-serif; font-size: 12px; font-weight: 200;" fill="rgb(33, 33, 33)" stroke="none" stroke-width="1px">1.6k</text><text x="972.9461538461538" y="0" dx="0em" dy="0.95em" style="text-anchor: middle; visibility: inherit; font-family: Roboto, sans-serif; font-size: 12px; font-weight: 200;" fill="rgb(33, 33, 33)" stroke="none" stroke-width="1px">1.8k</text><text x="1070.240769230769" y="0" dx="0em" dy="0.95em" style="text-anchor: middle; visibility: inherit; font-family: Roboto, sans-serif; font-size: 12px; font-weight: 200;" fill="rgb(33, 33, 33)" stroke="none" stroke-width="1px">2k</text><text x="1167.5353846153846" y="0" dx="0em" dy="0.95em" style="text-anchor: middle; visibility: inherit; font-family: Roboto, sans-serif; font-size: 12px; font-weight: 200;" fill="rgb(33, 33, 33)" stroke="none" stroke-width="1px">2.2k</text><text x="1264.83" y="0" dx="0em" dy="0.95em" style="text-anchor: middle; visibility: hidden; font-family: Roboto, sans-serif; font-size: 12px; font-weight: 200;" fill="rgb(33, 33, 33)" stroke="none" stroke-width="1px">2.4k</text></g><line x1="0" y1="0" x2="1264.83" y2="0" fill="rgb(0, 0, 0)" stroke="rgb(204, 204, 204)" stroke-width="1px"></line></g></g></g></g></svg>