<svg viewBox="0 0 1324.8294677734375 400" xmlns="http://www.w3.org/2000/svg"><g><g><g><g><g><line x1="50" y1="377" x2="45" y2="377" style="visibility: inherit;" fill="rgb(0, 0, 0)" stroke="rgb(204, 204, 204)" stroke-width="1px"></line><line x1="50" y1="329.87499999999994" x2="45" y2="329.87499999999994" style="visibility: inherit;" fill="rgb(0, 0, 0)" stroke="rgb(204, 204, 204)" stroke-width="1px"></line><line x1="50" y1="282.74999999999994" x2="45" y2="282.74999999999994" style="visibility: inherit;" fill="rgb(0, 0, 0)" stroke="rgb(204, 204, 204)" stroke-width="1px"></line><line x1="50" y1="235.62500000000003" x2="45" y2="235.62500000000003" style="visibility: inherit;" fill="rgb(0, 0, 0)" stroke="rgb(204, 204, 204)" stroke-width="1px"></line><line x1="50" y1="188.5" x2="45" y2="188.5" style="visibility: inherit;" fill="rgb(0, 0, 0)" stroke="rgb(204, 204, 204)" stroke-width="1px"></line><line x1="50" y1="141.37499999999997" x2="45" y2="141.37499999999997" style="visibility: inherit;" fill="rgb(0, 0, 0)" stroke="rgb(204, 204, 204)" stroke-width="1px"></line><line x1="50" y1="94.25000000000009" x2="45" y2="94.25000000000009" style="visibility: inherit;" fill="rgb(0, 0, 0)" stroke="rgb(204, 204, 204)" stroke-width="1px"></line><line x1="50" y1="47.12500000000004" x2="45" y2="47.12500000000004" style="visibility: inherit;" fill="rgb(0, 0, 0)" stroke="rgb(204, 204, 204)" stroke-width="1px"></line><line x1="50" y1="0" x2="45" y2="0" style="visibility: inherit;" fill="rgb(0, 0, 0)" stroke="rgb(204, 204, 204)" stroke-width="1px"></line></g><g transform="translate(40, 0)"><text x="0" y="377" dx="0em" dy="0.3em" style="text-anchor: end; visibility: hidden; font-family: Roboto, sans-serif; font-size: 12px; font-weight: 200;" fill="rgb(33, 33, 33)" stroke="none" stroke-width="1px">0.15</text><text x="0" y="329.87499999999994" dx="0em" dy="0.3em" style="text-anchor: end; visibility: inherit; font-family: Roboto, sans-serif; font-size: 12px; font-weight: 200;" fill="rgb(33, 33, 33)" stroke="none" stroke-width="1px">0.16</text><text x="0" y="282.74999999999994" dx="0em" dy="0.3em" style="text-anchor: end; visibility: inherit; font-family: Roboto, sans-serif; font-size: 12px; font-weight: 200;" fill="rgb(33, 33, 33)" stroke="none" stroke-width="1px">0.17</text><text x="0" y="235.62500000000003" dx="0em" dy="0.3em" style="text-anchor: end; visibility: inherit; font-family: Roboto, sans-serif; font-size: 12px; font-weight: 200;" fill="rgb(33, 33, 33)" stroke="none" stroke-width="1px">0.18</text><text x="0" y="188.5" dx="0em" dy="0.3em" style="text-anchor: end; visibility: inherit; font-family: Roboto, sans-serif; font-size: 12px; font-weight: 200;" fill="rgb(33, 33, 33)" stroke="none" stroke-width="1px">0.19</text><text x="0" y="141.37499999999997" dx="0em" dy="0.3em" style="text-anchor: end; visibility: inherit; font-family: Roboto, sans-serif; font-size: 12px; font-weight: 200;" fill="rgb(33, 33, 33)" stroke="none" stroke-width="1px">0.2</text><text x="0" y="94.25000000000009" dx="0em" dy="0.3em" style="text-anchor: end; visibility: inherit; font-family: Roboto, sans-serif; font-size: 12px; font-weight: 200;" fill="rgb(33, 33, 33)" stroke="none" stroke-width="1px">0.21</text><text x="0" y="47.12500000000004" dx="0em" dy="0.3em" style="text-anchor: end; visibility: inherit; font-family: Roboto, sans-serif; font-size: 12px; font-weight: 200;" fill="rgb(33, 33, 33)" stroke="none" stroke-width="1px">0.22</text><text x="0" y="0" dx="0em" dy="0.3em" style="text-anchor: end; visibility: hidden; font-family: Roboto, sans-serif; font-size: 12px; font-weight: 200;" fill="rgb(33, 33, 33)" stroke="none" stroke-width="1px">0.23</text></g><line x1="50" y1="0" x2="50" y2="377" fill="rgb(0, 0, 0)" stroke="rgb(204, 204, 204)" stroke-width="1px"></line></g></g><g transform="translate(50, 0)" clip-path="url(#clip_0)"><clipPath id="clip_0"><rect width="1274" height="376"></rect></clipPath><g><g><g><line x1="0" y1="0" x2="0" y2="377" fill="rgb(0, 0, 0)" stroke="rgb(66, 66, 66)" stroke-width="1px" opacity="0.25"></line><line x1="98.06384615384616" y1="0" x2="98.06384615384616" y2="377" fill="rgb(0, 0, 0)" stroke="rgb(66, 66, 66)" stroke-width="1px" opacity="0.25"></line><line x1="196.1276923076923" y1="0" x2="196.1276923076923" y2="377" fill="rgb(0, 0, 0)" stroke="rgb(66, 66, 66)" stroke-width="1px" opacity="0.25"></line><line x1="294.19153846153847" y1="0" x2="294.19153846153847" y2="377" fill="rgb(0, 0, 0)" stroke="rgb(66, 66, 66)" stroke-width="1px" opacity="0.25"></line><line x1="392.2553846153846" y1="0" x2="392.2553846153846" y2="377" fill="rgb(0, 0, 0)" stroke="rgb(66, 66, 66)" stroke-width="1px" opacity="0.25"></line><line x1="490.3192307692308" y1="0" x2="490.3192307692308" y2="377" fill="rgb(0, 0, 0)" stroke="rgb(66, 66, 66)" stroke-width="1px" opacity="0.25"></line><line x1="588.3830769230769" y1="0" x2="588.3830769230769" y2="377" fill="rgb(0, 0, 0)" stroke="rgb(66, 66, 66)" stroke-width="1px" opacity="0.25"></line><line x1="686.446923076923" y1="0" x2="686.446923076923" y2="377" fill="rgb(0, 0, 0)" stroke="rgb(66, 66, 66)" stroke-width="1px" opacity="0.25"></line><line x1="784.5107692307693" y1="0" x2="784.5107692307693" y2="377" fill="rgb(0, 0, 0)" stroke="rgb(66, 66, 66)" stroke-width="1px" opacity="0.25"></line><line x1="882.5746153846153" y1="0" x2="882.5746153846153" y2="377" fill="rgb(0, 0, 0)" stroke="rgb(66, 66, 66)" stroke-width="1px" opacity="0.25"></line><line x1="980.6384615384616" y1="0" x2="980.6384615384616" y2="377" fill="rgb(0, 0, 0)" stroke="rgb(66, 66, 66)" stroke-width="1px" opacity="0.25"></line><line x1="1078.7023076923076" y1="0" x2="1078.7023076923076" y2="377" fill="rgb(0, 0, 0)" stroke="rgb(66, 66, 66)" stroke-width="1px" opacity="0.25"></line><line x1="1176.7661538461539" y1="0" x2="1176.7661538461539" y2="377" fill="rgb(0, 0, 0)" stroke="rgb(66, 66, 66)" stroke-width="1px" opacity="0.25"></line><line x1="1274.83" y1="0" x2="1274.83" y2="377" fill="rgb(0, 0, 0)" stroke="rgb(66, 66, 66)" stroke-width="1px" opacity="0.25"></line></g><g><line x1="0" y1="377" x2="1274.83" y2="377" fill="rgb(0, 0, 0)" stroke="rgb(66, 66, 66)" stroke-width="1px" opacity="0.25"></line><line x1="0" y1="329.87499999999994" x2="1274.83" y2="329.87499999999994" fill="rgb(0, 0, 0)" stroke="rgb(66, 66, 66)" stroke-width="1px" opacity="0.25"></line><line x1="0" y1="282.74999999999994" x2="1274.83" y2="282.74999999999994" fill="rgb(0, 0, 0)" stroke="rgb(66, 66, 66)" stroke-width="1px" opacity="0.25"></line><line x1="0" y1="235.62500000000003" x2="1274.83" y2="235.62500000000003" fill="rgb(0, 0, 0)" stroke="rgb(66, 66, 66)" stroke-width="1px" opacity="0.25"></line><line x1="0" y1="188.5" x2="1274.83" y2="188.5" fill="rgb(0, 0, 0)" stroke="rgb(66, 66, 66)" stroke-width="1px" opacity="0.25"></line><line x1="0" y1="141.37499999999997" x2="1274.83" y2="141.37499999999997" fill="rgb(0, 0, 0)" stroke="rgb(66, 66, 66)" stroke-width="1px" opacity="0.25"></line><line x1="0" y1="94.25000000000009" x2="1274.83" y2="94.25000000000009" fill="rgb(0, 0, 0)" stroke="rgb(66, 66, 66)" stroke-width="1px" opacity="0.25"></line><line x1="0" y1="47.12500000000004" x2="1274.83" y2="47.12500000000004" fill="rgb(0, 0, 0)" stroke="rgb(66, 66, 66)" stroke-width="1px" opacity="0.25"></line><line x1="0" y1="0" x2="1274.83" y2="0" fill="rgb(0, 0, 0)" stroke="rgb(66, 66, 66)" stroke-width="1px" opacity="0.25"></line></g></g></g><g><g><line x1="0" y1="1083.8749999999998" x2="1274.83" y2="1083.8749999999998" fill="rgb(0, 0, 0)" stroke="rgb(153, 153, 153)" stroke-width="1.5px"></line></g></g><g><g><line x1="98.06384615384616" y1="0" x2="98.06384615384616" y2="377" fill="rgb(0, 0, 0)" stroke="rgb(153, 153, 153)" stroke-width="1.5px"></line></g></g><g><g><g><g><g><path stroke="rgb(255, 112, 67)" stroke-width="2px" d="M110.32182692307691,-45.958872802555476L114.73469999999999,6.004780240356964L116.20565769230768,24.45315019041304L118.16693461538462,43.97822980582718L119.14757307692307,53.24117717146878L120.12821153846153,53.44411794841294L120.61853076923076,62.89771728962664L121.59916923076922,75.03631439805035L122.5798076923077,86.26989395171408L123.07012692307693,92.2018037065864L124.5410846153846,101.72681853920226L125.03140384615384,106.51067335903649L125.52172307692307,110.84777758270506L126.0120423076923,116.42696362733845L126.50236153846153,119.95736070722346L129.4442769230769,133.33916318416598L130.4249153846154,139.51179300248623L130.9152346153846,141.19402457773685L131.40555384615385,144.50160813331604L131.89587307692307,144.77252353727818L133.36683076923075,148.8078850209713L133.85715,150.7608915567398L134.3474692307692,154.6822129637003L134.83778846153845,158.51898741722107L137.28938461538462,165.34861166775227L139.74098076923076,171.1199243441224L141.21193846153847,178.26561656594276L141.70225769230768,178.17601364850998L144.64417307692307,183.06548193842173L148.5667269230769,194.3383154347539L150.03768461538462,195.3897452801466L150.52800384615384,197.78086514025927L153.96023846153844,198.8763942271471L155.43119615384614,205.058293312788L156.4118346153846,208.58749662339687L159.35375,214.04540975391865L159.8440692307692,215.83444856852293L160.33438846153845,216.68293763697147L161.80534615384613,218.3379231840372L162.29566538461538,216.42557502537966L165.7279,225.37097976356745L166.70853846153847,215.06236073374748L167.68917692307693,222.83808224648237L168.17949615384615,225.09297196567059L168.6698153846154,227.19323345273733L172.10205,231.57584135234356L174.55364615384616,236.23484195023775L175.53428461538462,237.19301734864712L176.02460384615384,237.62108896672726L176.51492307692308,238.70952565968037L177.98588076923076,233.47372383624315L179.45683846153844,242.45107945799828L180.4374769230769,244.41967521607876L180.92779615384615,244.6649596914649L182.39875384615382,242.41505571454763L185.34066923076924,244.4262760579586L185.83098846153845,248.15167886018753L186.81162692307691,247.25564968585968L188.28258461538462,252.07019139826298L189.26322307692305,252.95652997493744L189.7535423076923,251.6309545263648L190.73418076923076,251.52225130051374L191.71481923076922,251.45146780461073L192.20513846153844,252.75639806687832L195.63737307692307,258.6007413342595L199.55992692307692,260.76925833523273L200.05024615384613,260.69749173521996L200.54056538461538,260.7556353211403L202.5018423076923,260.2847284525633L205.44375769230768,261.12219271063805L207.4050346153846,266.1080754250288L207.89535384615382,267.3007211536169L208.8759923076923,267.0422349944711L209.85663076923075,266.9861278384924L210.8372692307692,261.7311554849148L212.30822692307692,267.2442628890276L212.79854615384613,266.8154890537262L213.28886538461535,268.03748746216297L214.75982307692308,271.55643840134144L219.66301538461536,272.6268983334303L220.64365384615382,273.13038808107376L223.5855692307692,272.1484777405858L225.05652692307692,273.0780728980899L225.54684615384616,271.9857037886977L226.03716538461538,271.49274729937315L226.52748461538462,271.1094069182873L227.50812307692306,268.1857957392931L229.46939999999998,270.58442932367325L230.45003846153844,276.55791033804417L231.4306769230769,280.31294670701027L232.41131538461536,281.7696963325143L234.86291153846153,284.00415153056383L235.84355,280.24244409799576L237.80482692307692,282.3197430819273L241.23706153846152,286.7965183109045L241.72738076923073,285.9980973303318L244.17897692307693,286.7327569872141L244.66929615384615,284.3143208771944L245.1596153846154,288.2864828109741L246.14025384615385,285.81538040935993L246.63057307692307,285.85463435202837L247.1208923076923,286.4227983057499L249.0821692307692,289.8795327991247L249.57248846153846,291.65733613818884L250.55312692307692,291.9026908352971L252.0240846153846,290.58736775815487L253.98536153846155,291.80613596737385L254.47568076923076,292.16145788133144L254.966,291.5290410518646L255.45631923076922,291.4245511293411L256.43695769230766,291.68788258731365L257.90791538461536,289.13441010564566L258.39823461538464,287.60561299324036L258.8885538461538,287.2341400831938L260.35951153846156,286.4740601629019L260.8498307692308,284.511924803257L261.8304692307692,288.3374637812376L264.7723846153846,296.2433763667941L265.75302307692306,297.9494833275676L267.22398076923076,293.5701758489013L267.7143,296.2398652806878L268.6949384615384,295.5068207234144L269.1852576923077,296.59455519914627L271.6368538461538,296.3991983681917L272.12717307692304,298.8697389960289L274.08844999999997,299.87236474454403L275.06908846153846,298.28156185150146L276.5400461538461,297.69745756685734L278.50132307692303,299.4846003949642L280.4626,300.04819993674755L281.44323846153844,297.05731634795666L283.40451538461537,296.8079590126872L283.8948346153846,298.109659075737L284.38515384615386,298.0348027199507L285.3657923076923,297.7782827690244L285.8561115384615,298.3998854532838L287.8173884615384,302.1916477829218L288.30770769230764,300.64922765642405L290.2689846153846,302.56143537163734L290.75930384615384,300.33849653601646L291.24962307692306,302.9088924527168L296.15281538461534,303.20326191186905L298.60441153846153,304.65727289021015L302.03664615384616,303.26730412244797L302.5269653846154,305.26426945626736L304.9785615384615,305.32283437252045L305.46888076923074,304.92537942528725L306.4495192307692,305.69514994323254L307.43015769230766,304.76478234678507L309.3914346153846,302.13673439621925L313.8043076923077,303.38394240289927L314.2946269230769,303.7507104575634L314.78494615384614,302.3822997584939L315.27526538461535,299.1964104473591L316.74622307692306,293.682039052248L319.6881384615384,298.8972659111023L323.12037307692304,310.835801333189L323.61069230769226,312.2582125365734L324.1010115384615,312.8953342214227L324.59133076923075,313.3189818710089L325.5719692307692,312.38931649178267L326.0622884615384,311.52608086168766L327.5332461538461,308.7118751257658L328.0235653846153,307.8202699199319L330.47516153846146,309.2251256927848L330.9654807692308,308.28050308674574L332.9267576923077,310.6653732135892L336.3589923076923,311.85464829951525L337.82995,313.4127980917692L338.3202692307692,309.6255299523473L339.30090769230765,312.2101808786392L340.28154615384614,313.49959214031696L341.75250384615384,315.13793513923883L347.14601538461534,314.6285467669368L348.6169730769231,314.235234901309L349.1072923076923,316.04983442276716L349.59761153846154,314.5956127792597L350.57825,313.86762418597937L351.55888846153846,315.78334298729897L352.0492076923077,315.57401203364134L353.02984615384617,315.62997874617577L355.4814423076923,317.7081203907728L355.9717615384615,316.8623699694872L358.9136769230769,316.029680788517L359.89431538461537,316.04140781611204L360.3846346153846,314.92572509497404L360.8749538461538,315.5663578659296L361.3652730769231,314.84911319613457L361.8555923076923,315.7121381610632L362.3459115384615,315.56783252209425L363.32654999999994,313.0987665504217L363.8168692307692,308.87289353460073L364.30718846153843,306.4857060909271L366.75878461538457,312.96983946859837L367.2491038461538,314.06066370010376L367.739423076923,314.1943658590317L368.72006153846155,312.33040046691895L370.6813384615385,291.7538910061121L371.6619769230769,296.12547409534454L372.6426153846154,308.9152372330427L374.6038923076923,316.54229936003685L375.09421153846154,318.5283101052046L375.58453076923075,319.6203281059861L377.5458076923077,321.7787331789732L379.5070846153846,318.81151431053877L379.9974038461538,318.311746314168L381.4683615384615,317.10498601943254L382.44899999999996,318.1541687697172L382.9393192307692,319.32687152922153L383.42963846153845,319.3272928595543L383.91995769230766,318.45879060029984L384.4102769230769,318.68722186237574L384.9005961538461,319.66358468681574L385.8812346153846,319.40952249616385L386.3715538461538,319.64609947800636L388.82314999999994,323.089351400733L389.31346923076916,323.4431284368038L390.7844269230769,323.195245757699L391.27474615384614,322.95824744552374L392.74570384615384,323.5587133914232L393.7263423076923,324.21437361091375L395.6876192307692,322.19599065184593L396.6682576923077,323.77562829107046L397.6488961538461,323.19938883930445L398.6295346153846,324.05777917057276L400.10049230769226,325.9871912077069L402.0617692307692,326.38499726355076L402.5520884615384,326.1358505934477L403.5327269230769,326.05256763100624L405.0036846153846,324.86750584840775L406.96496153846147,324.73984275758266L409.4165576923077,325.0898278206587L412.8487923076923,319.6819125562906L413.3391115384615,319.60256201028824L414.31975,320.5153039544821L414.8100692307692,322.99153254181147L415.30038846153843,323.9374893605709L415.79070769230765,324.2006803750992L416.2810269230769,324.1669739484787L416.77134615384614,325.21938689798117L418.24230384615385,325.30140586942434L420.2035807692307,325.3613049983978L420.6939,325.97560462355614L422.6551769230769,327.184822678566L424.12613461538456,328.9426830485463L425.10677307692305,329.4445576965809L426.0874115384615,329.14527271687984L427.5583692307692,329.54350010305643L428.0486884615384,327.49906488507986L428.5390076923076,328.29530899226665L429.02932692307695,328.6311092674732L429.51964615384617,328.1142773926258L430.5002846153846,328.0378761589527L430.9906038461538,329.1108640730381L431.4809230769231,328.91178549081087L432.4615615384615,329.2921063378453L432.95188076923074,329.32939407229424L433.4422,329.22300816327333L433.93251923076923,330.8399335369468L434.42283846153845,328.75947457551956L434.91315769230766,329.2190757468343L435.89379615384615,330.2734549045563L436.38411538461537,329.64475982636213L439.81634999999994,328.1871675401926L441.28730769230765,328.580268740654L441.77762692307687,329.07989629358053L442.26794615384614,328.59361086785793L443.2485846153846,325.71964644640684L444.7195423076923,321.763003513217L445.7001807692307,319.80508145689964L446.68081923076926,317.00723738223314L448.6420961538462,300.78995198756456L450.60337307692305,277.9558141604066L452.07433076923076,314.825940027833L452.56465,317.76141867786646L453.05496923076925,316.26387023180723L453.54528846153846,317.5987851694226L454.0356076923077,319.57643952965736L456.4872038461538,331.8002155870199L459.4291192307692,322.6088241562247L460.40975769230766,322.10877527296543L460.9000769230769,322.9170272946358L461.3903961538461,325.2924174889922L461.88071538461537,328.8541334569454L462.8613538461538,332.5278530716896L464.3323115384615,327.0256300345063L464.8226307692307,324.2506080195308L466.2935884615385,320.7318677455187L466.78390769230765,319.098650932312L467.27422692307687,321.08283591270447L468.2548653846154,327.5394423753023L469.23550384615385,329.84727927297354L472.1774192307692,332.0690243393183L473.6483769230769,332.6628192216158L474.1386961538461,332.79687248915434L475.60965384615383,334.37187549471855L476.09997307692305,335.08013178408146L476.59029230769227,335.64359088242054L477.57093076923076,335.0119464918971L478.06125,334.51709401607513L478.5515692307692,334.4019303917885L481.00316538461533,333.1217883974314L482.96444230769225,326.3213763833046L483.45476153846147,325.08463141322136L484.43539999999996,323.64361145347357L485.4160384615384,322.5356531217694L486.3966769230769,328.4569593966007L486.8869961538461,327.8957473933697L487.3773153846153,326.7206570953131L487.86763461538453,327.6541144475341L488.35795384615386,328.1558486521244L488.8482730769231,327.5907042324543L489.82891153846145,329.531562410295L490.80955,331.7218481451273L491.79018846153843,334.5668812170625L493.26114615384614,336.30486883968115L494.2417846153846,336.85976088792086L494.73210384615385,337.3647955134511L495.22242307692306,337.4001170396805L497.1837,335.7355111166835L498.1643384615384,335.27015176415443L498.65465769230764,335.8276420161128L499.6352961538461,336.88377671688795L501.10625384615383,336.7615206986666L491.2998692307692,332.7800894975662L492.7708269230769,337.01066736876965L494.2417846153846,337.51317401230335L494.73210384615385,336.99879989773035L495.7127423076923,335.317270539701L496.69338076923077,334.290769405663L497.6740192307692,333.6389713808894L500.12561538461534,335.8968104124069L501.10625384615383,336.3911011144519L501.59657307692305,335.98191913962364L502.08689230769227,336.25388786941767L502.5772115384615,336.38836246728897L504.0481692307692,334.0652874559164L506.99008461538455,329.98884626477957L507.9707230769231,325.2243726402521L508.4610423076923,322.4729451239109L508.9513615384615,321.2983463779092L509.932,327.7743340358138L511.8932769230769,333.7469021677971L512.8739153846153,335.2313893735409L513.3642346153846,335.8144403323531L515.3255115384615,337.6977869197726L515.8158307692307,338.0643443092704L516.30615,337.7055815309286L516.7964692307693,337.1600991934538L518.2674269230769,337.49126483500004L518.7577461538461,336.8907286673784L519.2480653846154,335.8348748534918L520.2287038461538,336.52389039099216L521.6996615384616,332.73760535568L522.6803,332.6361349672079L523.1706192307693,333.0559906437993L524.1512576923077,335.3718328177929L524.6415769230769,335.6667640507221L526.1125346153846,335.9432269707322L527.5834923076923,334.97479920089245L528.0738115384615,334.000964358449L531.5060461538461,329.495889775455L531.9963653846154,330.9239187166095L532.4866846153845,332.3226651996374L532.9770038461538,332.2190179377794L533.467323076923,331.919522292912L533.9576423076923,331.98363472521305L534.4479615384615,333.1501579731703L535.4286,334.9424972087145L535.9189192307692,335.46677258610725L536.4092384615384,336.2113335058093L537.8801961538461,338.2417243793607L538.3705153846154,338.2163743376732L538.8608346153846,338.61017775535583L539.3511538461538,338.93207412958145L540.3317923076924,341.8852486535907L543.2737076923077,338.6275927424431L543.7640269230769,337.78268498182297L545.2349846153846,336.10312183201313L548.6672192307692,337.44920202344656L550.1381769230769,340.38369756937027L553.5704115384615,340.3614372834563L554.0607307692308,339.64735259115696L554.5510499999999,338.7682468518615L555.5316884615384,337.76189935207367L556.0220076923076,337.04198625683784L556.5123269230769,336.88616425544024L557.9832846153846,332.91919872909784L558.4736038461539,334.0396565273404L559.4542423076923,333.60020899027586L560.4348807692307,334.7383626624942L560.9252,335.50806295871735L562.8864769230769,340.5096753388643L563.3767961538462,341.81032207608223L565.338073076923,343.4297754317522L565.8283923076923,343.62155095487833L566.3187115384615,343.7591855302453L566.8090307692307,343.38694018125534L568.2799884615384,341.85758129507303L568.7703076923077,341.08647656440735L569.2606269230769,340.1094115227461L570.7315846153846,337.2843214198947L571.2219038461539,337.09008813649416L575.1444576923076,336.6528174728155L576.6154153846153,339.1295376121998L577.1057346153846,339.0455524325371L578.0863730769231,340.49942296743393L579.0670115384615,340.2806120812893L579.5573307692307,341.0234174579382L581.0282884615384,342.1045510917902L581.5186076923077,343.69907573610544L582.4992461538461,344.7174311503768L582.9895653846154,345.07457882910967L583.4798846153845,345.622589148581L583.9702038461538,345.5139561444521L585.4411615384615,344.8891232609749L589.3637153846154,341.5151801779866L590.3443538461538,338.6473250463605L591.3249923076922,337.4422500729561L592.3056307692307,337.36767460405827L592.79595,337.71000549942255L593.2862692307692,338.3582222163677L594.2669076923077,339.5158975273371L595.2475461538461,339.3834593594074L595.7378653846154,339.5750242173672L596.2281846153845,338.80413015186787L597.6991423076923,335.07093273848295L598.6797807692307,336.70316644757986L602.1120153846153,343.1559809371829L602.6023346153846,343.6935984417796L604.0732923076923,343.54922258108854L605.0539307692308,343.3223361968994L607.9958461538462,342.51562905311584L608.4861653846153,343.01378194987774L609.4668038461538,344.10299108177423L610.4474423076923,345.907338231802L612.4087192307692,347.5982070788741L614.369996153846,345.9460304006934L615.3506346153846,344.3005247861147L616.331273076923,340.17064486443996L617.8022307692307,339.2311484441161L618.2925499999999,339.1041875705123L618.7828692307692,340.65657918155193L619.2731884615384,342.925864353776L622.2151038461539,345.69344286620617L622.705423076923,344.8292241320014L625.6473384615384,337.7550176233053L626.6279769230769,341.1125990450382L627.6086153846154,342.6626733392477L628.0989346153846,342.4180910810828L628.5892538461538,342.9629414230585L633.0021269230768,339.5847850367427L633.9827653846153,342.7647757232189L635.453723076923,345.28945729881525L637.415,348.2126471474767L638.3956384615384,350.1915654987097L638.8859576923077,349.9434721544385L639.3762769230768,349.5889226794243L640.8472346153845,345.8020758703351L641.3375538461538,345.18686336278915L642.3181923076922,343.14256858825684L642.8085115384615,342.5065704509616L643.2988307692307,343.9121986627579L644.7697884615384,345.7604343891144L645.2601076923077,347.495051369071L650.1632999999999,347.8376631513238L651.1439384615384,347.2393740788102L651.6342576923076,347.42525097727776L653.1052153846153,347.9745252877474L653.5955346153845,347.96904799342155L654.0858538461538,346.18991044163704L655.5568115384616,342.1688741892576L656.0471307692306,342.59610314667225L656.53745,341.9989376217127L663.8922384615385,348.90756130963564L665.3631961538462,346.8956387490034L666.3438346153846,346.87576600164175L666.8341538461539,346.67437010258436L667.8147923076923,347.2195715531707L668.3051115384616,347.43332647532225L669.7760692307692,347.8913827687502L671.2470269230769,349.26442810148L671.7373461538461,349.29048036038876L672.2276653846153,349.7798555418849L672.7179846153846,350.4199967607856L673.698623076923,349.959342263639L674.6792615384616,349.6249464228749L675.6599,349.4518498778343L676.6405384615384,348.487003415823L677.1308576923077,347.8236188068986L678.1114961538461,347.19085086882114L679.0921346153846,347.7647027820349L680.072773076923,347.45846585184336L680.5630923076923,348.4257700741291L681.0534115384614,349.16513458639383L681.5437307692307,349.24617045372725L682.03405,349.6084443181753L689.3888384615384,350.45588006079197L691.3501153846153,348.9230803102255L693.3113923076922,341.28436137735844L693.8017115384614,340.3212002366781L694.2920307692307,339.86279283463955L695.2726692307691,341.5931965112686L696.7436269230768,346.18211583048105L698.2145846153846,347.6241188943386L699.1952230769231,348.07058860361576L700.1758615384614,345.4735084325075L700.6661807692308,343.10914304852486L701.6468192307692,343.16012401878834L703.6080961538462,342.0181081518531L704.0984153846154,342.88984061032534L704.5887346153846,342.5041126906872L705.5693730769231,346.055014513433L706.0596923076923,346.1434236615896L707.53065,348.8062313646078L708.0209692307692,348.748930439353L708.5112884615385,348.3886930048466L709.0016076923076,348.4926913753152L709.4919269230769,348.00331619381905L709.9822461538462,346.1236211359501L712.4338423076923,343.9644436240196L712.9241615384615,345.235807903111L713.9048,344.8872974961996L715.8660769230769,345.0242298543453L716.3563961538462,345.95803831517696L717.3370346153846,345.3414915949106L719.2983115384615,346.5654562115669L720.2789499999999,346.09974575042725L722.2402269230769,345.86429231613874L722.7305461538461,345.9319158345461L723.2208653846153,345.69147665798664L723.7111846153846,345.29886700958014L724.691823076923,344.33816362917423L726.1627807692307,344.95765966176987L726.6530999999999,345.53755064308643L727.6337384615384,343.9765217602253L728.1240576923076,342.82291930913925L728.6143769230769,341.55359145998955L731.5562923076923,331.5995921269059L732.5369307692307,332.55734619498253L733.0272499999999,332.61815820634365L734.0078884615385,334.1303127706051L734.4982076923076,331.1605659201741L735.9691653846153,323.7047043517232L736.4594846153847,313.0098658502102L738.9110807692308,342.7110561057925L739.4013999999999,340.4248474985361L739.8917192307692,341.30978164076805L741.362676923077,352.08853510022163L742.3433153846154,351.4652470946312L742.8336346153847,350.1292086094618L743.3239538461538,348.64598539471626L743.8142730769231,348.3784406334162L744.3045923076922,349.95625250786543L744.7949115384615,351.54263143241405L746.2658692307692,351.7778742015362L747.7368269230769,353.98459181934595L750.1884230769231,347.49954555928707L750.6787423076922,345.44064466655254L751.1690615384615,344.01851435005665L751.6593807692308,343.2219191342592L753.6206576923076,350.37919794023037L755.5819346153846,351.03148751705885L756.5625730769231,352.9021941944957L757.0528923076922,352.3249716386199L759.0141692307692,349.26449832320213L760.9754461538461,345.62455535680056L764.4076807692308,348.35273948311806L765.3883192307692,350.3927507326007L766.8592769230769,347.6044568121433L767.8399153846153,349.0656304061413L768.3302346153845,347.69251485168934L769.310873076923,346.82766412198544L769.8011923076922,347.161779075861L770.2915115384615,349.0216716080904L771.2721499999999,349.32046503573656L771.7624692307692,348.2056951969862L773.233426923077,345.81036203354597L781.5688538461538,346.136401489377L782.0591730769231,345.78009647130966L782.5494923076923,345.1308264285326L783.0398115384615,344.76595436036587L785.0010884615384,352.5912524089217L786.4720461538461,352.3817107900977L786.9623653846154,352.32911472022533L788.4333230769231,351.3882840871811L788.9236423076923,351.69360813498497L789.4139615384615,351.63525388389826L791.3752384615384,355.2635400444269L791.8655576923077,354.0098014175892L792.3558769230768,354.5922203809023L793.3365153846154,354.61427000164986L793.8268346153845,354.70443469285965L794.3171538461538,355.21045242249966L795.2977923076922,353.6916970163584L796.2784307692307,352.0808107107878L799.2203461538461,349.14954536408186L800.2009846153845,346.2255128547549L802.6525807692307,351.6793531253934L803.1428999999999,350.7854306027293L807.555773076923,351.7909354418516L808.0460923076922,351.6729629486799L813.4396038461538,352.3883818536997L815.4008807692306,345.19655396044254L815.8912,343.20281882584095L817.3621576923077,346.7964856773615L817.8524769230768,347.7061378657818L819.3234346153846,353.1385605111718L820.3040730769229,354.82893780618906L820.7943923076923,355.12857389450073L821.2847115384616,355.2465463876724L824.7169461538462,355.51451247930527L825.2072653846154,356.1636420786381L825.6975846153846,355.8588798046112L826.1879038461539,355.94328631460667L827.1685423076923,354.0352216809988L827.6588615384616,353.6638892143965L828.6395,353.0564010962844L829.1298192307692,353.67379047721624L829.6201384615384,353.84611458331347L830.1104576923077,352.984845161438L832.5620538461538,351.61088694632053L833.5426923076923,352.6190602108836L835.9942884615384,352.42307138442993L836.4846076923077,350.5742738842964L837.9555653846153,349.3927231878042L841.3878,347.4864140972495L842.3684384615384,349.17924915254116L847.2716307692307,351.2735417932272L848.2522692307691,349.17328030616045L848.7425884615384,348.759533919394L849.7232269230768,347.0511798635125L850.2135461538461,346.316941536963L851.1941846153845,346.25261843949556L851.6845038461538,345.5949920117855L854.6264192307691,343.11237324774265L855.1167384615384,343.3979649916291L858.0586538461539,343.58679120242596L858.5489730769231,343.5088450908661L862.9618461538462,340.5020913928747L863.4521653846153,341.91326712071896L864.923123076923,341.909404926002L865.9037615384615,344.06795044243336L867.8650384615385,344.4668098241091L870.8069538461538,343.057951413095L871.7875923076923,343.0738917440176L872.2779115384615,342.4161248728633L873.25855,341.83033526688814L874.7295076923076,338.202891767025L875.7101461538462,340.7361403927207L876.2004653846153,341.50717490166426L878.1617423076923,339.81623583287L878.6520615384615,340.06418873369694L879.6326999999999,338.58672370016575L880.1230192307692,336.9109525233507L880.6133384615384,336.6520450338721L881.1036576923076,336.7302720323205L882.5746153846153,337.74694212526083L883.0649346153846,355.11452955007553L883.5552538461537,356.8458461090922L885.5165307692307,355.55573263019323L886.4971692307691,356.2297909408808L886.9874884615384,354.20621157437563L887.4778076923076,352.29969181865454L888.4584461538461,349.9924166947603L889.4390846153846,349.3116170987487L890.419723076923,350.6706180870533L891.8906807692307,353.9810105115175L892.3809999999999,354.3111228272319L893.3616384615385,355.36866196244955L893.8519576923076,355.63487251102924L894.3422769230768,356.4852575659752L895.8132346153847,355.3104481548071L896.7938730769231,353.405613720417L897.2841923076924,354.23654735833406L898.7551499999998,355.36325488984585L899.2454692307692,355.7770012766123L900.7164269230769,354.58807729929686L902.1873846153846,355.37266460061073L902.6777038461538,354.75366012007L903.1680230769231,353.3043539971113L903.6583423076922,353.508699208498L905.1293,349.91503235697746L907.0905769230769,350.2438104599714L908.0712153846154,350.4154323488474L908.5615346153846,348.78038977086544L909.0518538461538,349.22615726292133L910.5228115384615,350.3603082969785L911.0131307692308,349.37439531832933L911.9937692307692,348.2205822020769L913.9550461538461,345.6449898779392L914.4453653846153,345.0749299377203L914.9356846153846,346.48856342583895L916.4066423076922,343.83944895863533L918.3679192307692,345.2745000720024L918.8582384615383,344.8721296042204L919.8388769230769,348.26257479190826L920.329196153846,348.60792522132397L920.8195153846153,349.87746373564005L921.3098346153846,350.5955510661006L922.290473076923,349.6310557126999L923.7614307692307,348.8173263967037L924.2517499999999,348.0760658979416L924.7420692307692,348.18048559874296L925.2323884615383,349.8356818109751L927.1936653846153,349.52319514751434L927.6839846153845,350.6565737426281L930.1355807692307,349.63990364968777L931.1162192307692,347.137271694839L931.6065384615383,347.80107763409615L932.0968576923076,359.98089489340776L934.0581346153845,357.88913023471827L935.5290923076922,359.36041575670237L936.5097307692308,359.6593496277928L937.9806884615383,361.0437006577849L938.4710076923077,361.29361976683134L938.961326923077,360.53108208626503L939.4516461538461,360.721102066338L939.9419653846154,361.3048552423715L940.9226038461538,360.7980650737881L941.9032423076923,358.5650143101811L943.3742,360.16262871026987L943.8645192307692,360.27350880950684L944.8451576923077,359.3378745838999L945.335476923077,358.7251900583505L945.8257961538461,359.8260559961199L947.2967538461538,359.0338145270943L948.2773923076923,356.5485273376107L948.7677115384615,356.79240737855434L949.2580307692307,356.88524049520487L949.74835,356.7749923914671L953.1805846153845,356.3153912201524L953.6709038461538,356.3271182477474L955.1418615384615,356.67331133782864L957.5934576923077,356.49838902801275L959.5547346153845,356.88945379853243L960.5353730769231,355.38052943348885L962.4966499999999,356.02993991971016L962.9869692307692,354.92338602244854L963.9676076923076,355.156592361629L965.9288846153845,352.44905342161655L966.4192038461538,351.91733454167843L966.9095230769229,352.2235012501478L967.8901615384615,350.0191009491682L968.3804807692306,348.1927041783929L968.8707999999999,344.12216161191463L970.8320769230768,347.9683457762003L972.7933538461538,346.57823656499386L973.7739923076922,348.61333229392767L974.2643115384616,349.4120341613889L975.24495,347.83885692059994L977.2062269230768,345.23945943266153L978.1868653846154,346.3847054988146L978.6771846153846,347.39498541504145L980.1481423076923,351.30689711123705L981.6191,362.31211562454695L983.5803769230769,361.5113773271441L984.5610153846154,361.0294456481933L986.5222923076923,359.50542361289257L988.4835692307691,364.7386272326111L988.9738884615384,364.37768758088345L989.4642076923077,363.0418597608804L991.4254846153846,364.9273129999637L991.9158038461538,364.1566295996308L993.3867615384615,361.65217188000673L993.8770807692307,361.1371657699346L994.3674,360.82495999336237L995.3480384615384,357.5802951008081L995.8383576923077,357.81322055310005L997.3093153846153,354.6850534975529L997.7996346153845,354.8552007302642L998.780273076923,358.08020354062313L999.7609115384614,357.8112543448805L1000.2512307692307,354.5854790955782L1000.74155,354.5420118495822L1004.1737846153845,355.91898959875107L1005.154423076923,352.5062139034271L1005.6447423076922,352.69314412772655L1008.5866576923077,358.62322811782354L1009.0769769230768,358.36670816689724L1009.5672961538461,357.826000906527L1010.0576153846152,357.9796460345387L1010.5479346153845,358.1333613842725L1011.528573076923,356.59480345249176L1012.9995307692307,357.3534789383411L1016.4317653846152,355.64617820829153L1016.9220846153846,356.2654635757208L1017.4124038461539,356.52914614230394L1019.864,357.4946948215365L1021.8252769230769,355.22716519236565L1023.2962346153846,353.36088248342276L1023.7865538461538,354.02398620545864L1025.2575115384614,354.38366186618805L1025.7478307692306,355.4071434661746L1030.1607038461536,365.17238681018347L1030.651023076923,364.3699631914496L1031.1413423076922,361.17136374860996L1032.6123,357.2887345105409L1033.102619230769,356.6648847311735L1033.5929384615386,356.5798462256789L1034.0832576923076,354.9489467293024L1036.0445346153847,350.5742738842964L1036.5348538461537,350.7315705418587L1037.025173076923,351.06203396618366L1038.4961307692308,349.1728589758277L1039.4767692307692,347.91258972883224L1040.4574076923077,345.935216255486L1041.4380461538462,344.17869009822607L1041.9283653846153,342.32631129026413L1042.4186846153846,341.7354657202959L1043.399323076923,339.06788294017315L1043.8896423076924,338.7072943970561L1046.3412384615385,338.0918712243438L1047.8121961538461,334.91672583669424L1048.7928346153847,332.8526987582445L1050.2637923076923,330.673999607563L1051.7347499999998,327.52174650132656L1052.2250692307691,327.2575723826885L1053.2057076923077,327.1275919750333L1054.186346153846,327.9937769174576L1057.1282615384614,326.6792262792587L1057.6185807692307,326.71707578748465L1058.5992192307692,323.7785073816776L1059.5798576923075,323.088789626956L1062.0314538461537,321.2446267604828L1063.9927307692308,321.4925094395876L1064.4830499999998,321.6037406474352L1064.973369230769,322.199361294508L1065.4636884615384,321.0432308614254L1071.3475192307692,309.48803582042456L1072.3281576923075,311.2307282984257L1073.308796153846,309.3376911133528L1074.2894346153846,311.8497327789664L1074.7797538461537,312.1846903935075L1079.6829461538462,354.46118664741516L1080.1732653846154,350.22744879871607L1080.6635846153847,346.62324868887663L1081.1539038461538,341.9363700672984L1081.644223076923,336.7659446671605L1082.1345423076923,331.39335092902184L1082.6248615384616,325.7148713693023L1083.6055,315.8504749536514L1084.0958192307692,310.25864899903536L1084.5861384615384,303.4061324670911L1085.566776923077,293.9671392440796L1088.0183730769231,273.50459963828325L1089.4893307692307,266.24107536673546L1090.4699692307693,260.1405632570386L1090.9602884615383,257.7232506945729L1091.9409269230769,252.00853672623634L1093.4118846153845,242.47144375741482L1094.8828423076923,234.12208099663258L1095.8634807692308,227.8797912299633L1097.3344384615384,217.8067660778761L1097.8247576923077,215.16565688699484L1098.805396153846,209.4548753350973L1099.2957153846153,205.69513411074877L1100.766673076923,197.00407245010138L1101.7473115384614,191.17398419231176L1102.2376307692307,187.75832940638065L1106.1601846153844,166.2950600385666L1106.6505038461537,163.53632946312428L1107.6311423076922,157.33849004656076L1110.0827384615384,145.9867975562811L1112.5343346153845,133.4996198192239L1113.0246538461538,131.15891915559772L1113.514973076923,128.6704719886184L1114.4956115384616,123.7729984223843L1114.9859307692307,120.70367716997866L1115.9665692307692,115.78492642194037L1116.9472076923078,110.63353110849862L1118.4181653846153,104.2523427754641L1118.9084846153846,101.52022623270754L1120.8697615384615,91.031839594245L1123.3213576923076,79.8078101947904L1124.3019961538462,74.98371832817797L1127.2439115384616,60.94295521080498L1127.7342307692306,58.561315283179326L1128.22455,324.8015676513314L1128.7148692307692,333.08014691621065L1129.2051884615385,326.6783836185932L1130.676146153846,329.6886484026909L1131.6567846153846,325.5233065113425L1133.1277423076922,315.3705797046423L1133.6180615384615,310.90855103731155L1135.089019230769,296.08825658261776L1136.0696576923076,281.46956869214773L1137.0502961538461,276.74764943122864L1137.5406153846154,270.5942603647709L1138.0309346153845,266.71387822180986L1139.9922115384616,255.4491202235222L1141.9534884615384,250.2833294570446L1142.4438076923077,248.5290503948927L1142.9341269230767,245.94039683043957L1144.8954038461538,234.42473661899567L1145.385723076923,232.71139682084322L1146.3663615384614,227.53458124399185L1146.8566807692307,224.91959453374147L1147.837319230769,218.78228624165058L1148.3276384615383,215.52526232600212L1148.8179576923076,212.79419910907745L1149.7985961538461,206.89613622426987L1150.2889153846152,203.8988624587655L1150.7792346153844,200.91464993357658L1151.2695538461537,197.55966671556234L1152.7405115384615,187.10302029550076L1153.72115,181.51428409665823L1154.2114692307691,178.57262593507767L1157.1533846153845,160.2180019840598L1157.6437038461538,157.485183224082L1158.134023076923,154.35455840826035L1160.0953,144.24614150822163L1161.0759384615385,138.60221103578806L1162.0565769230768,134.17255458235744L1164.017853846154,124.88474872708325L1167.4500884615384,106.93186324834828L1168.9210461538462,99.23942469805483L1169.9016846153845,94.80885536223654L1170.882323076923,89.87570916116242L1171.3726423076923,87.90711340308194L1172.3532807692307,83.2712157517672L1173.3339192307692,78.10128190368418L1174.3145576923075,73.70575320720677L1174.8048769230768,70.84541179984812L1175.295196153846,68.28955177962784L1176.7661538461539,61.93111528456215L1177.256473076923,321.13241244852543L1177.7467923076922,264.7480913326144L1178.2371115384615,233.27661146223545L1179.708069230769,160.88040348887444L1181.179026923077,82.34829165786509L1183.1403038461538,-11.48232455551616L1190.4950923076922,-158.1311219483613L1179.21775,1.8824140429497183L1182.1596653846152,34.14402873069052L1184.1209423076923,42.166088044643445L1185.5919,45.95918458700184L1188.043496153846,49.61738520115618L1189.0241346153846,51.241964742541356L1190.4950923076922,52.831644088029904L1193.4370076923076,54.7400598302484L1193.9273269230769,55.100648373365445L1194.9079653846152,55.96634176373486L1196.378923076923,56.919952750206036L1196.8692423076923,57.41705232113604L1197.8498807692308,57.34570705145602L1198.3401999999999,57.63495032489304L1198.8305192307691,57.81808857619767L1203.2433923076924,58.800701133906884L1203.7337115384614,59.03102838248019L1204.2240307692307,59.11269624531273L1204.71435,59.32883870601658L1205.6949884615385,59.63626940548424L1206.6756269230768,60.481949605047745L1208.1465846153847,60.69170188903813L1208.6369038461537,60.704271577298684L1210.5981807692308,60.58384132385258L1211.578819230769,61.320467188954396L1212.0691384615384,61.79453403502707L1212.5594576923077,61.80520773679022L1213.049776923077,61.88069608807568L1216.9723307692307,62.54155271500353L1221.3852038461537,63.00396275520329L1222.3658423076922,62.91267451643948L1222.8561615384615,62.248517468571706L1223.8367999999998,62.79680867493157L1226.288396153846,64.20194533467297L1227.7593538461538,63.977446489036126L1228.249673076923,63.77991278469567L1228.739992307692,63.75301786512141" style="fill: none;" fill="none"></path></g></g></g></g></g><g><g opacity="0.166483"><span fill="rgb(0, 0, 0)" stroke="none" stroke-width="1px">Alt + Scroll to Zoom</span></g></g></g><g transform="translate(50, 377)" clip-path="url(#clip_1)"><clipPath id="clip_1"><rect width="1274" height="22"></rect></clipPath><g><g><line x1="0" y1="0" x2="0" y2="5" style="visibility: inherit;" fill="rgb(0, 0, 0)" stroke="rgb(204, 204, 204)" stroke-width="1px"></line><line x1="98.06384615384616" y1="0" x2="98.06384615384616" y2="5" style="visibility: inherit;" fill="rgb(0, 0, 0)" stroke="rgb(204, 204, 204)" stroke-width="1px"></line><line x1="196.1276923076923" y1="0" x2="196.1276923076923" y2="5" style="visibility: inherit;" fill="rgb(0, 0, 0)" stroke="rgb(204, 204, 204)" stroke-width="1px"></line><line x1="294.19153846153847" y1="0" x2="294.19153846153847" y2="5" style="visibility: inherit;" fill="rgb(0, 0, 0)" stroke="rgb(204, 204, 204)" stroke-width="1px"></line><line x1="392.2553846153846" y1="0" x2="392.2553846153846" y2="5" style="visibility: inherit;" fill="rgb(0, 0, 0)" stroke="rgb(204, 204, 204)" stroke-width="1px"></line><line x1="490.3192307692308" y1="0" x2="490.3192307692308" y2="5" style="visibility: inherit;" fill="rgb(0, 0, 0)" stroke="rgb(204, 204, 204)" stroke-width="1px"></line><line x1="588.3830769230769" y1="0" x2="588.3830769230769" y2="5" style="visibility: inherit;" fill="rgb(0, 0, 0)" stroke="rgb(204, 204, 204)" stroke-width="1px"></line><line x1="686.446923076923" y1="0" x2="686.446923076923" y2="5" style="visibility: inherit;" fill="rgb(0, 0, 0)" stroke="rgb(204, 204, 204)" stroke-width="1px"></line><line x1="784.5107692307693" y1="0" x2="784.5107692307693" y2="5" style="visibility: inherit;" fill="rgb(0, 0, 0)" stroke="rgb(204, 204, 204)" stroke-width="1px"></line><line x1="882.5746153846153" y1="0" x2="882.5746153846153" y2="5" style="visibility: inherit;" fill="rgb(0, 0, 0)" stroke="rgb(204, 204, 204)" stroke-width="1px"></line><line x1="980.6384615384616" y1="0" x2="980.6384615384616" y2="5" style="visibility: inherit;" fill="rgb(0, 0, 0)" stroke="rgb(204, 204, 204)" stroke-width="1px"></line><line x1="1078.7023076923076" y1="0" x2="1078.7023076923076" y2="5" style="visibility: inherit;" fill="rgb(0, 0, 0)" stroke="rgb(204, 204, 204)" stroke-width="1px"></line><line x1="1176.7661538461539" y1="0" x2="1176.7661538461539" y2="5" style="visibility: inherit;" fill="rgb(0, 0, 0)" stroke="rgb(204, 204, 204)" stroke-width="1px"></line><line x1="1274.83" y1="0" x2="1274.83" y2="5" style="visibility: inherit;" fill="rgb(0, 0, 0)" stroke="rgb(204, 204, 204)" stroke-width="1px"></line></g><g transform="translate(0, 8)"><text x="0" y="0" dx="0em" dy="0.95em" style="text-anchor: middle; visibility: hidden; font-family: Roboto, sans-serif; font-size: 12px; font-weight: 200;" fill="rgb(33, 33, 33)" stroke="none" stroke-width="1px">-200</text><text x="98.06384615384616" y="0" dx="0em" dy="0.95em" style="text-anchor: middle; visibility: inherit; font-family: Roboto, sans-serif; font-size: 12px; font-weight: 200;" fill="rgb(33, 33, 33)" stroke="none" stroke-width="1px">0</text><text x="196.1276923076923" y="0" dx="0em" dy="0.95em" style="text-anchor: middle; visibility: inherit; font-family: Roboto, sans-serif; font-size: 12px; font-weight: 200;" fill="rgb(33, 33, 33)" stroke="none" stroke-width="1px">200</text><text x="294.19153846153847" y="0" dx="0em" dy="0.95em" style="text-anchor: middle; visibility: inherit; font-family: Roboto, sans-serif; font-size: 12px; font-weight: 200;" fill="rgb(33, 33, 33)" stroke="none" stroke-width="1px">400</text><text x="392.2553846153846" y="0" dx="0em" dy="0.95em" style="text-anchor: middle; visibility: inherit; font-family: Roboto, sans-serif; font-size: 12px; font-weight: 200;" fill="rgb(33, 33, 33)" stroke="none" stroke-width="1px">600</text><text x="490.3192307692308" y="0" dx="0em" dy="0.95em" style="text-anchor: middle; visibility: inherit; font-family: Roboto, sans-serif; font-size: 12px; font-weight: 200;" fill="rgb(33, 33, 33)" stroke="none" stroke-width="1px">800</text><text x="588.3830769230769" y="0" dx="0em" dy="0.95em" style="text-anchor: middle; visibility: inherit; font-family: Roboto, sans-serif; font-size: 12px; font-weight: 200;" fill="rgb(33, 33, 33)" stroke="none" stroke-width="1px">1k</text><text x="686.446923076923" y="0" dx="0em" dy="0.95em" style="text-anchor: middle; visibility: inherit; font-family: Roboto, sans-serif; font-size: 12px; font-weight: 200;" fill="rgb(33, 33, 33)" stroke="none" stroke-width="1px">1.2k</text><text x="784.5107692307693" y="0" dx="0em" dy="0.95em" style="text-anchor: middle; visibility: inherit; font-family: Roboto, sans-serif; font-size: 12px; font-weight: 200;" fill="rgb(33, 33, 33)" stroke="none" stroke-width="1px">1.4k</text><text x="882.5746153846153" y="0" dx="0em" dy="0.95em" style="text-anchor: middle; visibility: inherit; font-family: Roboto, sans-serif; font-size: 12px; font-weight: 200;" fill="rgb(33, 33, 33)" stroke="none" stroke-width="1px">1.6k</text><text x="980.6384615384616" y="0" dx="0em" dy="0.95em" style="text-anchor: middle; visibility: inherit; font-family: Roboto, sans-serif; font-size: 12px; font-weight: 200;" fill="rgb(33, 33, 33)" stroke="none" stroke-width="1px">1.8k</text><text x="1078.7023076923076" y="0" dx="0em" dy="0.95em" style="text-anchor: middle; visibility: inherit; font-family: Roboto, sans-serif; font-size: 12px; font-weight: 200;" fill="rgb(33, 33, 33)" stroke="none" stroke-width="1px">2k</text><text x="1176.7661538461539" y="0" dx="0em" dy="0.95em" style="text-anchor: middle; visibility: inherit; font-family: Roboto, sans-serif; font-size: 12px; font-weight: 200;" fill="rgb(33, 33, 33)" stroke="none" stroke-width="1px">2.2k</text><text x="1274.83" y="0" dx="0em" dy="0.95em" style="text-anchor: middle; visibility: hidden; font-family: Roboto, sans-serif; font-size: 12px; font-weight: 200;" fill="rgb(33, 33, 33)" stroke="none" stroke-width="1px">2.4k</text></g><line x1="0" y1="0" x2="1274.83" y2="0" fill="rgb(0, 0, 0)" stroke="rgb(204, 204, 204)" stroke-width="1px"></line></g></g></g></g></svg>