<svg viewBox="0 0 1324.8294677734375 400" xmlns="http://www.w3.org/2000/svg"><g><g><g><g><g><line x1="60" y1="377" x2="55" y2="377" style="visibility: inherit;" fill="rgb(0, 0, 0)" stroke="rgb(204, 204, 204)" stroke-width="1px"></line><line x1="60" y1="345.5833333333333" x2="55" y2="345.5833333333333" style="visibility: inherit;" fill="rgb(0, 0, 0)" stroke="rgb(204, 204, 204)" stroke-width="1px"></line><line x1="60" y1="314.1666666666667" x2="55" y2="314.1666666666667" style="visibility: inherit;" fill="rgb(0, 0, 0)" stroke="rgb(204, 204, 204)" stroke-width="1px"></line><line x1="60" y1="282.75" x2="55" y2="282.75" style="visibility: inherit;" fill="rgb(0, 0, 0)" stroke="rgb(204, 204, 204)" stroke-width="1px"></line><line x1="60" y1="251.33333333333337" x2="55" y2="251.33333333333337" style="visibility: inherit;" fill="rgb(0, 0, 0)" stroke="rgb(204, 204, 204)" stroke-width="1px"></line><line x1="60" y1="219.91666666666663" x2="55" y2="219.91666666666663" style="visibility: inherit;" fill="rgb(0, 0, 0)" stroke="rgb(204, 204, 204)" stroke-width="1px"></line><line x1="60" y1="188.5" x2="55" y2="188.5" style="visibility: inherit;" fill="rgb(0, 0, 0)" stroke="rgb(204, 204, 204)" stroke-width="1px"></line><line x1="60" y1="157.08333333333331" x2="55" y2="157.08333333333331" style="visibility: inherit;" fill="rgb(0, 0, 0)" stroke="rgb(204, 204, 204)" stroke-width="1px"></line><line x1="60" y1="125.66666666666669" x2="55" y2="125.66666666666669" style="visibility: inherit;" fill="rgb(0, 0, 0)" stroke="rgb(204, 204, 204)" stroke-width="1px"></line><line x1="60" y1="94.24999999999996" x2="55" y2="94.24999999999996" style="visibility: inherit;" fill="rgb(0, 0, 0)" stroke="rgb(204, 204, 204)" stroke-width="1px"></line><line x1="60" y1="62.8333333333334" x2="55" y2="62.8333333333334" style="visibility: inherit;" fill="rgb(0, 0, 0)" stroke="rgb(204, 204, 204)" stroke-width="1px"></line><line x1="60" y1="31.416666666666682" x2="55" y2="31.416666666666682" style="visibility: inherit;" fill="rgb(0, 0, 0)" stroke="rgb(204, 204, 204)" stroke-width="1px"></line><line x1="60" y1="0" x2="55" y2="0" style="visibility: inherit;" fill="rgb(0, 0, 0)" stroke="rgb(204, 204, 204)" stroke-width="1px"></line></g><g transform="translate(50, 0)"><text x="0" y="377" dx="0em" dy="0.3em" style="text-anchor: end; visibility: hidden; font-family: Roboto, sans-serif; font-size: 12px; font-weight: 200;" fill="rgb(33, 33, 33)" stroke="none" stroke-width="1px">-1e-3</text><text x="0" y="345.5833333333333" dx="0em" dy="0.3em" style="text-anchor: end; visibility: inherit; font-family: Roboto, sans-serif; font-size: 12px; font-weight: 200;" fill="rgb(33, 33, 33)" stroke="none" stroke-width="1px">0</text><text x="0" y="314.1666666666667" dx="0em" dy="0.3em" style="text-anchor: end; visibility: inherit; font-family: Roboto, sans-serif; font-size: 12px; font-weight: 200;" fill="rgb(33, 33, 33)" stroke="none" stroke-width="1px">1e-3</text><text x="0" y="282.75" dx="0em" dy="0.3em" style="text-anchor: end; visibility: inherit; font-family: Roboto, sans-serif; font-size: 12px; font-weight: 200;" fill="rgb(33, 33, 33)" stroke="none" stroke-width="1px">2e-3</text><text x="0" y="251.33333333333337" dx="0em" dy="0.3em" style="text-anchor: end; visibility: inherit; font-family: Roboto, sans-serif; font-size: 12px; font-weight: 200;" fill="rgb(33, 33, 33)" stroke="none" stroke-width="1px">3e-3</text><text x="0" y="219.91666666666663" dx="0em" dy="0.3em" style="text-anchor: end; visibility: inherit; font-family: Roboto, sans-serif; font-size: 12px; font-weight: 200;" fill="rgb(33, 33, 33)" stroke="none" stroke-width="1px">4e-3</text><text x="0" y="188.5" dx="0em" dy="0.3em" style="text-anchor: end; visibility: inherit; font-family: Roboto, sans-serif; font-size: 12px; font-weight: 200;" fill="rgb(33, 33, 33)" stroke="none" stroke-width="1px">5e-3</text><text x="0" y="157.08333333333331" dx="0em" dy="0.3em" style="text-anchor: end; visibility: inherit; font-family: Roboto, sans-serif; font-size: 12px; font-weight: 200;" fill="rgb(33, 33, 33)" stroke="none" stroke-width="1px">6e-3</text><text x="0" y="125.66666666666669" dx="0em" dy="0.3em" style="text-anchor: end; visibility: inherit; font-family: Roboto, sans-serif; font-size: 12px; font-weight: 200;" fill="rgb(33, 33, 33)" stroke="none" stroke-width="1px">7e-3</text><text x="0" y="94.24999999999996" dx="0em" dy="0.3em" style="text-anchor: end; visibility: inherit; font-family: Roboto, sans-serif; font-size: 12px; font-weight: 200;" fill="rgb(33, 33, 33)" stroke="none" stroke-width="1px">8e-3</text><text x="0" y="62.8333333333334" dx="0em" dy="0.3em" style="text-anchor: end; visibility: inherit; font-family: Roboto, sans-serif; font-size: 12px; font-weight: 200;" fill="rgb(33, 33, 33)" stroke="none" stroke-width="1px">9e-3</text><text x="0" y="31.416666666666682" dx="0em" dy="0.3em" style="text-anchor: end; visibility: inherit; font-family: Roboto, sans-serif; font-size: 12px; font-weight: 200;" fill="rgb(33, 33, 33)" stroke="none" stroke-width="1px">0.01</text><text x="0" y="0" dx="0em" dy="0.3em" style="text-anchor: end; visibility: hidden; font-family: Roboto, sans-serif; font-size: 12px; font-weight: 200;" fill="rgb(33, 33, 33)" stroke="none" stroke-width="1px">0.011</text></g><line x1="60" y1="0" x2="60" y2="377" fill="rgb(0, 0, 0)" stroke="rgb(204, 204, 204)" stroke-width="1px"></line></g></g><g transform="translate(60, 0)" clip-path="url(#clip_0)"><clipPath id="clip_0"><rect width="1264" height="376"></rect></clipPath><g><g><g><line x1="0" y1="0" x2="0" y2="377" fill="rgb(0, 0, 0)" stroke="rgb(66, 66, 66)" stroke-width="1px" opacity="0.25"></line><line x1="97.29461538461538" y1="0" x2="97.29461538461538" y2="377" fill="rgb(0, 0, 0)" stroke="rgb(66, 66, 66)" stroke-width="1px" opacity="0.25"></line><line x1="194.58923076923077" y1="0" x2="194.58923076923077" y2="377" fill="rgb(0, 0, 0)" stroke="rgb(66, 66, 66)" stroke-width="1px" opacity="0.25"></line><line x1="291.88384615384615" y1="0" x2="291.88384615384615" y2="377" fill="rgb(0, 0, 0)" stroke="rgb(66, 66, 66)" stroke-width="1px" opacity="0.25"></line><line x1="389.17846153846153" y1="0" x2="389.17846153846153" y2="377" fill="rgb(0, 0, 0)" stroke="rgb(66, 66, 66)" stroke-width="1px" opacity="0.25"></line><line x1="486.4730769230769" y1="0" x2="486.4730769230769" y2="377" fill="rgb(0, 0, 0)" stroke="rgb(66, 66, 66)" stroke-width="1px" opacity="0.25"></line><line x1="583.7676923076923" y1="0" x2="583.7676923076923" y2="377" fill="rgb(0, 0, 0)" stroke="rgb(66, 66, 66)" stroke-width="1px" opacity="0.25"></line><line x1="681.0623076923076" y1="0" x2="681.0623076923076" y2="377" fill="rgb(0, 0, 0)" stroke="rgb(66, 66, 66)" stroke-width="1px" opacity="0.25"></line><line x1="778.3569230769231" y1="0" x2="778.3569230769231" y2="377" fill="rgb(0, 0, 0)" stroke="rgb(66, 66, 66)" stroke-width="1px" opacity="0.25"></line><line x1="875.6515384615384" y1="0" x2="875.6515384615384" y2="377" fill="rgb(0, 0, 0)" stroke="rgb(66, 66, 66)" stroke-width="1px" opacity="0.25"></line><line x1="972.9461538461538" y1="0" x2="972.9461538461538" y2="377" fill="rgb(0, 0, 0)" stroke="rgb(66, 66, 66)" stroke-width="1px" opacity="0.25"></line><line x1="1070.240769230769" y1="0" x2="1070.240769230769" y2="377" fill="rgb(0, 0, 0)" stroke="rgb(66, 66, 66)" stroke-width="1px" opacity="0.25"></line><line x1="1167.5353846153846" y1="0" x2="1167.5353846153846" y2="377" fill="rgb(0, 0, 0)" stroke="rgb(66, 66, 66)" stroke-width="1px" opacity="0.25"></line><line x1="1264.83" y1="0" x2="1264.83" y2="377" fill="rgb(0, 0, 0)" stroke="rgb(66, 66, 66)" stroke-width="1px" opacity="0.25"></line></g><g><line x1="0" y1="377" x2="1264.83" y2="377" fill="rgb(0, 0, 0)" stroke="rgb(66, 66, 66)" stroke-width="1px" opacity="0.25"></line><line x1="0" y1="345.5833333333333" x2="1264.83" y2="345.5833333333333" fill="rgb(0, 0, 0)" stroke="rgb(66, 66, 66)" stroke-width="1px" opacity="0.25"></line><line x1="0" y1="314.1666666666667" x2="1264.83" y2="314.1666666666667" fill="rgb(0, 0, 0)" stroke="rgb(66, 66, 66)" stroke-width="1px" opacity="0.25"></line><line x1="0" y1="282.75" x2="1264.83" y2="282.75" fill="rgb(0, 0, 0)" stroke="rgb(66, 66, 66)" stroke-width="1px" opacity="0.25"></line><line x1="0" y1="251.33333333333337" x2="1264.83" y2="251.33333333333337" fill="rgb(0, 0, 0)" stroke="rgb(66, 66, 66)" stroke-width="1px" opacity="0.25"></line><line x1="0" y1="219.91666666666663" x2="1264.83" y2="219.91666666666663" fill="rgb(0, 0, 0)" stroke="rgb(66, 66, 66)" stroke-width="1px" opacity="0.25"></line><line x1="0" y1="188.5" x2="1264.83" y2="188.5" fill="rgb(0, 0, 0)" stroke="rgb(66, 66, 66)" stroke-width="1px" opacity="0.25"></line><line x1="0" y1="157.08333333333331" x2="1264.83" y2="157.08333333333331" fill="rgb(0, 0, 0)" stroke="rgb(66, 66, 66)" stroke-width="1px" opacity="0.25"></line><line x1="0" y1="125.66666666666669" x2="1264.83" y2="125.66666666666669" fill="rgb(0, 0, 0)" stroke="rgb(66, 66, 66)" stroke-width="1px" opacity="0.25"></line><line x1="0" y1="94.24999999999996" x2="1264.83" y2="94.24999999999996" fill="rgb(0, 0, 0)" stroke="rgb(66, 66, 66)" stroke-width="1px" opacity="0.25"></line><line x1="0" y1="62.8333333333334" x2="1264.83" y2="62.8333333333334" fill="rgb(0, 0, 0)" stroke="rgb(66, 66, 66)" stroke-width="1px" opacity="0.25"></line><line x1="0" y1="31.416666666666682" x2="1264.83" y2="31.416666666666682" fill="rgb(0, 0, 0)" stroke="rgb(66, 66, 66)" stroke-width="1px" opacity="0.25"></line><line x1="0" y1="0" x2="1264.83" y2="0" fill="rgb(0, 0, 0)" stroke="rgb(66, 66, 66)" stroke-width="1px" opacity="0.25"></line></g></g></g><g><g><line x1="0" y1="345.5833333333333" x2="1264.83" y2="345.5833333333333" fill="rgb(0, 0, 0)" stroke="rgb(153, 153, 153)" stroke-width="1.5px"></line></g></g><g><g><line x1="97.29461538461538" y1="0" x2="97.29461538461538" y2="377" fill="rgb(0, 0, 0)" stroke="rgb(153, 153, 153)" stroke-width="1.5px"></line></g></g><g><g><g><g><g><path stroke="rgb(255, 112, 67)" stroke-width="2px" d="M100.21345384615384,345.5833333333333L100.69992692307692,345.5833333333333L102.64581923076923,345.5833333333333L103.1322923076923,345.5833333333333L104.59171153846152,345.5833333333333L105.07818461538461,345.5833333333333L106.53760384615384,345.5833333333333L107.02407692307692,345.5833333333333L107.51055,345.5833333333333L109.4564423076923,345.5833333333333L113.83469999999998,345.5833333333333L115.29411923076923,345.5833333333333L117.24001153846154,345.5833333333333L118.21295769230768,345.5833333333333L119.18590384615383,345.5833333333333L119.67237692307691,345.5833333333333L120.64532307692308,345.5833333333333L121.61826923076923,345.5833333333333L122.1047423076923,345.5833333333333L123.56416153846153,345.5833333333333L124.05063461538461,345.5833333333333L124.53710769230769,345.5833333333333L125.02358076923076,345.5833333333333L125.51005384615384,345.5833333333333L128.4288923076923,345.5833333333333L129.40183846153846,345.5833333333333L129.88831153846152,345.5833333333333L130.3747846153846,345.5833333333333L130.8612576923077,345.5833333333333L132.32067692307692,345.5833333333333L132.80714999999998,345.5833333333333L133.29362307692307,345.5833333333333L133.78009615384613,345.5833333333333L136.21246153846153,345.5833333333333L138.64482692307692,345.5833333333333L140.10424615384616,345.5833333333333L140.59071923076922,345.5833333333333L143.50955769230768,345.5833333333333L147.4013423076923,345.5832390833325L148.86076153846153,345.5831448333317L149.34723461538462,345.58311341666246L152.75254615384614,345.5828934999915L154.21196538461538,345.58279925001165L155.18491153846153,345.5827364166731L158.10375,345.5825479166575L158.59022307692305,345.58251649998823L159.07669615384614,345.58248508331894L160.53611538461536,345.58239083336696L161.02258846153848,345.5823594166977L164.4279,345.58213950001283L165.40084615384615,345.5820766666743L166.3737923076923,345.5820138333358L166.86026538461536,345.5819824166665L167.34673846153848,345.5819509999972L170.75205,345.5817310833124L173.18441538461536,345.58157399996605L174.15736153846154,345.58151116662754L174.6438346153846,345.58147974995825L175.1303076923077,345.5814483334006L176.5897269230769,345.5813540832812L178.04914615384612,345.581259833385L179.02209230769228,345.5811970000465L179.5085653846154,345.5811655832656L180.9679846153846,345.58107133336944L183.88682307692306,345.5808828333538L184.37329615384613,345.58085141657295L185.34624230769228,345.5807885832344L186.80566153846155,345.5806943333382L187.77860769230767,345.5806314999997L188.26508076923076,345.580600083442L189.23802692307692,345.5805372501035L190.21097307692307,345.58047441676496L190.69744615384613,345.5804429999841L194.10275769230768,345.58022308341083L197.9945423076923,345.58311341666246L198.48101538461538,345.5830820000071L198.96748846153847,345.58305058333787L200.91338076923077,345.5829249166608L203.8322192307692,345.5827364166731L205.77811153846153,345.58261074999604L206.2645846153846,345.58257933332675L207.23753076923074,345.58251649998823L208.2104769230769,345.5824536666497L209.18342307692305,345.58239083336696L210.64284230769232,345.58229658335915L211.12931538461538,345.5822651666899L211.61578846153844,345.58223375002063L213.07520769230769,345.58213950001283L217.93993846153845,345.5818253333202L218.9128846153846,345.58176249998166L221.83172307692308,345.58157399996605L223.2911423076923,345.58147974995825L223.7776153846154,345.5814483334006L224.26408846153845,345.58141691661973L224.75056153846154,345.5813855000621L225.72350769230766,345.58132266672357L227.66939999999997,345.5811970000465L228.64234615384615,345.58113416670795L229.6152923076923,345.58107133336944L230.58823846153845,345.58100850003086L233.02060384615382,345.58085141657295L233.99354999999997,345.5807885832344L235.9394423076923,345.58066291655734L239.34475384615382,345.5804429999841L239.83122692307688,345.58041158342644L242.2635923076923,345.5802544999685L242.75006538461537,345.58022308341083L243.23653846153846,345.58019166662996L244.2094846153846,345.5832705000018L244.69595769230767,345.5832390833325L245.18243076923073,345.58320766667026L247.12832307692307,345.5830820000071L247.61479615384616,345.58305058333787L248.5877423076923,345.5829877499993L250.04716153846152,345.5828934999915L251.99305384615386,345.58276783334236L252.4795269230769,345.5827364166731L252.966,345.58270500000384L253.45247307692307,345.58267358333455L254.42541923076922,345.58261074999604L255.88483846153844,345.58251649998823L256.37131153846155,345.58248508331894L256.8577846153846,345.5824536666497L258.31720384615386,345.5823594166977L258.8036769230769,345.58232800002844L259.77662307692304,345.5822651666899L262.69546153846153,345.5820766666743L263.66840769230765,345.5820138333358L265.1278269230769,345.581919583328L265.61429999999996,345.5818881666587L266.58724615384614,345.5818253333202L267.07371923076926,345.5817939166509L269.5060846153846,345.5816368333046L269.9925576923077,345.5816054166353L271.93845,345.58147974995825L272.9113961538461,345.58141691661973L274.37081538461536,345.58132266672357L276.31670769230766,345.5811970000465L278.26259999999996,345.58107133336944L279.23554615384614,345.58100850003086L281.18143846153845,345.5808828333538L281.6679115384615,345.58085141657295L282.15438461538463,345.5808200000153L283.12733076923075,345.58075716667673L283.6138038461538,345.58072574989586L285.5596961538462,345.580600083442L286.04616923076924,345.5805686666612L287.99206153846154,345.5804429999841L288.4785346153846,345.58041158342644L288.96500769230767,345.58038016664557L293.82973846153845,345.58320766667026L296.2621038461538,345.58305058333787L299.66741538461537,345.5828306666809L300.15388846153843,345.58279925001165L302.5862538461538,345.5826421666653L303.0727269230769,345.58261074999604L304.0456730769231,345.5825479166575L305.0186192307692,345.58248508331894L306.9645115384615,345.5823594166977L311.34276923076925,345.5820766666743L311.8292423076923,345.582045250005L312.3157153846154,345.5820138333358L312.80218846153844,345.5819824166665L314.2616076923077,345.5818881666587L317.1804461538461,345.5816996666431L320.58575769230765,345.58147974995825L321.0722307692307,345.5814483334006L321.5587038461538,345.58141691661973L322.04517692307695,345.5813855000621L323.0181230769231,345.58132266672357L323.50459615384614,345.58129124994264L324.9640153846154,345.5811970000465L325.45048846153844,345.5811655832656L327.8828538461538,345.58100850003086L328.3693269230769,345.58097708325L330.31521923076923,345.58085141657295L333.7205307692307,345.5806314999997L335.17995,345.5805372501035L335.6664230769231,345.5805058333226L336.6393692307692,345.5804429999841L337.6123153846154,345.58038016664557L339.0717346153846,345.58028591674935L344.4229384615384,345.5830820000071L345.8823576923077,345.5829877499993L346.3688307692307,345.58295633333006L346.8553038461538,345.5829249166608L347.82825,345.58286208335016L348.80119615384615,345.58279925001165L349.2876692307692,345.58276783334236L350.2606153846154,345.58270500000384L352.69298076923076,345.5825479166575L353.1794538461538,345.58251649998823L356.09829230769225,345.58232800002844L357.0712384615384,345.5822651666899L357.5577115384615,345.58223375002063L358.04418461538455,345.58220233335135L358.5306576923077,345.5821709166821L359.0171307692308,345.58213950001283L359.50360384615385,345.58210808334354L360.47655,345.582045250005L360.9630230769231,345.5820138333358L361.44949615384616,345.5819824166665L363.8818615384615,345.5818253333202L364.3683346153846,345.5817939166509L364.85480769230765,345.58176249998166L365.8277538461538,345.5816996666431L367.77364615384613,345.58157399996605L368.74659230769225,345.58151116662754L369.71953846153843,345.5814483334006L371.6654307692308,345.58132266672357L372.15190384615386,345.58129124994264L372.6383769230769,345.581259833385L374.5842692307692,345.58113416670795L376.5301615384615,345.58100850003086L377.0166346153846,345.58097708325L378.47605384615383,345.5808828333538L379.44899999999996,345.5808200000153L379.935473076923,345.5807885832344L380.42194615384614,345.58075716667673L380.9084192307692,345.58072574989586L381.39489230769226,345.5806943333382L381.8813653846153,345.58066291655734L382.85431153846156,345.580600083442L383.3407846153846,345.5805686666612L385.77315,345.58041158342644L386.25962307692305,345.58038016664557L387.7190423076923,345.58028591674935L388.20551538461535,345.5802544999685L389.6649346153846,345.58330191666755L390.6378807692307,345.5832390833325L392.583773076923,345.58311341666246L393.5567192307692,345.58305058333787L394.5296653846153,345.5829877499993L395.50261153846157,345.5829249166608L396.96203076923075,345.5828306666809L398.90792307692305,345.58270500000384L399.3943961538461,345.58267358333455L400.3673423076923,345.58261074999604L401.82676153846154,345.58251649998823L403.7726538461538,345.58239083336696L406.20501923076927,345.58223375002063L409.61033076923076,345.5820138333358L410.0968038461538,345.5819824166665L411.06975,345.581919583328L411.55622307692306,345.5818881666587L412.0426961538461,345.58185674998947L412.5291692307692,345.5818253333202L413.0156423076923,345.5817939166509L413.50211538461537,345.58176249998166L414.9615346153846,345.58166824997386L416.90742692307686,345.58154258329677L417.3939,345.58151116662754L419.33979230769233,345.5813855000621L420.7992115384615,345.58129124994264L421.7721576923077,345.5812284166041L422.7451038461538,345.5811655832656L424.20452307692307,345.58107133336944L424.69099615384613,345.5810399165885L425.1774692307692,345.58100850003086L425.6639423076923,345.58097708325L426.15041538461537,345.58094566669234L427.1233615384615,345.5808828333538L427.60983461538456,345.58085141657295L428.0963076923077,345.5808200000153L429.0692538461538,345.58075716667673L429.55572692307686,345.58072574989586L430.0422,345.5806943333382L430.52867307692304,345.58066291655734L431.0151461538461,345.5806314999997L431.50161923076917,345.580600083442L432.4745653846154,345.5805372501035L432.96103846153846,345.5805058333226L436.36634999999995,345.58028591674935L437.8257692307692,345.58019166662996L438.31224230769226,345.58330191666755L438.7987153846154,345.5832705000018L439.7716615384615,345.58320766667026L441.23108076923074,345.58311341666246L442.20402692307687,345.58305058333787L443.1769730769231,345.5829877499993L445.1228653846154,345.58286208335016L447.06875769230766,345.5827364166731L448.5281769230769,345.5826421666653L449.01464999999996,345.58261074999604L449.5011230769231,345.58257933332675L449.98759615384614,345.5825479166575L450.4740692307692,345.58251649998823L452.90643461538457,345.5823594166977L455.825273076923,345.5821709166821L456.79821923076923,345.58210808334354L457.2846923076923,345.5820766666743L457.77116538461536,345.582045250005L458.2576384615385,345.5820138333358L459.2305846153846,345.5819509999972L460.69000384615384,345.58185674998947L461.1764769230769,345.5818253333202L462.63589615384615,345.5817310833124L463.1223692307692,345.5816996666431L463.60884230769227,345.58166824997386L464.58178846153845,345.5816054166353L465.5547346153846,345.58154258329677L468.473573076923,345.5813540832812L469.9329923076923,345.581259833385L470.41946538461536,345.5812284166041L471.8788846153846,345.58113416670795L472.36535769230767,345.581102749927L472.85183076923073,345.58107133336944L473.8247769230769,345.58100850003086L474.31125,345.58097708325L474.79772307692303,345.58094566669234L477.2300884615384,345.5807885832344L479.1759807692307,345.58066291655734L479.66245384615377,345.5806314999997L480.6354,345.5805686666612L481.6083461538461,345.5805058333226L482.5812923076923,345.5804429999841L483.06776538461537,345.58041158342644L483.55423846153843,345.58038016664557L484.0407115384615,345.58034875008786L484.5271846153846,345.58031733330705L485.0136576923077,345.58028591674935L485.9866038461538,345.58022308341083L486.95955,345.58330191666755L487.9324961538461,345.5832390833325L489.39191538461534,345.5831448333317L490.36486153846147,345.5830820000071L490.8513346153846,345.58305058333787L491.33780769230765,345.5830191666686L493.2837,345.5828934999915L494.25664615384613,345.5828306666809L494.7431192307692,345.58279925001165L495.7160653846154,345.5827364166731L497.1754846153846,345.5826421666653L487.44602307692304,345.58270500000384L488.9054423076923,345.58176249998166L490.36486153846147,345.5808200000153L490.8513346153846,345.5805058333226L491.8242807692307,345.5798774999373L492.79722692307695,345.57924916655196L493.7701730769231,345.57862083316667L496.20253846153844,345.57704999992654L497.1754846153846,345.57642166654125L497.6619576923077,345.5761075000718L498.14843076923074,345.5757933336024L498.6349038461538,345.5754791666865L500.09432307692305,345.57453666683176L503.0131615384615,345.5726516662293L503.9861076923077,345.5720233332905L504.4725807692307,345.57170916637455L504.9590538461538,345.5713950003516L505.932,345.57076666651983L507.87789230769226,345.5695099997492L508.85083846153844,345.5688816668103L509.3373115384615,345.5685674998944L511.2832038461538,345.56731083312377L511.7696769230769,345.5669966662079L512.25615,345.56668249929197L512.7426230769231,345.56636833416195L514.2020423076923,345.5654258334143L514.6885153846154,345.56511166649835L515.1749884615384,345.5647974995825L516.1479346153845,345.56416916753653L517.6073538461538,345.56322666678886L518.5803,345.56259833295707L519.066773076923,345.5622841660412L520.0397192307692,345.56165583399525L520.5261923076922,345.5613416670794L521.9856115384615,345.5603991663317L523.4450307692308,345.55945666736983L523.9315038461539,345.55914250045396L527.3368153846153,345.55694333382854L527.8232884615385,345.55662916691267L528.3097615384615,345.5563149999968L528.7962346153846,345.5560008330809L529.2827076923077,345.555686666165L529.7691807692307,345.55537249924913L530.2556538461538,345.55505833411905L531.2285999999999,345.55443000028725L531.7150730769231,345.5541158333714L532.2015461538462,345.5538016664555L533.6609653846153,345.55285916749364L534.1474384615385,345.55254500057777L534.6339115384615,345.5522308336619L535.1203846153845,345.55191666674597L536.0933307692308,345.58270500000384L539.0121692307692,345.5808200000153L539.4986423076923,345.5805058333226L540.9580615384615,345.57956333346783L544.363373076923,345.5773641668425L545.8227923076922,345.57642166654125L549.2281038461539,345.57422249991583L549.714576923077,345.57390833299996L550.20105,345.573594166977L551.1739961538461,345.5729658331452L551.6604692307692,345.5726516662293L552.1469423076923,345.57233750020634L553.6063615384616,345.5713950003516L554.0928346153846,345.5710808334357L555.0657807692307,345.5704524996039L556.0387269230769,345.56982416666506L556.5251999999999,345.5695099997492L558.4710923076923,345.56825333387144L558.9575653846154,345.56793916695557L560.9034576923077,345.56668249929197L561.3899307692308,345.56636833416195L561.8764038461538,345.566054167246L562.3628769230769,345.56574000033015L563.8222961538461,345.5647974995825L564.3087692307693,345.5644833326666L564.7952423076923,345.56416916753653L566.2546615384615,345.56322666678886L566.7411346153846,345.562912499873L570.6329192307692,345.5603991663317L572.0923384615385,345.55945666736983L572.5788115384614,345.55914250045396L573.5517576923077,345.55851416662216L574.5247038461538,345.5578858327904L575.0111769230768,345.5575716658745L576.4705961538461,345.55662916691267L576.9570692307692,345.5563149999968L577.9300153846153,345.555686666165L578.4164884615384,345.55537249924913L578.9029615384615,345.55505833411905L579.3894346153846,345.5547441672032L580.8488538461538,345.5538016664555L584.7406384615384,345.58270500000384L585.7135846153845,345.5820766666743L586.6865307692308,345.5814483334006L587.6594769230769,345.5808200000153L588.14595,345.5805058333226L588.632423076923,345.58019166662996L589.6053692307692,345.57956333346783L590.5783153846154,345.57893500008254L591.0647884615385,345.57862083316667L591.5512615384615,345.57830666669724L593.0106807692307,345.5773641668425L593.9836269230768,345.5767358334571L597.3889384615385,345.57453666683176L597.8754115384615,345.57422249991583L599.3348307692307,345.5732800000611L600.3077769230769,345.5726516662293L603.2266153846153,345.57076666651983L603.7130884615384,345.5704524996039L604.6860346153845,345.56982416666506L605.6589807692308,345.5691958337262L607.6048730769231,345.56793916695557L609.5507653846154,345.56668249929197L610.5237115384615,345.566054167246L611.4966576923076,345.5654258334143L612.9560769230769,345.5644833326666L613.44255,345.56416916753653L613.929023076923,345.56385500062066L614.4154961538461,345.56354083370474L617.3343346153846,345.56165583399525L617.8208076923077,345.5613416670794L620.7396461538461,345.55945666736983L621.7125923076923,345.5588283335381L622.6855384615385,345.5581999997063L623.1720115384616,345.5578858327904L623.6584846153846,345.5575716658745L628.0367423076923,345.5547441672032L629.0096884615384,345.5541158333714L630.4691076923076,345.55317333440956L632.415,345.55191666674597L633.3879461538461,345.58270500000384L633.8744192307693,345.58239083336696L634.3608923076922,345.5820766666743L635.8203115384615,345.58113416670795L636.3067846153846,345.5808200000153L637.2797307692307,345.58019166662996L637.7662038461539,345.5798774999373L638.2526769230768,345.57956333346783L639.7120961538461,345.57862083316667L640.1985692307692,345.57830666669724L645.0633,345.5751649997706L646.0362461538462,345.57453666683176L646.5227192307692,345.57422249991583L647.9821384615385,345.5732800000611L648.4686115384615,345.5729658331452L648.9550846153846,345.5726516662293L650.4145038461538,345.57170916637455L650.9009769230769,345.5713950003516L651.38745,345.5710808334357L658.6845461538461,345.56636833416195L660.1439653846154,345.5654258334143L661.1169115384615,345.5647974995825L661.6033846153846,345.5644833326666L662.5763307692307,345.56385500062066L663.0628038461539,345.56354083370474L664.522223076923,345.56259833295707L665.9816423076923,345.56165583399525L666.4681153846153,345.5613416670794L666.9545884615384,345.56102750016345L667.4410615384614,345.5607133332476L668.4140076923076,345.5600849994158L669.3869538461539,345.55945666736983L670.3599,345.5588283335381L671.3328461538462,345.5581999997063L671.8193192307692,345.5578858327904L672.7922653846153,345.55725750074447L673.7652115384615,345.55662916691267L674.7381576923076,345.5560008330809L675.2246307692308,345.555686666165L675.7111038461537,345.55537249924913L676.1975769230769,345.55505833411905L676.68405,345.5547441672032L683.9811461538461,345.5644833326666L685.9270384615384,345.55191666674597L687.8729307692307,345.5393500008254L688.3594038461538,345.5362083316665L688.8458769230768,345.53306666607926L689.818823076923,345.5267833349048L691.2782423076923,345.51735833099974L692.7376615384615,345.5079333306664L693.7106076923076,345.5016499994919L694.6835538461537,345.49536666831744L695.1700269230769,345.4922249991585L696.142973076923,345.48594166798404L698.0888653846154,345.4733749984918L698.5753384615384,345.4702333364762L699.0618115384615,345.46709166731733L700.0347576923076,345.4608083289995L700.5212307692308,345.4576666669839L701.98065,345.4482416666506L702.467123076923,345.445100004635L702.9535961538461,345.44195832833276L703.4400692307692,345.4388166663172L703.9265423076922,345.43567500430163L704.4130153846154,345.4325333279994L706.8453807692308,345.41682500363487L707.3318538461538,345.41368332733265L708.3048,345.4074000033015L710.2506923076922,345.39483332666595L710.7371653846154,345.39169166465035L711.7101115384615,345.38540832633254L713.6560038461538,345.3728416639836L714.6289499999999,345.36655833995246L716.5748423076923,345.3539916633169L717.0613153846155,345.3508500013013L717.5477884615384,345.3477083392857L718.0342615384616,345.3445666629835L719.0072076923077,345.3382833246657L720.4666269230769,345.328858338619L720.9531,345.3257166766034L721.9260461538462,345.31943332399896L722.4125192307691,345.31629166198337L722.8989923076923,345.31314999996783L725.8178307692308,345.2942999993011L726.7907769230769,345.28801667526994L727.2772499999999,345.28487501325435L728.2501961538462,345.2785916606499L728.7366692307692,345.2754499986343L730.1960884615385,345.58019166662996L730.6825615384615,345.57704999992654L733.114926923077,345.5613416670794L733.6013999999999,345.5581999997063L734.0878730769231,345.55505833411905L735.5472923076923,345.54563333199985L736.5202384615384,345.5393500008254L737.0067115384616,345.5362083316665L737.4931846153845,345.53306666607926L737.9796576923077,345.529925000492L738.4661307692306,345.5267833349048L738.9526038461538,345.52364166574586L740.412023076923,345.51421666898415L741.8714423076923,345.5047916686508L744.3038076923077,345.48908332999963L744.7902807692307,345.48594166798404L745.2767538461538,345.48279999882516L745.7632269230769,345.47965833680956L747.7091192307691,345.46709166731733L749.6550115384615,345.4545250049684L750.6279576923076,345.4482416666506L751.1144307692307,345.445100004635L753.060323076923,345.4325333279994L755.0062153846153,345.41996666565046L758.411526923077,345.39797500296817L759.3844730769231,345.39169166465035L760.8438923076923,345.382266664317L761.8168384615384,345.3759833402858L762.3033115384615,345.3728416639836L763.2762576923077,345.36655833995246L763.7627307692306,345.36341666365024L764.2492038461538,345.36027500163465L765.2221499999999,345.3539916633169L765.7086230769231,345.3508500013013L767.1680423076923,345.34142498668126L775.4380846153846,345.28801667526994L775.9245576923076,345.28487501325435L776.4110307692307,345.2817333226655L776.8975038461538,345.2785916606499L778.843396153846,345.58019166662996L780.3028153846153,345.57076666651983L780.7892884615385,345.56762500003964L782.2487076923077,345.5581999997063L782.7351807692307,345.55505833411905L783.2216538461538,345.55191666674597L785.167546153846,345.5393500008254L785.6540192307692,345.5362083316665L786.1404923076922,345.53306666607926L787.1134384615384,345.5267833349048L787.5999115384615,345.52364166574586L788.0863846153845,345.5205000001586L789.0593307692307,345.51421666898415L790.0322769230768,345.5079333306664L792.9511153846154,345.48908332999963L793.9240615384615,345.48279999882516L796.3564269230768,345.46709166731733L796.8429,345.4639499981584L801.2211576923075,345.43567500430163L801.7076307692307,345.4325333279994L807.0588346153846,345.39797500296817L809.0047269230769,345.38540832633254L809.4911999999999,345.382266664317L810.9506192307692,345.3728416639836L811.4370923076922,345.36970000196806L812.8965115384615,345.36027500163465L813.8694576923076,345.3539916633169L814.3559307692307,345.3508500013013L814.8424038461538,345.3477083392857L818.2477153846154,345.3257166766034L818.7341884615385,345.32257498601456L819.2206615384615,345.31943332399896L819.7071346153846,345.31629166198337L820.6800807692307,345.31000833795224L821.1665538461539,345.30686667593665L822.1395,345.3005833233322L822.625973076923,345.29744166131667L823.1124461538461,345.2942999993011L823.5989192307692,345.2911583372855L826.0312846153846,345.2754499986343L827.0042307692307,345.2691666746032L829.4365961538462,345.4262500039683L829.9230692307692,345.39483332666595L831.3824884615384,345.3005833233322L834.7878,345.08066666793576L835.7607461538461,345.0178333133311L840.6254769230769,344.70366665460097L841.598423076923,344.64083335714287L842.0848961538461,344.60941667984054L843.0578423076922,344.5465833252359L843.5443153846154,344.51516664793354L844.5172615384615,344.4523332933289L845.0037346153846,344.42091661602655L847.922573076923,344.23241666650574L848.4090461538461,344.2009999892034L851.3278846153846,344.0125000396826L851.8143576923076,343.9810833623803L856.1926153846154,343.6983333809524L856.6790884615384,343.6669167036501L858.1385076923076,343.5726666717431L859.1114538461537,343.50983331713843L861.0573461538461,343.3841666079291L863.9761846153845,343.1956667727015L864.9491307692308,343.1328334180968L865.4356038461538,343.1014167407945L866.40855,343.0385833861898L867.8679692307692,342.94433335428283L868.8409153846154,342.88149999967817L869.3273884615384,342.85008332237584L871.2732807692307,342.7244166131665L871.7597538461538,342.6929999358642L872.7326999999999,342.6301665812595L873.219173076923,342.5987499039572L873.7056461538461,342.56733322665485L874.1921192307691,342.53591677793884L875.6515384615384,342.44166674603184L876.1380115384616,345.55191666674597L876.6244846153845,345.5205000001586L878.5703769230769,345.39483332666595L879.543323076923,345.33200000063454L880.0297961538462,345.3005833233322L880.5162692307691,345.2691666746032L881.4892153846154,345.2063333199985L882.4621615384615,345.14349999396717L883.4351076923076,345.08066666793576L884.8945269230769,344.9864166931754L885.3809999999999,344.95500001587305L886.3539461538462,344.8921666612684L886.8404192307692,344.86074998396606L887.3268923076923,344.8293333066637L888.7863115384615,344.7350833319033L889.7592576923076,344.67224997729863L890.2457307692308,344.64083335714287L891.7051499999999,344.5465833252359L892.1916230769231,344.51516664793354L893.6510423076923,344.42091661602655L895.1104615384615,344.32666669841274L895.5969346153845,344.2952500211104L896.0834076923077,344.2638333438081L896.5698807692306,344.23241666650574L898.0292999999999,344.13816663459875L899.9751923076923,344.0125000396826L900.9481384615384,343.94966668507794L901.4346115384616,343.9182500077756L901.9210846153845,343.8868333304733L903.3805038461538,343.7925832985663L903.8669769230769,343.76116662126395L904.839923076923,343.6983333809524L906.7858153846153,343.5726666717431L907.2722884615384,343.54124999444076L907.7587615384615,343.50983331713843L909.2181807692307,343.41558328523143L911.164073076923,343.2899165760221L911.650546153846,343.2584998987198L912.6234923076923,343.1956667727015L913.1099653846153,343.16425009539915L913.5964384615385,343.1328334180968L914.0829115384615,343.1014167407945L915.0558576923077,343.0385833861898L916.515276923077,342.94433335428283L917.0017499999999,342.9129166769805L917.4882230769231,342.88149999967817L917.974696153846,342.85008332237584L919.9205884615384,342.7244166131665L920.4070615384614,342.6929999358642L922.839426923077,342.53591677793884L923.8123730769231,342.4730834233342L924.2988461538461,342.44166674603184L924.7853192307692,345.55191666674597L926.7312115384614,345.4262500039683L928.1906307692307,345.33200000063454L929.1635769230769,345.2691666746032L930.6229961538461,345.1749166712695L931.1094692307692,345.14349999396717L931.5959423076923,345.1120833452381L932.0824153846153,345.08066666793576L932.5688884615384,345.0492499906334L933.5418346153846,344.9864166931754L934.5147807692307,344.9235833385707L935.9741999999999,344.8293333066637L936.4606730769231,344.79791668650796L937.4336192307692,344.7350833319033L937.9200923076924,344.70366665460097L938.4065653846153,344.67224997729863L939.8659846153846,344.5780000025382L940.8389307692307,344.51516664793354L941.3254038461538,344.4837499706312L941.8118769230769,344.4523332933289L942.2983499999999,344.42091661602655L945.7036615384615,344.2009999892034L946.1901346153845,344.1695833119011L947.6495538461538,344.0753332799941L950.0819192307692,343.9182500077756L952.0278115384615,343.7925832985663L953.0007576923077,343.7297499439616L954.94665,343.6040833490454L955.433123076923,343.5726666717431L956.4060692307692,343.50983331713843L958.3519615384614,343.3841666079291L958.8384346153846,343.35274993062677L959.3249076923075,343.32133325332444L960.2978538461539,343.2584998987198L960.7843269230768,343.22708322141744L961.2708,343.1956667727015L963.2166923076923,343.07000006349216L965.1625846153846,342.94433335428283L966.1355307692307,342.88149999967817L966.6220038461538,342.85008332237584L967.5949499999999,342.7872499677712L969.5408423076922,342.66158325856185L970.5137884615385,342.5987499039572L971.0002615384615,342.56733322665485L972.4596807692307,342.4730834233342L973.9191,345.5205000001586L975.8649923076922,345.39483332666595L976.8379384615384,345.33200000063454L978.7838307692307,345.2063333199985L980.7297230769229,345.08066666793576L981.2161961538461,345.0492499906334L981.7026692307692,345.0178333133311L983.6485615384614,344.8921666612684L984.1350346153846,344.86074998396606L985.5944538461539,344.76650000920563L986.0809269230768,344.7350833319033L986.5674,344.70366665460097L987.5403461538461,344.64083335714287L988.0268192307692,344.60941667984054L989.4862384615384,344.51516664793354L989.9727115384615,344.4837499706312L990.9456576923076,344.42091661602655L991.9186038461537,344.35808337571507L992.4050769230769,344.32666669841274L992.8915499999999,344.2952500211104L996.2968615384615,344.0753332799941L997.2698076923076,344.0125000396826L997.7562807692308,343.9810833623803L1000.6751192307693,343.7925832985663L1001.1615923076922,343.76116662126395L1001.6480653846154,343.7297499439616L1002.1345384615383,343.6983333809524L1002.6210115384615,343.6669167036501L1003.5939576923076,343.6040833490454L1005.0533769230768,343.50983331713843L1008.4586884615384,343.2899165760221L1008.9451615384614,343.2584998987198L1009.4316346153846,343.22708322141744L1011.864,343.07000006349216L1013.8098923076923,342.94433335428283L1015.2693115384615,342.85008332237584L1015.7557846153845,342.8186666450735L1017.2152038461537,342.7244166131665L1017.7016769230769,342.6929999358642L1022.0799346153844,345.2691666746032L1022.5664076923076,344.95500001587305L1023.0528807692308,344.64083335714287L1024.5123,343.6983333809524L1024.998773076923,343.3841666079291L1025.4852461538462,343.07000006349216L1025.9717192307692,342.75583329046884L1027.9176115384614,341.4991666555482L1028.4040846153846,341.1849998825249L1028.8905576923075,340.8708331095016L1030.3499769230768,339.9283332476043L1031.322923076923,339.30000015873037L1032.295869230769,338.67166661268374L1033.2688153846154,338.04333352380974L1033.7552884615384,337.7291662936138L1034.2417615384616,337.4149999777631L1035.2147076923077,336.78666643171647L1035.7011807692309,336.47250011586584L1038.133546153846,334.90166670792195L1039.5929653846154,333.95916684602463L1040.5659115384615,333.330833299978L1042.0253307692308,332.38833343808074L1043.4847499999998,331.4458335761835L1043.971223076923,331.13166634598747L1044.9441692307691,330.50333371428616L1045.9171153846153,329.8749992538942L1048.8359538461539,327.9899995300996L1049.3224269230768,327.6758341285943L1050.295373076923,327.04749966820236L1051.268319230769,326.41916703650105L1053.7006846153845,324.84833271421184L1055.646576923077,323.5916674508092L1056.13305,323.27750022061326L1056.619523076923,322.96333299041726L1057.1059961538463,322.64916576022125L1062.943673076923,318.87916631263215L1063.9166192307691,318.25083368093084L1064.8895653846153,317.6224992205389L1065.8625115384616,316.9941665888376L1066.3489846153846,316.6799993586416L1071.2137153846152,339.30000015873037L1071.7001884615383,336.15833288566984L1072.1866615384615,333.01666698412737L1072.6731346153845,329.8749992538942L1073.1596076923076,326.73333243800636L1073.6460807692306,323.5916674508092L1074.1325538461538,320.4500006349214L1075.1055,314.1666651744551L1075.591973076923,311.02500018725794L1076.078446153846,307.8833315426794L1077.0513923076924,301.6000015682851L1079.4837576923076,285.8916656601553L1080.9431769230769,276.4666670411825L1081.916123076923,270.18332975202554L1082.402596153846,267.0416684222097L1083.3755423076923,260.7583311330527L1084.8349615384614,251.33333251407987L1086.2943807692307,241.90833389510715L1087.267326923077,235.62499660595006L1088.726746153846,226.19999798697734L1089.2132192307693,223.05833665716148L1090.1861653846154,216.7749993680045L1090.6726384615383,213.63333803818875L1092.1320576923076,204.20833941921592L1093.1050038461537,197.92500213005894L1093.5914769230767,194.78332617071771L1097.4832615384614,169.6500062731405L1097.9697346153846,166.50833031379926L1098.9426807692307,160.2249930246423L1101.3750461538461,144.5166717460379L1103.8074115384613,128.80833583790806L1104.2938846153845,125.66665987856682L1104.7803576923077,122.52499854875106L1105.7533038461538,116.24166125959404L1106.2397769230768,113.09999992977824L1107.212723076923,106.81666264062125L1108.1856692307692,100.53333998098965L1109.6450884615385,91.10832673249143L1110.1315615384615,87.96666540267564L1112.0774538461537,75.39999082436162L1114.5098192307692,59.69165491623182L1115.4827653846153,53.40833225660022L1118.4016038461539,34.55833501865465L1118.8880769230768,31.416673688838852L1119.37455,342.44166674603184L1119.8610230769232,339.30000015873037L1120.3474961538461,336.15833288566984L1121.8069153846154,326.73333243800636L1122.7798615384615,320.4500006349214L1124.2392807692306,311.02500018725794L1124.7257538461538,307.8833315426794L1126.1851730769229,298.4583329237066L1127.1581192307692,292.174999291931L1128.1310653846153,285.8916656601553L1128.6175384615385,282.7499970155768L1129.1040115384615,279.60833568576106L1131.049903846154,267.0416684222097L1132.9957961538462,254.47500115865842L1133.4822692307691,251.33333251407987L1133.9687423076923,248.19166386950144L1135.9146346153846,235.62499660595006L1136.4011076923075,232.4833352761343L1137.3740538461539,226.19999798697734L1137.8605269230768,223.05833665716148L1138.833473076923,216.7749993680045L1139.319946153846,213.63333803818875L1139.8064192307693,210.49166207884753L1140.7793653846154,204.20833941921592L1141.2658384615384,201.0666634598747L1141.7523115384615,197.92500213005894L1142.2387846153847,194.78332617071771L1143.6982038461538,185.35832755174488L1144.67115,179.07500489211333L1145.1576230769228,175.9333289327721L1148.0764615384614,157.08333169482648L1148.5629346153846,153.94167036501068L1149.0494076923076,150.79999440566945L1150.9953,138.23333445688087L1151.9682461538462,131.9499971677239L1152.9411923076923,125.66665987856682L1154.8870846153845,113.09999992977824L1158.292396153846,91.10832673249143L1159.7518153846154,81.68334274304408L1160.7247615384615,75.39999082436162L1161.6977076923076,69.11666816473003L1162.1841807692308,65.97500683491427L1163.157126923077,59.69165491623182L1164.130073076923,53.40833225660022L1165.1030192307692,47.12500959696866L1165.5894923076921,43.98331900810201L1166.0759653846153,40.841657678286204L1167.5353846153846,31.416673688838852L1168.0218576923075,342.44166674603184L1168.5083307692307,282.7499970155768L1168.9948038461537,251.33333251407987L1170.454223076923,157.08333169482648L1171.9136423076923,62.83334550509847L1173.8595346153845,-62.83334175994002L1181.1566307692308,-1225.2500234072409L1169.96775,31.416673688838852L1172.8865884615384,31.416673688838852L1174.8324807692306,31.416673688838852L1176.2919,31.416673688838852L1178.7242653846154,31.416673688838852L1179.6972115384615,31.416673688838852L1181.1566307692308,31.416673688838852L1184.0754692307692,31.416673688838852L1184.5619423076923,31.416673688838852L1185.5348884615385,31.416673688838852L1186.9943076923075,31.416673688838852L1187.4807807692307,31.416673688838852L1188.4537269230768,31.416673688838852L1188.9401999999998,31.416673688838852L1189.426673076923,31.416673688838852L1193.8049307692309,31.416673688838852L1194.2914038461538,31.416673688838852L1194.777876923077,31.416673688838852L1195.26435,31.416673688838852L1196.237296153846,31.416673688838852L1197.2102423076922,31.416673688838852L1198.6696615384615,31.416673688838852L1199.1561346153844,31.416673688838852L1201.102026923077,31.416673688838852L1202.074973076923,31.416673688838852L1202.5614461538462,31.416673688838852L1203.0479192307691,31.416673688838852L1203.5343923076923,31.416673688838852L1207.4261769230768,31.416673688838852L1211.8044346153845,31.416673688838852L1212.7773807692306,31.416673688838852L1213.2638538461538,31.416673688838852L1214.2368,31.416673688838852L1216.6691653846153,31.416673688838852L1218.1285846153846,31.416673688838852L1218.6150576923076,31.416673688838852L1219.1015307692307,31.416673688838852" style="fill: none;" fill="none"></path></g></g></g></g></g></g><g transform="translate(60, 377)" clip-path="url(#clip_1)"><clipPath id="clip_1"><rect width="1264" height="22"></rect></clipPath><g><g><line x1="0" y1="0" x2="0" y2="5" style="visibility: inherit;" fill="rgb(0, 0, 0)" stroke="rgb(204, 204, 204)" stroke-width="1px"></line><line x1="97.29461538461538" y1="0" x2="97.29461538461538" y2="5" style="visibility: inherit;" fill="rgb(0, 0, 0)" stroke="rgb(204, 204, 204)" stroke-width="1px"></line><line x1="194.58923076923077" y1="0" x2="194.58923076923077" y2="5" style="visibility: inherit;" fill="rgb(0, 0, 0)" stroke="rgb(204, 204, 204)" stroke-width="1px"></line><line x1="291.88384615384615" y1="0" x2="291.88384615384615" y2="5" style="visibility: inherit;" fill="rgb(0, 0, 0)" stroke="rgb(204, 204, 204)" stroke-width="1px"></line><line x1="389.17846153846153" y1="0" x2="389.17846153846153" y2="5" style="visibility: inherit;" fill="rgb(0, 0, 0)" stroke="rgb(204, 204, 204)" stroke-width="1px"></line><line x1="486.4730769230769" y1="0" x2="486.4730769230769" y2="5" style="visibility: inherit;" fill="rgb(0, 0, 0)" stroke="rgb(204, 204, 204)" stroke-width="1px"></line><line x1="583.7676923076923" y1="0" x2="583.7676923076923" y2="5" style="visibility: inherit;" fill="rgb(0, 0, 0)" stroke="rgb(204, 204, 204)" stroke-width="1px"></line><line x1="681.0623076923076" y1="0" x2="681.0623076923076" y2="5" style="visibility: inherit;" fill="rgb(0, 0, 0)" stroke="rgb(204, 204, 204)" stroke-width="1px"></line><line x1="778.3569230769231" y1="0" x2="778.3569230769231" y2="5" style="visibility: inherit;" fill="rgb(0, 0, 0)" stroke="rgb(204, 204, 204)" stroke-width="1px"></line><line x1="875.6515384615384" y1="0" x2="875.6515384615384" y2="5" style="visibility: inherit;" fill="rgb(0, 0, 0)" stroke="rgb(204, 204, 204)" stroke-width="1px"></line><line x1="972.9461538461538" y1="0" x2="972.9461538461538" y2="5" style="visibility: inherit;" fill="rgb(0, 0, 0)" stroke="rgb(204, 204, 204)" stroke-width="1px"></line><line x1="1070.240769230769" y1="0" x2="1070.240769230769" y2="5" style="visibility: inherit;" fill="rgb(0, 0, 0)" stroke="rgb(204, 204, 204)" stroke-width="1px"></line><line x1="1167.5353846153846" y1="0" x2="1167.5353846153846" y2="5" style="visibility: inherit;" fill="rgb(0, 0, 0)" stroke="rgb(204, 204, 204)" stroke-width="1px"></line><line x1="1264.83" y1="0" x2="1264.83" y2="5" style="visibility: inherit;" fill="rgb(0, 0, 0)" stroke="rgb(204, 204, 204)" stroke-width="1px"></line></g><g transform="translate(0, 8)"><text x="0" y="0" dx="0em" dy="0.95em" style="text-anchor: middle; visibility: hidden; font-family: Roboto, sans-serif; font-size: 12px; font-weight: 200;" fill="rgb(33, 33, 33)" stroke="none" stroke-width="1px">-200</text><text x="97.29461538461538" y="0" dx="0em" dy="0.95em" style="text-anchor: middle; visibility: inherit; font-family: Roboto, sans-serif; font-size: 12px; font-weight: 200;" fill="rgb(33, 33, 33)" stroke="none" stroke-width="1px">0</text><text x="194.58923076923077" y="0" dx="0em" dy="0.95em" style="text-anchor: middle; visibility: inherit; font-family: Roboto, sans-serif; font-size: 12px; font-weight: 200;" fill="rgb(33, 33, 33)" stroke="none" stroke-width="1px">200</text><text x="291.88384615384615" y="0" dx="0em" dy="0.95em" style="text-anchor: middle; visibility: inherit; font-family: Roboto, sans-serif; font-size: 12px; font-weight: 200;" fill="rgb(33, 33, 33)" stroke="none" stroke-width="1px">400</text><text x="389.17846153846153" y="0" dx="0em" dy="0.95em" style="text-anchor: middle; visibility: inherit; font-family: Roboto, sans-serif; font-size: 12px; font-weight: 200;" fill="rgb(33, 33, 33)" stroke="none" stroke-width="1px">600</text><text x="486.4730769230769" y="0" dx="0em" dy="0.95em" style="text-anchor: middle; visibility: inherit; font-family: Roboto, sans-serif; font-size: 12px; font-weight: 200;" fill="rgb(33, 33, 33)" stroke="none" stroke-width="1px">800</text><text x="583.7676923076923" y="0" dx="0em" dy="0.95em" style="text-anchor: middle; visibility: inherit; font-family: Roboto, sans-serif; font-size: 12px; font-weight: 200;" fill="rgb(33, 33, 33)" stroke="none" stroke-width="1px">1k</text><text x="681.0623076923076" y="0" dx="0em" dy="0.95em" style="text-anchor: middle; visibility: inherit; font-family: Roboto, sans-serif; font-size: 12px; font-weight: 200;" fill="rgb(33, 33, 33)" stroke="none" stroke-width="1px">1.2k</text><text x="778.3569230769231" y="0" dx="0em" dy="0.95em" style="text-anchor: middle; visibility: inherit; font-family: Roboto, sans-serif; font-size: 12px; font-weight: 200;" fill="rgb(33, 33, 33)" stroke="none" stroke-width="1px">1.4k</text><text x="875.6515384615384" y="0" dx="0em" dy="0.95em" style="text-anchor: middle; visibility: inherit; font-family: Roboto, sans-serif; font-size: 12px; font-weight: 200;" fill="rgb(33, 33, 33)" stroke="none" stroke-width="1px">1.6k</text><text x="972.9461538461538" y="0" dx="0em" dy="0.95em" style="text-anchor: middle; visibility: inherit; font-family: Roboto, sans-serif; font-size: 12px; font-weight: 200;" fill="rgb(33, 33, 33)" stroke="none" stroke-width="1px">1.8k</text><text x="1070.240769230769" y="0" dx="0em" dy="0.95em" style="text-anchor: middle; visibility: inherit; font-family: Roboto, sans-serif; font-size: 12px; font-weight: 200;" fill="rgb(33, 33, 33)" stroke="none" stroke-width="1px">2k</text><text x="1167.5353846153846" y="0" dx="0em" dy="0.95em" style="text-anchor: middle; visibility: inherit; font-family: Roboto, sans-serif; font-size: 12px; font-weight: 200;" fill="rgb(33, 33, 33)" stroke="none" stroke-width="1px">2.2k</text><text x="1264.83" y="0" dx="0em" dy="0.95em" style="text-anchor: middle; visibility: hidden; font-family: Roboto, sans-serif; font-size: 12px; font-weight: 200;" fill="rgb(33, 33, 33)" stroke="none" stroke-width="1px">2.4k</text></g><line x1="0" y1="0" x2="1264.83" y2="0" fill="rgb(0, 0, 0)" stroke="rgb(204, 204, 204)" stroke-width="1px"></line></g></g></g></g></svg>