<svg viewBox="0 0 1498 400" xmlns="http://www.w3.org/2000/svg"><g><g><g><g><g><line x1="50" y1="337.85754388766924" x2="45" y2="337.85754388766924" style="visibility: inherit;" fill="rgb(0, 0, 0)" stroke="rgb(204, 204, 204)" stroke-width="1px"></line><line x1="50" y1="294.3420214311844" x2="45" y2="294.3420214311844" style="visibility: inherit;" fill="rgb(0, 0, 0)" stroke="rgb(204, 204, 204)" stroke-width="1px"></line><line x1="50" y1="250.82649897469952" x2="45" y2="250.82649897469952" style="visibility: inherit;" fill="rgb(0, 0, 0)" stroke="rgb(204, 204, 204)" stroke-width="1px"></line><line x1="50" y1="207.3109765182146" x2="45" y2="207.3109765182146" style="visibility: inherit;" fill="rgb(0, 0, 0)" stroke="rgb(204, 204, 204)" stroke-width="1px"></line><line x1="50" y1="163.79545406172974" x2="45" y2="163.79545406172974" style="visibility: inherit;" fill="rgb(0, 0, 0)" stroke="rgb(204, 204, 204)" stroke-width="1px"></line><line x1="50" y1="120.27993160524487" x2="45" y2="120.27993160524487" style="visibility: inherit;" fill="rgb(0, 0, 0)" stroke="rgb(204, 204, 204)" stroke-width="1px"></line><line x1="50" y1="76.76440914876" x2="45" y2="76.76440914876" style="visibility: inherit;" fill="rgb(0, 0, 0)" stroke="rgb(204, 204, 204)" stroke-width="1px"></line><line x1="50" y1="33.248886692275065" x2="45" y2="33.248886692275065" style="visibility: inherit;" fill="rgb(0, 0, 0)" stroke="rgb(204, 204, 204)" stroke-width="1px"></line></g><g transform="translate(40, 0)"><text x="0" y="337.85754388766924" dx="0em" dy="0.3em" style="text-anchor: end; visibility: inherit; font-family: Roboto, sans-serif; font-size: 12px; font-weight: 200;" fill="rgb(33, 33, 33)" stroke="none" stroke-width="1px">0.14</text><text x="0" y="294.3420214311844" dx="0em" dy="0.3em" style="text-anchor: end; visibility: inherit; font-family: Roboto, sans-serif; font-size: 12px; font-weight: 200;" fill="rgb(33, 33, 33)" stroke="none" stroke-width="1px">0.16</text><text x="0" y="250.82649897469952" dx="0em" dy="0.3em" style="text-anchor: end; visibility: inherit; font-family: Roboto, sans-serif; font-size: 12px; font-weight: 200;" fill="rgb(33, 33, 33)" stroke="none" stroke-width="1px">0.18</text><text x="0" y="207.3109765182146" dx="0em" dy="0.3em" style="text-anchor: end; visibility: inherit; font-family: Roboto, sans-serif; font-size: 12px; font-weight: 200;" fill="rgb(33, 33, 33)" stroke="none" stroke-width="1px">0.2</text><text x="0" y="163.79545406172974" dx="0em" dy="0.3em" style="text-anchor: end; visibility: inherit; font-family: Roboto, sans-serif; font-size: 12px; font-weight: 200;" fill="rgb(33, 33, 33)" stroke="none" stroke-width="1px">0.22</text><text x="0" y="120.27993160524487" dx="0em" dy="0.3em" style="text-anchor: end; visibility: inherit; font-family: Roboto, sans-serif; font-size: 12px; font-weight: 200;" fill="rgb(33, 33, 33)" stroke="none" stroke-width="1px">0.24</text><text x="0" y="76.76440914876" dx="0em" dy="0.3em" style="text-anchor: end; visibility: inherit; font-family: Roboto, sans-serif; font-size: 12px; font-weight: 200;" fill="rgb(33, 33, 33)" stroke="none" stroke-width="1px">0.26</text><text x="0" y="33.248886692275065" dx="0em" dy="0.3em" style="text-anchor: end; visibility: inherit; font-family: Roboto, sans-serif; font-size: 12px; font-weight: 200;" fill="rgb(33, 33, 33)" stroke="none" stroke-width="1px">0.28</text></g><line x1="50" y1="0" x2="50" y2="377" fill="rgb(0, 0, 0)" stroke="rgb(204, 204, 204)" stroke-width="1px"></line></g></g><g transform="translate(50, 0)" clip-path="url(#clip_0)"><clipPath id="clip_0"><rect width="1448" height="377"></rect></clipPath><g><g><g><line x1="41.69327798480439" y1="0" x2="41.69327798480439" y2="377" fill="rgb(0, 0, 0)" stroke="rgb(66, 66, 66)" stroke-width="1px" opacity="0.25"></line><line x1="234.54313469871002" y1="0" x2="234.54313469871002" y2="377" fill="rgb(0, 0, 0)" stroke="rgb(66, 66, 66)" stroke-width="1px" opacity="0.25"></line><line x1="427.39299141261574" y1="0" x2="427.39299141261574" y2="377" fill="rgb(0, 0, 0)" stroke="rgb(66, 66, 66)" stroke-width="1px" opacity="0.25"></line><line x1="620.2428481265213" y1="0" x2="620.2428481265213" y2="377" fill="rgb(0, 0, 0)" stroke="rgb(66, 66, 66)" stroke-width="1px" opacity="0.25"></line><line x1="813.0927048404269" y1="0" x2="813.0927048404269" y2="377" fill="rgb(0, 0, 0)" stroke="rgb(66, 66, 66)" stroke-width="1px" opacity="0.25"></line><line x1="1005.9425615543327" y1="0" x2="1005.9425615543327" y2="377" fill="rgb(0, 0, 0)" stroke="rgb(66, 66, 66)" stroke-width="1px" opacity="0.25"></line><line x1="1198.7924182682382" y1="0" x2="1198.7924182682382" y2="377" fill="rgb(0, 0, 0)" stroke="rgb(66, 66, 66)" stroke-width="1px" opacity="0.25"></line><line x1="1391.6422749821438" y1="0" x2="1391.6422749821438" y2="377" fill="rgb(0, 0, 0)" stroke="rgb(66, 66, 66)" stroke-width="1px" opacity="0.25"></line></g><g><line x1="0" y1="337.85754388766924" x2="1448" y2="337.85754388766924" fill="rgb(0, 0, 0)" stroke="rgb(66, 66, 66)" stroke-width="1px" opacity="0.25"></line><line x1="0" y1="294.3420214311844" x2="1448" y2="294.3420214311844" fill="rgb(0, 0, 0)" stroke="rgb(66, 66, 66)" stroke-width="1px" opacity="0.25"></line><line x1="0" y1="250.82649897469952" x2="1448" y2="250.82649897469952" fill="rgb(0, 0, 0)" stroke="rgb(66, 66, 66)" stroke-width="1px" opacity="0.25"></line><line x1="0" y1="207.3109765182146" x2="1448" y2="207.3109765182146" fill="rgb(0, 0, 0)" stroke="rgb(66, 66, 66)" stroke-width="1px" opacity="0.25"></line><line x1="0" y1="163.79545406172974" x2="1448" y2="163.79545406172974" fill="rgb(0, 0, 0)" stroke="rgb(66, 66, 66)" stroke-width="1px" opacity="0.25"></line><line x1="0" y1="120.27993160524487" x2="1448" y2="120.27993160524487" fill="rgb(0, 0, 0)" stroke="rgb(66, 66, 66)" stroke-width="1px" opacity="0.25"></line><line x1="0" y1="76.76440914876" x2="1448" y2="76.76440914876" fill="rgb(0, 0, 0)" stroke="rgb(66, 66, 66)" stroke-width="1px" opacity="0.25"></line><line x1="0" y1="33.248886692275065" x2="1448" y2="33.248886692275065" fill="rgb(0, 0, 0)" stroke="rgb(66, 66, 66)" stroke-width="1px" opacity="0.25"></line></g></g></g><g><g><line x1="0" y1="642.4662010830634" x2="1448" y2="642.4662010830634" fill="rgb(0, 0, 0)" stroke="rgb(153, 153, 153)" stroke-width="1.5px"></line></g></g><g><g><line x1="234.54313469871002" y1="0" x2="234.54313469871002" y2="377" fill="rgb(0, 0, 0)" stroke="rgb(153, 153, 153)" stroke-width="1.5px"></line></g></g><g><g><g><g><g><path stroke="rgb(255, 112, 67)" stroke-width="2px" d="M236.08593355242127,148.91443283519857L236.4716332658491,169.90506226620477L238.78583154641595,203.13129567197757L240.3286304001272,222.88315732529296L240.71433011355504,234.09383354391886L241.87142925383847,242.5779596125284L242.25712896726625,247.80545347607793L242.6428286806941,251.2946067498147L243.41422810754972,254.2255831347368L243.7999278209775,256.6321396911336L244.95702696126094,259.71273810073376L245.34272667468878,261.83575407917533L247.65692495525562,264.9820728668807L248.81402409553908,267.1262631486977L249.5854235223947,269.1855147385795L250.35682294925033,270.94021980383064L253.056720943245,273.1884810193269L253.4424206566728,274.6261291396345L253.82812037010063,275.38398722756193L254.59951979695623,276.01903394271295L255.75661893723964,277.1047782674715L256.9137180775231,278.29988794524263L258.07081721780656,279.43674175649153L258.4565169312343,280.17165683444824L258.8422166446622,280.63585648351733L259.22791635808994,281.0087224182853L259.99931578494557,281.6448835341778L260.3850154983734,282.25386824622154L260.7707152118012,282.3879760892701L261.156414925229,282.1792919848037L261.9278143520846,282.37777875641416L262.3135140655125,282.496209402027L264.6277123460793,283.79407489781715L265.39911177293493,284.5899257246582L265.7848114863628,284.6212891728111L266.55621091321837,285.265571607496L267.7133100535018,286.07315487521595L269.2561089072131,286.6671212174442L269.64180862064086,286.8689667509798L273.11310604149116,288.39802704028267L273.498805754919,289.4477562714687L274.6559048952024,289.70469364154553L275.81300403548585,289.9688300992935L276.19870374891366,290.40891294236866L276.9701031757693,290.5248867589771L279.67000116976396,290.81865986451385L281.598499736903,290.94434604628685L283.14129859061427,291.6438474396016L283.5269983040421,291.8195304151224L284.2983977308977,292.41367622770645L285.0697971577533,292.8156447227272L285.45549687118114,293.502415194068L287.3839954383202,294.76256144713386L287.769695151748,295.39826134828087L290.4695931457427,296.0360323225365L291.2409925725983,296.7026302300485L291.6266922860261,296.7885793840374L292.78379142630956,295.2327382826849L295.48368942030424,296.4379173699235L296.25508884715987,297.4564244197069L296.6407885605876,298.14278564597447L297.4121879874433,298.6297685976787L298.1835874142989,297.7357431444204L300.4977856948658,298.6261891117652L300.88348540829355,298.5282616102501L301.2691851217214,299.0999494253638L302.42628426200486,300.0452255837939L302.8119839754326,300.807426600035L303.1976836888605,301.49977780528445L303.58338340228823,301.66089950803683L304.35478282914386,301.97315017075647L304.7404825425717,302.2239301684884L305.89758168285516,302.3855252570653L306.2832813962829,302.20654863584423L306.6689811097108,302.06339516422054L308.21177996342203,301.98236631985554L308.5974796768498,301.7614606801083L308.98317939027766,301.2525545024539L310.1402785305611,300.3553741100773L311.68307738427234,300.7167520487151L312.0687770977001,290.7251611316666L312.8401765245557,287.596573480421L313.2258762379835,285.8181640863947L313.6115759514114,284.64738232828586L313.99727566483915,283.7664259321451L314.7686750916948,282.0730351200603L315.5400745185504,279.67932943096196L316.311473945406,276.8393159821651L317.08287337226164,274.12715206488383L317.8542727991173,271.1958573354378L318.2399725125451,269.14575305212526L319.3970716528285,266.55998815016756L319.7827713662563,264.5228667485249L320.16847107968414,262.9501943235881L320.55417079311195,261.22315555027643L321.3255702199676,258.6724938461151L323.25406878710663,253.8943093626752L326.3396664945291,247.14964673518793L326.72536620795694,242.72028735674238L327.11106592138475,239.26323311414203L327.8824653482404,236.26305290602846L328.2681650616682,233.4198903328977L329.0395644885238,230.54889050462037L329.4252642019516,228.18798729803882L329.81096391537943,226.83993274234356L330.19666362880724,225.87822572432603L332.1251621959463,222.6247732616524L332.5108619093741,220.01695565862147L332.8965616228019,217.99467973390517L334.4393604765132,214.98733678364505L334.825060189941,212.99382235909118L335.2107599033688,211.25981357690986L335.9821593302244,208.74840183036613L339.0677570376469,204.07352443468736L339.4534567510747,200.67419352151043L340.61055589135816,196.41605036327354L341.3819553182138,193.82183059446038L342.1533547450694,191.16282199342365L342.92475417192503,188.74576294330186L343.69615359878065,186.71603696919408L344.08185331220847,185.06539908578418L344.8532527390641,183.3332103598832L345.6246521659197,181.4213024314911L346.0103518793475,179.83003375602843L346.78175130620315,178.03886035315165L348.71024987334215,174.70723750630933L349.09594958677,172.1673549471354L349.4816493001978,170.18843377599165L349.86734901362564,168.65741221158933L352.9529467210481,165.04193245028995L353.7243461479037,162.23435425253138L354.11004586133157,160.15316159291075L355.267145001615,157.9159895076616L356.80994385532625,155.05929969088317L357.5813432821819,152.60124919951903L357.96704299560963,150.90066088414378L359.12414213589307,148.73791369266564L359.8955415627487,146.68423278791232L361.82404012988775,143.80018310338124L362.59543955674343,141.35381972620846L362.9811392701712,139.47536280038105L364.90963783731024,136.77997848955707L365.29533755073805,134.82168573724107L366.0667369775937,133.10882292703886L367.22383611787717,131.31512570701582L367.99523554473274,129.45132209303912L368.38093525816055,127.85768753003644L369.9237341118718,125.83352662502062L370.6951335387275,124.06766851009198L371.0808332521553,122.75180260756714L371.46653296558304,121.66580707179983L373.0093318192943,120.0091923123188L374.5521306730056,117.90676817555108L374.93783038643335,116.36823877912961L375.32353009986116,115.36153828038017L375.70922981328897,114.46471211094843L376.09492952671684,113.44388486062307L376.4806292401446,112.42107382681154L379.1805272341393,110.21853473131169L380.3376263744227,108.1726480939684L380.7233260878505,106.6659791840313L383.808923795273,104.02648899231184L385.35172264898426,101.61243903282907L385.7374223624121,99.9439053620056L386.1231220758399,98.69723699997441L386.50882178926776,97.75125678113477L386.8945215026955,96.94616104479448L388.051620642979,95.84470715008207L389.98011921011795,94.21489612139604L390.7515186369736,92.7865828285194L392.2943174906849,91.37279942226829L392.6800172041127,90.51143105586353L394.22281605782393,89.19716859047654L394.60851577125175,88.39276343769653L394.99421548467956,87.76269288867047L396.151314624963,86.71077428029304L397.3084137652464,85.74215326169765L397.69411347867424,85.26117633452601L398.8512126189576,84.57665771225356L399.2369123323855,84.02121655788055L400.77971118609673,83.43345534667884L401.16541089952455,83.04715797741856L402.7082097532358,82.40414409906924L403.0939094666636,81.86203776747854L403.4796091800914,81.42524369642004L404.25100860694704,81.0934997396287L404.63670832037485,80.70822374841275L405.02240803380266,80.48691431726442L405.79380746065823,80.27649840173646L406.1795071740861,79.9721116643242L406.5652068875139,79.65756265352299L406.9509066009417,79.35302332496211L408.49370545465297,78.9425186000075L408.8794051680807,78.92700561647247L409.26510488150853,78.66846657410763L409.6508045949364,78.54812503122163L410.0365043083642,78.42941457574999L410.8079037352198,78.06756116318175L411.57930316207546,77.96363937319012L412.35070258893103,77.68611068585206L412.73640230235884,77.35543647527558L414.2792011560701,77.03066555690852L414.6649008694979,76.7315351701073L415.4363002963536,76.29706761126951L416.20769972320915,76.2512773793115L417.7504985769204,75.92503179726076L418.1361982903482,75.68423140555478L419.29329743063164,75.36677549967958L419.67899714405945,75.23772141762937L420.0646968574873,75.09718358420648L420.45039657091513,74.89432754845137L421.2217959977707,74.78254790239735L421.6074957111985,74.56579611469223L422.76459485148195,74.54481127327796L423.15029456490976,74.29279340522176L423.5359942783376,74.14267204983652L424.3073937051932,74.02720664674727L425.4644928454767,73.90109884066584L427.00729169918793,73.55540121216214L428.5500905528991,73.27878199181023L428.935790266327,72.98553626303759L430.09288940661037,72.9504541531687L431.2499885468938,72.87309506847105L431.6356882603216,72.65733516496239L432.0213879737494,72.5801947016558L432.4070876871773,72.48963549937366L432.79278740060505,72.55105802553939L433.17848711403286,72.51279719984036L434.33558625431624,72.3324792716639L434.7212859677441,72.2208647947772L435.1069856811719,72.0477867265108L435.49268539459973,72.03656188594253L436.64978453488317,72.07402409408192L439.3496825288779,71.9353012698663L440.5067816691613,71.91382422135537L440.89248138258915,71.89115964048528L441.6638808094447,71.80716713417476L442.04958052287253,71.81787984459247L442.43528023630034,71.65981328812587L442.8209799497281,71.62571844663371L443.20667966315597,71.48802506966621L443.9780790900116,71.49849791478381L444.74947851686716,71.31051145021263L445.52087794372284,71.28354600644492L445.90657765715065,71.16670418529219L447.0636767974341,71.15711074953512L447.8350762242897,71.12868551184393L448.99217536457314,71.08258062393693L449.37787507800095,70.98763640611419L451.69207335856777,70.86637137668893L452.07777307199564,70.75828579377655L452.46347278542345,70.82052707968269L454.0062716391347,70.84941630036451L455.1633707794181,70.82722142935813L455.93477020627375,70.81398231857203L457.09186934655713,70.73110607161003L458.6346682002684,70.62400707648058L460.1774670539796,70.60057294644753L460.56316676740744,70.51951649334757L460.9488664808353,70.55878403826908L461.7202659076909,70.48212294396382L462.49166533454655,70.50083978247369L462.87736504797437,70.44961293320127L463.2630647614021,70.49749269683497L464.03446418825774,70.47743254528767L464.8058636151134,70.57179114649205L465.1915633285412,70.46331556722807L465.577263041969,70.4332196003834L465.96296275539686,70.37918702320484L466.7343621822524,70.39558142389768L467.12006189568024,70.38508324260883L467.50576160910805,70.40365817824191L468.27716103596373,70.39153740611548L469.43426017624716,70.41930619809834L470.20565960310273,70.31764163576752L471.3627587433862,70.34119840698742L471.74845845681403,70.31097973360349L472.5198578836696,70.26530314609064L473.2912573105253,70.30191038231621L474.06265673738085,70.34031895486878L474.83405616423653,70.37223464562345L475.2197558776643,70.35149253484458L476.3768550179478,70.3427822356292L477.14825444480334,70.3251580398056L477.53395415823115,70.30760639598678L479.0767530119424,70.30794312690756L480.61955186565365,70.33509399167295L481.77665100593714,70.34596362056243L482.1623507193649,70.3460270170232L482.5480504327927,70.35646590120523L482.9337501462205,70.35907207628024L483.3194498596484,70.36732759765162L485.24794842678745,70.36789751140795L486.019347853643,70.3766171987058L486.4050475670708,70.3922239201175L486.7907472804987,70.3923283466526L487.1764469939264,70.3994459407161L487.56214670735426,70.39749155173443L488.71924584763775,70.38493245568174L489.4906452744933,70.38686410254265L492.19054326848806,70.38963120155931L493.34764240877143,70.39326269368566L495.2761409759105,70.3938853526064L495.66184068933825,70.39571143522356L496.0475404027661,70.39870050569233L497.20463954304955,70.39976770434133L497.9760389699052,70.40022646262263L498.361738683333,70.40223951485441L498.7474383967608,70.40095736802552L499.90453753704423,70.39987683265737L501.8330361041833,70.40117380688L502.60443553103886,70.40257448595547L503.37583495789454,70.40235146522504L503.76153467132235,70.40193234278833L504.5329340981779,70.40079900205855L505.6900332384614,70.4028942857869L506.07573295188917,70.40415145602398L506.84713237874485,70.40487982089364L508.3899312324561,70.4050055925445L508.7756309458839,70.4050032437171L509.54703037273947,70.40494995987554L510.70412951302296,70.40701890864982L511.47552893987853,70.40973870245165L512.632628080162,70.40841372965825L513.0183277935898,70.40943435506298L513.7897272204455,70.41142140575272L514.561126647301,70.41134270981006L514.9468263607289,70.4123329831477L515.7182257875845,70.4137312026004L516.1039255010122,70.41547793881232L516.875324927868,70.41442506146032L517.2610246412958,70.41327458959753L517.6467243547236,70.41144306648619L519.5752229218625,70.41231538533565L521.1180217755739,70.41426532663739L521.5037214890016,70.41564278959913L521.8894212024295,70.41667676555673L526.1321180501354,70.41926838384754L526.5178177635631,70.42040835846076L527.2892171904189,70.4216889004981L529.2177157575579,70.42157535845273L529.6034154709857,70.42249284958363L529.9891151844134,70.42351021516859L531.146214324697,70.42225315089362L531.5319140381247,70.4209282923319L532.6890131784082,70.42251960627242L533.8461123186917,70.42225534282531L534.2318120321195,70.42105929385377L535.003211458975,70.42270195627582L535.3889111724028,70.42376536554691L535.7746108858307,70.42479247019824L536.1603105992585,70.42610903934877L536.5460103126863,70.42749553810852L538.8602085932531,70.4263821419207L540.0173077335365,70.42242007059004L540.7887071603923,70.42401123049667L541.5601065872479,70.42621091552463L543.1029054409591,70.42823103290104L545.0314040080982,70.42744593333812L545.4171037215259,70.42840142359243L545.8028034349537,70.42931190228853L546.1885031483816,70.42957287950783L547.345602288665,70.42871791220863L550.4311999960875,70.42833461819204L550.8168997095153,70.42875307359674L551.588299136371,70.42851133866047L552.3596985632265,70.43038940496002L553.5167977035101,70.43073812656233L553.9024974169378,70.42804238499454L554.2881971303656,70.42616556732796L555.8309959840768,70.4284113221638L556.2166956975046,70.43074439142352L556.9880951243604,70.43204048388893L557.3737948377881,70.4334665711827L557.7594945512159,70.43406285083321L558.5308939780716,70.43213813863628L558.9165936914993,70.42779302679038L560.0736928317829,70.42884311511696L560.8450922586384,70.43012159992752L562.7735908257774,70.43143337353804L563.1592905392052,70.43273918315607L564.3163896794887,70.43533827800759L565.4734888197722,70.43573055765228L566.6305879600555,70.43674404361663L567.4019873869112,70.4369890133791L568.5590865271946,70.4372916188721L568.9447862406225,70.43350477946275L570.4875850943338,70.43491576852378L570.8732848077615,70.43584017377816L575.887381082323,70.43776949237771L576.2730807957508,70.4378117808164L576.6587805091787,70.43807058933285L577.4301799360344,70.4398858598879L578.2015793628899,70.43988565677255L578.9729787897455,70.44011897035665L580.130077930029,70.4410630139571L580.9014773568846,70.44077351012217L581.2871770703124,70.44114449054545L582.4442762105958,70.4393699088105L582.8299759240236,70.43967983521645L583.6013753508793,70.44092921923588L584.7584744911627,70.43854043966506L585.1441742045905,70.4369256110145L585.9155736314461,70.43873200199052L586.301273344874,70.44030864475518L587.4583724851574,70.4400615158751L589.0011713388686,70.44139166308433L589.3868710522964,70.43762479143527L590.1582704791521,70.43689496752822L590.9296699060077,70.43936204771327L592.4724687597189,70.44040136219037L592.8581684731467,70.4406099545153L593.6295679000024,70.44255071899104L594.0152676134302,70.44340393040554L594.400967326858,70.44357867271067L594.7866670402858,70.44345008264045L595.5580664671414,70.44326917950802L597.1008653208527,70.44458718762061L597.8722647477083,70.44545580430587L598.2579644611361,70.44587322522682L599.4150636014195,70.44306307961455L600.9578624551308,70.44391884496024L602.1149615954142,70.44484730052902L603.2720607356977,70.44548218568802L603.6577604491255,70.4452146849689L605.2005593028367,70.4462213618036L605.9719587296923,70.44462069973493L606.3576584431202,70.44469779339703L607.1290578699758,70.44552216777178L607.9004572968314,70.4459649178514L608.2861570102592,70.44641212880724L609.4432561505427,70.44693982810666L611.3717547176817,70.4465561413266L612.1431541445373,70.44676686289242L612.5288538579651,70.44645236219796L613.3002532848207,70.44740490177504L613.6859529982486,70.44818392370189L615.2287518519598,70.4485216504951L616.771550705671,70.44794616839353L617.5429501325267,70.44884586821648L618.3143495593823,70.43828453544509L619.085748986238,70.4415445266376L619.8571484130936,70.442644591358L620.2428481265213,70.44509430199834L621.3999472668048,70.4468235011083L621.7856469802326,70.44840570329873L622.1713466936604,70.44894002825151L622.9427461205161,70.44964968231196L624.8712446876551,70.4474039356722L625.6426441145107,70.44784615949658L626.4140435413664,70.4490711728767L626.7997432547942,70.4501174281758L627.1854429682219,70.44874801136645L629.113941535361,70.44984571945187L630.6567403890722,70.45071184248374L631.4281398159279,70.44666655632848L631.8138395293557,70.44667748825805L634.1280378099225,70.44722873013997L634.5137375233504,70.44864884071764L634.8994372367782,70.44976027979007L635.285136950206,70.44915621687694L635.6708366636337,70.45053157639214L637.213635517345,70.45086398392216L637.9850349442007,70.45025937299012L638.3707346576285,70.45096003460675L640.6849329381953,70.45096543521545L641.0706326516231,70.4515392955775L642.2277317919066,70.4499642536236L642.9991312187622,70.45127577116588L643.3848309321901,70.45120675169608L643.7705306456179,70.45173596001104L644.5419300724734,70.4526500422695L645.6990292127568,70.45296505617124L646.4704286396125,70.45336156269292L647.2418280664682,70.453288219335L647.6275277798959,70.45360733513633L648.0132274933237,70.4537728673445L648.3989272067516,70.4535609393985L648.7846269201794,70.45400440262759L649.1703266336071,70.45421860601995L650.3274257738907,70.45188308716001L650.7131254873185,70.45180457674572L651.484524914174,70.45295058503609L651.8702246276019,70.4532231936489L652.2559243410298,70.45260864063913L653.4130234813131,70.45275865428492L653.798723194741,70.4491396324931L654.1844229081688,70.4474610275971L655.7272217618801,70.45016289463877L658.4271197558746,70.45292525485742L659.1985191827304,70.45370080372082L659.9699186095859,70.44609964126569L660.3556183230137,70.44854200738992L660.7413180364416,70.45161553796447L661.8984171767249,70.45387465267048L662.6698166035807,70.45157296606L663.4412160304362,70.4530709913505L663.826915743864,70.45428105379568L664.5983151707196,70.4558889585306L666.5268137378587,70.45534933956176L667.2982131647143,70.4558296236305L667.6839128781422,70.45609185679926L668.8410120184255,70.45632700851814L669.2267117318535,70.45672747227536L669.998111158709,70.45709743689264L670.3838108721368,70.4571637920274L670.7695105855646,70.45658111056632L671.1552102989925,70.45737274168333L671.5409100124202,70.45802928126162L672.3123094392759,70.45850101682628L672.6980091527037,70.45855062271188L673.0837088661315,70.45855444897072L674.2408080064149,70.45819362290983L675.3979071466983,70.45818462545392L676.5550062869818,70.4577382933464L676.9407060004096,70.4577817413529L677.7121054272652,70.45889717560532L678.4835048541208,70.45326367891927L678.8692045675486,70.45011701636086L679.2549042809765,70.45211960971315L679.6406039944043,70.45428084481007L682.340501988399,70.45537008768758L683.1119014152546,70.45716487340766L683.8833008421102,70.45852705483821L684.6547002689658,70.45825499824804L685.0403999823936,70.45879207065373L687.3545982629605,70.45631308865819L687.7402979763883,70.45653755945128L688.5116974032439,70.4554791273883L688.8973971166718,70.45704873632005L689.2830968300996,70.4582758116775L690.8258956838108,70.45890830780176L691.5972951106664,70.45884687184235L692.3686945375221,70.45530847846804L693.1400939643777,70.45728353151145L693.5257936778055,70.45756075879723L693.9114933912333,70.45793459334928L695.0685925315167,70.45776983499177L695.4542922449446,70.45891596906118L695.8399919583724,70.45916271586898L696.611391385228,70.45982950940525L696.9970910986558,70.46064458188829L698.1541902389392,70.45962926356844L699.6969890926505,70.46060224620399L700.0826888060783,70.46128978487566L700.4683885195061,70.461935743532L701.2397879463617,70.45529431785596L702.782586800073,70.457845655141L703.1682865135008,70.4595580184202L703.5539862269286,70.46089668365862L704.711085367212,70.4611292628049L706.6395839343511,70.46160599483625L707.4109833612067,70.46209953223574L708.953782214918,70.46236971740281L710.1108813552014,70.46232433032242L710.4965810686292,70.46286771807097L712.4250796357683,70.46303812708466L713.1964790626239,70.46342568249123L713.5821787760517,70.46046793120756L713.9678784894795,70.45944546134223L714.3535782029073,70.4605438394135L714.7392779163351,70.4616178626175L715.124977629763,70.45806043838165L715.5106773431908,70.45916814291289L716.6677764834742,70.46084431926238L717.053476196902,70.46210939779783L717.4391759103298,70.46260907219325L717.8248756237576,70.46332387319191L718.5962750506133,70.46064028108113L719.3676744774689,70.46113104489388L719.7533741908967,70.46199612317835L720.9104733311801,70.46293016651035L721.2961730446079,70.46206404251744L723.6103713251748,70.46229654902672L725.153170178886,70.46295479838386L727.0816687460251,70.46360912072399L727.4673684594529,70.46382015321998L727.8530681728807,70.46405052180802L729.3958670265919,70.46382562114462L730.5529661668754,70.4609932043979L732.4814647340144,70.46238028978726L733.6385638742979,70.46054100194486L734.7956630145814,70.46161616013636L735.5670624414369,70.46296156141086L735.9527621548647,70.46312037036108L737.1098612951482,70.46129629756028L738.6526601488594,70.46053903842329L740.1954590025707,70.46280809656217L742.1239575697097,70.46419546871813L744.0524561368488,70.46424977383413L744.8238555637045,70.4646973532651L745.9809547039878,70.465380897285L746.3666544174156,70.46579102369701L747.1380538442713,70.46621866045231L749.8379518382659,70.46471150796984L753.3092492591162,70.46528564101749L753.694948972544,70.46524106175744L754.4663483993997,70.4421301416031L754.8520481128276,70.4442409494212L756.0091472531109,70.45326267861424L756.3948469665387,70.45885727703804L757.1662463933943,70.46244747154562L758.7090452471057,70.46429034097915L759.4804446739612,70.46594074536354L761.0232435276725,70.4663863052699L761.4089432411004,70.46610895848954L761.7946429545282,70.4663575467826L762.180342667956,70.46715513157307L762.5660423813837,70.46758180790218L764.1088412350949,70.46586658098327L764.4945409485229,70.46628993209652L765.2659403753785,70.46708862548887L765.6516400888063,70.46772346515966L767.1944389425174,70.46813030623471L769.1229375096566,70.4680891008814L769.5086372230843,70.46855718584838L771.0514360767955,70.4637283941299L772.2085352170791,70.46573326361687L773.7513340707902,70.46636556531226L776.0655323513572,70.46760087632471L781.0796286259186,70.46595583385457L781.4653283393465,70.46587661291288L783.0081271930577,70.46681469670605L786.8651243273358,70.46602880880765L787.2508240407636,70.46698382606061L788.7936228944749,70.46830901731734L789.5650223213306,70.46933756752458L789.9507220347583,70.46985094855857L790.3364217481861,70.47010710263385L790.7221214616139,70.47033860689672L791.8792206018973,70.4695437676415L792.6506200287529,70.4676662513689L793.0363197421807,70.46786254250698L793.8077191690364,70.46906968263836L794.579118595892,70.46911959763008L794.9648183093198,70.46847517753791L795.7362177361754,70.46946320092944L796.1219174496032,70.46881102588046L796.507617163031,70.46896440357527L796.8933168764588,70.46941955200835L797.2790165898867,70.46875889925525L797.6647163033145,70.46929624941639L798.0504160167424,70.46977428314854L798.4361157301701,70.47034641338617L799.2075151570257,70.47035250698526L801.9074131510204,70.4704339749625L803.0645122913038,70.47027535756813L803.4502120047316,70.4690389471379L804.2216114315873,70.47008677268792L806.5358097121541,70.47006703620335L806.9215094255819,70.47002925704005L808.4643082792932,70.4703178368131L809.2357077061488,70.46989442740741L809.6214074195766,70.47005537812535L810.77850655986,70.4702297603738L811.164206273288,70.4699972051794L812.7070051269991,70.47016891933373L813.0927048404269,70.47060913236993L813.4784045538547,70.47123638200777L814.2498039807103,70.47119773542907L816.949701974705,70.47174516747877L817.3354016881328,70.4721255012538L817.7211014015606,70.47009715880411L818.4925008284164,70.46945077333106L819.2639002552719,70.47012637022317L819.6495999686997,70.47042797926801L822.3494979626943,70.46721116198664L824.2779965298334,70.46906791341483L826.5921948104003,70.47028571336206L827.7492939506838,70.46909703515931L828.1349936641116,70.46957694277654L829.2920928043949,70.47030582098073L831.9919907983898,70.47079502244844L833.1490899386731,70.47181478696135L833.5347896521009,70.47245258294156L833.9204893655287,70.47024153327153L835.4632882192401,70.46694367075334L837.391786786379,70.46952991321677L838.5488859266625,70.4713669686933L838.9345856400904,70.47125015016792L839.7059850669458,70.47239911086405L840.4773844938015,70.47311442455425L840.8630842072293,70.47372517367648L841.2487839206572,70.47199070407068L841.634483634085,70.46879722868279L842.7915827743683,70.47079767161007L843.562982201224,70.4718163764583L844.3343816280797,70.47276478391085L844.7200813415075,70.47323007929202L845.1057810549353,70.47273113834329L846.2628801952186,70.47328770376927L848.1913787623578,70.47297321121033L850.1198773294967,70.47242139385874L850.5055770429246,70.47279060980756L850.8912767563525,70.4730121393768L852.4340756100637,70.4730413080281L852.8197753234914,70.47342193103495L853.2054750369192,70.47352061847623L855.905373030914,70.47389107821195L856.2910727443417,70.47406147950817L857.0624721711973,70.4743193439215L857.4481718846253,70.47434437620647L858.2195713114809,70.4747743919388L860.5337695920476,70.47402084774748L861.3051690189034,70.47307591305366L862.076568445759,70.47367612950364L862.4622681591868,70.47401032210098L864.0050670128979,70.47325115857385L865.5478658666093,70.47232878955109L865.9335655800371,70.47299441994879L866.3192652934649,70.4737569200036L867.4763644337482,70.47377348640255L867.8620641471762,70.47406873624031L869.7905627143151,70.46721688527307L870.1762624277429,70.4654401292253L870.9476618545986,70.46847216466456L871.7190612814543,70.47083606865235L872.1047609948821,70.47235816013539L872.4904607083099,70.47345297593327L872.8761604217377,70.4742395517749L873.6475598485932,70.47414087728302L874.4189592754489,70.47387417440726L875.9617581291602,70.47405133722532L876.7331575560157,70.47467638036785L877.5045569828713,70.4746882844372L878.6616561231549,70.47487698778689L879.0473558365827,70.475534892521L880.5901546902938,70.47548870172758L881.7472538305774,70.4756166108869L882.518653257433,70.47488930093249L882.9043529708608,70.47240387042578L883.6757523977163,70.47368790028821L884.8328515379998,70.47347270184751L885.2185512514277,70.4739401400525L885.6042509648555,70.47479122297234L885.9899506782833,70.47467937818215L887.9184492454223,70.47510507948718L888.3041489588501,70.47442675845713L888.689848672278,70.47287852584554L889.4612480991336,70.47381706990448L890.2326475259891,70.47453581997542L890.618347239417,70.4749670700179L891.3897466662726,70.47566675367727L892.1611460931282,70.46656758483526L893.3182452334117,70.46990081893544L894.0896446602673,70.4723157557569L894.4753443736951,70.47381659239488L894.8610440871229,70.47492459255831L895.2467438005507,70.47553751811124L897.5609420811176,70.47572371253491L897.9466417945454,70.47635417464083L899.1037409348288,70.47566902372843L899.4894406482567,70.47588042772304L899.8751403616845,70.4760332073923L900.2608400751124,70.4763323733746L902.1893386422513,70.47609687660267L905.2749363496738,70.47660401035397L905.6606360631016,70.47701203969501L907.203434916813,70.4757784327625L907.9748343436685,70.46738677319132L909.1319334839519,70.47091107740073L909.5176331973797,70.4730515971989L909.9033329108076,70.4744655954408L910.2890326242355,70.4753918062036L911.060432051091,70.47524722630155L911.4461317645188,70.47596453381044L912.6032309048022,70.47644679286097L914.5317294719413,70.47694364647188L914.9174291853691,70.47617833046246L915.6888286122247,70.47678256903285L916.8459277525083,70.4749404440055L919.5458257465028,70.4761954607941L919.9315254599306,70.47689659632206L920.3172251733586,70.4770319676405L921.4743243136419,70.47737256315736L923.0171231673531,70.47708411228844L923.402822880781,70.47735197540092L923.7885225942089,70.47733113236035L924.9456217344922,70.47773362289736L925.33132144792,70.4779491799469L926.1027208747756,70.4780525769041L926.8741203016313,70.47731055962836L927.645519728487,70.47686534926297L929.1883185821981,70.47714290576798L929.9597180090537,70.47391165696266L930.3454177224816,70.46997573769063L932.2739162896206,70.47015603884041L933.0453157164762,70.47272826042563L934.5881145701874,70.4745309661026L936.1309134238987,70.47594977405232L936.5166131373265,70.47454451610754L938.0594119910377,70.47536134678593L939.2165111313212,70.4749436406526L939.602210844749,70.4761714415098L940.3736102716047,70.47716749475003L940.7593099850325,70.47626076488424L941.530709411888,70.47649484514221L941.9164091253158,70.47702435238585L942.3021088387437,70.47752361764005L943.0735082655993,70.47727849406832L943.4592079790272,70.47259239722335L943.844907692455,70.46539734004999L946.1591059730218,70.4706252220563L946.5448056864496,70.47389163762296L946.9305053998775,70.47535867878398L947.3162051133053,70.47626484075312L947.7019048267331,70.47701603611529L948.8590039670164,70.47710363151637L949.6304033938721,70.47770087148132L952.3303013878667,70.4774885954634L953.8731002415781,70.47775028894141L954.2587999550059,70.477673869575L954.6444996684337,70.47742051977455L955.0301993818614,70.47815037716204L956.5729982355728,70.47817329523318L956.9586979490006,70.47839454425646L957.7300973758562,70.47588169186716L958.115797089284,70.47624146405943L958.8871965161395,70.4766388882829L960.0442956564231,70.47742202554116L961.2013947967065,70.47389756791841L961.5870945101343,70.47458411878375L962.3584939369898,70.47647447384018L963.1298933638456,70.47750493778365L963.9012927907012,70.47833071433028L965.8297913578401,70.47643995118078L967.3725902115515,70.47763984782355L968.5296893518349,70.47851540944464L970.0724882055462,70.47885918550926L970.8438876324018,70.47937669841897L971.2295873458296,70.4791684607132L971.6152870592574,70.47925101627035L972.7723861995407,70.47865211779018L974.7008847666799,70.47878558688106L977.0150830472468,70.47344477836593L977.4007827606746,70.47394932323606L977.7864824741024,70.47388892834195L978.9435816143857,70.47626485775567L980.1006807546692,70.47789791358461L981.2577798949527,70.47867024890124L981.6434796083805,70.47928927372678L982.8005787486638,70.4802313086189L983.1862784620916,70.47892904592814L983.5719781755195,70.47889986921868L983.9576778889473,70.47958266955266L985.1147770292308,70.47994047520793L985.8861764560863,70.48044046859938L987.0432755963698,70.48053296645375L987.4289753097976,70.47576413246614L988.2003747366533,70.47700092114151L989.3574738769366,70.47849517525151L990.9002727306479,70.47850986044982L991.2859724440758,70.47950428792687L991.6716721575036,70.48010094441308L992.0573718709314,70.48030331466938L992.4430715843592,70.4807100468216L993.2144710112148,70.48095408611283L993.6001707246426,70.48146363150389L993.9858704380704,70.48023905965604L994.3715701514982,70.47955619109254L996.6857684320651,70.48023583540291L997.4571678589207,70.48069549653424L998.2285672857764,70.47918162140483L998.6142669992042,70.47980359540962L998.999966712632,70.4804620898108L999.3856664260597,70.480649688271L999.7713661394876,70.48102162007294L1000.5427655663432,70.48108915551849L1001.3141649931988,70.48110373951332L1001.6998647066267,70.48144967445377L1002.85696384691,70.47934881815821L1003.2426635603379,70.47933329346482L1004.3997627006213,70.47984272410046L1007.099660694616,70.4782290243107L1012.4994566826055,70.47591206626255L1012.8851563960333,70.47711561869193L1014.4279552497444,70.47897899014319L1014.8136549631722,70.47960420483489L1015.1993546766,70.48023870637576L1015.9707541034558,70.48072315639048L1016.3564538168836,70.48132507367033L1017.1278532437391,70.48160841222057L1018.2849523840225,70.48164872898768L1018.6706520974503,70.48167291904805L1019.4420515243061,70.48166149581166L1019.8277512377337,70.48168057914243L1020.2134509511616,70.48112140914407L1021.7562498048728,70.48164183714027L1022.1419495183006,70.48161690939435L1022.9133489451564,70.48160195274686L1023.299048658584,70.48130766876001L1024.4561477988675,70.48167578109211L1024.8418475122953,70.48132602849452L1025.2275472257231,70.48077899239239L1027.1560457928622,70.48138451254411L1027.54174550629,70.48135876554633L1027.9274452197178,70.48155081552837L1028.3131449331456,70.48176979460793L1032.1701420674237,70.48195305660091L1032.5558417808516,70.48190739016108L1033.3272412077072,70.48024594212453L1034.8700400614184,70.48114249420111L1036.4128389151297,70.47786764637752L1036.7985386285575,70.47629179677202L1038.7270371956965,70.47877000698958L1039.4984366225522,70.47934912857981L1039.88413633598,70.47855536154023L1040.6555357628356,70.47857190949564L1041.0412354762634,70.47948964280921L1041.4269351896912,70.4801959064329L1042.9697340434025,70.48087903733298L1043.3554337568303,70.481288915873L1043.741133470258,70.48158671754216L1044.126833183686,70.48166164945329L1044.8982326105415,70.48214754223385L1046.055331750825,70.48184252063284L1046.4410314642528,70.4818410685803L1046.8267311776806,70.48220331916495L1047.2124308911084,70.48231692042543L1048.3695300313918,70.47154330124229L1048.7552297448196,70.47449435967962L1050.298028598531,70.47776935655196L1050.6837283119587,70.47978622922041L1052.22652716567,70.4805813564603L1052.6122268790978,70.48113624462196L1053.3836263059534,70.48178042478986L1053.7693260193812,70.48216693289066L1054.155025732809,70.4820875904801L1054.9264251596646,70.48255873048541L1055.3121248730924,70.48297110085151L1058.0120228670871,70.47561890220459L1058.397722580515,70.47839220752185L1058.7834222939427,70.48041931252821L1059.9405214342262,70.48103901826262L1061.4833202879374,70.4812033435227L1063.7975185685043,70.48246911594497L1064.183218281932,70.48291733212724L1065.7260171356434,70.48316032456407L1066.1117168490712,70.4833320572987L1067.6545157027824,70.48302010057814L1068.0402154162102,70.48153606291682L1068.425915129638,70.48246124940076L1068.8116148430659,70.48267917674751L1071.5115128370605,70.48319899224434L1073.0543116907718,70.47868654884215L1073.8257111176274,70.47618658098148L1074.2114108310552,70.47779907297482L1076.91130882505,70.48032280452574L1077.6827082519055,70.48204454163707L1078.4541076787611,70.48289602299585L1079.2255071056168,70.4825769190884L1081.1540056727558,70.48342294764718L1083.082504239895,70.48359338023907L1083.8539036667505,70.48398094979244L1084.2396033801783,70.48398005607127L1084.625303093606,70.48390170802081L1085.7824022338896,70.4836731382825L1086.939501374173,70.48402880461859L1087.7109008010286,70.48387908260406L1088.0966005144562,70.48334831576139L1088.867999941312,70.4839376601963L1089.2536996547399,70.48426532958456L1089.6393993681677,70.48451380576263L1091.5678979353065,70.4847147660147L1091.9535976487346,70.48480940489335L1092.3392973621624,70.48432150549627L1093.110696789018,70.48465126040001L1093.8820962158736,70.48458974061649L1096.1962944964405,70.48452689147378L1097.353393636724,70.48454105653333L1098.5104927770071,70.48405674739001L1099.6675919172908,70.48376616190403L1100.4389913441464,70.48400680697377L1101.5960904844299,70.48415119401557L1104.2959884784245,70.48441938714869L1105.4530876187077,70.48416530666722L1105.8387873321356,70.48432410564932L1108.1529856127027,70.48460094594668L1108.924385039558,70.48427424194604L1109.3100847529859,70.47256207051906L1112.0099827469805,70.47749185032333L1112.7813821738362,70.48055346729626L1114.3241810275476,70.48249418657043L1114.7098807409754,70.48384017904291L1115.8669798812587,70.4801087518246L1116.2526795946865,70.4817345491084L1118.5668778752536,70.48330658474801L1118.9525775886812,70.48424980613179L1119.338277302109,70.48473792714427L1122.0381752961039,70.48513454884211L1123.966673863243,70.48487971368168L1124.3523735766707,70.48231464623531L1124.7380732900986,70.48243559121279L1125.5094727169542,70.48362346092024L1126.2808721438096,70.48337650365914L1127.823670997521,70.48405832202516L1128.2093707109489,70.48431178940925L1129.366469851232,70.4828816962123L1131.2949684183714,70.4836058139216L1132.8377672720824,70.48429965727301" style="fill: none;" fill="none"></path></g></g></g></g><g opacity="0.2"><g><g><g><path stroke="rgb(255, 112, 67)" stroke-width="2px" d="M236.08593355242127,148.91443283519857L236.4716332658491,182.49943992480846L238.78583154641595,235.02847974151945L240.3286304001272,246.11134662959176L240.71433011355504,248.73049241495679L241.87142925383847,254.31456025080018L242.25712896726625,255.28085334085537L242.6428286806941,256.3818257187944L243.41422810754972,258.5482039896439L243.7999278209775,260.2055957076556L244.95702696126094,264.30569491429094L245.34272667468878,265.0087246876354L247.65692495525562,269.69127777169797L248.81402409553908,270.3383478794459L249.5854235223947,272.2719715504596L250.35682294925033,273.5710398477463L253.056720943245,276.5599214537726L253.4424206566728,276.782236301394L253.82812037010063,276.52065890740107L254.59951979695623,276.97154596965436L255.75661893723964,278.73333520981004L256.9137180775231,280.0925131363063L258.07081721780656,281.1420000281693L258.4565169312343,281.2740207456135L258.8422166446622,281.33215265778864L259.22791635808994,281.5680197303343L259.99931578494557,282.5991235802546L260.3850154983734,283.16734437935236L260.7707152118012,282.5891377303105L261.156414925229,281.86626594344057L261.9278143520846,282.67550884800966L262.3135140655125,282.67385534688253L264.6277123460793,285.74087298656315L265.39911177293493,285.78370190791475L265.7848114863628,284.6683343436925L266.55621091321837,286.2319952429098L267.7133100535018,287.2845297643013L269.2561089072131,287.55807072527284L269.64180862064086,287.1717350501588L273.11310604149116,290.6916174691272L273.498805754919,291.0223501161428L274.6559048952024,290.0900996963519L275.81300403548585,290.3650347857248L276.19870374891366,291.069037206791L276.9701031757693,290.6988474838595L279.67000116976396,291.25931952277324L281.598499736903,291.1328753189343L283.14129859061427,292.6930995295344L283.5269983040421,292.08305487839766L284.2983977308977,293.3048949465704L285.0697971577533,293.4185974652533L285.45549687118114,294.53257090107417L287.3839954383202,296.65278082672705L287.769695151748,296.35181119999976L290.4695931457427,296.9926887839187L291.2409925725983,297.70252709131597L291.6266922860261,296.9175031150207L292.78379142630956,292.89897663065676L295.48368942030424,298.24568600078095L296.25508884715987,298.9841849943818L296.6407885605876,299.17232748537594L297.4121879874433,299.360243025235L298.1835874142989,296.39470496453276L300.4977856948658,299.9618580627825L300.88348540829355,298.38137035797735L301.2691851217214,299.95748114803416L302.42628426200486,301.4631398214392L302.8119839754326,301.9507281243965L303.1976836888605,302.53830461315874L303.58338340228823,301.90258206216555L304.35478282914386,302.4415261648359L304.7404825425717,302.6001001650862L305.89758168285516,302.62791788993076L306.2832813962829,301.9380837040126L306.6689811097108,301.848664956785L308.21177996342203,301.86082305330797L308.5974796768498,301.4301022204874L308.98317939027766,300.4891952359722L310.1402785305611,299.0096035215124L311.68307738427234,301.2588189566718L312.0687770977001,275.7377747560938L312.8401765245557,282.9036920035528L313.2258762379835,283.1505499953553L313.6115759514114,282.8912096911226L313.99727566483915,282.4449913379341L314.7686750916948,279.53294890193297L315.5400745185504,276.08877089731436L316.311473945406,272.5792958089697L317.08287337226164,270.05890618896194L317.8542727991173,266.79891524126873L318.2399725125451,266.0705966271565L319.3970716528285,262.68134079723103L319.7827713662563,261.4671846460608L320.16847107968414,260.5911856861829L320.55417079311195,258.63259739030866L321.3255702199676,254.8465012898733L323.25406878710663,246.72703263751515L326.3396664945291,237.0326527939571L326.72536620795694,236.076248289074L327.11106592138475,234.07765175024153L327.8824653482404,231.7627825938581L328.2681650616682,229.1551464732015L329.0395644885238,226.24239076220437L329.4252642019516,224.64663248816643L329.81096391537943,224.81785090880064L330.19666362880724,224.43566519729978L332.1251621959463,217.74459456764203L332.5108619093741,216.105229254075L332.8965616228019,214.96126584683074L334.4393604765132,210.47632235825492L334.825060189941,210.00355072226026L335.2107599033688,208.65880040363794L335.9821593302244,204.98128421055043L339.0677570376469,197.06120834116902L339.4534567510747,195.57519715174513L340.61055589135816,190.02883562591833L341.3819553182138,189.9305009412405L342.1533547450694,187.17430909186857L342.92475417192503,185.12017436811917L343.69615359878065,183.6714480080324L344.08185331220847,182.58944226066922L344.8532527390641,180.7349272710317L345.6246521659197,178.55344053890295L346.0103518793475,177.44313074283434L346.78175130620315,175.35210024883654L348.71024987334215,169.70980323604581L349.09594958677,168.35753110837462L349.4816493001978,167.22005201927595L349.86734901362564,166.36087986498586L352.9529467210481,159.61871280834083L353.7243461479037,158.02298695589363L354.11004586133157,157.0313726034799L355.267145001615,154.56023137978792L356.80994385532625,150.77426496571547L357.5813432821819,148.91417346247272L357.96704299560963,148.3497784110809L359.12414213589307,145.4937929054484L359.8955415627487,143.6037114307823L361.82404012988775,139.47410857658454L362.59543955674343,137.68427466044926L362.9811392701712,136.6576774116401L364.90963783731024,132.73690202332094L365.29533755073805,131.88424660876714L366.0667369775937,130.53952871173556L367.22383611787717,128.62457987698116L367.99523554473274,126.65561667207405L368.38093525816055,125.46723568553253L369.9237341118718,122.79728526749685L370.6951335387275,121.41888133769893L371.0808332521553,120.77800375377998L371.46653296558304,120.0368137681488L373.0093318192943,117.52427017309722L374.5521306730056,114.75313197039968L374.93783038643335,114.06044468449747L375.32353009986116,113.85148753225597L375.70922981328897,113.11947285680078L376.09492952671684,111.91264398513508L376.4806292401446,110.88685727609415L379.1805272341393,106.91472608806194L380.3376263744227,105.10381813795347L380.7233260878505,104.4059758191255L383.808923795273,100.06725370473262L385.35172264898426,97.99136409360476L385.7374223624121,97.44110485577036L386.1231220758399,96.82723445692777L386.50882178926776,96.33228645287518L386.8945215026955,95.7385174402839L388.051620642979,94.19252630801334L389.98011921011795,91.77017957836686L390.7515186369736,90.64411288920445L392.2943174906849,89.25212431289155L392.6800172041127,89.21937850625635L394.22281605782393,87.22577489239598L394.60851577125175,87.18615570852647L394.99421548467956,86.81758706513135L396.151314624963,85.13289636772673L397.3084137652464,84.28922173380452L397.69411347867424,84.53971094376854L398.8512126189576,83.54987977884487L399.2369123323855,83.18805482632118L400.77971118609673,82.55181352987628L401.16541089952455,82.46771192352806L402.7082097532358,81.4396232815454L403.0939094666636,81.04887827009243L403.4796091800914,80.77005258983225L404.25100860694704,80.5958838044418L404.63670832037485,80.13030976158872L405.02240803380266,80.15495017054197L405.79380746065823,79.96087452844459L406.1795071740861,79.51553155820574L406.5652068875139,79.18573913732126L406.9509066009417,78.89621433212083L408.49370545465297,78.32676151257552L408.8794051680807,78.90373614116973L409.26510488150853,78.28065801056039L409.6508045949364,78.36761271689271L410.0365043083642,78.25134889254234L410.8079037352198,77.52478104432946L411.57930316207546,77.80775668820283L412.35070258893103,77.26981765484503L412.73640230235884,76.85942515941088L414.2792011560701,76.54350917935795L414.6649008694979,76.28283958990541L415.4363002963536,75.64536627301287L416.20769972320915,76.18259203137464L417.7504985769204,75.43566342418461L418.1361982903482,75.3230308179958L419.29329743063164,74.89059164086669L419.67899714405945,75.04414029455414L420.0646968574873,74.88637683407204L420.45039657091513,74.59004349481879L421.2217959977707,74.61487843331638L421.6074957111985,74.24066843313463L422.76459485148195,74.51333401115649L423.15029456490976,73.91476660313748L423.5359942783376,73.91749001675862L424.3073937051932,73.85400854211336L425.4644928454767,73.71193713154354L427.00729169918793,73.03685476940659L428.5500905528991,72.86385316128239L428.935790266327,72.5456676698785L430.09288940661037,72.89783098836527L431.2499885468938,72.75705644142458L431.6356882603216,72.3336953096993L432.0213879737494,72.46448400669578L432.4070876871773,72.35379669595059L432.79278740060505,72.64319181478808L433.17848711403286,72.45540596129196L434.33558625431624,72.06200237939926L434.7212859677441,72.05344307944705L435.1069856811719,71.78816962411116L435.49268539459973,72.01972462509002L436.64978453488317,72.1302174062908L439.3496825288779,71.72721703354266L440.5067816691613,71.88160864858905L440.89248138258915,71.8571627691802L441.6638808094447,71.68117837470898L442.04958052287253,71.833948910219L442.43528023630034,71.42271345342594L442.8209799497281,71.57457618439557L443.20667966315597,71.28148500421507L443.9780790900116,71.51420718246017L444.74947851686716,71.02853175335578L445.52087794372284,71.2430978407932L445.90657765715065,70.99144145356303L447.0636767974341,71.14272059589956L447.8350762242897,71.08604765530713L448.99217536457314,71.01342329207657L449.37787507800095,70.84522007938007L451.69207335856777,70.68447383255099L452.07777307199564,70.59615741940812L452.46347278542345,70.91388900854183L454.0062716391347,70.8927501313872L455.1633707794181,70.7939291228485L455.93477020627375,70.79412365239287L457.09186934655713,70.60679170116687L458.6346682002684,70.46335858378652L460.1774670539796,70.56542175139806L460.56316676740744,70.39793181369755L460.9488664808353,70.61768535565146L461.7202659076909,70.36713130250601L462.49166533454655,70.52891504023842L462.87736504797437,70.37277265929268L463.2630647614021,70.56931234228539L464.03446418825774,70.44734231796696L464.8058636151134,70.71332904829887L465.1915633285412,70.30060219833233L465.577263041969,70.38807565011626L465.96296275539686,70.29813815743701L466.7343621822524,70.42017302493693L467.12006189568024,70.36933597067552L467.50576160910805,70.4315205816917L468.27716103596373,70.37335624792578L469.43426017624716,70.46095938607269L470.20565960310273,70.16514479227105L471.3627587433862,70.37653356381713L471.74845845681403,70.26565172352761L472.5198578836696,70.19678826482149L473.2912573105253,70.35682123665455L474.06265673738085,70.39793181369755L474.83405616423653,70.4201081817555L475.2197558776643,70.32037936867634L476.3768550179478,70.32971678680602L477.14825444480334,70.29872174607011L477.53395415823115,70.2812789302585L479.0767530119424,70.30844822328848L480.61955186565365,70.3758202888211L481.77665100593714,70.36226806389685L482.1623507193649,70.34612211171432L482.5480504327927,70.37212422747814L482.9337501462205,70.36298133889288L483.3194498596484,70.37971087970847L485.24794842678745,70.36875238204243L486.019347853643,70.38969672965268L486.4050475670708,70.41563400223502L486.7907472804987,70.3924849864553L487.1764469939264,70.41012233181128L487.56214670735426,70.39455996826185L488.71924584763775,70.36609381160274L489.4906452744933,70.38976157283412L492.19054326848806,70.39378185008438L493.34764240877143,70.39870993187502L495.2761409759105,70.3948193409877L495.66184068933825,70.39845055914921L496.0475404027661,70.40318411139549L497.20463954304955,70.40136850231471L497.9760389699052,70.40091460004453L498.361738683333,70.40525909320208L498.7474383967608,70.39903414778232L499.90453753704423,70.39825602960485L501.8330361041833,70.40311926821404L502.60443553103886,70.40467550456898L503.37583495789454,70.40201693412929L503.76153467132235,70.40130365913326L504.5329340981779,70.39909899096375L505.6900332384614,70.40603721137954L506.07573295188917,70.40603721137954L506.84713237874485,70.4059723681981L508.3899312324561,70.40519425002064L508.7756309458839,70.40499972047627L509.54703037273947,70.40487003411334L510.70412951302296,70.41012233181128L511.47552893987853,70.41381839315424L512.632628080162,70.40642627046827L513.0183277935898,70.4109652931702L513.7897272204455,70.41440198178734L514.561126647301,70.41122466589603L514.9468263607289,70.41381839315424L515.7182257875845,70.41582853177938L516.1039255010122,70.41809804313034L516.875324927868,70.4128457454324L517.2610246412958,70.41154888180328L517.6467243547236,70.40869578181923L519.5752229218625,70.41362386360987L521.1180217755739,70.41719023858995L521.5037214890016,70.41770898404161L521.8894212024295,70.41822772949327L526.1321180501354,70.4231558112839L526.5178177635631,70.42211832038059L527.2892171904189,70.42360971355409L529.2177157575579,70.42140504538457L529.6034154709857,70.4238690862799L529.9891151844134,70.42503626354613L531.146214324697,70.4203675544813L531.5319140381247,70.41894100448926L532.6890131784082,70.42490657718321L533.8461123186917,70.42185894765478L534.2318120321195,70.41926522039654L535.003211458975,70.42516594990902L535.3889111724028,70.42536047945339L535.7746108858307,70.42633312717521L536.1603105992585,70.42808389307456L536.5460103126863,70.42957528624804L538.8602085932531,70.42471204763883L540.0173077335365,70.41647696359392L540.7887071603923,70.4263979703567L541.5601065872479,70.42951044306656L543.1029054409591,70.43126120896589L545.0314040080982,70.42626828399378L545.4171037215259,70.42983465897385L545.8028034349537,70.43067762033276L546.1885031483816,70.42996434533677L547.345602288665,70.42743546125998L550.4311999960875,70.42775967716726L550.8168997095153,70.42938075670368L551.588299136371,70.42814873625599L552.3596985632265,70.43320650440957L553.5167977035101,70.43126120896589L553.9024974169378,70.42399877264282L554.2881971303656,70.42335034082828L555.8309959840768,70.43177995441752L556.2166956975046,70.43424399531284L556.9880951243604,70.43398462258703L557.3737948377881,70.4356057021234L557.7594945512159,70.43495727030886L558.5308939780716,70.42925107034075L558.9165936914993,70.42127535902169L560.0736928317829,70.43041824760695L560.8450922586384,70.43203932714336L562.7735908257774,70.43340103395393L563.1592905392052,70.43469789758305L564.3163896794887,70.43923692028497L565.4734888197722,70.43631897711943L566.6305879600555,70.43826427256313L567.4019873869112,70.43735646802274L568.5590865271946,70.43774552711147L568.9447862406225,70.42782452034871L570.4875850943338,70.43703225211544L570.8732848077615,70.43722678165982L575.887381082323,70.44066347027697L576.2730807957508,70.43787521347436L576.6587805091787,70.43845880210749L577.4301799360344,70.44260876572068L578.2015793628899,70.43988535209951L578.9729787897455,70.4404689407326L580.130077930029,70.44247907935775L580.9014773568846,70.44033925436972L581.2871770703124,70.44170096118029L582.4442762105958,70.43670803620816L582.8299759240236,70.44014472482532L583.6013753508793,70.44280329526504L584.7584744911627,70.43495727030886L585.1441742045905,70.43450336803869L585.9155736314461,70.44144158845444L586.301273344874,70.44267360890211L587.4583724851574,70.43969082255514L589.0011713388686,70.44338688389814L589.3868710522964,70.43197448396188L590.1582704791521,70.43580023166781L590.9296699060077,70.44306266799084L592.4724687597189,70.4419603339061L592.8581684731467,70.44092284300282L593.6295679000024,70.44546186570473L594.0152676134302,70.44468374752722L594.400967326858,70.44384078616831L594.7866670402858,70.44325719753522L595.5580664671414,70.44299782480941L597.1008653208527,70.44656419978945L597.8722647477083,70.44675872933381L598.2579644611361,70.446499356608L599.4150636014195,70.43884786119622L600.9578624551308,70.44520249297888L602.1149615954142,70.4462399838822L603.2720607356977,70.44643451342657L603.6577604491255,70.44481343389015L605.2005593028367,70.44773137705569L605.9719587296923,70.4422197066319L606.3576584431202,70.44481343389015L607.1290578699758,70.44675872933381L607.9004572968314,70.44662904297093L608.2861570102592,70.4470829452411L609.4432561505427,70.44773137705569L611.3717547176817,70.44598061115634L612.1431541445373,70.4470829452411L612.5288538579651,70.44598061115634L613.3002532848207,70.4488337111404L613.6859529982486,70.44935245659205L615.2287518519598,70.44902824068477L616.771550705671,70.4470829452411L617.5429501325267,70.45019541795101L618.3143495593823,70.42244253628789L619.085748986238,70.44643451342657L619.8571484130936,70.44429468843849L620.2428481265213,70.44876886795896L621.3999472668048,70.44941729977354L621.7856469802326,70.4507790065841L622.1713466936604,70.44974151568078L622.9427461205161,70.45071416340262L624.8712446876551,70.44403531571268L625.6426441145107,70.44850949523315L626.4140435413664,70.45090869294698L626.7997432547942,70.45168681112445L627.1854429682219,70.44669388615237L629.113941535361,70.45149228158009L630.6567403890722,70.45201102703174L631.4281398159279,70.44059862709553L631.8138395293557,70.44669388615237L634.1280378099225,70.44805559296293L634.5137375233504,70.4507790065841L634.8994372367782,70.45142743839864L635.285136950206,70.4482501225073L635.6708366636337,70.45259461566485L637.213635517345,70.4513625952172L637.9850349442007,70.44935245659205L638.3707346576285,70.45201102703174L640.6849329381953,70.45097353612847L641.0706326516231,70.45240008612048L642.2277317919066,70.44760169069276L642.9991312187622,70.45324304747943L643.3848309321901,70.45110322249135L643.7705306456179,70.4525297724834L644.5419300724734,70.4540211656569L645.6990292127568,70.45343757702379L646.4704286396125,70.4539563224754L647.2418280664682,70.45317820429794L647.6275277798959,70.45408600883833L648.0132274933237,70.4540211656569L648.3989272067516,70.45324304747943L648.7846269201794,70.45466959747144L649.1703266336071,70.45453991110855L650.3274257738907,70.44837980887023L650.7131254873185,70.45168681112445L651.484524914174,70.45466959747144L651.8702246276019,70.45363210656816L652.2559243410298,70.45168681112445L653.4130234813131,70.45298367475358L653.798723194741,70.44371109980538L654.1844229081688,70.44494312025307L655.7272217618801,70.45421569520126L658.4271197558746,70.45706879518531L659.1985191827304,70.4548641270158L659.9699186095859,70.43469789758305L660.3556183230137,70.4522055565761L660.7413180364416,70.45622583382637L661.8984171767249,70.45726332472968L662.6698166035807,70.44812043614442L663.4412160304362,70.45531802928602L663.826915743864,70.45609614746348L664.5983151707196,70.45830081563295L666.5268137378587,70.45453991110855L667.2982131647143,70.45655004973365L667.6839128781422,70.45648520655222L668.8410120184255,70.45667973609658L669.2267117318535,70.45732816791111L669.998111158709,70.45765238381841L670.3838108721368,70.45726332472968L670.7695105855646,70.45570708837475L671.1552102989925,70.4585601883588L671.5409100124202,70.45901409062897L672.3123094392759,70.45920862017334L672.6980091527037,70.45862503154024L673.0837088661315,70.4585601883588L674.2408080064149,70.45765238381841L675.3979071466983,70.45817112927007L676.5550062869818,70.45706879518531L676.9407060004096,70.45784691336277L677.7121054272652,70.46057032698391L678.4835048541208,70.44481343389015L678.8692045675486,70.44539702252324L679.2549042809765,70.45512349974165L679.6406039944043,70.45752269745549L682.340501988399,70.45700395200387L683.1119014152546,70.45985705198792L683.8833008421102,70.46057032698391L684.6547002689658,70.45784691336277L685.0403999823936,70.45959767926207L687.3545982629605,70.45259461566485L687.7402979763883,70.45687426564095L688.5116974032439,70.45389147929397L688.8973971166718,70.45940314971772L689.2830968300996,70.46011642471373L690.8258956838108,70.45985705198792L691.5972951106664,70.45875471790316L692.3686945375221,70.45000088840663L693.1400939643777,70.46024611107666L693.5257936778055,70.4579765997257L693.9114933912333,70.45849534517731L695.0685925315167,70.45752269745549L695.4542922449446,70.46063517016539L695.8399919583724,70.45953283608063L696.611391385228,70.46082969970976L696.9970910986558,70.46186719061303L698.1541902389392,70.45810628608858L699.6969890926505,70.4620617201574L700.0826888060783,70.46232109288324L700.4683885195061,70.46290468151635L701.2397879463617,70.4453321793418L702.782586800073,70.46167266106866L703.1682865135008,70.46212656333888L703.5539862269286,70.46290468151635L704.711085367212,70.4614781315243L706.6395839343511,70.46232109288324L707.4109833612067,70.46283983833486L708.953782214918,70.46277499515342L710.1108813552014,70.46225624970177L710.4965810686292,70.46368279969381L712.4250796357683,70.46329374060508L713.1964790626239,70.4640070156011L713.5821787760517,70.45603130428199L713.9678784894795,70.45791175654422L714.3535782029073,70.46219140652032L714.7392779163351,70.46322889742363L715.124977629763,70.45272430202778L715.5106773431908,70.46082969970976L716.6677764834742,70.46335858378652L717.053476196902,70.4640070156011L717.4391759103298,70.46335858378652L717.8248756237576,70.46439607468983L718.5962750506133,70.45661489291514L719.3676744774689,70.46186719061303L719.7533741908967,70.46329374060508L720.9104733311801,70.46433123150835L721.2961730446079,70.46076485652827L723.6103713251748,70.4626453087905L725.153170178886,70.46394217241962L727.0816687460251,70.4645906042342L727.4673684594529,70.46413670196398L727.8530681728807,70.46439607468983L729.3958670265919,70.46348827014944L730.5529661668754,70.45674457927802L732.4814647340144,70.46446091787128L733.6385638742979,70.45778207018134L734.7956630145814,70.46322889742363L735.5670624414369,70.46497966332294L735.9527621548647,70.46335858378652L737.1098612951482,70.4585601883588L738.6526601488594,70.45940314971772L740.1954590025707,70.46621168377058L742.1239575697097,70.46627652695206L744.0524561368488,70.46433123150835L744.8238555637045,70.46536872241167L745.9809547039878,70.46640621331494L746.3666544174156,70.46640621331494L747.1380538442713,70.46686011558516L749.8379518382659,70.46245077924613L753.3092492591162,70.46614684058913L753.694948972544,70.4651741928673L754.4663483993997,70.40746376137159L754.8520481128276,70.44740716114839L756.0091472531109,70.46679527240367L756.3948469665387,70.4672491746739L757.1662463933943,70.46783276330699L758.7090452471057,70.46705464512952L759.4804446739612,70.46841635194009L761.0232435276725,70.46705464512952L761.4089432411004,70.46569293831895L761.7946429545282,70.46673042922224L762.180342667956,70.46835150875864L762.5660423813837,70.46822182239572L764.1088412350949,70.46329374060508L764.4945409485229,70.4669249587666L765.2659403753785,70.46828666557717L765.6516400888063,70.4686757246659L767.1944389425174,70.46874056784738L769.1229375096566,70.46802729285136L769.5086372230843,70.46925931329899L771.0514360767955,70.45648520655222L772.2085352170791,70.46874056784738L773.7513340707902,70.46731401785533L776.0655323513572,70.46945384284336L781.0796286259186,70.46348827014944L781.4653283393465,70.4657577815004L783.0081271930577,70.46822182239572L786.8651243273358,70.46484997696001L787.2508240407636,70.46841635194009L788.7936228944749,70.4702968042023L789.5650223213306,70.47088039283541L789.9507220347583,70.4706210201096L790.3364217481861,70.47049133374668L790.7221214616139,70.47068586329104L791.8792206018973,70.46835150875864L792.6506200287529,70.46484997696001L793.0363197421807,70.46815697921429L793.8077191690364,70.47088039283541L794.579118595892,70.46919447011756L794.9648183093198,70.4675085473997L795.7362177361754,70.47094523601685L796.1219174496032,70.46783276330699L796.507617163031,70.46919447011756L796.8933168764588,70.47010227465795L797.2790165898867,70.46776792012555L797.6647163033145,70.47010227465795L798.0504160167424,70.47049133374668L798.4361157301701,70.4712046087427L799.2075151570257,70.47036164738375L801.9074131510204,70.47055617692811L803.0645122913038,70.4700374314765L803.4502120047316,70.4671843314924L804.2216114315873,70.47165851101288L806.5358097121541,70.4700374314765L806.9215094255819,70.46997258829502L808.4643082792932,70.47075070647249L809.2357077061488,70.46925931329899L809.6214074195766,70.4702968042023L810.77850655986,70.47049133374668L811.164206273288,70.46964837238772L812.7070051269991,70.47042649056523L813.0927048404269,70.47126945192414L813.4784045538547,70.47217725646453L814.2498039807103,70.47113976556122L816.949701974705,70.47256631555327L817.3354016881328,70.47269600191619L817.7211014015606,70.46705464512952L818.4925008284164,70.46848119512153L819.2639002552719,70.47113976556122L819.6495999686997,70.47088039283541L822.3494979626943,70.46238593606469L824.2779965298334,70.47185304055724L826.5921948104003,70.47211241328304L827.7492939506838,70.46731401785533L828.1349936641116,70.4702968042023L829.2920928043949,70.47139913828707L831.9919907983898,70.47152882464995L833.1490899386731,70.47334443373073L833.5347896521009,70.47340927691218L833.9204893655287,70.4669249587666L835.4632882192401,70.46199687697596L837.391786786379,70.47340927691218L838.5488859266625,70.4741225519082L838.9345856400904,70.47107492237977L839.7059850669458,70.4741225519082L840.4773844938015,70.47418739508964L840.8630842072293,70.47464129735985L841.2487839206572,70.46938899966192L841.634483634085,70.4640070156011L842.7915827743683,70.47379833600091L843.562982201224,70.47334443373073L844.3343816280797,70.47418739508964L844.7200813415075,70.47392802236384L845.1057810549353,70.47198272692016L846.2628801952186,70.4741225519082L848.1913787623578,70.47250147237182L850.1198773294967,70.47159366783143L850.5055770429246,70.47334443373073L850.8912767563525,70.47334443373073L852.4340756100637,70.47308506100492L852.8197753234914,70.47399286554527L853.2054750369192,70.47366864963803L855.905373030914,70.4744467678155L856.2910727443417,70.47431708145257L857.0624721711973,70.4747061405413L857.4481718846253,70.474381924634L858.2195713114809,70.47541941553732L860.5337695920476,70.47289053146055L861.3051690189034,70.47165851101288L862.076568445759,70.47457645417842L862.4622681591868,70.47451161099693L864.0050670128979,70.47211241328304L865.5478658666093,70.47094523601685L865.9335655800371,70.47399286554527L866.3192652934649,70.47490067008566L867.4763644337482,70.47379833600091L867.8620641471762,70.47451161099693L869.7905627143151,70.45693910882238L870.1762624277429,70.46277499515342L870.9476618545986,70.47302021782343L871.7190612814543,70.474381924634L872.1047609948821,70.47464129735985L872.4904607083099,70.47509519963003L872.8761604217377,70.47541941553732L873.6475598485932,70.47399286554527L874.4189592754489,70.47347412009366L875.9617581291602,70.47431708145257L876.7331575560157,70.47561394508169L877.5045569828713,70.4747061405413L878.6616561231549,70.47516004281151L879.0473558365827,70.47652174962208L880.5901546902938,70.47541941553732L881.7472538305774,70.47580847462605L882.518653257433,70.47379833600091L882.9043529708608,70.4686757246659L883.6757523977163,70.47561394508169L884.8328515379998,70.47314990418636L885.2185512514277,70.47464129735985L885.6042509648555,70.47606784735186L885.9899506782833,70.47451161099693L887.9184492454223,70.47574363144462L888.3041489588501,70.47340927691218L888.689848672278,70.47055617692811L889.4612480991336,70.47522488599296L890.2326475259891,70.47561394508169L890.618347239417,70.47561394508169L891.3897466662726,70.47671627916644L892.1611460931282,70.45291883157213L893.3182452334117,70.47490067008566L894.0896446602673,70.47593816098897L894.4753443736951,70.47606784735186L894.8610440871229,70.47658659280351L895.2467438005507,70.47645690644059L897.5609420811176,70.47600300417042L897.9466417945454,70.47729986779954L899.1037409348288,70.47464129735985L899.4894406482567,70.47619753371478L899.8751403616845,70.47626237689623L900.2608400751124,70.47678112234789L902.1893386422513,70.47574363144462L905.2749363496738,70.47736471098098L905.6606360631016,70.47762408370683L907.203434916813,70.47392802236384L907.9748343436685,70.45479928383436L909.1319334839519,70.47619753371478L909.5176331973797,70.47626237689623L909.9033329108076,70.47658659280351L910.2890326242355,70.47678112234789L911.060432051091,70.47503035644858L911.4461317645188,70.47704049507374L912.6032309048022,70.47717018143662L914.5317294719413,70.47768892688828L914.9174291853691,70.47503035644858L915.6888286122247,70.47768892688828L916.8459277525083,70.47217725646453L919.5458257465028,70.47807798597701L919.9315254599306,70.47794829961408L920.3172251733586,70.4772350246181L921.4743243136419,70.47788345643264L923.0171231673531,70.47665143598496L923.402822880781,70.47775377006971L923.7885225942089,70.47729986779954L924.9456217344922,70.47833735870282L925.33132144792,70.47827251552137L926.1027208747756,70.47820767233993L926.8741203016313,70.47619753371478L927.645519728487,70.47619753371478L929.1883185821981,70.47755924052535L929.9597180090537,70.46906478375463L930.3454177224816,70.46407185878255L932.2739162896206,70.47042649056523L933.0453157164762,70.47658659280351L934.5881145701874,70.4772350246181L936.1309134238987,70.47807798597701L936.5166131373265,70.47243662919034L938.0594119910377,70.47658659280351L939.2165111313212,70.47431708145257L939.602210844749,70.47801314279556L940.3736102716047,70.4786615746101L940.7593099850325,70.47490067008566L941.530709411888,70.47684596552936L941.9164091253158,70.4778186132512L942.3021088387437,70.47827251552137L943.0735082655993,70.47691080871081L943.4592079790272,70.46556325195603L943.844907692455,70.45460475428999L946.1591059730218,70.47846704506574L946.5448056864496,70.47879126097303L946.9305053998775,70.47755924052535L947.3162051133053,70.47762408370683L947.7019048267331,70.47814282915844L948.8590039670164,70.4772350246181L949.6304033938721,70.47859673142867L952.3303013878667,70.47717018143662L953.8731002415781,70.47814282915844L954.2587999550059,70.47755924052535L954.6444996684337,70.47704049507374L955.0301993818614,70.4792451632432L956.5729982355728,70.47820767233993L956.9586979490006,70.47872641779155L957.7300973758562,70.47211241328304L958.115797089284,70.47678112234789L958.8871965161395,70.4772350246181L960.0442956564231,70.47859673142867L961.2013947967065,70.46861088148445L961.5870945101343,70.47561394508169L962.3584939369898,70.47931000642468L963.1298933638456,70.47905063369883L963.9012927907012,70.47956937915049L965.8297913578401,70.47360380645654L967.3725902115515,70.47943969278757L968.5296893518349,70.4798287518763L970.0724882055462,70.47937484960613L970.8438876324018,70.4801529677836L971.2295873458296,70.47885610415447L971.6152870592574,70.47937484960613L972.7723861995407,70.47775377006971L974.7008847666799,70.4789857905174L977.0150830472468,70.4654335655931L977.4007827606746,70.4747061405413L977.7864824741024,70.47379833600091L978.9435816143857,70.4798287518763L980.1006807546692,70.48034749732797L981.2577798949527,70.4798287518763L981.6434796083805,70.48021781096504L982.8005787486638,70.48164436095709L983.1862784620916,70.47697565189225L983.5719781755195,70.47885610415447L983.9576778889473,70.48060687005378L985.1147770292308,70.48047718369088L985.8861764560863,70.48119045868687L987.0432755963698,70.48067171323525L987.4289753097976,70.46861088148445L988.2003747366533,70.47885610415447L989.3574738769366,70.4807365564167L990.9002727306479,70.47853188824718L991.2859724440758,70.48099592914251L991.6716721575036,70.48099592914251L992.0573718709314,70.48060687005378L992.4430715843592,70.48132014504979L993.2144710112148,70.48132014504979L993.6001707246426,70.48222794959018L993.9858704380704,70.4784022018843L994.3715701514982,70.47853188824718L996.6857684320651,70.48125530186836L997.4571678589207,70.48138498823128L998.2285672857764,70.47691080871081L998.6142669992042,70.4807365564167L998.999966712632,70.48144983141272L999.3856664260597,70.48093108596106L999.7713661394876,70.48157951777564L1000.5427655663432,70.48119045868687L1001.3141649931988,70.48112561550543L1001.6998647066267,70.48196857686438L1002.85696384691,70.47619753371478L1003.2426635603379,70.47931000642468L1004.3997627006213,70.48060687005378L1007.099660694616,70.47580847462605L1012.4994566826055,70.47243662919034L1012.8851563960333,70.47892094733591L1014.4279552497444,70.48177404732002L1014.8136549631722,70.48054202687233L1015.1993546766,70.48119045868687L1015.9707541034558,70.48144983141272L1016.3564538168836,70.48222794959018L1017.1278532437391,70.48203342004582L1018.2849523840225,70.48170920413853L1018.6706520974503,70.48170920413853L1019.4420515243061,70.48164436095709L1019.8277512377337,70.48170920413853L1020.2134509511616,70.48028265414652L1021.7562498048728,70.48242247913456L1022.1419495183006,70.48157951777564L1022.9133489451564,70.48157951777564L1023.299048658584,70.48086624277963L1024.4561477988675,70.48222794959018L1024.8418475122953,70.48080139959814L1025.2275472257231,70.47995843823922L1027.1560457928622,70.48229279277163L1027.54174550629,70.48132014504979L1027.9274452197178,70.48183889050145L1028.3131449331456,70.48209826322726L1032.1701420674237,70.48222794959018L1032.5558417808516,70.48183889050145L1033.3272412077072,70.47775377006971L1034.8700400614184,70.48248732231599L1036.4128389151297,70.472955374642L1036.7985386285575,70.47392802236384L1038.7270371956965,70.48248732231599L1039.4984366225522,70.48021781096504L1039.88413633598,70.47736471098098L1040.6555357628356,70.47859673142867L1041.0412354762634,70.48086624277963L1041.4269351896912,70.48125530186836L1042.9697340434025,70.4819037336829L1043.3554337568303,70.4819037336829L1043.741133470258,70.48203342004582L1044.126833183686,70.48177404732002L1044.8982326105415,70.48287638140472L1046.055331750825,70.48138498823128L1046.4410314642528,70.48183889050145L1046.8267311776806,70.48274669504184L1047.2124308911084,70.48248732231599L1048.3695300313918,70.45538287246745L1048.7552297448196,70.47892094733591L1050.298028598531,70.48268185186036L1050.6837283119587,70.48281153822329L1052.22652716567,70.48177404732002L1052.6122268790978,70.48196857686438L1053.3836263059534,70.48274669504184L1053.7693260193812,70.48274669504184L1054.155025732809,70.48196857686438L1054.9264251596646,70.48326544049345L1055.3121248730924,70.48358965640075L1058.0120228670871,70.4645906042342L1058.397722580515,70.48255216549748L1058.7834222939427,70.48345997003783L1059.9405214342262,70.48196857686438L1061.4833202879374,70.48144983141272L1063.7975185685043,70.48436777457822L1064.183218281932,70.48358965640075L1065.7260171356434,70.4835248132193L1066.1117168490712,70.48358965640075L1067.6545157027824,70.48255216549748L1068.0402154162102,70.47931000642468L1068.425915129638,70.4838490291266L1068.8116148430659,70.48300606776765L1071.5115128370605,70.48397871548949L1073.0543116907718,70.47191788373868L1073.8257111176274,70.47243662919034L1074.2114108310552,70.48021781096504L1076.91130882505,70.48410840185241L1077.6827082519055,70.48462714730407L1078.4541076787611,70.48417324503384L1079.2255071056168,70.48209826322726L1081.1540056727558,70.4846919904855L1083.082504239895,70.4838490291266L1083.8539036667505,70.48456230412258L1084.2396033801783,70.48397871548949L1084.625303093606,70.48378418594511L1085.7824022338896,70.48333028367495L1086.939501374173,70.48456230412258L1087.7109008010286,70.48365449958223L1088.0966005144562,70.48255216549748L1088.867999941312,70.48482167684843L1089.2536996547399,70.48475683366695L1089.6393993681677,70.48488652002987L1091.5678979353065,70.4850162063928L1091.9535976487346,70.48495136321131L1092.3392973621624,70.48358965640075L1093.110696789018,70.48514589275568L1093.8820962158736,70.48449746094114L1096.1962944964405,70.4844326177597L1097.353393636724,70.48456230412258L1098.5104927770071,70.48333028367495L1099.6675919172908,70.48333028367495L1100.4389913441464,70.48436777457822L1101.5960904844299,70.48436777457822L1104.2959884784245,70.48482167684843L1105.4530876187077,70.48378418594511L1105.8387873321356,70.48456230412258L1108.1529856127027,70.4850162063928L1108.924385039558,70.48378418594511L1109.3100847529859,70.45499381337872L1112.0099827469805,70.48488652002987L1112.7813821738362,70.48514589275568L1114.3241810275476,70.48540526548153L1114.7098807409754,70.4858591677517L1115.8669798812587,70.47451161099693L1116.2526795946865,70.48417324503384L1118.5668778752536,70.48566463820734L1118.9525775886812,70.48566463820734L1119.338277302109,70.48547010866297L1122.0381752961039,70.48572948138877L1123.966673863243,70.48449746094114L1124.3523735766707,70.47846704506574L1124.7380732900986,70.48261700867891L1125.5094727169542,70.48540526548153L1126.2808721438096,70.48300606776765L1127.823670997521,70.48508104957423L1128.2093707109489,70.4846919904855L1129.366469851232,70.4807365564167L1131.2949684183714,70.4846919904855L1132.8377672720824,70.48534042230004" style="fill: none;" fill="none"></path></g></g></g></g></g><g><g><span fill="rgb(0, 0, 0)" stroke="none" stroke-width="1px">Alt + Scroll to Zoom</span></g></g></g><g transform="translate(50, 377)" clip-path="url(#clip_1)"><clipPath id="clip_1"><rect width="1448" height="23"></rect></clipPath><g><g><line x1="41.69327798480439" y1="0" x2="41.69327798480439" y2="5" style="visibility: inherit;" fill="rgb(0, 0, 0)" stroke="rgb(204, 204, 204)" stroke-width="1px"></line><line x1="234.54313469871002" y1="0" x2="234.54313469871002" y2="5" style="visibility: inherit;" fill="rgb(0, 0, 0)" stroke="rgb(204, 204, 204)" stroke-width="1px"></line><line x1="427.39299141261574" y1="0" x2="427.39299141261574" y2="5" style="visibility: inherit;" fill="rgb(0, 0, 0)" stroke="rgb(204, 204, 204)" stroke-width="1px"></line><line x1="620.2428481265213" y1="0" x2="620.2428481265213" y2="5" style="visibility: inherit;" fill="rgb(0, 0, 0)" stroke="rgb(204, 204, 204)" stroke-width="1px"></line><line x1="813.0927048404269" y1="0" x2="813.0927048404269" y2="5" style="visibility: inherit;" fill="rgb(0, 0, 0)" stroke="rgb(204, 204, 204)" stroke-width="1px"></line><line x1="1005.9425615543327" y1="0" x2="1005.9425615543327" y2="5" style="visibility: inherit;" fill="rgb(0, 0, 0)" stroke="rgb(204, 204, 204)" stroke-width="1px"></line><line x1="1198.7924182682382" y1="0" x2="1198.7924182682382" y2="5" style="visibility: inherit;" fill="rgb(0, 0, 0)" stroke="rgb(204, 204, 204)" stroke-width="1px"></line><line x1="1391.6422749821438" y1="0" x2="1391.6422749821438" y2="5" style="visibility: inherit;" fill="rgb(0, 0, 0)" stroke="rgb(204, 204, 204)" stroke-width="1px"></line></g><g transform="translate(0, 8)"><text x="41.69327798480439" y="0" dx="0em" dy="0.95em" style="text-anchor: middle; visibility: inherit; font-family: Roboto, sans-serif; font-size: 12px; font-weight: 200;" fill="rgb(33, 33, 33)" stroke="none" stroke-width="1px">-500</text><text x="234.54313469871002" y="0" dx="0em" dy="0.95em" style="text-anchor: middle; visibility: inherit; font-family: Roboto, sans-serif; font-size: 12px; font-weight: 200;" fill="rgb(33, 33, 33)" stroke="none" stroke-width="1px">0</text><text x="427.39299141261574" y="0" dx="0em" dy="0.95em" style="text-anchor: middle; visibility: inherit; font-family: Roboto, sans-serif; font-size: 12px; font-weight: 200;" fill="rgb(33, 33, 33)" stroke="none" stroke-width="1px">500</text><text x="620.2428481265213" y="0" dx="0em" dy="0.95em" style="text-anchor: middle; visibility: inherit; font-family: Roboto, sans-serif; font-size: 12px; font-weight: 200;" fill="rgb(33, 33, 33)" stroke="none" stroke-width="1px">1k</text><text x="813.0927048404269" y="0" dx="0em" dy="0.95em" style="text-anchor: middle; visibility: inherit; font-family: Roboto, sans-serif; font-size: 12px; font-weight: 200;" fill="rgb(33, 33, 33)" stroke="none" stroke-width="1px">1.5k</text><text x="1005.9425615543327" y="0" dx="0em" dy="0.95em" style="text-anchor: middle; visibility: inherit; font-family: Roboto, sans-serif; font-size: 12px; font-weight: 200;" fill="rgb(33, 33, 33)" stroke="none" stroke-width="1px">2k</text><text x="1198.7924182682382" y="0" dx="0em" dy="0.95em" style="text-anchor: middle; visibility: inherit; font-family: Roboto, sans-serif; font-size: 12px; font-weight: 200;" fill="rgb(33, 33, 33)" stroke="none" stroke-width="1px">2.5k</text><text x="1391.6422749821438" y="0" dx="0em" dy="0.95em" style="text-anchor: middle; visibility: inherit; font-family: Roboto, sans-serif; font-size: 12px; font-weight: 200;" fill="rgb(33, 33, 33)" stroke="none" stroke-width="1px">3k</text></g><line x1="0" y1="0" x2="1448" y2="0" fill="rgb(0, 0, 0)" stroke="rgb(204, 204, 204)" stroke-width="1px"></line></g></g></g></g></svg>